<?xml version="1.0" encoding="utf-8"?>
<!-- Generator: Adobe Illustrator 18.0.0, SVG Export Plug-In . SVG Version: 6.00 Build 0)  -->
<!DOCTYPE svg PUBLIC "-//W3C//DTD SVG 1.1//EN" "http://www.w3.org/Graphics/SVG/1.1/DTD/svg11.dtd">
<svg version="1.1" id="Layer_1" xmlns="http://www.w3.org/2000/svg" xmlns:xlink="http://www.w3.org/1999/xlink" x="0px" y="0px"
	 viewBox="0 0 180 111" enable-background="new 0 0 180 111" xml:space="preserve">
<linearGradient id="SVGID_1_" gradientUnits="userSpaceOnUse" x1="-91.2523" y1="369.7735" x2="24.7208" y2="369.7735" gradientTransform="matrix(1.5466 0 0 -1.5466 141.5745 627.476)">
	<stop  offset="0" style="stop-color:#333333"/>
	<stop  offset="1" style="stop-color:#333333"/>
</linearGradient>
<path fill="url(#SVGID_1_)" d="M151.4,45.4l-6.5-6.7c-0.8-0.8-2.2-0.8-2.9,0l0,0l-21.5,21.5l-8.4-8.4c-0.8-0.8-2.2-0.8-2.9,0l0,0
	l-6.7,6.5c-0.8,0.8-0.8,2.2,0,2.9l0,0l16.4,16.5c0.8,0.8,2.2,0.8,2.9,0l0,0l29.5-29.5C152.2,47.6,152.2,46.2,151.4,45.4z
	 M179.7,59.1c-1.7,28.5-27.5,51.7-56.1,51.7H55.6C24,110.8-1.4,84.3,0.6,52.2C2.2,23.7,28,0.4,56.7,0.4h67.9
	C156.2,0.4,181.7,27,179.7,59.1z M166.6,56.2c0-23-18.7-41.8-41.8-41.8S83,33.2,83,56.2S101.8,98,124.8,98S166.6,79.3,166.6,56.2z
	 M144.9,38.7c-0.8-0.8-2.2-0.8-2.9,0l0,0l-21.5,21.5l-8.4-8.4c-0.8-0.8-2.2-0.8-2.9,0l0,0l-6.7,6.5c-0.8,0.8-0.8,2.2,0,2.9l0,0
	l16.4,16.5c0.8,0.8,2.2,0.8,2.9,0l0,0l29.5-29.5c0.8-0.8,0.8-2.2,0-2.9L144.9,38.7z"/>
</svg>
	