<?xml version="1.0" encoding="iso-8859-1"?>
<!-- Generator: Adobe Illustrator 19.0.0, SVG Export Plug-In . SVG Version: 6.00 Build 0)  -->
<svg xmlns="http://www.w3.org/2000/svg" xmlns:xlink="http://www.w3.org/1999/xlink" version="1.1" id="Capa_1" x="0px" y="0px" viewBox="0 0 480 480" style="enable-background:new 0 0 480 480;" xml:space="preserve" width="512px" height="512px">
<g>
	<g>
		<path d="M264,328c4.416,0,8-3.576,8-8v-32c0-3.504-2.272-6.592-5.616-7.632l-128-40c-1.552-0.488-3.216-0.488-4.776,0l-128,40    C2.272,281.408,0,284.496,0,288v32c0,4.424,3.584,8,8,8h8v104H8c-4.416,0-8,3.576-8,8v32c0,4.424,3.584,8,8,8h256    c4.416,0,8-3.576,8-8v-32c0-4.424-3.584-8-8-8h-8V328H264z M256,464H16v-16h8h32h32h32h32h32h32h32h8V464z M32,432V328h16v104H32z     M64,432V328h16v104H64z M96,432V328h16v104H96z M128,432V328h16v104H128z M160,432V328h16v104H160z M192,432V328h16v104H192z     M224,432V328h16v104H224z M248,312h-32h-32h-32h-32H88H56H24h-8v-18.12l120-37.504l120,37.504V312H248z" fill="#404040"/>
	</g>
</g>
<g>
	<g>
		<rect x="128" y="280" width="16" height="16" fill="#404040"/>
	</g>
</g>
<g>
	<g>
		<path d="M456,0H328c-13.232,0-24,10.768-24,24v208c0,13.232,10.768,24,24,24h128c13.232,0,24-10.768,24-24V24    C480,10.768,469.232,0,456,0z M464,232c0,4.416-3.592,8-8,8H328c-4.408,0-8-3.584-8-8v-16h144V232z M464,200H320V56h144V200z     M464,40H320V24c0-4.416,3.592-8,8-8h128c4.408,0,8,3.584,8,8V40z" fill="#404040"/>
	</g>
</g>
<g>
	<g>
		<path d="M434.344,90.344L400,124.688l-18.344-18.344c-3.128-3.128-8.184-3.128-11.312,0l-32,32l11.312,11.312L376,123.312    l18.344,18.344c3.128,3.128,8.184,3.128,11.312,0l40-40L434.344,90.344z" fill="#404040"/>
	</g>
</g>
<g>
	<g>
		<rect x="272" y="72" width="16" height="16" fill="#404040"/>
	</g>
</g>
<g>
	<g>
		<rect x="240" y="72" width="16" height="16" fill="#404040"/>
	</g>
</g>
<g>
	<g>
		<rect x="208" y="72" width="16" height="16" fill="#404040"/>
	</g>
</g>
<g>
	<g>
		<rect x="176" y="72" width="16" height="16" fill="#404040"/>
	</g>
</g>
<g>
	<g>
		<rect x="144" y="72" width="16" height="16" fill="#404040"/>
	</g>
</g>
<g>
	<g>
		<rect x="112" y="72" width="16" height="16" fill="#404040"/>
	</g>
</g>
<g>
	<g>
		<rect x="80" y="72" width="16" height="16" fill="#404040"/>
	</g>
</g>
<g>
	<g>
		<rect x="48" y="72" width="16" height="16" fill="#404040"/>
	</g>
</g>
<g>
	<g>
		<rect x="48" y="104" width="16" height="16" fill="#404040"/>
	</g>
</g>
<g>
	<g>
		<rect x="48" y="136" width="16" height="16" fill="#404040"/>
	</g>
</g>
<g>
	<g>
		<rect x="48" y="168" width="16" height="16" fill="#404040"/>
	</g>
</g>
<g>
	<g>
		<rect x="48" y="200" width="16" height="16" fill="#404040"/>
	</g>
</g>
<g>
	<g>
		<rect x="48" y="232" width="16" height="16" fill="#404040"/>
	</g>
</g>
<g>
	<g>
		<rect x="272" y="400" width="16" height="16" fill="#404040"/>
	</g>
</g>
<g>
	<g>
		<rect x="304" y="400" width="16" height="16" fill="#404040"/>
	</g>
</g>
<g>
	<g>
		<rect x="336" y="400" width="16" height="16" fill="#404040"/>
	</g>
</g>
<g>
	<g>
		<rect x="368" y="400" width="16" height="16" fill="#404040"/>
	</g>
</g>
<g>
	<g>
		<rect x="400" y="400" width="16" height="16" fill="#404040"/>
	</g>
</g>
<g>
	<g>
		<rect x="432" y="400" width="16" height="16" fill="#404040"/>
	</g>
</g>
<g>
	<g>
		<rect x="432" y="368" width="16" height="16" fill="#404040"/>
	</g>
</g>
<g>
	<g>
		<rect x="432" y="336" width="16" height="16" fill="#404040"/>
	</g>
</g>
<g>
	<g>
		<rect x="432" y="304" width="16" height="16" fill="#404040"/>
	</g>
</g>
<g>
	<g>
		<rect x="432" y="272" width="16" height="16" fill="#404040"/>
	</g>
</g>
<g>
</g>
<g>
</g>
<g>
</g>
<g>
</g>
<g>
</g>
<g>
</g>
<g>
</g>
<g>
</g>
<g>
</g>
<g>
</g>
<g>
</g>
<g>
</g>
<g>
</g>
<g>
</g>
<g>
</g>
</svg>
