<svg id="Layer_1" data-name="Layer 1" xmlns="http://www.w3.org/2000/svg" viewBox="0 0 30 30"><defs><style>.cls-1{fill:#fff;}.cls-2{fill:#44649a;}.cls-3{fill:#99d2f3;}.cls-4{fill:#b4e2e9;}</style></defs><title>bus</title><rect class="cls-1" x="25.26" y="11.25" width="2.97" height="4.99"/><circle class="cls-2" cx="23" cy="20.99" r="0.5"/><polygon class="cls-3" points="28.5 16.24 28.5 8.99 0.54 8.99 0.54 16.49 28.5 16.24"/><path class="cls-4" d="M4.26,22H.54v-5.5H29.43V22H25.26s.83-3.27-2-3.27S20.37,22,20.37,22H8.81s.6-3.5-2.31-3.5S4.26,22,4.26,22Z"/><rect class="cls-1" x="3.7" y="11.25" width="2.97" height="1.64"/><rect class="cls-1" x="9.26" y="11.25" width="2.97" height="1.64"/><rect class="cls-1" x="14.76" y="11.25" width="2.97" height="1.64"/><rect class="cls-1" x="20.26" y="11.25" width="2.97" height="4.99"/><path class="cls-2" d="M29.5,16H29V9.49a1,1,0,0,0-.57-.9,4,4,0,0,0-1.05-.1H1.69a4.37,4.37,0,0,0-1.08.08A1,1,0,0,0,0,9.49v12a1,1,0,0,0,1,1H3.91A3,3,0,0,0,8,23.59a2.91,2.91,0,0,0,1.1-1.1H20.41a3,3,0,0,0,4.08,1.1,2.91,2.91,0,0,0,1.1-1.1H29a1,1,0,0,0,1-1v-5A.5.5,0,0,0,29.5,16ZM1,9.49H28v1H25.5a1,1,0,0,0-1,1V16h-1v-4.5a1,1,0,0,0-1-1H21a1,1,0,0,0-1,1V16H1Zm27,2V16H25.5v-4.5Zm-5.5,0V16H21v-4.5ZM6.5,23a2,2,0,1,1,2-2A2,2,0,0,1,6.5,23ZM23,23a2,2,0,1,1,2-2A2,2,0,0,1,23,23Zm4-1.5H26A3,3,0,0,0,23.53,18,3.07,3.07,0,0,0,23,18a3,3,0,0,0-3,3,2.38,2.38,0,0,0,.05.53H9.45a3,3,0,0,0-5.9-1,2.6,2.6,0,0,0,0,1H1V17H27Zm2,0H28V17h1Z"/><circle class="cls-2" cx="6.5" cy="20.99" r="0.5"/><path class="cls-2" d="M17.5,10.49H15a1,1,0,0,0-1,1v1a1,1,0,0,0,1,1h2.5a1,1,0,0,0,1-1v-1A1,1,0,0,0,17.5,10.49Zm0,2H15v-1h2.5Z"/><path class="cls-2" d="M12,10.49H9.5a1,1,0,0,0-1,1v1a1,1,0,0,0,1,1H12a1,1,0,0,0,1-1v-1A1,1,0,0,0,12,10.49Zm0,2H9.5v-1H12Z"/><path class="cls-2" d="M6.5,10.49H4a1,1,0,0,0-1,1v1a1,1,0,0,0,1,1H6.5a1,1,0,0,0,1-1v-1A1,1,0,0,0,6.5,10.49Zm0,2H4v-1H6.5Z"/></svg>