<svg id="Layer_1" data-name="Layer 1" xmlns="http://www.w3.org/2000/svg" viewBox="0 0 30 30"><defs><style>.cls-1{fill:#99d2f3;}.cls-2{fill:#44649a;}.cls-3{fill:#fff;}</style></defs><title>door</title><g id="door"><path class="cls-1" d="M6.22,24.12V6.28A1.56,1.56,0,0,1,7.78,4.72h5.54a3.86,3.86,0,0,1,1.93.53l.24.14a9.76,9.76,0,0,1,1.94,1.5l6.33,6.3a1.53,1.53,0,0,1,.46,1.1v4.38a1,1,0,0,1-.11.45.6.6,0,0,1-.38.28,8.45,8.45,0,0,0-6,5.8.59.59,0,0,1-.33.39h0a.84.84,0,0,1-.35.07H7.78A1.55,1.55,0,0,1,6.22,24.12Z"/><path class="cls-2" d="M7.78,26.2a2.09,2.09,0,0,1-2.09-2.08V6.28A2.09,2.09,0,0,1,7.78,4.2h5.54a4.32,4.32,0,0,1,2.19.6l.25.14a10.41,10.41,0,0,1,2,1.58l6.33,6.3a2.07,2.07,0,0,1,.62,1.47v4.38a1.52,1.52,0,0,1-.18.7,1.15,1.15,0,0,1-.71.54,7.89,7.89,0,0,0-5.6,5.44,1.18,1.18,0,0,1-.63.73l-.09,0a1.28,1.28,0,0,1-.5.09Zm0-20.95a1,1,0,0,0-1,1V24.12a1,1,0,0,0,1,1H17a.41.41,0,0,0,.16,0l.06,0,0-.07a8.63,8.63,0,0,1,2.37-3.93,9,9,0,0,1,3.94-2.2l0-.28.08.12V14.29a1,1,0,0,0-.31-.73l-6.33-6.3a9.6,9.6,0,0,0-1.83-1.41L15,5.7a3.33,3.33,0,0,0-1.66-.45Z"/><polygon class="cls-3" points="8.54 13.05 8.76 6.84 13.53 6.7 15.22 7.3 20.54 12.97 8.54 13.05"/><path class="cls-2" d="M8.91,13.82a1,1,0,0,1-1-1V7.1a1,1,0,0,1,1-1h4.31a3.11,3.11,0,0,1,1.53.39l.26.13a6.1,6.1,0,0,1,1.38,1l4.38,4.47A1,1,0,0,1,21,13.21a1,1,0,0,1-.92.61ZM9,12.77H19.57l.11-.25-4-4.12a4.86,4.86,0,0,0-1.13-.85l-.25-.14a2.23,2.23,0,0,0-1-.26H9Z"/><rect class="cls-2" x="16.33" y="9.04" width="1.05" height="4.11"/><path class="cls-3" d="M16.05,23.59H16a.4.4,0,0,1-.27-.54,8.07,8.07,0,0,1,3.87-4.42.61.61,0,0,1,.64.18.6.6,0,0,1-.18.63,7,7,0,0,0-3.43,3.88A.78.78,0,0,1,16.05,23.59Z"/><path class="cls-3" d="M14.06,24.35H9.19a.46.46,0,0,1,0-.91h4.87a.46.46,0,0,1,0,.91Z"/><path class="cls-2" d="M20,16.69H17.45a.68.68,0,0,1,0-1.36H20a.68.68,0,0,1,0,1.36Z"/></g></svg>