<svg xmlns="http://www.w3.org/2000/svg" width="24" height="24" viewBox="0 0 24 24">
  <g id="engine" transform="translate(0 2.979)">
    <g id="Rectangle_689" data-name="Rectangle 689" transform="translate(9.473 1.508)">
      <g id="Group_363" data-name="Group 363">
        <rect id="Rectangle_717" data-name="Rectangle 717" width="4.086" height="3.394" transform="translate(0.438 0.438)" fill="#83c9f0"/>
        <path id="Path_2350" data-name="Path 2350" d="M11.825,10.725V6.456h4.961v4.269Zm.875-.875h3.211V7.331H12.7Z" transform="translate(-11.825 -6.456)" fill="#2f4e88"/>
      </g>
    </g>
    <g id="Group_364" data-name="Group 364" transform="translate(14.395 6.924)">
      <path id="Path_2351" data-name="Path 2351" d="M18.48,19.551V13.734h3.453l.778.779a.6.6,0,0,0,.423.175h1.932v3.743H23.2a.6.6,0,0,0-.529.321l-.8.8Z" transform="translate(-18.042 -13.296)" fill="#adf2f5"/>
      <path id="Path_2352" data-name="Path 2352" d="M17.93,19.876V13.184H22l.953.954h2.436v4.618H22.929l-.988,1.12ZM18.805,19h2.773l.674-.674a1.035,1.035,0,0,1,.836-.446h1.428V15.013H23.021a1.027,1.027,0,0,1-.731-.3l-.651-.652H18.805Z" transform="translate(-17.93 -13.184)" fill="#2f4e88"/>
    </g>
    <g id="Group_365" data-name="Group 365" transform="translate(2.557 5.861)">
      <rect id="Rectangle_718" data-name="Rectangle 718" width="3.685" height="5.08" rx="0.319" transform="translate(0.868 0.438)" fill="#fff"/>
      <path id="Path_2353" data-name="Path 2353" d="M3.906,17.82a.693.693,0,0,1-.692-.691V12.556a.693.693,0,0,1,.692-.691H7.083a.692.692,0,0,1,.691.691v4.572a.692.692,0,0,1-.691.691Zm.183-.875H6.9v-4.2H4.089Z" transform="translate(-3.214 -11.865)" fill="#2f4e88"/>
    </g>
    <g id="Group_366" data-name="Group 366" transform="translate(6.304 4.725)">
      <path id="Path_2354" data-name="Path 2354" d="M10.6,20.864a.2.2,0,0,1-.168-.092l-2-3.115a.2.2,0,0,1-.032-.107v-6.41a.2.2,0,0,1,.2-.2h9.526a.2.2,0,0,1,.2.2v9.526a.2.2,0,0,1-.2.2Z" transform="translate(-7.958 -10.502)" fill="#83c9f0"/>
      <path id="Path_2355" data-name="Path 2355" d="M10.485,21.189a.638.638,0,0,1-.536-.293l-2-3.115a.633.633,0,0,1-.1-.344v-6.41a.637.637,0,0,1,.637-.637h9.526a.637.637,0,0,1,.637.637v9.526a.637.637,0,0,1-.637.637ZM8.721,17.366l1.895,2.947H17.77V11.265H8.721Z" transform="translate(-7.846 -10.39)" fill="#2f4e88"/>
    </g>
    <g id="Group_368" data-name="Group 368" transform="translate(7.931 0.316)">
      <g id="Group_367" data-name="Group 367">
        <rect id="Rectangle_719" data-name="Rectangle 719" width="7.171" height="2.292" rx="0.319" transform="translate(0.437 0.438)" fill="#83c9f0"/>
        <rect id="Rectangle_720" data-name="Rectangle 720" width="6.852" height="1.974" rx="0.119" transform="translate(0.597 0.597)" fill="#83c9f0"/>
        <path id="Path_2356" data-name="Path 2356" d="M10.578,8.126a.692.692,0,0,1-.691-.692V5.649a.692.692,0,0,1,.691-.691h6.663a.692.692,0,0,1,.691.691V7.434a.693.693,0,0,1-.691.692Zm.183-.875h6.3V5.833h-6.3Z" transform="translate(-9.887 -4.958)" fill="#2f4e88"/>
      </g>
    </g>
    <g id="Group_369" data-name="Group 369" transform="translate(20.963 4.725)">
      <path id="Path_2357" data-name="Path 2357" d="M28.056,20.864l-1.3-2.55V13.63l1.022-2.69H28.9v9.924Z" transform="translate(-26.301 -10.502)" fill="#fff"/>
      <path id="Path_2358" data-name="Path 2358" d="M27.67,21.189l-1.486-2.916.018-4.864,1.157-3.018h1.862v10.8Zm-.583-7.618-.01,4.487.968,1.937.3-.072V11.265h-.383Z" transform="translate(-26.184 -10.39)" fill="#2f4e88"/>
    </g>
    <path id="Path_2359" data-name="Path 2359" d="M2.776,14.173c-.01,0-.019-.006-.029-.006H.957V12.632a.479.479,0,1,0-.957,0v4.177a.479.479,0,1,0,.957,0V15.124h1.79c.01,0,.018-.006.029-.006Z" transform="translate(0 -6.065)" fill="#2f4e88"/>
    <g id="Group_265" data-name="Group 265" transform="translate(2.729 13.036)">
      <g id="Path_2199" data-name="Path 2199" transform="translate(1.005)">
        <path id="Path_2360" data-name="Path 2360" d="M5.33,24.12a.638.638,0,0,1-.638-.638V21.472a.638.638,0,1,1,1.276,0v2.009A.639.639,0,0,1,5.33,24.12Z" transform="translate(-4.692 -20.834)" fill="#2f4e88"/>
      </g>
      <g id="Path_2200" data-name="Path 2200" transform="translate(0 1.005)">
        <path id="Path_2361" data-name="Path 2361" d="M6.076,23.373H4.067a.638.638,0,0,1,0-1.276H6.076a.638.638,0,0,1,0,1.276Z" transform="translate(-3.429 -22.097)" fill="#2f4e88"/>
      </g>
    </g>
    <g id="Group_266" data-name="Group 266" transform="translate(19.879)">
      <g id="Path_2199-2" data-name="Path 2199-2">
        <path id="Path_2362" data-name="Path 2362" d="M25.459,7.259a.638.638,0,0,1-.451-1.089l1.421-1.42a.638.638,0,1,1,.9.9L25.91,7.072A.638.638,0,0,1,25.459,7.259Z" transform="translate(-24.821 -4.562)" fill="#2f4e88"/>
      </g>
      <g id="Path_2200-2" data-name="Path 2200-2">
        <path id="Path_2363" data-name="Path 2363" d="M26.88,7.259a.639.639,0,0,1-.451-.187L25.008,5.65a.638.638,0,0,1,.9-.9l1.421,1.42a.638.638,0,0,1-.451,1.089Z" transform="translate(-24.821 -4.562)" fill="#2f4e88"/>
      </g>
    </g>
    <g id="Path_2208" data-name="Path 2208" transform="translate(12.685 6.157)">
      <path id="Path_2364" data-name="Path 2364" d="M18.207,15.4a.639.639,0,0,1-.638-.638V13.524H16.482a.638.638,0,1,1,0-1.276h1.725a.638.638,0,0,1,.637.638v1.871A.638.638,0,0,1,18.207,15.4Z" transform="translate(-15.844 -12.248)" fill="#fff"/>
    </g>
    <rect id="Rectangle_791" data-name="Rectangle 791" width="24" height="24" transform="translate(0 -2.979)" fill="none"/>
  </g>
</svg>
