<svg id="Layer_1" data-name="Layer 1" xmlns="http://www.w3.org/2000/svg" viewBox="0 0 30 30"><defs><style>.cls-1{fill:#99d2f3;}.cls-2{fill:#4a6098;}.cls-3{fill:#b4e2e9;}.cls-4{fill:#fff;}</style></defs><title>engine</title><g id="Group_321" data-name="Group 321"><g id="Rectangle_689" data-name="Rectangle 689"><rect class="cls-1" x="12.38" y="7.01" width="5.13" height="4.27"/><path class="cls-2" d="M11.83,11.82V6.46h6.23v5.36Zm1.09-1.1h4V7.56h-4Z"/></g><path class="cls-3" d="M18.48,21V13.73h4.34l1,1a.75.75,0,0,0,.53.22h2.43v4.71H24.41a.73.73,0,0,0-.66.4l-1,1Z"/><path class="cls-2" d="M17.93,21.59V13.18h5.12l1.2,1.2h3.06v5.81h-3.1L23,21.59Zm1.1-1.1h3.48l.85-.84a1.29,1.29,0,0,1,1.05-.56h1.8V15.48H24.33a1.26,1.26,0,0,1-.92-.38l-.82-.82H19Z"/><rect class="cls-4" x="4.31" y="12.42" width="4.63" height="6.38" rx="0.32"/><path class="cls-2" d="M4.08,19.35a.87.87,0,0,1-.87-.87V12.73a.86.86,0,0,1,.87-.86h4a.86.86,0,0,1,.87.86v5.75a.87.87,0,0,1-.87.87Zm.23-1.1H7.85V13H4.31Z"/><path class="cls-1" d="M11.16,23.41A.26.26,0,0,1,11,23.3L8.44,19.38a.22.22,0,0,1,0-.13V11.19a.25.25,0,0,1,.25-.25h12a.25.25,0,0,1,.25.25v12a.25.25,0,0,1-.25.25Z"/><path class="cls-2" d="M11.16,24a.8.8,0,0,1-.67-.37L8,19.68a.82.82,0,0,1-.12-.43V11.19a.8.8,0,0,1,.8-.8h12a.8.8,0,0,1,.8.8v12a.8.8,0,0,1-.8.8ZM9,19.16l2.38,3.7h9V11.49H9Z"/><rect class="cls-1" x="10.44" y="5.51" width="9.01" height="2.88" rx="0.32"/><rect class="cls-1" x="10.64" y="5.71" width="8.61" height="2.48" rx="0.12"/><path class="cls-2" d="M10.76,8.94a.87.87,0,0,1-.87-.87V5.83A.87.87,0,0,1,10.76,5h8.37a.87.87,0,0,1,.87.87V8.07a.87.87,0,0,1-.87.87ZM11,7.84H18.9V6.06H11Z"/><polygon class="cls-4" points="28.39 23.41 26.76 20.21 26.76 14.32 28.04 10.94 29.45 10.94 29.45 23.41 28.39 23.41"/><path class="cls-2" d="M28.05,24,26.18,20.3l0-6.12,1.45-3.79H30V24Zm-.73-9.57V20l1.21,2.43.38-.09V11.49h-.48Z"/><path class="cls-2" d="M3.49,14.69H1.2V12.75a.6.6,0,0,0-1.2,0V18a.6.6,0,0,0,.6.61A.6.6,0,0,0,1.2,18V15.89H3.49Z"/><g id="Group_265" data-name="Group 265"><g id="Path_2199" data-name="Path 2199"><path class="cls-2" d="M5.49,25a.8.8,0,0,1-.8-.8V21.64a.81.81,0,1,1,1.61,0v2.52A.8.8,0,0,1,5.49,25Z"/></g><g id="Path_2200" data-name="Path 2200"><path class="cls-2" d="M6.76,23.7H4.23a.8.8,0,1,1,0-1.6H6.76a.8.8,0,0,1,0,1.6Z"/></g></g><g id="Group_266" data-name="Group 266"><g id="Path_2199-2" data-name="Path 2199-2"><path class="cls-2" d="M25.62,8a.8.8,0,0,1-.56-1.37L26.84,4.8A.8.8,0,0,1,28,5.93L26.19,7.72A.83.83,0,0,1,25.62,8Z"/></g><g id="Path_2200-2" data-name="Path 2200-2"><path class="cls-2" d="M27.41,8a.83.83,0,0,1-.57-.23L25.06,5.93A.8.8,0,0,1,26.19,4.8L28,6.58a.81.81,0,0,1,0,1.14A.85.85,0,0,1,27.41,8Z"/></g></g><g id="Path_2208" data-name="Path 2208"><path class="cls-4" d="M18.81,16.2a.8.8,0,0,1-.8-.8V13.85H16.65a.8.8,0,1,1,0-1.6h2.16a.8.8,0,0,1,.81.8V15.4A.8.8,0,0,1,18.81,16.2Z"/></g></g></svg>