<svg xmlns="http://www.w3.org/2000/svg" width="24" height="24" viewBox="0 0 24 24">
  <g id="fuel" transform="translate(0.796 0.688)">
    <circle id="Ellipse_285" data-name="Ellipse 285" cx="0.812" cy="0.812" r="0.812" transform="translate(0.581 6.721)" fill="#b6cae5"/>
    <path id="Path_2227" data-name="Path 2227" d="M363.044,241.838l1.465-1.465s3.237,7.308-7.328,7.859v-1.889S364.166,247.229,363.044,241.838Z" transform="translate(-343.722 -226.499)" fill="#fff"/>
    <rect id="Rectangle_698" data-name="Rectangle 698" width="1.869" height="3.66" transform="translate(19.848 11.788) rotate(45)" fill="#98d3f3"/>
    <path id="Path_2228" data-name="Path 2228" d="M349.768,227.339l1.869-1.908,1.692,1.731,4.761-1.633,2.076,2.076-.5,1.129,3.614,3.614v.973l-4.827,4.827h-.873l-5.806-5.806V229.6Z" transform="translate(-342.208 -223.159)" fill="#98d3f3"/>
    <path id="Path_2229" data-name="Path 2229" d="M341.092,224.222s4.544-2.5,8.089.882l-1.135,1.323a5.2,5.2,0,0,0-6.008-.631Z" transform="translate(-340.147 -222.73)" fill="#fff"/>
    <g id="Group_295" data-name="Group 295" transform="translate(10.856 5.922)">
      <path id="Path_2315" data-name="Path 2315" d="M19.209,14.407,14.588,9.6l.96-1.56,3,.661,3.121,3.421Z" transform="translate(-14.124 -7.68)" fill="#adf2f5"/>
      <g id="Group_294" data-name="Group 294">
        <path id="Path_2230" data-name="Path 2230" d="M361.747,234.092l-3.33-3.33a.473.473,0,0,0-.252-.13l-2.786-.464a.469.469,0,0,0-.474.22l-.929,1.552a.463.463,0,0,0,.07.567l4.643,4.643a.464.464,0,0,0,.656,0l2.4-2.4A.464.464,0,0,0,361.747,234.092Zm-3.882-2.568,1.587,1.587a1.178,1.178,0,0,1-1.268-.259l-1.529-1.529Zm1.152,4.642-4.06-4.06.438-.73,2.133,2.133a2.1,2.1,0,0,0,2.611.29l.623.623Z" transform="translate(-353.91 -230.162)" fill="#295189"/>
      </g>
    </g>
    <g id="Group_297" data-name="Group 297" transform="translate(0 5.498)">
      <g id="Group_296" data-name="Group 296">
        <path id="Path_2231" data-name="Path 2231" d="M341.68,229.782a.483.483,0,0,0-.764,0A5.466,5.466,0,0,0,339.9,231.9a1.393,1.393,0,0,0,2.787,0A5.466,5.466,0,0,0,341.68,229.782Zm-.382,2.586a.466.466,0,0,1-.465-.464,3.485,3.485,0,0,1,.465-1,3.474,3.474,0,0,1,.465,1A.465.465,0,0,1,341.3,232.368Z" transform="translate(-339.905 -229.595)" fill="#295189"/>
      </g>
    </g>
    <g id="Group_299" data-name="Group 299" transform="translate(0)">
      <g id="Group_298" data-name="Group 298">
        <path id="Path_2232" data-name="Path 2232" d="M361.432,236.531l.339-.339a.458.458,0,0,0,0-.648l-1.509-1.51.537-.537a1.836,1.836,0,0,0,0-2.592l-2.871-2.871a1.756,1.756,0,0,0-.282-2.115l-.77-.771a1.753,1.753,0,0,0-1.893-.387l-3.509,1.4-1.62-1.62a.458.458,0,0,0-.648,0l-.013.013a7.439,7.439,0,0,0-4.655-1.981,8.43,8.43,0,0,0-4.43,1.148.458.458,0,0,0-.126.635L341,225.884a.461.461,0,0,0,.629.131,5.9,5.9,0,0,1,2.91-.69,4.632,4.632,0,0,1,2.74,1.194.455.455,0,0,0,.1.505l1.7,1.7v1.99a1.845,1.845,0,0,0,.537,1.3l5.041,5.041a1.808,1.808,0,0,0,2.151.317l1.572,1.572a.458.458,0,0,0,.648,0l.07-.07a3.592,3.592,0,0,1-3.528,2.954H353.2a.458.458,0,0,0-.459.459v1.833a.458.458,0,0,0,.459.458h2.366a6.349,6.349,0,0,0,6.342-6.343A3.337,3.337,0,0,0,361.432,236.531Zm-16.894-12.121a7.178,7.178,0,0,0-3.006.623l-.511-.767a8.076,8.076,0,0,1,3.517-.772,6.61,6.61,0,0,1,4,1.715l-.639.639A5.5,5.5,0,0,0,344.538,224.409Zm12.058,12a.917.917,0,0,1-1.3,0l-5.041-5.042a.92.92,0,0,1-.269-.648v-2.18a.461.461,0,0,0-.134-.324l-1.51-1.509,1.185-1.185,1.51,1.509a.453.453,0,0,0,.494.1l3.791-1.515a.837.837,0,0,1,.9.185l.771.771a.837.837,0,0,1,0,1.185.458.458,0,0,0,0,.648l3.153,3.153a.919.919,0,0,1,0,1.3Zm2.1,1.565-1.185-1.184,2.1-2.1,1.185,1.184Zm-3.134,5.69h-1.908v-.917h1.908a4.514,4.514,0,0,0,4.509-4.509,1.336,1.336,0,0,0-.036-.306l.719-.719a2.426,2.426,0,0,1,.233,1.026A5.432,5.432,0,0,1,355.563,243.659Z" transform="translate(-339.905 -222.576)" fill="#295189"/>
      </g>
    </g>
    <rect id="Rectangle_724" data-name="Rectangle 724" width="24" height="24" transform="translate(-0.796 -0.688)" fill="none"/>
  </g>
</svg>
