<svg id="Layer_1" data-name="Layer 1" xmlns="http://www.w3.org/2000/svg" viewBox="0 0 30 30"><defs><style>.cls-1{fill:#4a5f98;}</style></defs><title>gearShift</title><polygon class="cls-1" points="5.19 15.22 5.19 15.97 24.81 15.97 24.81 14.47 5.19 14.47 5.19 15.22"/><rect class="cls-1" x="5.19" y="11.56" width="1.5" height="7.33" rx="0.75"/><rect class="cls-1" x="14.25" y="11.56" width="1.5" height="7.33" rx="0.75"/><path class="cls-1" d="M23.31,12.31l0,5.83a.74.74,0,0,0,.75.75h0a.76.76,0,0,0,.75-.76l0-5.83a.75.75,0,0,0-.75-.74h0A.74.74,0,0,0,23.31,12.31Z"/><path class="cls-1" d="M5.3,8.93V5.52H4.36V4.7c.8,0,1.14-.17,1.31-.77h1v5Z"/><path class="cls-1" d="M13.26,5.44a1.53,1.53,0,0,1,.41-1.12A1.58,1.58,0,0,1,14.8,4c1.21,0,1.55.49,1.55,1.36a.94.94,0,0,1-.69,1h0a1,1,0,0,1,.78,1.07A1.39,1.39,0,0,1,14.84,9c-1.12,0-1.63-.38-1.63-1.56h1.2A1.59,1.59,0,0,0,14.5,8a.31.31,0,0,0,.29.18c.3,0,.36-.15.36-.76s-.15-.61-.47-.61h-.33V6h.19c.38,0,.56-.12.56-.69,0-.4-.1-.52-.33-.52s-.34.16-.34.67Z"/><path class="cls-1" d="M4.11,22.42a2,2,0,0,1,.31-1.23,1.62,1.62,0,0,1,1.33-.46c1.31,0,1.61.61,1.61,1.36a2,2,0,0,1-.62,1.49L6,24.33a1.3,1.3,0,0,0-.33.41H7.36v1H4.07a2.59,2.59,0,0,1,.74-1.92l.88-.89A1,1,0,0,0,6,22.11c0-.43-.13-.56-.34-.56s-.36.1-.36.66v.21Z"/><path class="cls-1" d="M13.11,23.81l1.61-3h1.46v3.08h.44v1h-.44v1H14.92v-1H13.11Zm1.86,0v-1.7h0l-.83,1.7Z"/><path class="cls-1" d="M22.33,3.93h2.91v1h-1.9l-.06.84a1.31,1.31,0,0,1,.93-.37c.8,0,1.25.52,1.25,1.59,0,1.3-.4,1.95-1.64,1.95s-1.64-.53-1.64-1.44V7.33h1.23V7.5c0,.48.13.61.36.61S24.14,8,24.14,7c0-.56-.13-.76-.37-.76s-.36.13-.36.42H22.22Z"/><path class="cls-1" d="M24.23,22.2a.61.61,0,0,0-.1-.37.3.3,0,0,0-.25-.09c-.19,0-.35.15-.35.46V23h0a.91.91,0,0,1,.82-.38c.7,0,1.17.34,1.17,1.49,0,1.32-.59,1.84-1.64,1.84s-1.69-.48-1.69-2.08V23.3c0-1.51.22-2.37,1.69-2.37,1.26,0,1.54.61,1.55,1.27Zm-.34,2.93c.24,0,.36-.17.36-.8s-.09-.81-.36-.81-.36.18-.36.81S23.62,25.13,23.89,25.13Z"/></svg>