<svg id="Layer_1" data-name="Layer 1" xmlns="http://www.w3.org/2000/svg" viewBox="0 0 30 30"><defs><style>.cls-1{fill:#4a6098;}.cls-2{fill:#fff;}.cls-3{fill:#99d2f3;}.cls-4{fill:#b4e2e9;}.cls-5{fill:#2a5389;}</style></defs><title>passenger</title><g id="passanger"><path id="Path_2233" data-name="Path 2233" class="cls-1" d="M24.69,21a9.82,9.82,0,0,0,.38-2.69,9.93,9.93,0,0,0-.52-3.2L23.17,11A4.52,4.52,0,0,0,20,8c-.37-.09-.94-.22-1.69-.35v-1h.37a1.47,1.47,0,0,0,1.47-1.47h0V2.67A2.71,2.71,0,0,0,17.45,0H12.53a2.7,2.7,0,0,0-2.7,2.71V5.13A1.47,1.47,0,0,0,11.3,6.6h.37v1c-.75.13-1.32.26-1.69.35a4.52,4.52,0,0,0-3.17,3L5.43,15.11a9.93,9.93,0,0,0-.52,3.2A10.21,10.21,0,0,0,5.28,21a2.39,2.39,0,0,0-1.6,2.24,16.29,16.29,0,0,0,.64,4.55l.27.68A2.36,2.36,0,0,0,6.8,30H23.27a2.35,2.35,0,0,0,2.13-1.31,14.53,14.53,0,0,0,.9-5v-.36A2.39,2.39,0,0,0,24.69,21ZM13.39,7.43V6.6h3.2v.82c-.59,0-1.1-.08-1.6-.08s-1,0-1.6.08Z"/><path id="Path_2234" data-name="Path 2234" class="cls-2" d="M11.3,2.67a1.23,1.23,0,0,1,1.23-1.23h4.92a1.23,1.23,0,0,1,1.23,1.23V5.13H11.3Z"/><path id="Path_2235" data-name="Path 2235" class="cls-3" d="M23.39,15.5,22,11.34a3.28,3.28,0,0,0-2.31-2.16,18.31,18.31,0,0,0-9.41,0A3.27,3.27,0,0,0,8,11.34L6.59,15.5a8.76,8.76,0,0,0,.13,5.91l0,.1.1,0a2,2,0,0,1,.9.85l.66,1.33.2-.07.66-.21.28-.08-.93-1.84a7.2,7.2,0,0,1-.4-5.48l1.39-4.16a1.57,1.57,0,0,1,1.09-1,16.6,16.6,0,0,1,8.57,0,1.53,1.53,0,0,1,1.09,1l1.39,4.16a7.17,7.17,0,0,1-.39,5.47l-.94,1.85.29.08.65.21.21.07.66-1.33a1.91,1.91,0,0,1,.9-.85l.09,0,0-.1a8.7,8.7,0,0,0,.12-5.91Z"/><path id="Path_2236" data-name="Path 2236" class="cls-4" d="M10.64,22.61l-.88-1.72a6,6,0,0,1-.62-2.64,5.89,5.89,0,0,1,.3-1.86l1.32-4a.56.56,0,0,1,.38-.37,15,15,0,0,1,7.7,0,.6.6,0,0,1,.38.38l1.32,4a5.9,5.9,0,0,1-.32,4.49l-.88,1.73a18.28,18.28,0,0,0-8.7,0Z"/><path id="Path_2237" data-name="Path 2237" class="cls-3" d="M24.83,23.6A13.11,13.11,0,0,1,24.08,28a.89.89,0,0,1-.81.5H6.8A.9.9,0,0,1,6,27.92l-.27-.68a14.94,14.94,0,0,1-.54-4,.91.91,0,0,1,.91-.91.9.9,0,0,1,.81.5l.81,1.62a.62.62,0,0,0,.78.3,18.58,18.58,0,0,1,13.06,0,.63.63,0,0,0,.78-.3l.81-1.62a.91.91,0,0,1,1.72.41Z"/><path id="Path_2238" data-name="Path 2238" class="cls-5" d="M20.94,25.45A31,31,0,0,1,9,25.45a.61.61,0,0,0-.38,1.16,31.18,31.18,0,0,0,12.69,0A.61.61,0,0,0,21,25.45Z"/></g></svg>