<svg xmlns="http://www.w3.org/2000/svg" width="40" height="40" viewBox="0 0 40 40">
  <g id="sedan" transform="translate(0 12)">
    <rect id="Rectangle_740" data-name="Rectangle 740" width="40" height="40" transform="translate(0 -12)" fill="none"/>
    <path id="Path_2381" data-name="Path 2381" d="M4.62,21.259.583,20.149v-3.33l1.3-.666V11.676H3.361l.9.894,2.4-1.042L10.1,13.6H26.434l2.444-1.3,1.626.518h3.744L39.1,14.9v5.032l-2.074,1.554-3.259.259-.444-1.961-.815-.963-1.337-.555-1.441.7L28.767,20.3l-.259,1.184H9.838V20.149l-1-1.11-1.67-.629L6.25,18.6,5.435,19l-.444.814Z" transform="translate(0.162 -8.152)" fill="#83c9f0"/>
    <path id="Path_2382" data-name="Path 2382" d="M39.217,14.88l-4.136-1.772A1.3,1.3,0,0,0,34.554,13H30.829L21.748,9.108A1.3,1.3,0,0,0,21.221,9h-8.4a1.307,1.307,0,0,0-.513.1L4.717,12.267l-.92-.46a1.341,1.341,0,0,0-.6-.14H2.692A1.335,1.335,0,0,0,1.358,13v3.588l-.6.3a1.328,1.328,0,0,0-.737,1.193v2.44a1.332,1.332,0,0,0,.912,1.265l3.329,1.109A3.325,3.325,0,0,0,10.409,23h17.9a3.327,3.327,0,0,0,6.1,0h2.748a1.336,1.336,0,0,0,.739-.224l1.536-1.024a1.332,1.332,0,0,0,.593-1.109V16.105A1.333,1.333,0,0,0,39.217,14.88ZM27.472,13.012l-.981.655H17.358V10.333h3.863ZM12.825,10.333h3.2v3.333H10.21L8,12.343ZM7.358,23.667a2,2,0,1,1,2-2A2,2,0,0,1,7.358,23.667Zm0-5.333A3.327,3.327,0,0,0,4.05,21.416l-2.692-.9v-2.44l.6-.3a1.325,1.325,0,0,0,.737-1.192v-.255h2V15h-2V13H3.2l.92.46A1.332,1.332,0,0,0,5.23,13.5l1.243-.519,3.051,1.831a1.334,1.334,0,0,0,.685.191h5.816v1.871a1.314,1.314,0,0,0,.1.5l1.237,3.095v1.205H10.692A3.337,3.337,0,0,0,7.358,18.333Zm24,5.333a2,2,0,1,1,2-2A2,2,0,0,1,31.358,23.667Zm5.8-2H34.692a3.333,3.333,0,1,0-6.667,0H18.692V20.461a1.312,1.312,0,0,0-.1-.495l-1.237-3.1V15H26.49a1.336,1.336,0,0,0,.739-.224l1.705-1.137,1.368.585a1.322,1.322,0,0,0,.527.109h3.725l4.137,1.772V17H36.025v1.333h2.667v2.309Z" transform="translate(-0.025 -9)" fill="#2a5289"/>
    <ellipse id="Ellipse_315" data-name="Ellipse 315" cx="0.5" cy="1" rx="0.5" ry="1" transform="translate(7 11.638)" fill="#2a5289"/>
    <ellipse id="Ellipse_316" data-name="Ellipse 316" cx="0.5" cy="1" rx="0.5" ry="1" transform="translate(30.948 11.638)" fill="#2a5289"/>
    <rect id="Rectangle_726" data-name="Rectangle 726" width="2.003" height="1.336" transform="translate(20.665 7.332)" fill="#2a5289"/>
    <rect id="Rectangle_727" data-name="Rectangle 727" width="2.003" height="1.336" transform="translate(9.999 7.332)" fill="#2a5289"/>
  </g>
</svg>
