<svg id="Layer_1" data-name="Layer 1" xmlns="http://www.w3.org/2000/svg" viewBox="0 0 30 30"><defs><style>.cls-1{fill:#99d2f3;}.cls-2{fill:#44649a;}</style></defs><title>Sedan</title><polygon class="cls-1" points="3.61 18.83 0.58 18 0.58 15.5 1.56 15 1.56 11.64 2.67 11.64 3.34 12.31 5.14 11.53 7.72 13.08 19.97 13.08 21.81 12.11 23.02 12.5 25.83 12.5 29.47 14.06 29.47 17.83 27.92 19 25.47 19.19 25.14 17.72 24.53 17 23.52 16.58 22.44 17.11 21.72 18.11 21.53 19 7.53 19 7.53 18 6.78 17.17 5.53 16.69 4.83 16.83 4.22 17.14 3.89 17.75 3.61 18.83"/><path class="cls-2" d="M29.42,13.41l-3.1-1.33a1.1,1.1,0,0,0-.4-.08H23.13L16.32,9.08a1.1,1.1,0,0,0-.4-.08H9.63a1,1,0,0,0-.39.08l-5.7,2.37-.69-.34A1,1,0,0,0,2.41,11H2a1,1,0,0,0-1,1v2.69l-.45.22a1,1,0,0,0-.55.9v1.83a1,1,0,0,0,.68.95l2.5.83a2.49,2.49,0,0,0,4.6.08H21.24a2.49,2.49,0,0,0,3.28,1.29,2.46,2.46,0,0,0,1.29-1.29h2.06a1,1,0,0,0,.56-.17l1.15-.77a1,1,0,0,0,.45-.83v-3.4A1,1,0,0,0,29.42,13.41ZM20.61,12l-.74.49H13V10h2.89Zm-11-2H12v2.5H7.66L6,11.51ZM5.53,20A1.5,1.5,0,1,1,7,18.5,1.5,1.5,0,0,1,5.53,20Zm0-4A2.5,2.5,0,0,0,3,18.31l-2-.67V15.81l.44-.22a1,1,0,0,0,.56-.9V14.5h1.5v-1H2V12h.38l.69.34a1,1,0,0,0,.83,0L4.86,12l2.29,1.38a1,1,0,0,0,.51.14H12v1.4a.9.9,0,0,0,.07.37L13,17.6v.9H8A2.51,2.51,0,0,0,5.53,16Zm18,4A1.5,1.5,0,1,1,25,18.5,1.5,1.5,0,0,1,23.53,20Zm4.34-1.5H26a2.5,2.5,0,0,0-5,0H14v-.9a1.23,1.23,0,0,0-.08-.38L13,14.9V13.5h6.84a1,1,0,0,0,.56-.17l1.28-.85,1,.44a1.1,1.1,0,0,0,.4.08h2.79L29,14.33V15H27v1h2v1.73Z"/><circle class="cls-2" cx="5.53" cy="18.5" r="0.5"/><circle class="cls-2" cx="23.53" cy="18.5" r="0.5"/><rect class="cls-2" x="15.53" y="14.5" width="1.5" height="1"/><rect class="cls-2" x="7.53" y="14.5" width="1.5" height="1"/></svg>