<svg xmlns="http://www.w3.org/2000/svg" width="40" height="40" viewBox="0 0 40 40">
  <g id="sport" transform="translate(0 13)">
    <path id="Path_2387" data-name="Path 2387" d="M9.146,11.778l5.68,7.388,4.65,2.665H9.484s1.434-4.662-2.671-4.662S3.549,21.83,3.549,21.83H1.668L.481,19.166V15.835l1.436-2.971Z" transform="translate(0.124 -9.727)" fill="#a6dce5"/>
    <path id="Path_2388" data-name="Path 2388" d="M7.222,11.79l5.1,7.388,5.293,2.5h8.063s-.47-4.6,3.327-4.6,3.351,4.341,3.351,4.341h3.116l1.484-.641V16.347L25.574,12.408l-1.929,1.331-7.865.073-2.87-2.072Z" transform="translate(2.32 -9.739)" fill="#83c9f0"/>
    <path id="Path_2389" data-name="Path 2389" d="M39.139,16.122l-10.9-3.847-5.9-1.965a1.3,1.3,0,0,0-.421-.068h-3.1a1.337,1.337,0,0,0-.495.095l-3.095,1.239H9.421a1.3,1.3,0,0,0-.239.021L2.236,12.859a1.336,1.336,0,0,0-.953.716L.1,15.943a.661.661,0,0,0-.071.3v3.176a1.341,1.341,0,0,0,.14.6l1.079,2.157a1.328,1.328,0,0,0,1.193.737h.8a3.991,3.991,0,0,0,6.917,0H27.9a3.991,3.991,0,0,0,6.917,0h3.051a1.36,1.36,0,0,0,.6-.141l.824-.412a1.326,1.326,0,0,0,.737-1.193V17.379A1.339,1.339,0,0,0,39.139,16.122ZM18.823,11.575h3.1l4.605,1.535-.7.465H18.251l-1.541-1.156Zm-12.128,12a2.667,2.667,0,1,1,2.667-2.667A2.667,2.667,0,0,1,6.695,23.575Zm0-6.667a3.978,3.978,0,0,0-3.94,4.667H2.44L1.361,19.418V16.909H2.695V15.575H1.773l.7-1.4,6.593-1.2,4.992,6.863a1.317,1.317,0,0,0,.481.408L17.2,21.575H10.635a3.976,3.976,0,0,0-3.94-4.667Zm24.667,6.667a2.667,2.667,0,1,1,2.667-2.667A2.667,2.667,0,0,1,31.361,23.575Zm6.509-2H35.3a4,4,0,1,0-7.88,0H20.185l-5.048-2.524-4.467-6.143h4.468l2.311,1.732a1.344,1.344,0,0,0,.8.268h7.575a1.337,1.337,0,0,0,.74-.224l1.555-1.037,10.575,3.732v.2h-2v1.333h2v2.253Z" transform="translate(-0.028 -10.242)" fill="#2a5289"/>
    <rect id="Rectangle_742" data-name="Rectangle 742" width="40" height="40" transform="translate(0 -13)" fill="none"/>
  </g>
</svg>
