<svg id="Layer_1" data-name="Layer 1" xmlns="http://www.w3.org/2000/svg" viewBox="0 0 30 30"><defs><style>.cls-1{fill:#b4e2e9;}.cls-2{fill:#99d2f3;}.cls-3{fill:#44649a;}</style></defs><title>sport</title><path class="cls-1" d="M7,11.78l4.25,5.54,3.48,2H7.22s1.08-3.5-2-3.5-2.44,3.5-2.44,3.5H1.37l-.89-2v-2.5l1.08-2.23Z"/><path class="cls-2" d="M7.22,11.78,11,17.32l4,1.88h6s-.35-3.46,2.49-3.46S26,19,26,19h2.33l1.11-.48V15.2l-8.52-3-1.44,1-5.89.06-2.15-1.56Z"/><path class="cls-3" d="M29.36,14.65l-8.17-2.88-4.43-1.48a1.12,1.12,0,0,0-.31,0H14.12a1.21,1.21,0,0,0-.37.07l-2.32.93H7.07l-.18,0-5.21.94a1,1,0,0,0-.71.54L.08,14.52a.54.54,0,0,0,0,.22v2.38a1,1,0,0,0,.1.45l.81,1.62a1,1,0,0,0,.9.55h.59a3,3,0,0,0,4.09,1.1,2.91,2.91,0,0,0,1.1-1.1H20.93A3,3,0,0,0,25,20.84a2.91,2.91,0,0,0,1.1-1.1h2.29a1,1,0,0,0,.45-.1l.62-.31a1,1,0,0,0,.55-.9V15.6A1,1,0,0,0,29.36,14.65ZM14.12,11.24h2.33l3.45,1.15-.52.35H13.69l-1.15-.86ZM5,20.24a2,2,0,1,1,2-2A2,2,0,0,1,5,20.24Zm0-5a3,3,0,0,0-3,3,3.08,3.08,0,0,0,0,.53H1.84L1,17.12V15.24H2v-1H1.34l.52-1.05,4.95-.9,3.74,5.15a1,1,0,0,0,.36.3l2,1H8a3,3,0,0,0-2.42-3.45A3.07,3.07,0,0,0,5,15.24Zm18.5,5a2,2,0,1,1,2-2A2,2,0,0,1,23.53,20.24Zm4.88-1.5H26.48a3,3,0,0,0-5.91-1,3,3,0,0,0,0,1H15.15l-3.79-1.89L8,12.24h3.35l1.73,1.3a1,1,0,0,0,.6.2h5.69a1,1,0,0,0,.55-.17l1.17-.77L29,15.6v.14h-1.5v1H29v1.69Z"/></svg>