<svg id="Layer_1" data-name="Layer 1" xmlns="http://www.w3.org/2000/svg" viewBox="0 0 30 30"><defs><style>.cls-1{fill:#99d2f3;}.cls-2{fill:#b4e2e9;}.cls-3{fill:#44649a;}</style></defs><title>suv</title><path class="cls-1" d="M2.77,19.82H2.14L.47,17.32V13.44l.62-.61H26.64l2.75,1.45V18l-1.5,1.85H25.44s.53-3-2.27-3-2.7,3-2.7,3H7.83s.81-3-2.33-3A2.56,2.56,0,0,0,2.77,19.82Z"/><polygon class="cls-2" points="2.6 11.61 4.5 9.92 1.69 9.92 1.36 10.76 2.6 11.61"/><path class="cls-3" d="M29.45,13.74l-2.62-1.31a1,1,0,0,0-.45-.11H21.62L15.83,9.43a1,1,0,0,0-.45-.11H2a1,1,0,0,0-1,1v.3a1,1,0,0,0,.29.7l.42.43-1.32,1a1,1,0,0,0-.39.79v3.61a1,1,0,0,0,.14.52l1.29,2.14a1,1,0,0,0,.85.48h.4a3,3,0,0,0,5.64,0H20.18a3,3,0,0,0,5.64,0h1.93a1,1,0,0,0,.8-.4l1.25-1.66a1,1,0,0,0,.2-.6v-3A1,1,0,0,0,29.45,13.74ZM19.38,12.32H12.5v-2h2.88Zm-13-2H11.5v2H5.69Zm-1.05,0-.67,2h-2l2.57-2ZM2,10.62v-.3H3.54l-1,.81Zm.5,8.7H2.28L1,17.18V15.82H2v-1H1V13.57l.31-.25H4.5V16.5A3,3,0,0,0,2.5,19.32Zm3,2a2,2,0,1,1,2-2A2,2,0,0,1,5.5,21.32Zm0-5v-3h6v1.85a1,1,0,0,0,.17.56L12.5,17v2.35h-4A3,3,0,0,0,5.5,16.32Zm14.5,3H13.5V17a1,1,0,0,0-.17-.55l-.83-1.25V13.32H20v1.35a1,1,0,0,0,.17.56L21,16.47v.62A3,3,0,0,0,20,19.32Zm3,2a2,2,0,1,1,2-2A2,2,0,0,1,23,21.32Zm4.75-2H26a3,3,0,0,0-3-3,3,3,0,0,0-1,.18v0a1,1,0,0,0-.17-.55L21,14.67V13.32h5.38l2,1H26.5v1H29v2.34Z"/><circle class="cls-3" cx="5.5" cy="19.32" r="0.5"/><circle class="cls-3" cx="23" cy="19.32" r="0.5"/><rect class="cls-3" x="6.5" y="14.82" width="1.5" height="1"/><rect class="cls-3" x="14.5" y="14.82" width="1.5" height="1"/></svg>