<svg xmlns="http://www.w3.org/2000/svg" width="40" height="40" viewBox="0 0 40 40">
  <g id="suv" transform="translate(0 11)">
    <path id="Path_2390" data-name="Path 2390" d="M3.537,22.17H2.695L.472,18.831V13.65l.821-.821H35.359l3.666,1.935V19.7l-2,2.472h-3.26s.7-3.993-3.036-3.993-3.593,3.993-3.593,3.993H10.286s1.075-3.993-3.11-3.993A3.411,3.411,0,0,0,3.537,22.17Z" transform="translate(0.158 -8.163)" fill="#83c9f0"/>
    <path id="Path_2391" data-name="Path 2391" d="M3.016,12.18,5.553,9.917H1.806l-.445,1.131Z" transform="translate(0.457 -9.124)" fill="#a6dce5"/>
    <path id="Path_2392" data-name="Path 2392" d="M39.263,15.21l-3.491-1.745a1.36,1.36,0,0,0-.6-.141H28.824L21.105,9.464a1.36,1.36,0,0,0-.6-.141H2.667a1.336,1.336,0,0,0-1.333,1.333v.391a1.322,1.322,0,0,0,.391.943l.563.563L.515,13.931A1.325,1.325,0,0,0,0,14.983v4.823a1.322,1.322,0,0,0,.191.685L1.9,23.343a1.339,1.339,0,0,0,1.143.647h.523a3.993,3.993,0,0,0,7.533,0H26.9a3.993,3.993,0,0,0,7.533,0H37a1.336,1.336,0,0,0,1.067-.533l1.667-2.221a1.341,1.341,0,0,0,.267-.8V16.4A1.325,1.325,0,0,0,39.263,15.21Zm-13.42-1.887H16.667V10.656h3.843ZM8.48,10.656h6.853v2.667H7.592Zm-1.405,0-.888,2.667H3.467l3.428-2.667Zm-4.408.391v-.391H4.724L3.347,11.727Zm.667,11.609H3.044L1.333,19.806V17.99H2.667V16.656H1.333V14.983l.42-.327H6V18.89A4,4,0,0,0,3.333,22.656Zm4,2.667A2.667,2.667,0,1,1,10,22.656,2.666,2.666,0,0,1,7.333,25.323Zm0-6.667v-4h8v2.465a1.33,1.33,0,0,0,.224.74l1.109,1.664v3.131H11.333A4,4,0,0,0,7.333,18.656Zm19.333,4H18V19.526a1.327,1.327,0,0,0-.224-.74l-1.109-1.664V14.656h10v1.8a1.33,1.33,0,0,0,.224.74L28,18.859v.825A3.98,3.98,0,0,0,26.667,22.656Zm4,2.667a2.667,2.667,0,1,1,2.667-2.667A2.666,2.666,0,0,1,30.667,25.323ZM37,22.656H34.667a3.989,3.989,0,0,0-5.333-3.767v-.031a1.327,1.327,0,0,0-.224-.74L28,16.455v-1.8h7.176l2.667,1.333H35.333v1.333h3.333v3.112Z" transform="translate(0 -9.323)" fill="#2a5289"/>
    <circle id="Ellipse_319" data-name="Ellipse 319" cx="0.668" cy="0.668" r="0.668" transform="translate(6.666 12.665)" fill="#2a5289"/>
    <circle id="Ellipse_320" data-name="Ellipse 320" cx="0.668" cy="0.668" r="0.668" transform="translate(29.998 12.665)" fill="#2a5289"/>
    <rect id="Rectangle_728" data-name="Rectangle 728" width="2.003" height="1.336" transform="translate(8.666 7.333)" fill="#2a5289"/>
    <rect id="Rectangle_729" data-name="Rectangle 729" width="2.003" height="1.336" transform="translate(19.332 7.333)" fill="#2a5289"/>
    <rect id="Rectangle_745" data-name="Rectangle 745" width="40" height="40" transform="translate(0 -11)" fill="none"/>
  </g>
</svg>
