<svg xmlns="http://www.w3.org/2000/svg" width="24" height="24" viewBox="0 0 24 24">
  <g id="transmision" transform="translate(1.652 2.566)">
    <path id="Path_2377" data-name="Path 2377" d="M1.222,6.236l.75-2.229L8.783,5.392,8.177,7.615Z" transform="translate(-0.793 -3.461)" fill="#adf2f5"/>
    <path id="Path_2378" data-name="Path 2378" d="M1.222,6.236l.75-2.229L8.783,5.392,8.177,7.615Z" transform="translate(-0.793 9.872)" fill="#adf2f5"/>
    <path id="Path_2379" data-name="Path 2379" d="M0,2.256.169,0,6.708,1.153,6.317,3.37Z" transform="matrix(0.985, -0.174, 0.174, 0.985, 14.137, 15.105)" fill="#adf2f5"/>
    <path id="Path_2380" data-name="Path 2380" d="M0,2.256.169,0,6.708,1.153,6.317,3.37Z" transform="matrix(0.985, -0.174, 0.174, 0.985, 14.137, 1.772)" fill="#adf2f5"/>
    <g id="Group_339" data-name="Group 339" transform="translate(0.679 3.112)">
      <path id="Path_2324" data-name="Path 2324" d="M6.269,10.477a1.59,1.59,0,0,0-.529-.35V7.361H4.546v2.766a1.607,1.607,0,0,0-.528.35L2,12.494a1.591,1.591,0,0,0,0,2.25L4.018,16.76a1.6,1.6,0,0,0,.528.35v2.218H5.74V17.11a1.59,1.59,0,0,0,.529-.35l2.016-2.016a1.591,1.591,0,0,0,0-2.25ZM7.441,13.9,5.425,15.916a.4.4,0,0,1-.563,0L2.846,13.9a.4.4,0,0,1,0-.563l2.016-2.016a.4.4,0,0,1,.563,0l2.016,2.016A.4.4,0,0,1,7.441,13.9Z" transform="translate(-1.536 -7.361)" fill="#2f4d88"/>
      <path id="Path_2325" data-name="Path 2325" d="M25.472,12.647,23.456,10.63a1.6,1.6,0,0,0-.545-.355V8.111H21.717v2.177a1.59,1.59,0,0,0-.512.342l-2.016,2.016a1.591,1.591,0,0,0,0,2.25L21.2,16.913a1.578,1.578,0,0,0,.512.342v2.792h1.194v-2.78a1.6,1.6,0,0,0,.545-.355L25.472,14.9A1.591,1.591,0,0,0,25.472,12.647Zm-.844,1.407-2.016,2.016a.4.4,0,0,1-.563,0l-2.016-2.016a.4.4,0,0,1,0-.563l2.016-2.016a.4.4,0,0,1,.563,0l2.016,2.016A.4.4,0,0,1,24.627,14.054Z" transform="translate(-5.279 -7.514)" fill="#2f4d88"/>
      <path id="Path_2326" data-name="Path 2326" d="M9.582,15.072v.6h7.731V14.475H9.582Z" transform="translate(-3.293 -8.814)" fill="#2f4d88"/>
    </g>
    <g id="Group_340" data-name="Group 340">
      <path id="Path_2327" data-name="Path 2327" d="M7.947,7.923,1.386,6.766A.852.852,0,0,1,.7,5.781l.31-1.757a.851.851,0,0,1,.986-.69L8.553,4.491a.851.851,0,0,1,.69.985l-.31,1.758A.853.853,0,0,1,7.947,7.923ZM2.026,5.583,7.75,6.593l.162-.92L2.188,4.664Z" transform="translate(-0.682 -3.32)" fill="#2f4e88"/>
    </g>
    <g id="Group_341" data-name="Group 341" transform="translate(0 13.765)">
      <path id="Path_2328" data-name="Path 2328" d="M7.947,25.467,1.386,24.309a.851.851,0,0,1-.69-.985l.31-1.758a.852.852,0,0,1,.986-.69l6.562,1.157a.851.851,0,0,1,.69.985l-.31,1.758A.852.852,0,0,1,7.947,25.467ZM2.026,23.127,7.75,24.136l.162-.92L2.188,22.207Z" transform="translate(-0.682 -20.864)" fill="#2f4e88"/>
    </g>
    <g id="Group_342" data-name="Group 342" transform="translate(13.636 1.032)">
      <path id="Path_2329" data-name="Path 2329" d="M25.624,8.1H18.962a.852.852,0,0,1-.851-.851V5.468a.852.852,0,0,1,.851-.851h6.663a.851.851,0,0,1,.851.851V7.252A.851.851,0,0,1,25.624,8.1ZM19.387,6.827H25.2V5.893H19.387Z" transform="translate(-18.111 -4.617)" fill="#2f4e88"/>
    </g>
    <g id="Group_343" data-name="Group 343" transform="translate(13.636 14.33)">
      <path id="Path_2330" data-name="Path 2330" d="M25.624,25.059H18.962a.852.852,0,0,1-.851-.851V22.425a.852.852,0,0,1,.851-.851h6.663a.851.851,0,0,1,.851.851v1.784A.851.851,0,0,1,25.624,25.059Zm-6.237-1.276H25.2V22.85H19.387Z" transform="translate(-18.111 -21.574)" fill="#2f4e88"/>
    </g>
    <path id="Path_2331" data-name="Path 2331" d="M7.748,14.887,5.731,16.9a.4.4,0,0,1-.563,0L3.152,14.887a.4.4,0,0,1,0-.563l2.016-2.016a.4.4,0,0,1,.563,0l2.016,2.016A.4.4,0,0,1,7.748,14.887Z" transform="translate(-1.163 -5.232)" fill="#83c9f0"/>
    <path id="Path_2332" data-name="Path 2332" d="M24.934,14.887,22.918,16.9a.4.4,0,0,1-.563,0l-2.016-2.016a.4.4,0,0,1,0-.563l2.016-2.016a.4.4,0,0,1,.563,0l2.016,2.016A.4.4,0,0,1,24.934,14.887Z" transform="translate(-4.906 -5.232)" fill="#83c9f0"/>
    <rect id="Rectangle_723" data-name="Rectangle 723" width="24" height="24" transform="translate(-1.652 -2.566)" fill="none"/>
  </g>
</svg>
