<svg id="Layer_1" data-name="Layer 1" xmlns="http://www.w3.org/2000/svg" viewBox="0 0 30 30"><defs><style>.cls-1{fill:#4a5f98;}.cls-2{fill:#4a6098;}.cls-3{fill:#99d2f3;}</style></defs><title>transmission</title><path class="cls-1" d="M7.48,11.28a1.78,1.78,0,0,0-.66-.44V7.36H5.32v3.48a1.91,1.91,0,0,0-.66.44L2.12,13.81a2,2,0,0,0,0,2.83l2.54,2.53a1.78,1.78,0,0,0,.66.44V22.4h1.5V19.61a1.78,1.78,0,0,0,.66-.44L10,16.64a2,2,0,0,0,0-2.83ZM9,15.58,6.42,18.11a.48.48,0,0,1-.7,0L3.18,15.58a.51.51,0,0,1,0-.71l2.54-2.53a.48.48,0,0,1,.7,0L9,14.87A.51.51,0,0,1,9,15.58Z"/><path class="cls-1" d="M27.2,13.81l-2.53-2.53a2,2,0,0,0-.68-.45V8.11h-1.5v2.74a1.84,1.84,0,0,0-.65.43l-2.53,2.53a2,2,0,0,0,0,2.83l2.53,2.53a1.84,1.84,0,0,0,.65.43v3.51H24V19.62a2,2,0,0,0,.68-.45l2.53-2.53A2,2,0,0,0,27.2,13.81Zm-1.06,1.77-2.53,2.53a.5.5,0,0,1-.71,0l-2.53-2.53a.5.5,0,0,1,0-.71l2.53-2.53a.5.5,0,0,1,.71,0l2.53,2.53A.5.5,0,0,1,26.14,15.58Z"/><polygon class="cls-1" points="9.58 15.22 9.58 15.97 19.3 15.97 19.3 14.47 9.58 14.47 9.58 15.22"/><path class="cls-2" d="M9.81,9.1,1.57,7.65A1.07,1.07,0,0,1,.7,6.41L1.09,4.2a1.06,1.06,0,0,1,1.24-.86l8.24,1.45A1.07,1.07,0,0,1,11.44,6l-.39,2.21A1.06,1.06,0,0,1,9.81,9.1ZM2.37,6.16,9.56,7.43l.21-1.15L2.57,5Z"/><path class="cls-2" d="M9.81,26.65,1.57,25.19A1.07,1.07,0,0,1,.7,24l.39-2.21a1.07,1.07,0,0,1,1.24-.87l8.24,1.45a1.08,1.08,0,0,1,.87,1.24l-.39,2.21A1.07,1.07,0,0,1,9.81,26.65ZM2.37,23.71,9.56,25l.21-1.16-7.2-1.27Z"/><path class="cls-2" d="M27.55,9H19.18a1.07,1.07,0,0,1-1.07-1.07V5.69a1.07,1.07,0,0,1,1.07-1.07h8.37a1.07,1.07,0,0,1,1.07,1.07V7.93A1.07,1.07,0,0,1,27.55,9ZM19.71,7.39H27V6.22H19.71Z"/><path class="cls-2" d="M27.55,26H19.18a1.06,1.06,0,0,1-1.07-1.06V22.64a1.07,1.07,0,0,1,1.07-1.07h8.37a1.07,1.07,0,0,1,1.07,1.07v2.25A1.06,1.06,0,0,1,27.55,26Zm-7.84-1.6H27V23.18H19.71Z"/><path class="cls-3" d="M9,15.58,6.42,18.11a.48.48,0,0,1-.7,0L3.18,15.58a.51.51,0,0,1,0-.71l2.54-2.53a.48.48,0,0,1,.7,0L9,14.87A.51.51,0,0,1,9,15.58Z"/><path class="cls-3" d="M26.14,15.58l-2.53,2.53a.5.5,0,0,1-.71,0l-2.53-2.53a.5.5,0,0,1,0-.71l2.53-2.53a.5.5,0,0,1,.71,0l2.53,2.53A.5.5,0,0,1,26.14,15.58Z"/></svg>