<svg id="Layer_1" data-name="Layer 1" xmlns="http://www.w3.org/2000/svg" viewBox="0 0 30 30"><defs><style>.cls-1{fill:#99d2f3;}.cls-2{fill:#44649a;}.cls-3{fill:#b4e2e9;}</style></defs><title>truck</title><polygon class="cls-1" points="21.5 11.53 23.85 11.53 23.85 13.93 25.63 15.52 27.14 15.52 28.48 14.67 29.37 15 29.37 18.7 24.7 18.7 23.31 18.21 22.15 18.24 21.26 19 21.5 11.53"/><polygon class="cls-1" points="0.56 18.21 0.56 8.26 21.07 8.26 21.07 18.24 0.56 18.21"/><circle class="cls-2" cx="6" cy="20.2" r="0.5"/><path class="cls-3" d="M21.5,11.53h4.31s-.89-2.28-2.62-2.28H20.94v2.28Z"/><path class="cls-2" d="M29.45,14.61l-.54-.27-.82-2.46a1,1,0,0,0-.95-.68h-.86l-.48-.8a3.5,3.5,0,0,0-3-1.7H21.5a1,1,0,0,0-1-1H1a1,1,0,0,0-1,1v11a1,1,0,0,0,1,1H3.55a2.5,2.5,0,0,0,4.9,0h8.84l.71.71a1,1,0,0,0,.71.29h1.08a1,1,0,0,0,.71-.29l.21-.21a2.5,2.5,0,0,0,4.58,0l.21.21a1,1,0,0,0,.71.29H29a1,1,0,0,0,1-1V15.51A1,1,0,0,0,29.45,14.61Zm-.45.9V18.2H24.5a2.46,2.46,0,0,0-3,0v-6h2V14a1,1,0,0,0,.4.8L25.57,16a1,1,0,0,0,.6.2h1.12a1,1,0,0,0,.71-.29l.6-.6Zm-1.07-.95-.64.64H26.17L24.5,14V12.2h2.64ZM22.8,9.7A2.52,2.52,0,0,1,25,10.91l.17.29H21.5V9.7ZM1,8.7H20.5v9H1Zm16.29,11H16.5v-1H18V19ZM1,18.7H4a2.54,2.54,0,0,0-.46,1H1Zm5,3a1.5,1.5,0,1,1,1.5-1.5A1.5,1.5,0,0,1,6,21.7Zm9.5-2h-7a2.54,2.54,0,0,0-.46-1H15.5Zm4.29,1H18.71l-.5-.5.5-.5A1,1,0,0,0,19,19V18.7h1.5V20Zm3.21,1a1.5,1.5,0,1,1,1.5-1.5A1.5,1.5,0,0,1,23,21.7Zm3.21-1L25.48,20a2.49,2.49,0,0,0-.19-.77H29v1.5Z"/><circle class="cls-2" cx="23" cy="20.2" r="0.5"/></svg>