<svg xmlns="http://www.w3.org/2000/svg" width="40" height="40" viewBox="0 0 40 40">
  <g id="truck" transform="translate(-0.382 10)">
    <rect id="Rectangle_741" data-name="Rectangle 741" width="40" height="40" transform="translate(0.382 -10)" fill="none"/>
    <path id="Path_2383" data-name="Path 2383" d="M21.581,11.528h3.141v3.2L27.1,16.854h2.023L30.9,15.72l1.187.445V21.1H25.859L24,20.453l-1.55.041-1.187,1.013Z" transform="translate(7.45 -6.43)" fill="#83c9f0"/>
    <path id="Path_2384" data-name="Path 2384" d="M.556,21.55V8.259h27.4V21.591Z" transform="translate(0.569 -7.51)" fill="#83c9f0"/>
    <circle id="Ellipse_317" data-name="Ellipse 317" cx="0.668" cy="0.668" r="0.668" transform="translate(7.715 15.994)" fill="#2a5289"/>
    <path id="Path_2385" data-name="Path 2385" d="M21.687,12.292h5.751S26.25,9.25,23.949,9.25h-3v3.042Z" transform="translate(7.344 -7.177)" fill="#a6dce5"/>
    <path id="Path_2386" data-name="Path 2386" d="M39.263,16.918l-.717-.359-1.095-3.283a1.332,1.332,0,0,0-1.264-.912H35.044L34.4,11.3a4.7,4.7,0,0,0-4-2.265H28.667A1.336,1.336,0,0,0,27.333,7.7h-26A1.336,1.336,0,0,0,0,9.031V23.7a1.335,1.335,0,0,0,1.333,1.333h3.4a3.332,3.332,0,0,0,6.531,0H23.057l.943.943a1.343,1.343,0,0,0,.943.391h1.448a1.343,1.343,0,0,0,.943-.391l.28-.28a3.328,3.328,0,0,0,6.107,0l.28.28a1.343,1.343,0,0,0,.943.391h3.724A1.335,1.335,0,0,0,40,25.031V18.11A1.325,1.325,0,0,0,39.263,16.918Zm-.6,1.192V21.7h-6v.017a3.266,3.266,0,0,0-4,0V13.7h2.667v2.333a1.34,1.34,0,0,0,.533,1.067l2.221,1.667a1.344,1.344,0,0,0,.8.267h1.5a1.343,1.343,0,0,0,.943-.391l.8-.8Zm-1.429-1.259-.847.847h-1.5l-2.221-1.667V13.7h3.52ZM30.4,10.365a3.351,3.351,0,0,1,2.859,1.619l.229.381H28.667v-2ZM1.333,9.031h26v12h-26ZM23.057,23.7H22V22.365h2v.391ZM1.333,22.365H5.351A3.308,3.308,0,0,0,4.735,23.7h-3.4Zm6.667,4a2,2,0,1,1,2-2A2,2,0,0,1,8,26.365ZM20.667,23.7h-9.4a3.308,3.308,0,0,0-.616-1.333H20.667Zm5.724,1.333H24.943l-.667-.667.667-.667a1.322,1.322,0,0,0,.391-.943v-.391h2v1.724Zm4.276,1.333a2,2,0,1,1,2-2A2,2,0,0,1,30.667,26.365Zm4.276-1.333-.973-.973a3.331,3.331,0,0,0-.252-1.027h4.949v2Z" transform="translate(0.382 -7.698)" fill="#2a5289"/>
    <circle id="Ellipse_318" data-name="Ellipse 318" cx="0.668" cy="0.668" r="0.668" transform="translate(30.381 15.994)" fill="#2a5289"/>
  </g>
</svg>
