<svg xmlns="http://www.w3.org/2000/svg" width="40" height="40" viewBox="0 0 40 40">
  <g id="van" transform="translate(0.197 9)">
    <path id="Path_2393" data-name="Path 2393" d="M29.227,25.871H11.944s.272-3.555-2.716-3.555-2.692,3.555-2.692,3.555H1.895L.315,24.093V16.986l2.839-6.439H5.376l-.049,4.664H22.166L23.8,13.939l-.1-3.6,2.816-.021.148,6,10.567.224L39.2,17.876v6.663l-1.407,1.333H34.412s.785-3.122-2.287-3.122S29.227,25.871,29.227,25.871Z" transform="translate(-0.091 -7.209)" fill="#83c9f0"/>
    <path id="Path_2394" data-name="Path 2394" d="M3.434,8.488l-.989,2.675H31.233L28.957,8.488Z" transform="translate(0.623 -7.824)" fill="#a6dce5"/>
    <circle id="Ellipse_321" data-name="Ellipse 321" cx="0.668" cy="0.668" r="0.668" transform="translate(8.469 17.327)" fill="#2a5289"/>
    <path id="Path_2395" data-name="Path 2395" d="M39.7,18.1l-1.921-1.281L30.708,8.463a1.331,1.331,0,0,0-1.017-.472H4.457a1.342,1.342,0,0,0-1.244.855L.088,16.971A1.323,1.323,0,0,0,0,17.448v7.6a1.324,1.324,0,0,0,.391.943l.943.943a1.343,1.343,0,0,0,.943.391H6.283a3.327,3.327,0,0,0,6.1,0H28.949a3.327,3.327,0,0,0,6.1,0h2.673a1.343,1.343,0,0,0,.943-.391l.943-.943A1.324,1.324,0,0,0,40,25.048V18.658A.668.668,0,0,0,39.7,18.1Zm-1.036,2.555H37.333V19.324h1.333Zm-1.625-2.727.091.06h-.465a.667.667,0,0,0-.667.667h0v2.585l-.521,2.081H34v.017a3.28,3.28,0,0,0-4.572.555l-2.095-4.713V17.324H36.46l.3.359A1.371,1.371,0,0,0,37.041,17.931Zm-5.095-5.94,3.385,4h-8v-4ZM29.691,9.324l1.128,1.333H3.945l.512-1.333ZM6,11.991H9.333v3.333H6Zm4.667,0H14v3.333H10.667Zm4.667,0h3.333v3.333H15.333Zm4.667,0h3.333v2.391l-.943.943H20ZM2.667,18.658v2H1.333v-2Zm0,7.333H2.276l-.943-.943v-.391H2.667Zm6.667,2a2,2,0,1,1,2-2A2,2,0,0,1,9.333,27.991Zm3.333-2a3.333,3.333,0,0,0-6.667,0H4V24.658a1.336,1.336,0,0,0-1.333-1.333H1.333V21.991H2.667A1.336,1.336,0,0,0,4,20.658v-2a1.336,1.336,0,0,0-1.333-1.333H1.381l2.051-5.333H4.667v3.333A1.336,1.336,0,0,0,6,16.658H22.391a1.343,1.343,0,0,0,.943-.391l.943-.943a1.324,1.324,0,0,0,.391-.943V11.991H26v7.192a1.329,1.329,0,0,0,.115.541l2.595,5.839a3.579,3.579,0,0,0-.043.428Zm19.333,2a2,2,0,1,1,2-2A2,2,0,0,1,32,27.991Zm5.724-2H35.333a3.306,3.306,0,0,0-.283-1.333h.428a1.332,1.332,0,0,0,1.295-1.009l.415-1.657h1.479v3.057Z" transform="translate(-0.197 -7.991)" fill="#2a5289"/>
    <rect id="Rectangle_744" data-name="Rectangle 744" width="40" height="40" transform="translate(-0.197 -9)" fill="none"/>
  </g>
</svg>
