<svg id="Layer_1" data-name="Layer 1" xmlns="http://www.w3.org/2000/svg" viewBox="0 0 30 30"><defs><style>.cls-1{fill:#44649a;}.cls-2{fill:#99d2f3;}.cls-3{fill:#b4e2e9;}</style></defs><title>van</title><circle class="cls-1" cx="24" cy="21.49" r="0.5"/><rect class="cls-1" x="22" y="15.99" width="1.5" height="1"/><path class="cls-2" d="M22,22H9s.2-2.67-2-2.67S5,22,5,22H1.5L.31,20.66V15.32l2.13-4.83H4.11l0,3.5H16.7l1.23-1-.08-2.7,2.11,0,.11,4.5L28,15l1.48,1v5l-1.05,1H25.89s.59-2.34-1.72-2.34A2.14,2.14,0,0,0,22,22Z"/><polygon class="cls-3" points="3.19 8.49 2.44 10.49 24 10.49 22.3 8.49 3.19 8.49"/><circle class="cls-1" cx="7" cy="21.49" r="0.5"/><path class="cls-1" d="M29.78,15.58l-1.44-1L23,8.34A1,1,0,0,0,22.27,8H3.34a1,1,0,0,0-.93.64L.07,14.73a.84.84,0,0,0-.07.35v5.7a1,1,0,0,0,.29.71L1,22.2a1,1,0,0,0,.71.29h3a2.5,2.5,0,0,0,4.58,0H21.71a2.5,2.5,0,0,0,4.58,0h2A1,1,0,0,0,29,22.2l.71-.71a1,1,0,0,0,.29-.71V16A.48.48,0,0,0,29.78,15.58ZM29,17.49H28v-1h1Zm-1.22-2,.07,0H27.5a.5.5,0,0,0-.5.5h0v1.94l-.39,1.56H25.5a2.47,2.47,0,0,0-3.43.42L20.5,16.38V15h6.85l.22.27A1.29,1.29,0,0,0,27.78,15.45ZM24,11l2.54,3h-6V11ZM22.27,9l.84,1H3l.38-1ZM4.5,11H7v2.5H4.5ZM8,11h2.5v2.5H8Zm3.5,0H14v2.5H11.5ZM15,11h2.5v1.79l-.71.71H15ZM2,16v1.5H1V16Zm0,5.5H1.71L1,20.78v-.29H2ZM7,23a1.5,1.5,0,1,1,1.5-1.5A1.5,1.5,0,0,1,7,23Zm2.5-1.5a2.5,2.5,0,0,0-5,0H3v-1a1,1,0,0,0-1-1H1v-1H2a1,1,0,0,0,1-1V16a1,1,0,0,0-1-1H1l1.53-4H3.5v2.5a1,1,0,0,0,1,1H16.79a1,1,0,0,0,.71-.29l.71-.71a1,1,0,0,0,.29-.71V11h1v5.39a1,1,0,0,0,.09.41l1.94,4.38a1.73,1.73,0,0,0,0,.32ZM24,23a1.5,1.5,0,1,1,1.5-1.5A1.5,1.5,0,0,1,24,23Zm4.29-1.5H26.5a2.49,2.49,0,0,0-.21-1h.32a1,1,0,0,0,1-.76l.31-1.24H29v2.29Z"/></svg>