<svg id="Layer_1" data-name="Layer 1" xmlns="http://www.w3.org/2000/svg" viewBox="0 0 30.89 35.3"><defs><style>.cls-1{fill:#85c9ef;}.cls-2{fill:#4a6098;}.cls-3{fill:none;stroke:#fff;stroke-linecap:round;stroke-width:2px;}</style></defs><title>verify</title><g id="Group_396" data-name="Group 396"><g id="Group_118" data-name="Group 118"><g id="surface1"><path id="Path_2101" data-name="Path 2101" class="cls-1" d="M30.39,9.69v0c0-.34,0-.7,0-1.09a3.74,3.74,0,0,0-3.52-3.65A14.51,14.51,0,0,1,17,.78l0,0a2.26,2.26,0,0,0-3.07,0l0,0A14.53,14.53,0,0,1,4,4.93,3.73,3.73,0,0,0,.49,8.58c0,.39,0,.75,0,1.09v.06C.38,13.85.28,19,2,23.63a17.63,17.63,0,0,0,4.26,6.61,22.21,22.21,0,0,0,8.33,4.92,1.89,1.89,0,0,0,.34.09,2.36,2.36,0,0,0,1,0,2.14,2.14,0,0,0,.34-.09,22.25,22.25,0,0,0,8.32-4.92,17.71,17.71,0,0,0,4.26-6.61C30.56,19,30.47,13.82,30.39,9.69Z"/><path id="Path_2223" data-name="Path 2223" class="cls-2" d="M30.39,9.69v0c0-.34,0-.7,0-1.09a3.74,3.74,0,0,0-3.52-3.65A14.51,14.51,0,0,1,17,.78l0,0a2.26,2.26,0,0,0-3.07,0l0,0A14.53,14.53,0,0,1,4,4.93,3.73,3.73,0,0,0,.49,8.58c0,.39,0,.75,0,1.09v.06C.38,13.85.28,19,2,23.63a17.63,17.63,0,0,0,4.26,6.61,22.21,22.21,0,0,0,8.33,4.92,1.89,1.89,0,0,0,.34.09,2.36,2.36,0,0,0,1,0,2.14,2.14,0,0,0,.34-.09,22.25,22.25,0,0,0,8.32-4.92,17.71,17.71,0,0,0,4.26-6.61C30.56,19,30.47,13.82,30.39,9.69ZM26.9,22.91c-1.82,4.91-5.52,8.28-11.32,10.3l-.07,0a.54.54,0,0,1-.18,0h-.06c-5.81-2-9.52-5.39-11.33-10.3-1.58-4.29-1.5-9-1.42-13.15v0c0-.36,0-.73,0-1.14A1.64,1.64,0,0,1,4.12,7a18.12,18.12,0,0,0,6.16-1.36,16,16,0,0,0,5-3.36.2.2,0,0,1,.25,0,16,16,0,0,0,5,3.36A18.12,18.12,0,0,0,26.72,7a1.65,1.65,0,0,1,1.57,1.62c0,.41,0,.78,0,1.14.08,4.15.17,8.87-1.42,13.16Z"/><path id="Path_2102" data-name="Path 2102" class="cls-2" d="M15.42,9a8.76,8.76,0,1,0,8.78,8.76A8.76,8.76,0,0,0,15.42,9Zm0,15.46a6.7,6.7,0,1,1,6.71-6.7A6.71,6.71,0,0,1,15.42,24.43Z"/><path id="Path_2103" data-name="Path 2103" class="cls-2" d="M18,15l-4.08,4.07L12.76,18a1,1,0,0,0-1.46,1.46l1.84,1.83a1,1,0,0,0,1.46,0l4.81-4.8A1,1,0,1,0,18,15Z"/><path id="Path_2224" data-name="Path 2224" class="cls-3" d="M22.7,8.31c2,.66,4,1.15,4,3.38v2.89"/></g></g></g></svg>