<svg xmlns="http://www.w3.org/2000/svg" width="24" height="24" viewBox="0 0 24 24">
  <g id="wheel" transform="translate(0 0)">
    <path id="Path_2372" data-name="Path 2372" d="M12.332.845A11.487,11.487,0,1,0,23.818,12.332,11.5,11.5,0,0,0,12.332.845ZM4.28,9.663a8.478,8.478,0,0,1,16.1,0Zm1.71,3.464a1.163,1.163,0,0,1,.814,2l-1.636,1.75a8.44,8.44,0,0,1-1.281-3.746Zm6.29,4.605a7.649,7.649,0,0,1,4.757,1.655A8.423,8.423,0,0,1,7.57,19.35,7.651,7.651,0,0,1,12.28,17.732Zm5.466-2.62a1.163,1.163,0,0,1,.824-1.986h2.206a8.431,8.431,0,0,1-1.264,3.721Z" transform="translate(-0.332 -0.332)" fill="#83c9f0"/>
    <path id="Path_2373" data-name="Path 2373" d="M22.422,5.453a10.117,10.117,0,0,0-7.247-3.2v.713A9.428,9.428,0,0,1,21.9,5.929Q22.159,5.676,22.422,5.453Z" transform="translate(-2.933 -0.619)" fill="#fff"/>
    <path id="Path_2376" data-name="Path 2376" d="M191.3,15.588s-.2,12.161,10.865,12.161,11.318-11.336,11.318-11.336a11.525,11.525,0,0,1-1.152,7.051A11.27,11.27,0,0,1,202.17,29.31a11.448,11.448,0,0,1-10.47-6.567A10.869,10.869,0,0,1,191.3,15.588Z" transform="translate(-190.178 -5.921)" fill="#adf2f5"/>
    <path id="Path_2374" data-name="Path 2374" d="M25.845,9.087c-.119.1-.235.2-.35.306a9.455,9.455,0,0,1,.768,1.965l.082.314h.734a10.055,10.055,0,0,0-1.021-2.747C25.988,8.981,25.914,9.031,25.845,9.087Z" transform="translate(-4.921 -1.833)" fill="#fff"/>
    <path id="Path_2375" data-name="Path 2375" d="M12.2,24.2a12,12,0,1,1,12-12A12.013,12.013,0,0,1,12.2,24.2ZM12.2.966A11.234,11.234,0,1,0,23.434,12.2,11.246,11.246,0,0,0,12.2.966Zm0,19.963a8.626,8.626,0,0,1-5.159-1.7,7.9,7.9,0,0,1,10.262.041A8.629,8.629,0,0,1,12.2,20.929Zm-.052-2.81a7.146,7.146,0,0,0-3.5.918l.006.285a7.894,7.894,0,0,0,7.035.028l.008-.286A7.142,7.142,0,0,0,12.148,18.119ZM5.01,17.128A8.671,8.671,0,0,1,3.5,12.751H5.864a1.405,1.405,0,0,1,.994,2.4ZM4.393,13.71a7.869,7.869,0,0,0,.644,1.944l.1.213,1.155-1.236a.63.63,0,0,0,.161-.72.616.616,0,0,0-.591-.395H4.355Zm13.044,1.44a1.406,1.406,0,0,1,1-2.4H20.9a8.663,8.663,0,0,1-1.485,4.342Zm1-1.633a.64.64,0,0,0-.46,1.086l1.288,1.266.1-.2a7.935,7.935,0,0,0,.649-1.955l.037-.193ZM3.824,9.777a8.715,8.715,0,0,1,16.751,0ZM12.2,4.237A7.993,7.993,0,0,0,5.02,8.778l-.11.233H19.491l-.111-.233A7.993,7.993,0,0,0,12.2,4.237Z" transform="translate(-0.2 -0.2)" fill="#2f4d87"/>
    <ellipse id="Ellipse_314" data-name="Ellipse 314" cx="3.19" cy="1.948" rx="3.19" ry="1.948" transform="translate(8.789 11.504)" fill="#2f4d87"/>
  </g>
</svg>
