<svg id="Layer_1" data-name="Layer 1" xmlns="http://www.w3.org/2000/svg" viewBox="0 0 30 30"><defs><style>.cls-1{fill:#99d2f3;}.cls-2{fill:#fff;}.cls-3{fill:#b4e2e9;}.cls-4{fill:#4a5f98;}</style></defs><title>wheel</title><path class="cls-1" d="M15,.84A14.16,14.16,0,1,0,29.16,15,14.17,14.17,0,0,0,15,.84ZM5.08,11.71a10.44,10.44,0,0,1,19.84,0ZM7.19,16a1.43,1.43,0,0,1,1,2.46l-2,2.16A10.57,10.57,0,0,1,4.59,16Zm7.75,5.68a9.44,9.44,0,0,1,5.86,2,10.38,10.38,0,0,1-11.67-.05A9.44,9.44,0,0,1,14.94,21.66Zm6.73-3.23a1.43,1.43,0,0,1,1-2.45h2.72a10.46,10.46,0,0,1-1.56,4.58Z"/><path class="cls-2" d="M24.28,6.28a12.7,12.7,0,0,0-9.11-4v.9a11.85,11.85,0,0,1,8.45,3.72C23.84,6.66,24.06,6.46,24.28,6.28Z"/><path class="cls-3" d="M.84,15S2.19,27,15.33,27c12.08,0,13.83-11.62,13.83-11.62s-.31,13.78-13.64,13.78C.37,29.16.84,15,.84,15Z"/><path class="cls-2" d="M25.93,9.13l-.44.38a11.75,11.75,0,0,1,1,2.47l.1.4h.92A12.5,12.5,0,0,0,26.2,8.92Z"/><path class="cls-4" d="M15,29.8A14.8,14.8,0,1,1,29.8,15,14.82,14.82,0,0,1,15,29.8ZM15,1.14A13.86,13.86,0,1,0,28.86,15,13.88,13.88,0,0,0,15,1.14Zm0,24.63a10.66,10.66,0,0,1-6.36-2.1,9.75,9.75,0,0,1,12.65,0A10.59,10.59,0,0,1,15,25.77Zm-.06-3.47a8.81,8.81,0,0,0-4.32,1.13v.35a9.72,9.72,0,0,0,8.67,0v-.36A8.82,8.82,0,0,0,14.94,22.3ZM6.13,21.08a10.68,10.68,0,0,1-1.86-5.4H7.19a1.73,1.73,0,0,1,1.22,3Zm-.76-4.22a9.68,9.68,0,0,0,.8,2.4l.12.26L7.72,18a.78.78,0,0,0,.19-.89.75.75,0,0,0-.72-.49H5.32Zm16.09,1.78a1.73,1.73,0,0,1,1.23-3h3A10.72,10.72,0,0,1,23.9,21Zm1.23-2a.76.76,0,0,0-.73.49.75.75,0,0,0,.16.85l1.59,1.56.12-.25a9.62,9.62,0,0,0,.8-2.41l.05-.24ZM4.67,12a10.75,10.75,0,0,1,20.66,0ZM15,5.18a9.84,9.84,0,0,0-8.85,5.6L6,11.07H24l-.13-.29A9.87,9.87,0,0,0,15,5.18Z"/><ellipse class="cls-4" cx="14.97" cy="16.78" rx="4.01" ry="2.45"/></svg>