<svg xmlns="http://www.w3.org/2000/svg" width="28" height="28" viewBox="0 0 28 28">
  <g id="auction" transform="translate(4 3.781)">
    <rect id="Rectangle_792" data-name="Rectangle 792" width="28" height="28" transform="translate(-4 -3.781)" fill="rgba(0,0,0,0)"/>
    <g id="Group_3446" data-name="Group 3446" transform="translate(-1 -0.782)">
      <path id="Path_2178" data-name="Path 2178" d="M11,394.382a1.482,1.482,0,0,0,.295-.891,1.514,1.514,0,0,0-1.52-1.5H2.388a1.518,1.518,0,0,0-1.075.44,1.49,1.49,0,0,0-.149,1.954A2.147,2.147,0,0,0,0,396.284v.43a.432.432,0,0,0,.434.43h11.29a.432.432,0,0,0,.434-.43v-.43A2.147,2.147,0,0,0,11,394.382Zm-9.068-1.347a.651.651,0,0,1,.461-.189H9.771a.649.649,0,0,1,.651.644.637.637,0,0,1-.191.456.651.651,0,0,1-.461.189H2.388a.649.649,0,0,1-.651-.645A.637.637,0,0,1,1.928,393.035ZM.868,396.284a1.3,1.3,0,0,1,1.3-1.289H9.988a1.3,1.3,0,0,1,1.3,1.289Z" transform="translate(0 -375.143)" fill="#999"/>
      <path id="Path_2179" data-name="Path 2179" d="M21.62,17.863a2.686,2.686,0,0,0-.518-.588l-2.008-1.733a.425.425,0,0,0-.171-.147L17.71,14.347,12.09,9.5a1.265,1.265,0,0,0-.021-1.782,1.276,1.276,0,0,0-.356-.248l.52-.514a1.747,1.747,0,0,0,.444.058,1.723,1.723,0,0,0,1.215-.5,1.688,1.688,0,0,0,0-2.405L10.246.5A1.731,1.731,0,0,0,7.815.5a1.689,1.689,0,0,0-.444,1.642L2.184,7.274a1.747,1.747,0,0,0-.445-.058,1.716,1.716,0,0,0-1.215.5,1.69,1.69,0,0,0,0,2.405l3.646,3.607a1.734,1.734,0,0,0,2.431,0,1.689,1.689,0,0,0,.444-1.642l.519-.513a1.3,1.3,0,0,0,2.053.373l5.986,6.8a.428.428,0,0,0,.058.072l.024.021,1.784,2.028c.044.052.092.1.141.151a2.569,2.569,0,0,0,1.816.748,2.665,2.665,0,0,0,.362-.025A2.6,2.6,0,0,0,21.7,20.43,2.493,2.493,0,0,0,21.62,17.863ZM8.423,1.1a.866.866,0,0,1,1.215,0l3.646,3.607a.844.844,0,0,1,0,1.2.866.866,0,0,1-1.215,0L8.423,2.3h0A.845.845,0,0,1,8.423,1.1ZM5.993,13.125a.867.867,0,0,1-1.215,0L1.131,9.518a.845.845,0,0,1,0-1.2.866.866,0,0,1,1.215,0l3.646,3.608A.845.845,0,0,1,5.993,13.125ZM7.8,10.133,6.6,11.322,2.954,7.714,7.815,2.9l3.646,3.608L10.258,7.7l-.012.011-2.429,2.4Zm1.534.887,0,0-.3.3a.433.433,0,0,1-.608,0,.422.422,0,0,1-.005-.6l2.441-2.415a.435.435,0,0,1,.6,0,.422.422,0,0,1,0,.6l-.3.3-.006.006Zm.89.322L11.481,10.1,16.8,14.688l-1.94,1.92Zm5.2,5.909,2.024-2,.649.56-2.107,2.085Zm5.531,2.764a1.748,1.748,0,0,1-1.286.887,1.718,1.718,0,0,1-1.453-.482c-.033-.033-.065-.067-.094-.1l0,0-1.563-1.777,2.191-2.168,1.794,1.548,0,0a1.836,1.836,0,0,1,.355.4A1.663,1.663,0,0,1,20.955,20.015Z" transform="translate(-0.02 0)" fill="#999"/>
    </g>
  </g>
</svg>
