<svg xmlns="http://www.w3.org/2000/svg" viewBox="0 0 1047.66 234.02"><defs><style>.cls-1{fill:#225da9;}.cls-2{fill:#2996ff;}.cls-3{fill:#e23149;}.cls-4{fill:#2b3651;}.cls-5{fill:#1447ef;}.cls-6{isolation:isolate;}.cls-7{fill:#df2626;}</style></defs><title>logo</title><g id="Layer_2" data-name="Layer 2"><g id="Layer_1-2" data-name="Layer 1"><g id="Group_3689" data-name="Group 3689"><path id="Path_2767" data-name="Path 2767" class="cls-1" d="M44.86,1.2A44.52,44.52,0,0,0,40,1.47a46.61,46.61,0,0,1,5.41-.32A44.87,44.87,0,0,1,83.23,21.93l-4-4.7A44.82,44.82,0,0,0,44.86,1.2Z"/><path id="Path_2768" data-name="Path 2768" class="cls-2" d="M90.71,168.17V188A45.35,45.35,0,1,1,0,189.37c0-.46,0-.93,0-1.39V49.9A45,45,0,0,0,10.17,72.56Z"/><path id="Path_2769" data-name="Path 2769" class="cls-3" d="M163.74,232a44.79,44.79,0,0,1-34.4-16L10.51,75A44.89,44.89,0,1,1,79.26,17.23l118.83,141A44.88,44.88,0,0,1,163.74,232Z"/><path id="Path_2770" data-name="Path 2770" class="cls-4" d="M300.89,232a44.76,44.76,0,0,1-34.4-16L147.66,75A44.88,44.88,0,1,1,216,16.76l.4.47,118.83,141A44.87,44.87,0,0,1,300.89,232Z"/><path id="Path_2771" data-name="Path 2771" class="cls-5" d="M90.71,45.3V170.14L10.16,74.53A45,45,0,0,1,0,51.87V45.3A45.39,45.39,0,0,1,39.56.33l.34,0A45.23,45.23,0,0,1,79.61,16.2l4,4.75A45,45,0,0,1,90.71,45.3Z"/></g><g id="maz.mn" class="cls-6"><g class="cls-6"><path class="cls-4" d="M550.52,99.49c3-14.81-.86-20-10.84-20-7.59,0-16.47,8.19-19.08,21.4l-8.89,43.5c-3.25,15.94-14.09,23.23-27.1,23.23s-20.81-7.29-17.56-23.23l9.11-44.86c3-14.81-.87-20-10.84-20-7.59,0-16.48,8.19-19.08,21.4l-8.89,43.5c-3.26,15.94-14.09,23.23-27.1,23.23s-20.82-7.29-17.57-23.23l16.05-79.48c3-14.57,11.27-22.31,26-22.31,13.22,0,16.69,8,15.39,22.09h.43C460.76,50.53,474.86,42.56,492,42.56c14.53,0,28.41,6.83,28.84,23,13-16.63,26.67-23,42.49-23,30.79,0,39.25,20,34,46l-11.27,55.79c-3.25,15.94-14.09,23.23-27.1,23.23s-20.81-7.29-17.56-23.23Z"/><path class="cls-4" d="M662.17,42.56c-24.35,0-45.48,7-55.11,18.53,2,7.08,2.34,15.26,1.08,24.32a16.5,16.5,0,0,0,4.82.64c15.18,0,23-16.16,42.27-16.16,11.94,0,17.36,4.09,15.83,11.6-1.73,8-8.89,10.49-25.79,11.62-17.41,1.14-30.49,4-40.21,8.33L596,146.35a43.05,43.05,0,0,1-6.21,15.34c6.22,4,14.88,5.88,25.13,5.88,15.4,0,32.32-5.23,43.8-18.9-.65,10.71,3.26,18.9,18.66,18.9,10.62,0,21.88-5,24.28-16.62,1.08-5.69,1.3-13,3-21.18l10.41-52.15C721.14,48.25,685.81,42.56,662.17,42.56Zm0,82c-1.73,8.88-12.13,17.07-24.72,17.07-7.15,0-12.57-4.55-11.27-11.61a13.08,13.08,0,0,1,8-9.79c8.89-3.42,23-2,30.79-9.11Z"/><path class="cls-4" d="M803.74,45.52H733.06c-7,0-12,1.13-15.62,3.85.47.5.92,1,1.36,1.55,4.26,5.23,8.75,14.17,6.43,27.38h34.29l-41.28,35.13-3.69,18.44c-.89,4.23-1.34,8.25-1.78,12.14-.35,3.1-.67,6-1.21,8.84l0,.13a28.58,28.58,0,0,1-5.28,11.63h74.51c10.19,0,17.34-3.41,19.94-16.39s-3-16.4-13.23-16.4h-38.8l56.15-48.73c7.38-6.38,9.54-10,11.06-17.54C818.27,54,815,45.52,803.74,45.52Z"/></g><g class="cls-6"><path class="cls-4" d="M843.08,136.75c7.12,0,12.86,6,12.86,13.51s-5.74,13.5-12.86,13.5-12.86-6-12.86-13.5S836,136.75,843.08,136.75Z"/><path class="cls-4" d="M947.21,128.55c0-7.83-2.53-10.61-7.81-10.61-4,0-7.92,4.34-7.92,11.34v23c0,8.44-4.94,12.3-11.83,12.3s-11.82-3.86-11.82-12.3V128.55c0-7.83-2.53-10.61-7.81-10.61-4,0-7.92,4.34-7.92,11.34v23c0,8.44-4.94,12.3-11.83,12.3s-11.82-3.86-11.82-12.3V110.23c0-7.72,3.56-11.82,11.36-11.82,7,0,9.76,4.22,10.57,11.7h.23c3.9-7.48,10.44-11.7,19.51-11.7,7.7,0,15.73,3.62,17.8,12.18,5.05-8.8,11.59-12.18,20-12.18,16.3,0,23,10.61,23,24.36v29.54c0,8.44-4.94,12.3-11.83,12.3s-11.82-3.86-11.82-12.3Z"/><path class="cls-4" d="M1024,128.55c0-6.87-2.87-10.61-8.73-10.61s-8.72,4.83-8.72,12.3v22.07c0,8.44-4.94,12.3-11.83,12.3s-11.82-3.86-11.82-12.3V110.23c0-7.72,3.55-11.82,11.36-11.82,7,0,9.76,4.22,10.56,11.7h.23c3.91-7.48,10.45-11.7,19.52-11.7,16.42,0,23.08,10.61,23.08,24.36v29.54c0,8.44-4.94,12.3-11.83,12.3s-11.82-3.86-11.82-12.3Z"/></g></g><g id="Онлайн_авто_диллер" data-name="Онлайн авто диллер" class="cls-6"><g class="cls-6"><path class="cls-4" d="M406.6,225.44A15.22,15.22,0,0,1,400,224a16.41,16.41,0,0,1-5.13-3.81,17.59,17.59,0,0,1-4.49-11.69,16.81,16.81,0,0,1,1.24-6.4A17.63,17.63,0,0,1,395,196.7,16.54,16.54,0,0,1,400.2,193a15.52,15.52,0,0,1,6.54-1.38,14.62,14.62,0,0,1,6.61,1.48,16.52,16.52,0,0,1,5.1,3.88,18,18,0,0,1,3.3,5.46A17.15,17.15,0,0,1,421.7,215a17.44,17.44,0,0,1-3.39,5.36,16.26,16.26,0,0,1-5.17,3.71A15.38,15.38,0,0,1,406.6,225.44Zm-9.69-16.93a13.45,13.45,0,0,0,.66,4.19,11.22,11.22,0,0,0,1.9,3.57,9.28,9.28,0,0,0,3.06,2.49,9.5,9.5,0,0,0,8.28,0,9.48,9.48,0,0,0,3.06-2.56,11.45,11.45,0,0,0,1.88-3.6,13.45,13.45,0,0,0,.63-4.07,12.91,12.91,0,0,0-.68-4.19,11.48,11.48,0,0,0-1.93-3.57,9.16,9.16,0,0,0-3-2.47,8.93,8.93,0,0,0-4.07-.92,8.78,8.78,0,0,0-4.19,1,9.34,9.34,0,0,0-3.06,2.54,11.43,11.43,0,0,0-1.85,3.57A13.16,13.16,0,0,0,396.91,208.51Z"/><path class="cls-4" d="M462.43,191.81v33.4H456V211H440.84v14.26h-6.49v-33.4h6.49v13.5H456v-13.5Z"/><path class="cls-4" d="M486.61,202.58a91.88,91.88,0,0,1-1.42,10.82,23.89,23.89,0,0,1-2.44,7.08,9.48,9.48,0,0,1-3.86,3.88,12.35,12.35,0,0,1-5.64,1.18l-.38-5.84a7,7,0,0,0,2.8-.8,5.25,5.25,0,0,0,2.07-2.58,23.86,23.86,0,0,0,1.48-5.53c.41-2.4.78-5.59,1.13-9.57l.8-9.41h20.22v33.4h-6.44V197.5H487Z"/><path class="cls-4" d="M524.37,191.81h5.74l12.7,33.4h-6.68l-3.1-8.33H521.36l-3.05,8.33h-6.68Zm7.48,20.51-4.61-13.12-4.79,13.12Z"/><path class="cls-4" d="M559.41,215.24l17-23.43h4.94v33.4h-6.44V202.3l-16.79,22.91H553v-33.4h6.44Zm16.89-33.12a5.51,5.51,0,0,1-.64,2.66,6.36,6.36,0,0,1-1.71,2.05,7.78,7.78,0,0,1-2.61,1.29,11.87,11.87,0,0,1-3.36.45,12.09,12.09,0,0,1-3.39-.45,7.7,7.7,0,0,1-2.63-1.29,6.27,6.27,0,0,1-1.72-2.05,5.51,5.51,0,0,1-.64-2.66h3.86a2.25,2.25,0,0,0,.35,1.18,3.45,3.45,0,0,0,1,1,5.28,5.28,0,0,0,1.44.66,6.37,6.37,0,0,0,1.74.23,5.07,5.07,0,0,0,3-.87,3.34,3.34,0,0,0,1.45-2.19Z"/><path class="cls-4" d="M623.05,191.81v33.4h-6.44V211H601.46v14.26H595v-33.4h6.49v13.5h15.15v-13.5Z"/></g><g class="cls-6"><path class="cls-7" d="M663.64,191.81h5.74l12.7,33.4H675.4l-3.1-8.33H660.63l-3.06,8.33H650.9Zm7.48,20.51-4.61-13.12-4.8,13.12Z"/><path class="cls-7" d="M718.62,216.6a7.54,7.54,0,0,1-3.17,6.4,10.8,10.8,0,0,1-3.43,1.64,14.8,14.8,0,0,1-4.17.57H691.72v-33.4h17.87a6.53,6.53,0,0,1,3.16.76,7.71,7.71,0,0,1,2.39,2,9,9,0,0,1,1.53,2.72,9.23,9.23,0,0,1,.54,3.09,9,9,0,0,1-1.22,4.58,7.44,7.44,0,0,1-3.57,3.18,8.58,8.58,0,0,1,4.54,3A8.78,8.78,0,0,1,718.62,216.6Zm-20.41-19.24v8.42h8.66a3.84,3.84,0,0,0,2.79-1.13,4.14,4.14,0,0,0,1.16-3.1,4.31,4.31,0,0,0-1.06-3.06,3.46,3.46,0,0,0-2.61-1.13Zm13.88,18a4.76,4.76,0,0,0-.31-1.72,4.65,4.65,0,0,0-.82-1.43,3.94,3.94,0,0,0-1.22-1,3.5,3.5,0,0,0-1.56-.35h-10v8.79h9.64a4.18,4.18,0,0,0,1.67-.33,3.93,3.93,0,0,0,1.34-.91,4.45,4.45,0,0,0,1.23-3.08Z"/><path class="cls-7" d="M754.51,197.5H743.84v27.71h-6.45V197.5H726.71v-5.69h27.8Z"/><path class="cls-7" d="M777.75,225.44a15.26,15.26,0,0,1-6.66-1.43A16.36,16.36,0,0,1,766,220.2a17.66,17.66,0,0,1-4.5-11.69,16.81,16.81,0,0,1,1.25-6.4,17.79,17.79,0,0,1,3.43-5.41,16.58,16.58,0,0,1,5.2-3.74,15.52,15.52,0,0,1,6.54-1.38,14.65,14.65,0,0,1,6.61,1.48,16.52,16.52,0,0,1,5.1,3.88,17.81,17.81,0,0,1,3.29,5.46,17.09,17.09,0,0,1,0,12.58,17.44,17.44,0,0,1-3.39,5.36,16.26,16.26,0,0,1-5.17,3.71A15.38,15.38,0,0,1,777.75,225.44Zm-9.69-16.93a13.45,13.45,0,0,0,.66,4.19,11.22,11.22,0,0,0,1.9,3.57,9.28,9.28,0,0,0,3.06,2.49,9.5,9.5,0,0,0,8.28,0,9.55,9.55,0,0,0,3-2.56,11.69,11.69,0,0,0,1.89-3.6,13.45,13.45,0,0,0,.63-4.07,13.18,13.18,0,0,0-.68-4.19,11.69,11.69,0,0,0-1.93-3.57,9.1,9.1,0,0,0-3.06-2.47,8.87,8.87,0,0,0-4.07-.92,8.77,8.77,0,0,0-4.18,1,9.34,9.34,0,0,0-3.06,2.54,11.67,11.67,0,0,0-1.86,3.57A13.45,13.45,0,0,0,768.06,208.51Z"/><path class="cls-7" d="M820.31,219.52h1.18a4.23,4.23,0,0,0,2.4-.8,6.2,6.2,0,0,0,1.83-2.78,28.86,28.86,0,0,0,1.41-5.57q.61-3.56,1.13-9.15l.85-9.41h20.22v27.71h4.94v14h-6.06v-8.32H826.43v8.32h-6.12Zm22.53,0v-22H835l-.47,5.08a70.81,70.81,0,0,1-1.58,10.63,18.28,18.28,0,0,1-2.61,6.31Z"/><path class="cls-7" d="M871.53,215.24l17-23.43h4.94v33.4h-6.45V202.3l-16.79,22.91h-5.17v-33.4h6.44Z"/><path class="cls-7" d="M917.67,202.58a90,90,0,0,1-1.41,10.82,23.89,23.89,0,0,1-2.44,7.08,9.48,9.48,0,0,1-3.86,3.88,12.38,12.38,0,0,1-5.64,1.18l-.38-5.84a7,7,0,0,0,2.8-.8,5.25,5.25,0,0,0,2.07-2.58,23.86,23.86,0,0,0,1.48-5.53c.41-2.4.78-5.59,1.13-9.57l.8-9.41h20.22v33.4H926V197.5h-7.9Z"/><path class="cls-7" d="M956.66,202.58a90,90,0,0,1-1.41,10.82,23.89,23.89,0,0,1-2.44,7.08,9.48,9.48,0,0,1-3.86,3.88,12.38,12.38,0,0,1-5.64,1.18l-.38-5.84a7,7,0,0,0,2.8-.8,5.25,5.25,0,0,0,2.07-2.58,23.86,23.86,0,0,0,1.48-5.53c.41-2.4.78-5.59,1.13-9.57l.8-9.41h20.22v33.4H965V197.5h-7.9Z"/><path class="cls-7" d="M1008.26,219.52v5.69H985.07v-33.4h22.77v5.69H991.56v8.05h14.07v5.26H991.56v8.71Z"/><path class="cls-7" d="M1019.83,225.21v-33.4H1034a9.42,9.42,0,0,1,4.26,1,11,11,0,0,1,3.36,2.54,11.94,11.94,0,0,1,2.21,3.57,10.79,10.79,0,0,1,.8,4,11.68,11.68,0,0,1-2.87,7.67,10.42,10.42,0,0,1-3.29,2.49,9.52,9.52,0,0,1-4.24.94h-7.9v11.2Zm6.49-16.89h7.53a3.67,3.67,0,0,0,3-1.46,6,6,0,0,0,1.2-4,6.57,6.57,0,0,0-.37-2.28,5.54,5.54,0,0,0-1-1.72,3.93,3.93,0,0,0-1.43-1,4.15,4.15,0,0,0-1.67-.36h-7.25Z"/></g></g></g></g></svg>