<svg xmlns="http://www.w3.org/2000/svg" width="233.448" height="42.965" viewBox="0 0 233.448 42.965">
  <g id="logo" transform="translate(-418.559 -183.002)">
    <g id="Group_3689" data-name="Group 3689" transform="translate(418.559 183.211)">
      <path id="Path_2767" data-name="Path 2767" d="M429.163,166.217a8.434,8.434,0,0,0-.9.05,8.42,8.42,0,0,1,.995-.06,8.266,8.266,0,0,1,6.971,3.828l-.728-.865A8.247,8.247,0,0,0,429.163,166.217Z" transform="translate(-420.904 -166.207)" fill="#225da9"/>
      <path id="Path_2768" data-name="Path 2768" d="M438.413,196.153V199.8a8.351,8.351,0,1,1-16.7,0V174.372a8.3,8.3,0,0,0,1.868,4.173Z" transform="translate(-421.711 -165.393)" fill="#2996ff"/>
      <path id="Path_2769" data-name="Path 2769" d="M451.786,208.725a8.25,8.25,0,0,1-6.335-2.952L423.567,179.8a8.266,8.266,0,1,1,12.661-10.631l21.884,25.974a8.265,8.265,0,0,1-6.326,13.582Z" transform="translate(-421.634 -166.206)" fill="#e23149"/>
      <path id="Path_2770" data-name="Path 2770" d="M474.535,208.725a8.25,8.25,0,0,1-6.335-2.952L446.316,179.8a8.266,8.266,0,1,1,12.66-10.631l21.884,25.974a8.264,8.264,0,0,1-6.325,13.582Z" transform="translate(-419.126 -166.206)" fill="#2b3651"/>
      <path id="Path_2771" data-name="Path 2771" d="M438.413,174.558v22.991L423.579,179.94a8.3,8.3,0,0,1-1.868-4.173v-1.209a8.362,8.362,0,0,1,7.282-8.283l.063-.009a8.514,8.514,0,0,1,.913-.051,8.332,8.332,0,0,1,6.4,2.984l.736.874A8.3,8.3,0,0,1,438.413,174.558Z" transform="translate(-421.711 -166.426)" fill="#1447ef"/>
    </g>
    <path id="Path_2780" data-name="Path 2780" d="M27.552-2.009V-13.817a4.4,4.4,0,0,0-.82-2.849,3.7,3.7,0,0,0-2.993-1,3.467,3.467,0,0,0-3.055,1.21,4.537,4.537,0,0,0-.84,2.644V-2.009A1.915,1.915,0,0,1,19.27-.533,2.386,2.386,0,0,1,17.589,0a2.386,2.386,0,0,1-1.681-.533,1.915,1.915,0,0,1-.574-1.476V-13.817a7.1,7.1,0,0,0-.143-1.435,2.969,2.969,0,0,0-.554-1.23,2.56,2.56,0,0,0-1.128-.861,5.071,5.071,0,0,0-1.988-.328,3.5,3.5,0,0,0-3.055,1.189,4.508,4.508,0,0,0-.84,2.665V-2.009A1.915,1.915,0,0,1,7.052-.533,2.386,2.386,0,0,1,5.371,0,2.386,2.386,0,0,1,3.69-.533a1.915,1.915,0,0,1-.574-1.476V-19.393a1.93,1.93,0,0,1,.574-1.455A2.33,2.33,0,0,1,5.371-21.4a2.436,2.436,0,0,1,1.332.328,2,2,0,0,1,.759.861A8.987,8.987,0,0,1,9.7-21.238a8.318,8.318,0,0,1,2.439-.369,7.96,7.96,0,0,1,3.485.677,7.235,7.235,0,0,1,2.419,1.906,6.66,6.66,0,0,1,2.85-2.009,9.93,9.93,0,0,1,3.341-.574q4.264,0,6.048,2.173a8.566,8.566,0,0,1,1.784,5.617V-2.009a1.915,1.915,0,0,1-.574,1.476A2.386,2.386,0,0,1,29.807,0a2.386,2.386,0,0,1-1.681-.533A1.915,1.915,0,0,1,27.552-2.009ZM57.195-13.9V-1.722a1.915,1.915,0,0,1-.574,1.476A2.386,2.386,0,0,1,54.94.287,2.887,2.887,0,0,1,53.608.021a1.659,1.659,0,0,1-.759-.8,10.952,10.952,0,0,1-2.562.964,11.545,11.545,0,0,1-2.767.348A9.858,9.858,0,0,1,44.506.164a6.954,6.954,0,0,1-2.439-1.23,5.567,5.567,0,0,1-1.66-2.091,6.9,6.9,0,0,1-.595-2.952,8.763,8.763,0,0,1,.328-2.337,5.755,5.755,0,0,1,1.148-2.173,6.762,6.762,0,0,1,2.3-1.578,9.054,9.054,0,0,1,3.649-.636h5.494v-.984a4.03,4.03,0,0,0-.943-2.706,4.336,4.336,0,0,0-3.28-1.189,5.07,5.07,0,0,0-2.5.533,11.36,11.36,0,0,0-1.8,1.271,1.99,1.99,0,0,1-1.394.492,1.875,1.875,0,0,1-1.353-.82,2.109,2.109,0,0,1-.656-1.5,2.033,2.033,0,0,1,.656-1.332,11.711,11.711,0,0,1,2.686-1.825,9.918,9.918,0,0,1,4.408-.8,10.883,10.883,0,0,1,4.428.759A7.1,7.1,0,0,1,55.6-19.024,6.207,6.207,0,0,1,56.867-16.5,11.222,11.222,0,0,1,57.195-13.9ZM52.726-7.585V-8.9H47.683a3.533,3.533,0,0,0-2.768.82,2.613,2.613,0,0,0-.595,1.927,2.664,2.664,0,0,0,.738,1.865,3.51,3.51,0,0,0,2.706.759,9.294,9.294,0,0,0,2.747-.328,3.6,3.6,0,0,0,1.394-.7,2.3,2.3,0,0,0,.656-1.312A9.184,9.184,0,0,0,52.726-7.585Zm11.07,6.4a2.947,2.947,0,0,1-.266-1.21,1.981,1.981,0,0,1,.389-1.046L73.6-16.933H66.01A1.731,1.731,0,0,1,64.7-17.4a2.176,2.176,0,0,1-.451-1.538A2.27,2.27,0,0,1,64.7-20.48a1.655,1.655,0,0,1,1.312-.512H77.695a2.241,2.241,0,0,1,.984.369,1.989,1.989,0,0,1,.656.82,3.131,3.131,0,0,1,.226,1.209,1.99,1.99,0,0,1-.349,1.045L69.536-4.059h8.938a1.72,1.72,0,0,1,1.333.513,2.2,2.2,0,0,1,.471,1.538,2.113,2.113,0,0,1-.471,1.538A1.8,1.8,0,0,1,78.474,0H65.395a1.572,1.572,0,0,1-1-.308A1.9,1.9,0,0,1,63.8-1.189ZM87.041.836h-.726A1.044,1.044,0,0,1,85.6.55a.845.845,0,0,1-.319-.638v-.924a.919.919,0,0,1,.3-.638,1.009,1.009,0,0,1,.759-.308h.638a1.223,1.223,0,0,1,.693.253.781.781,0,0,1,.363.671v.99a.8.8,0,0,1-.319.605A1.016,1.016,0,0,1,87.041.836Zm17.27-1.914V-7.414a2.359,2.359,0,0,0-.44-1.529,1.986,1.986,0,0,0-1.606-.539,1.86,1.86,0,0,0-1.639.649,2.435,2.435,0,0,0-.451,1.419v6.336a1.028,1.028,0,0,1-.308.792,1.281,1.281,0,0,1-.9.286,1.28,1.28,0,0,1-.9-.286,1.028,1.028,0,0,1-.308-.792V-7.414a3.809,3.809,0,0,0-.077-.77,1.593,1.593,0,0,0-.3-.66,1.373,1.373,0,0,0-.605-.462,2.721,2.721,0,0,0-1.067-.176,1.876,1.876,0,0,0-1.639.638,2.419,2.419,0,0,0-.451,1.43v6.336a1.028,1.028,0,0,1-.308.792,1.28,1.28,0,0,1-.9.286,1.28,1.28,0,0,1-.9-.286,1.028,1.028,0,0,1-.308-.792v-9.328a1.036,1.036,0,0,1,.308-.781,1.25,1.25,0,0,1,.9-.3,1.307,1.307,0,0,1,.715.176,1.075,1.075,0,0,1,.407.462,4.822,4.822,0,0,1,1.2-.55,4.463,4.463,0,0,1,1.309-.2,4.271,4.271,0,0,1,1.87.363,3.882,3.882,0,0,1,1.3,1.023,3.574,3.574,0,0,1,1.529-1.078,5.329,5.329,0,0,1,1.793-.308,3.982,3.982,0,0,1,3.245,1.166,4.6,4.6,0,0,1,.957,3.014v6.336a1.028,1.028,0,0,1-.308.792,1.281,1.281,0,0,1-.9.286,1.28,1.28,0,0,1-.9-.286A1.028,1.028,0,0,1,104.311-1.078Zm12.5,0V-7.414a2.461,2.461,0,0,0-.44-1.43,2.044,2.044,0,0,0-1.782-.638,2.143,2.143,0,0,0-1.617.627,1.991,1.991,0,0,0-.605,1.419v6.358a1.028,1.028,0,0,1-.308.792,1.28,1.28,0,0,1-.9.286,1.28,1.28,0,0,1-.9-.286,1.028,1.028,0,0,1-.308-.792v-9.328a1.036,1.036,0,0,1,.308-.781,1.25,1.25,0,0,1,.9-.3,1.365,1.365,0,0,1,.726.176,1.034,1.034,0,0,1,.418.484,3.712,3.712,0,0,1,1.441-.638,6.811,6.811,0,0,1,1.2-.132,4.353,4.353,0,0,1,3.223,1.078A4.1,4.1,0,0,1,119.227-7.5v6.424a1.028,1.028,0,0,1-.308.792,1.28,1.28,0,0,1-.9.286,1.281,1.281,0,0,1-.9-.286A1.028,1.028,0,0,1,116.807-1.078Z" transform="translate(490.634 206.612)" fill="#2b3651"/>
    <path id="Path_2781" data-name="Path 2781" d="M4.158.055A3.549,3.549,0,0,1,2.6-.281a3.823,3.823,0,0,1-1.2-.891A4.054,4.054,0,0,1,.627-2.442,4.044,4.044,0,0,1,.352-3.905,3.925,3.925,0,0,1,.644-5.4a4.128,4.128,0,0,1,.8-1.265,3.831,3.831,0,0,1,1.216-.875,3.608,3.608,0,0,1,1.529-.325,3.429,3.429,0,0,1,1.546.346,3.861,3.861,0,0,1,1.194.908A4.178,4.178,0,0,1,7.7-5.335a4.015,4.015,0,0,1,.275,1.452,3.949,3.949,0,0,1-.286,1.49A4.047,4.047,0,0,1,6.9-1.139a3.808,3.808,0,0,1-1.21.869A3.608,3.608,0,0,1,4.158.055ZM1.892-3.905a3.142,3.142,0,0,0,.154.979,2.613,2.613,0,0,0,.446.836,2.215,2.215,0,0,0,.715.583,2.057,2.057,0,0,0,.963.22,2.04,2.04,0,0,0,.974-.225,2.217,2.217,0,0,0,.715-.6,2.672,2.672,0,0,0,.44-.842,3.125,3.125,0,0,0,.148-.952,3.043,3.043,0,0,0-.16-.979,2.7,2.7,0,0,0-.451-.836A2.153,2.153,0,0,0,5.121-6.3a2.076,2.076,0,0,0-.951-.214,2.073,2.073,0,0,0-.979.226,2.17,2.17,0,0,0-.715.594,2.668,2.668,0,0,0-.434.836A3.125,3.125,0,0,0,1.892-3.905ZM17.215-7.81V0H15.708V-3.333H12.166V0H10.648V-7.81h1.518v3.157h3.542V-7.81Zm5.654,2.519a21.555,21.555,0,0,1-.33,2.53,5.605,5.605,0,0,1-.572,1.656,2.214,2.214,0,0,1-.9.907,2.881,2.881,0,0,1-1.32.275l-.088-1.364a1.646,1.646,0,0,0,.654-.187,1.236,1.236,0,0,0,.484-.605,5.53,5.53,0,0,0,.346-1.293q.143-.842.264-2.239l.187-2.2h4.73V0H24.816V-6.479H22.968ZM31.7-7.81h1.342L36.014,0H34.452l-.726-1.947H31L30.283,0H28.721Zm1.749,4.8L32.373-6.083,31.251-3.014Zm10.4-7.062a1.307,1.307,0,0,1-.149.622,1.482,1.482,0,0,1-.4.478,1.8,1.8,0,0,1-.61.3,2.8,2.8,0,0,1-.787.1,2.854,2.854,0,0,1-.792-.1,1.792,1.792,0,0,1-.616-.3,1.482,1.482,0,0,1-.4-.478,1.307,1.307,0,0,1-.149-.622h.9a.512.512,0,0,0,.083.275.77.77,0,0,0,.231.231,1.222,1.222,0,0,0,.336.154,1.437,1.437,0,0,0,.407.055,1.183,1.183,0,0,0,.7-.2.786.786,0,0,0,.341-.512ZM39.9-2.332,43.879-7.81h1.155V0H43.527V-5.357L39.6,0H38.39V-7.81H39.9ZM54.78-7.81V0H53.273V-3.333H49.731V0H48.213V-7.81h1.518v3.157h3.542V-7.81Zm9.493,0h1.342L68.585,0H67.023L66.3-1.947H63.569L62.854,0H61.292Zm1.749,4.8L64.944-6.083,63.822-3.014Zm11.11,1a1.83,1.83,0,0,1-.2.869,1.825,1.825,0,0,1-.545.627,2.549,2.549,0,0,1-.8.385A3.489,3.489,0,0,1,74.613,0H70.84V-7.81h4.18a1.541,1.541,0,0,1,.737.176,1.84,1.84,0,0,1,.561.456,2.092,2.092,0,0,1,.357.638,2.147,2.147,0,0,1,.127.72,2.127,2.127,0,0,1-.286,1.073A1.742,1.742,0,0,1,75.68-4a2.008,2.008,0,0,1,1.062.71A2.051,2.051,0,0,1,77.132-2.013ZM75.6-2.3a1.144,1.144,0,0,0-.071-.4,1.115,1.115,0,0,0-.193-.336.9.9,0,0,0-.286-.226.8.8,0,0,0-.363-.082H72.358v2.057h2.255A.989.989,0,0,0,75-1.364a.936.936,0,0,0,.313-.214,1.029,1.029,0,0,0,.209-.325A1.03,1.03,0,0,0,75.6-2.3ZM72.358-6.512v1.969h2.024a.9.9,0,0,0,.655-.264.97.97,0,0,0,.27-.726,1,1,0,0,0-.247-.715.8.8,0,0,0-.611-.264Zm13.167.033h-2.5V0H81.521V-6.479h-2.5V-7.81h6.5ZM90.959.055A3.549,3.549,0,0,1,89.4-.281a3.823,3.823,0,0,1-1.2-.891,4.054,4.054,0,0,1-.775-1.271,4.044,4.044,0,0,1-.275-1.463,3.925,3.925,0,0,1,.292-1.5,4.128,4.128,0,0,1,.8-1.265,3.831,3.831,0,0,1,1.215-.875,3.608,3.608,0,0,1,1.529-.325,3.429,3.429,0,0,1,1.546.346,3.861,3.861,0,0,1,1.193.908,4.178,4.178,0,0,1,.77,1.276,4.015,4.015,0,0,1,.275,1.452,3.949,3.949,0,0,1-.286,1.49A4.047,4.047,0,0,1,93.7-1.139a3.808,3.808,0,0,1-1.21.869A3.608,3.608,0,0,1,90.959.055Zm-2.266-3.96a3.142,3.142,0,0,0,.154.979,2.613,2.613,0,0,0,.446.836,2.215,2.215,0,0,0,.715.583,2.057,2.057,0,0,0,.963.22,2.04,2.04,0,0,0,.974-.225,2.217,2.217,0,0,0,.715-.6,2.672,2.672,0,0,0,.44-.842,3.125,3.125,0,0,0,.148-.952,3.043,3.043,0,0,0-.16-.979,2.7,2.7,0,0,0-.451-.836,2.153,2.153,0,0,0-.715-.578,2.076,2.076,0,0,0-.951-.214,2.073,2.073,0,0,0-.979.226,2.17,2.17,0,0,0-.715.594,2.668,2.668,0,0,0-.435.836A3.125,3.125,0,0,0,88.693-3.905Zm12.221,2.574h.275a.989.989,0,0,0,.561-.187,1.443,1.443,0,0,0,.429-.649,6.842,6.842,0,0,0,.33-1.3q.143-.831.264-2.14l.2-2.2h4.73v6.479h1.155V1.947h-1.419V0h-5.093V1.947h-1.43Zm5.269,0V-6.479h-1.837l-.11,1.188a16.689,16.689,0,0,1-.368,2.486,4.293,4.293,0,0,1-.611,1.474Zm6.71-1,3.982-5.478h1.155V0h-1.507V-5.357L112.6,0h-1.21V-7.81h1.507Zm10.791-2.959a21.555,21.555,0,0,1-.33,2.53,5.605,5.605,0,0,1-.572,1.656,2.214,2.214,0,0,1-.9.907,2.881,2.881,0,0,1-1.32.275l-.088-1.364a1.646,1.646,0,0,0,.655-.187,1.236,1.236,0,0,0,.484-.605,5.529,5.529,0,0,0,.347-1.293q.143-.842.264-2.239l.187-2.2h4.73V0h-1.507V-6.479h-1.848Zm9.119,0a21.558,21.558,0,0,1-.33,2.53,5.6,5.6,0,0,1-.572,1.656A2.214,2.214,0,0,1,131-.2a2.881,2.881,0,0,1-1.32.275l-.088-1.364a1.646,1.646,0,0,0,.654-.187,1.236,1.236,0,0,0,.484-.605,5.53,5.53,0,0,0,.346-1.293q.143-.842.264-2.239l.187-2.2h4.73V0H134.75V-6.479H132.9Zm12.067,3.96V0h-5.423V-7.81h5.324v1.331h-3.806V-4.6h3.289v1.232h-3.289v2.035ZM147.576,0V-7.81h3.311a2.217,2.217,0,0,1,1,.226,2.575,2.575,0,0,1,.786.594,2.8,2.8,0,0,1,.517.836,2.515,2.515,0,0,1,.187.941,2.711,2.711,0,0,1-.176.963,2.672,2.672,0,0,1-.495.83,2.432,2.432,0,0,1-.77.583,2.228,2.228,0,0,1-.99.22h-1.848V0Zm1.518-3.949h1.76a.869.869,0,0,0,.7-.341,1.411,1.411,0,0,0,.281-.924,1.522,1.522,0,0,0-.088-.534,1.3,1.3,0,0,0-.231-.4.919.919,0,0,0-.336-.248.983.983,0,0,0-.39-.082h-1.694Z" transform="translate(498.634 222.612)" fill="#df2626"/>
  </g>
</svg>
