<svg xmlns="http://www.w3.org/2000/svg" viewBox="0 0 1053.48 233.05"><defs><style>.cls-1,.cls-3{fill:#fff;}.cls-2,.cls-3{isolation:isolate;}.cls-3{font-size:120.58px;font-family:HelveticaRounded-Black, Helvetica Rounded Black;font-weight:800;}</style></defs><title>logo-light</title><g id="Layer_2" data-name="Layer 2"><g id="Layer_1-2" data-name="Layer 1"><g id="Group_3689" data-name="Group 3689"><path id="Path_2767" data-name="Path 2767" class="cls-1" d="M44.84.23A44.52,44.52,0,0,0,40,.5,44.82,44.82,0,0,1,83.21,21l-3.95-4.7A44.79,44.79,0,0,0,44.84.23Z"/><path id="Path_2768" data-name="Path 2768" class="cls-1" d="M90.69,187.2V187A45.35,45.35,0,0,1,0,188.4c0-.47,0-.93,0-1.4V68.93A45,45,0,0,0,10.15,91.59Z"/><path id="Path_2769" data-name="Path 2769" class="cls-1" d="M167.72,231.05a44.78,44.78,0,0,1-34.4-16L14.49,74A44.89,44.89,0,1,1,83.24,16.26l118.83,141a44.88,44.88,0,0,1-34.35,73.75Z"/><path id="Path_2770" data-name="Path 2770" class="cls-1" d="M304.86,231.05a44.76,44.76,0,0,1-34.39-16L151.64,74A44.89,44.89,0,1,1,220,15.78l.4.48,118.83,141a44.88,44.88,0,0,1-34.35,73.75Z"/></g><g id="maz.mn" class="cls-2"><g class="cls-2"><path class="cls-1" d="M550.5,98.51c3-14.8-.87-20-10.84-20-7.59,0-16.48,8.2-19.08,21.41l-8.89,43.49c-3.25,15.94-14.09,23.23-27.1,23.23s-20.81-7.29-17.56-23.23l9.11-44.86c3-14.8-.87-20-10.85-20-7.58,0-16.47,8.2-19.07,21.41l-8.89,43.49c-3.26,15.94-14.1,23.23-27.1,23.23s-20.82-7.29-17.57-23.23l16-79.47c3-14.57,11.27-22.32,26-22.32,13.23,0,16.7,8,15.4,22.09h.43C460.74,49.55,474.83,41.58,492,41.58c14.53,0,28.41,6.83,28.84,23,13-16.62,26.67-23,42.49-23,30.79,0,39.25,20,34,46l-11.27,55.79C582.81,159.31,572,166.6,559,166.6s-20.82-7.29-17.56-23.23Z"/><path class="cls-1" d="M662.15,41.58c-24.35,0-45.48,7-55.11,18.53,2,7.09,2.34,15.27,1.07,24.33a16.92,16.92,0,0,0,4.83.64c15.18,0,23-16.17,42.27-16.17,11.93,0,17.36,4.1,15.83,11.61-1.73,8-8.89,10.48-25.79,11.62-17.41,1.14-30.49,4-40.21,8.32L596,145.37a43,43,0,0,1-6.21,15.35c6.22,4,14.87,5.88,25.13,5.88,15.4,0,32.32-5.23,43.8-18.9-.65,10.71,3.26,18.9,18.66,18.9,10.61,0,21.88-5,24.27-16.62,1.09-5.7,1.31-13,3-21.18l10.42-52.15C721.12,47.27,685.79,41.58,662.15,41.58Zm0,82c-1.73,8.88-12.13,17.08-24.72,17.08-7.15,0-12.57-4.55-11.27-11.61a13.09,13.09,0,0,1,8-9.8c8.89-3.41,23-2,30.79-9.1Z"/><path class="cls-1" d="M803.72,44.54H733c-7,0-12,1.14-15.62,3.85.47.51.92,1,1.36,1.55,4.26,5.23,8.75,14.18,6.43,27.39H759.5l-41.28,35.12-3.69,18.44c-.89,4.24-1.34,8.25-1.78,12.15-.35,3.1-.67,6-1.21,8.83l0,.14a28.44,28.44,0,0,1-5.27,11.63h74.51c10.19,0,17.34-3.42,19.94-16.39s-3-16.4-13.23-16.4h-38.8l56.15-48.74c7.38-6.37,9.54-10,11.06-17.53C818.25,53,815,44.54,803.72,44.54Z"/></g><text class="cls-3" transform="translate(823.89 162.06) scale(0.95 1)">.mn</text></g><g id="Онлайн_авто_диллер" data-name="Онлайн авто диллер" class="cls-2"><g class="cls-2"><path class="cls-1" d="M406.58,224.47a15.13,15.13,0,0,1-6.66-1.44,16.06,16.06,0,0,1-5.12-3.81,17.14,17.14,0,0,1-3.32-5.43,17.35,17.35,0,0,1-1.17-6.25,16.81,16.81,0,0,1,1.24-6.4,17.63,17.63,0,0,1,3.44-5.41,16.38,16.38,0,0,1,5.19-3.74,15.53,15.53,0,0,1,6.54-1.39,14.78,14.78,0,0,1,6.61,1.48,16.54,16.54,0,0,1,5.1,3.89,17.64,17.64,0,0,1,3.29,5.45,17.09,17.09,0,0,1,0,12.58,17.32,17.32,0,0,1-3.39,5.36,16.13,16.13,0,0,1-5.17,3.72A15.38,15.38,0,0,1,406.58,224.47Zm-9.69-16.93a13.39,13.39,0,0,0,.66,4.18,11.27,11.27,0,0,0,1.9,3.58,9.53,9.53,0,0,0,3.06,2.49,9.5,9.5,0,0,0,8.28,0,9.62,9.62,0,0,0,3.06-2.57,11.44,11.44,0,0,0,1.88-3.6,13.39,13.39,0,0,0,.63-4.06,12.86,12.86,0,0,0-.68-4.19,11.37,11.37,0,0,0-1.93-3.57,9.1,9.1,0,0,0-3.06-2.47,8.73,8.73,0,0,0-4.06-.92,8.9,8.9,0,0,0-4.19,1,9.46,9.46,0,0,0-3.06,2.54,11.61,11.61,0,0,0-1.86,3.58A13.45,13.45,0,0,0,396.89,207.54Z"/><path class="cls-1" d="M462.41,190.84v33.39H456V210H440.82v14.25h-6.49V190.84h6.49v13.5H456v-13.5Z"/><path class="cls-1" d="M486.58,201.61a90.31,90.31,0,0,1-1.41,10.82,24.09,24.09,0,0,1-2.44,7.08,9.54,9.54,0,0,1-3.86,3.88,12.38,12.38,0,0,1-5.64,1.17l-.38-5.83a7,7,0,0,0,2.8-.8,5.28,5.28,0,0,0,2.07-2.59,23.61,23.61,0,0,0,1.48-5.52c.41-2.4.78-5.59,1.13-9.57l.8-9.41h20.22v33.39h-6.44v-27.7H487Z"/><path class="cls-1" d="M524.35,190.84h5.74l12.7,33.39h-6.68l-3.1-8.32H521.34l-3.05,8.32h-6.68Zm7.48,20.51-4.61-13.13-4.8,13.13Z"/><path class="cls-1" d="M559.39,214.26l17-23.42h4.94v33.39h-6.44v-22.9l-16.8,22.9H553V190.84h6.44Zm16.89-33.11a5.53,5.53,0,0,1-.64,2.66,6.22,6.22,0,0,1-1.71,2,7.61,7.61,0,0,1-2.61,1.3,12.27,12.27,0,0,1-3.37.44,12.45,12.45,0,0,1-3.38-.44,7.58,7.58,0,0,1-2.64-1.3,6.22,6.22,0,0,1-1.71-2,5.53,5.53,0,0,1-.64-2.66h3.86a2.19,2.19,0,0,0,.35,1.17,3.33,3.33,0,0,0,1,1,4.8,4.8,0,0,0,1.43.66,6.1,6.1,0,0,0,1.74.24,5,5,0,0,0,3-.87,3.36,3.36,0,0,0,1.46-2.19Z"/><path class="cls-1" d="M623,190.84v33.39h-6.44V210H601.44v14.25H595V190.84h6.49v13.5h15.15v-13.5Z"/></g><g class="cls-2"><path class="cls-1" d="M663.62,190.84h5.74l12.7,33.39h-6.68l-3.11-8.32H660.61l-3.06,8.32h-6.68Zm7.48,20.51-4.61-13.13-4.8,13.13Z"/><path class="cls-1" d="M718.6,215.63a7.54,7.54,0,0,1-3.17,6.39,11,11,0,0,1-3.43,1.65,15.22,15.22,0,0,1-4.17.56H691.7V190.84h17.87a6.6,6.6,0,0,1,3.15.75,7.63,7.63,0,0,1,2.4,1.95,8.91,8.91,0,0,1,1.53,2.73,9.21,9.21,0,0,1,.54,3.08,9.07,9.07,0,0,1-1.22,4.59,7.52,7.52,0,0,1-3.57,3.17,8.59,8.59,0,0,1,4.53,3A8.7,8.7,0,0,1,718.6,215.63Zm-20.41-19.24v8.42h8.66a3.84,3.84,0,0,0,2.79-1.13,4.15,4.15,0,0,0,1.16-3.11,4.3,4.3,0,0,0-1.06-3,3.46,3.46,0,0,0-2.61-1.13Zm13.88,18a4.93,4.93,0,0,0-.31-1.71,4.83,4.83,0,0,0-.82-1.44,3.8,3.8,0,0,0-1.23-1,3.34,3.34,0,0,0-1.55-.36h-10v8.8h9.64a4.18,4.18,0,0,0,1.67-.33,3.82,3.82,0,0,0,1.34-.92,4.34,4.34,0,0,0,.9-1.38A4.44,4.44,0,0,0,712.07,214.4Z"/><path class="cls-1" d="M754.49,196.53H743.81v27.7h-6.44v-27.7H726.69v-5.69h27.8Z"/><path class="cls-1" d="M777.73,224.47a15.13,15.13,0,0,1-6.66-1.44,16.21,16.21,0,0,1-5.13-3.81,17.72,17.72,0,0,1-4.49-11.68,16.81,16.81,0,0,1,1.25-6.4,17.6,17.6,0,0,1,3.43-5.41,16.42,16.42,0,0,1,5.2-3.74,15.53,15.53,0,0,1,6.54-1.39,14.81,14.81,0,0,1,6.61,1.48,16.54,16.54,0,0,1,5.1,3.89,17.64,17.64,0,0,1,3.29,5.45,17.06,17.06,0,0,1,1.18,6.21,16.76,16.76,0,0,1-1.23,6.37,17.11,17.11,0,0,1-3.38,5.36,16.06,16.06,0,0,1-5.18,3.72A15.3,15.3,0,0,1,777.73,224.47ZM768,207.54a13.39,13.39,0,0,0,.66,4.18,11.27,11.27,0,0,0,1.9,3.58,9.53,9.53,0,0,0,3.06,2.49,9.5,9.5,0,0,0,8.28,0,9.58,9.58,0,0,0,3-2.57,11.47,11.47,0,0,0,1.89-3.6,13.39,13.39,0,0,0,.63-4.06,13.14,13.14,0,0,0-.68-4.19,11.58,11.58,0,0,0-1.93-3.57,9.1,9.1,0,0,0-3.06-2.47,8.74,8.74,0,0,0-4.07-.92,8.88,8.88,0,0,0-4.18,1,9.36,9.36,0,0,0-3.06,2.54,11.4,11.4,0,0,0-1.86,3.58A13.45,13.45,0,0,0,768,207.54Z"/><path class="cls-1" d="M820.29,218.54h1.18a4.23,4.23,0,0,0,2.4-.8A6.1,6.1,0,0,0,825.7,215a29.75,29.75,0,0,0,1.41-5.58q.61-3.54,1.13-9.14l.85-9.41h20.22v27.7h4.94v14h-6.07v-8.33H826.41v8.33h-6.12Zm22.53,0v-22H835l-.47,5.08a71,71,0,0,1-1.58,10.63,18.14,18.14,0,0,1-2.61,6.3Z"/><path class="cls-1" d="M871.51,214.26l17-23.42h4.94v33.39H887v-22.9l-16.79,22.9h-5.17V190.84h6.44Z"/><path class="cls-1" d="M917.65,201.61a90.31,90.31,0,0,1-1.41,10.82,24.09,24.09,0,0,1-2.44,7.08,9.6,9.6,0,0,1-3.86,3.88,12.38,12.38,0,0,1-5.64,1.17l-.38-5.83a7,7,0,0,0,2.8-.8,5.28,5.28,0,0,0,2.07-2.59,23.61,23.61,0,0,0,1.48-5.52c.41-2.4.78-5.59,1.13-9.57l.8-9.41h20.22v33.39H926v-27.7h-7.9Z"/><path class="cls-1" d="M956.64,201.61a90.31,90.31,0,0,1-1.41,10.82,24.09,24.09,0,0,1-2.44,7.08,9.54,9.54,0,0,1-3.86,3.88,12.38,12.38,0,0,1-5.64,1.17l-.38-5.83a7,7,0,0,0,2.8-.8,5.28,5.28,0,0,0,2.07-2.59,23.61,23.61,0,0,0,1.48-5.52c.41-2.4.78-5.59,1.13-9.57l.8-9.41h20.22v33.39H965v-27.7h-7.9Z"/><path class="cls-1" d="M1008.24,218.54v5.69H985.05V190.84h22.77v5.69H991.54v8h14.07v5.27H991.54v8.7Z"/><path class="cls-1" d="M1019.81,224.23V190.84H1034a9.5,9.5,0,0,1,4.25,1,11.05,11.05,0,0,1,3.37,2.54,12.07,12.07,0,0,1,2.21,3.58,10.79,10.79,0,0,1,.8,4,11.73,11.73,0,0,1-2.87,7.67,10.57,10.57,0,0,1-3.29,2.49,9.52,9.52,0,0,1-4.24.94h-7.9v11.19Zm6.49-16.88h7.53a3.72,3.72,0,0,0,3-1.46,6,6,0,0,0,1.2-3.95,6.49,6.49,0,0,0-.37-2.28,5.43,5.43,0,0,0-1-1.72,4,4,0,0,0-1.44-1.06,4.24,4.24,0,0,0-1.67-.35h-7.24Z"/></g></g></g></g></svg>