<svg xmlns="http://www.w3.org/2000/svg" viewBox="0 0 1176.3 247.58"><defs><style>.cls-1,.cls-6{fill:#040e42;}.cls-2{fill:#0a72ff;}.cls-3{fill:#fe328b;}.cls-4{fill:#12ebfe;}.cls-5{fill:#1b479e;}.cls-6{opacity:0.5;}</style></defs><title>logo</title><g id="Layer_2" data-name="Layer 2"><g id="Layer_1-2" data-name="Layer 1"><path class="cls-1" d="M570.46,187.08a17.79,17.79,0,0,1-17.77-17.76V111.51l-25.3,37.73a17.71,17.71,0,0,1-29.42,0l-25.31-37.73v57.87a17.71,17.71,0,0,1-35.41,0V60.44a19.42,19.42,0,0,1,35.64-10.69l39.81,60.34,40.16-60.46a19.29,19.29,0,0,1,35.36,10.68v109A17.78,17.78,0,0,1,570.46,187.08Z"/><path class="cls-1" d="M728.12,187.08a17.51,17.51,0,0,1-15.78-9.77L671.48,95.14,631,177.3a17.54,17.54,0,0,1-31.49-15.48L653.08,52.47A20.58,20.58,0,0,1,671.45,41a20.36,20.36,0,0,1,18.34,11.37l54.12,109.24a17.63,17.63,0,0,1-15.79,25.45Z"/><path class="cls-1" d="M771.84,186.08a17.26,17.26,0,0,1-13.72-27.72l63.93-83.84H771.62a17.25,17.25,0,0,1,0-34.5h84.7A17.26,17.26,0,0,1,870.16,67.6l-62.67,84h55.6a17.25,17.25,0,0,1,0,34.5Z"/><path class="cls-1" d="M903.18,166.58a8,8,0,0,1,4,1.65,10.7,10.7,0,0,1,4,8.89,10.42,10.42,0,0,1-2.68,7.36,8.72,8.72,0,0,1-6.68,2.91,9,9,0,0,1-6.85-2.91,10.29,10.29,0,0,1-2.74-7.36,10.78,10.78,0,0,1,2.79-7.6A9.08,9.08,0,0,1,903.18,166.58Z"/><path class="cls-1" d="M1036.18,186.08a17.61,17.61,0,0,1-17.59-17.59V138.05l-12.92,18.71a17.66,17.66,0,0,1-29.07,0l-12.81-18.61v30.3a17.65,17.65,0,0,1-35.3,0V86.9a18.33,18.33,0,0,1,33.36-10.51l29.28,41.83,29.29-41.84a18.33,18.33,0,0,1,33.35,10.52v81.59A17.61,17.61,0,0,1,1036.18,186.08Z"/><path class="cls-1" d="M1160.77,186.08a15.59,15.59,0,0,1-11.52-5.1l-42.83-47.26v34.83a17.54,17.54,0,0,1-35.07,0V84.1a15.53,15.53,0,0,1,27.05-10.42l42.95,47.45V86a17.48,17.48,0,1,1,35,0v84.5A15.55,15.55,0,0,1,1160.77,186.08Z"/><path class="cls-1" d="M468.74,247.12a18.31,18.31,0,0,1-8.22-1.85,20.49,20.49,0,0,1-6.4-4.91,22.28,22.28,0,0,1-4.12-7,23.06,23.06,0,0,1-1.46-8.06,22.43,22.43,0,0,1,1.55-8.25,22.65,22.65,0,0,1,4.28-7,20.88,20.88,0,0,1,6.42-4.83,18.21,18.21,0,0,1,8-1.78,17.71,17.71,0,0,1,8.22,1.91,20.55,20.55,0,0,1,6.36,5,23.16,23.16,0,0,1,4.1,7,22.73,22.73,0,0,1,1.45,8,22.42,22.42,0,0,1-1.54,8.25,22.7,22.7,0,0,1-4.25,6.94,20.48,20.48,0,0,1-6.4,4.79A18.14,18.14,0,0,1,468.74,247.12Zm-15.95-21.83a20,20,0,0,0,1.15,6.76,18.4,18.4,0,0,0,3.28,5.76,16,16,0,0,0,5,4,14.06,14.06,0,0,0,6.49,1.49,13.91,13.91,0,0,0,6.61-1.58,16,16,0,0,0,5-4.12,19,19,0,0,0,3.19-5.76,20,20,0,0,0,1.12-6.55,19.74,19.74,0,0,0-1.18-6.76,18.43,18.43,0,0,0-3.31-5.74,16.33,16.33,0,0,0-5-4,14.83,14.83,0,0,0-13,.06,15.68,15.68,0,0,0-5,4.1,19,19,0,0,0-3.19,5.76A19.69,19.69,0,0,0,452.79,225.29Z"/><path class="cls-1" d="M534.78,246.82h-4.12V229.17q0-5.64-1.67-8.19a5.7,5.7,0,0,0-5.13-2.55,10.58,10.58,0,0,0-3.63.67,12.27,12.27,0,0,0-3.37,1.88,14.54,14.54,0,0,0-2.76,2.88,11.53,11.53,0,0,0-1.76,3.61v19.35h-4.12v-31.6H512v7.16a14.72,14.72,0,0,1,5.55-5.58,15.14,15.14,0,0,1,7.85-2.12,9.29,9.29,0,0,1,4.43,1,7.53,7.53,0,0,1,2.91,2.72,12.73,12.73,0,0,1,1.58,4.31,30.58,30.58,0,0,1,.48,5.64Z"/><path class="cls-1" d="M555.88,202.55H560v37.11a3.79,3.79,0,0,0,1,2.76,3.59,3.59,0,0,0,2.73,1,8.21,8.21,0,0,0,1.57-.18,9.38,9.38,0,0,0,1.7-.49l.73,3.34a13.75,13.75,0,0,1-2.82.79,16.57,16.57,0,0,1-2.88.3,6.14,6.14,0,0,1-4.49-1.61,6,6,0,0,1-1.64-4.51Z"/><path class="cls-1" d="M584.33,208.61v-6.06h4.12v6.06Zm0,38.21v-31.6h4.12v31.6Z"/><path class="cls-1" d="M636.24,246.82h-4.13V229.17q0-5.64-1.66-8.19a5.71,5.71,0,0,0-5.13-2.55,10.67,10.67,0,0,0-3.64.67,12.37,12.37,0,0,0-3.36,1.88,14.54,14.54,0,0,0-2.76,2.88,11.31,11.31,0,0,0-1.76,3.61v19.35h-4.13v-31.6h3.76v7.16A14.86,14.86,0,0,1,619,216.8a15.2,15.2,0,0,1,7.86-2.12,9.25,9.25,0,0,1,4.42,1,7.49,7.49,0,0,1,2.92,2.72,12.73,12.73,0,0,1,1.57,4.31,30.53,30.53,0,0,1,.49,5.64Z"/><path class="cls-1" d="M670.8,247.42a15.16,15.16,0,0,1-6.33-1.3,15.58,15.58,0,0,1-5-3.58,16.75,16.75,0,0,1-3.3-5.24,17.05,17.05,0,0,1-1.18-6.37,16.66,16.66,0,0,1,1.18-6.28,16.27,16.27,0,0,1,3.27-5.15,15.59,15.59,0,0,1,5-3.52,16,16,0,0,1,12.64,0,15,15,0,0,1,4.94,3.55,16.41,16.41,0,0,1,3.22,5.15,16.81,16.81,0,0,1,1.15,6.19v1a2.41,2.41,0,0,1-.06.66H659.28a13.38,13.38,0,0,0,1.18,4.7,12.93,12.93,0,0,0,2.58,3.73,11.41,11.41,0,0,0,3.61,2.46,10.73,10.73,0,0,0,4.34.88,10.93,10.93,0,0,0,3-.43,11.94,11.94,0,0,0,2.79-1.15,10.17,10.17,0,0,0,2.3-1.79,7.63,7.63,0,0,0,1.58-2.33l3.58,1a10.63,10.63,0,0,1-2.07,3.18,14.3,14.3,0,0,1-3.09,2.49,15.15,15.15,0,0,1-3.88,1.64A17,17,0,0,1,670.8,247.42Zm11.65-18.07a12.7,12.7,0,0,0-1.19-4.64,12.55,12.55,0,0,0-2.54-3.61,11.21,11.21,0,0,0-3.58-2.36,11.09,11.09,0,0,0-4.34-.85,11.26,11.26,0,0,0-4.36.85,11,11,0,0,0-3.61,2.36,11.76,11.76,0,0,0-2.49,3.64,13.93,13.93,0,0,0-1.12,4.61Z"/><path class="cls-1" d="M763.79,203.76h3.58l17.89,43.06h-4.49l-5.58-13.47H755.85l-5.52,13.47h-4.55ZM774.22,230l-8.67-21.29L756.75,230Z"/><path class="cls-1" d="M811.88,247.42c-3.44,0-6-1.14-7.67-3.42s-2.52-5.69-2.52-10.22V215.22h4.13v17.83q0,10.74,7.33,10.73a11,11,0,0,0,3.58-.6,11.39,11.39,0,0,0,3.25-1.76,14.07,14.07,0,0,0,2.66-2.73,13.77,13.77,0,0,0,1.92-3.58V215.22h4.12v26.26c0,1.13.48,1.7,1.45,1.7v3.64a7.43,7.43,0,0,1-1.18.12h-.63a3.32,3.32,0,0,1-2.37-1,3.66,3.66,0,0,1-.91-2.61v-3.64a14.65,14.65,0,0,1-5.61,5.73A14.88,14.88,0,0,1,811.88,247.42Z"/><path class="cls-1" d="M865.31,245.3l-1.06.49c-.47.2-1,.4-1.61.6a18.93,18.93,0,0,1-2.06.55,11.92,11.92,0,0,1-2.43.24,8.81,8.81,0,0,1-2.54-.36,6.05,6.05,0,0,1-2.13-1.13,5.47,5.47,0,0,1-1.45-1.91,6,6,0,0,1-.55-2.66V218.5h-4.36v-3.28h4.36V204.55h4.13v10.67h7.27v3.28h-7.27V240a3.25,3.25,0,0,0,1.24,2.58,4.25,4.25,0,0,0,2.58.82,7.64,7.64,0,0,0,3.09-.58,14.33,14.33,0,0,0,1.7-.81Z"/><path class="cls-1" d="M895.27,247.42a15,15,0,0,1-6.31-1.3,15.39,15.39,0,0,1-4.94-3.55,16,16,0,0,1-3.25-5.21,17.51,17.51,0,0,1,0-12.56,16.4,16.4,0,0,1,3.28-5.21A15.79,15.79,0,0,1,889,216a14.54,14.54,0,0,1,6.25-1.33,14.72,14.72,0,0,1,6.27,1.33,15.85,15.85,0,0,1,5,3.58,16.55,16.55,0,0,1,3.27,5.21,16.89,16.89,0,0,1,1.18,6.31,17.11,17.11,0,0,1-1.15,6.25,16.12,16.12,0,0,1-3.24,5.21,15.45,15.45,0,0,1-5,3.55A15.16,15.16,0,0,1,895.27,247.42Zm-11.46-16.25a13.08,13.08,0,0,0,.91,4.94,13.37,13.37,0,0,0,2.45,4,11.06,11.06,0,0,0,3.64,2.69,10.41,10.41,0,0,0,4.46,1,10.21,10.21,0,0,0,4.46-1,11.62,11.62,0,0,0,3.66-2.73,13,13,0,0,0,2.49-4,13.95,13.95,0,0,0,0-9.91,13.1,13.1,0,0,0-2.49-4.07,11.93,11.93,0,0,0-3.66-2.73,10.35,10.35,0,0,0-4.46-1,10.09,10.09,0,0,0-4.43,1,11.86,11.86,0,0,0-3.64,2.76,13.26,13.26,0,0,0-2.48,4.1A13.54,13.54,0,0,0,883.81,231.17Z"/><path class="cls-1" d="M988.77,245.3l-1.06.49c-.47.2-1,.4-1.61.6a18.93,18.93,0,0,1-2.06.55,11.92,11.92,0,0,1-2.43.24,8.81,8.81,0,0,1-2.54-.36,6.05,6.05,0,0,1-2.13-1.13,5.47,5.47,0,0,1-1.45-1.91,6,6,0,0,1-.55-2.66V218.5h-4.36v-3.28h4.36V204.55h4.13v10.67h7.27v3.28h-7.27V240a3.25,3.25,0,0,0,1.24,2.58,4.25,4.25,0,0,0,2.58.82,7.64,7.64,0,0,0,3.09-.58,14.33,14.33,0,0,0,1.7-.81Z"/><path class="cls-1" d="M1021.82,218.86a13,13,0,0,0-7.28,2.3,11.65,11.65,0,0,0-4.36,6v19.65h-4.13v-31.6h3.88v7.58a14.52,14.52,0,0,1,4.73-5.7A11,11,0,0,1,1021,215a4.23,4.23,0,0,1,.79.06Z"/><path class="cls-1" d="M1047,247.42a11.11,11.11,0,0,1-4.16-.76,10.39,10.39,0,0,1-3.33-2.09,9.34,9.34,0,0,1-3-7,7.72,7.72,0,0,1,1-3.82,9.12,9.12,0,0,1,2.73-3,13.15,13.15,0,0,1,4.18-2,19.12,19.12,0,0,1,5.34-.7,29.51,29.51,0,0,1,4.91.42,22.21,22.21,0,0,1,4.43,1.21v-2.85a9.16,9.16,0,0,0-2.37-6.64,8.7,8.7,0,0,0-6.55-2.45,13.83,13.83,0,0,0-5,1,24.27,24.27,0,0,0-5.16,2.79l-1.45-2.73q6.12-4.12,11.89-4.12,5.94,0,9.33,3.33t3.4,9.22v14.25c0,1.13.51,1.7,1.52,1.7v3.64a10,10,0,0,1-1.58.18,3.55,3.55,0,0,1-2.46-.79,3,3,0,0,1-.94-2.18l-.12-2.49a14.25,14.25,0,0,1-5.49,4.37A16.84,16.84,0,0,1,1047,247.42Zm1-3.15a14.23,14.23,0,0,0,5.91-1.21,9.62,9.62,0,0,0,4.09-3.22,3.65,3.65,0,0,0,.82-1.18,2.89,2.89,0,0,0,.28-1.18v-5.16a25.59,25.59,0,0,0-4.28-1.21,24.21,24.21,0,0,0-4.52-.42,12.58,12.58,0,0,0-7.09,1.81,5.55,5.55,0,0,0-2.73,4.8A6.53,6.53,0,0,0,1041,240a7,7,0,0,0,1.58,2.22,7.3,7.3,0,0,0,2.4,1.48A8,8,0,0,0,1048,244.27Z"/><path class="cls-1" d="M1097.2,247.42a13.6,13.6,0,0,1-6.06-1.36,15.32,15.32,0,0,1-4.79-3.61,16.51,16.51,0,0,1-3.13-5.19,17.06,17.06,0,0,1-1.12-6.15,18.61,18.61,0,0,1,1.09-6.34,16.78,16.78,0,0,1,3-5.24,14,14,0,0,1,4.54-3.55,12.88,12.88,0,0,1,5.79-1.3,12.33,12.33,0,0,1,7.1,2.09,15.77,15.77,0,0,1,4.85,5.06V202.55h4.13v38.93c0,1.13.48,1.7,1.45,1.7v3.64a7.93,7.93,0,0,1-1.45.18,3.78,3.78,0,0,1-2.55-.94,2.91,2.91,0,0,1-1.09-2.28v-3.09a13.82,13.82,0,0,1-5.1,4.91A13.27,13.27,0,0,1,1097.2,247.42Zm.91-3.64a10,10,0,0,0,3.25-.6,13.45,13.45,0,0,0,3.24-1.67,11.32,11.32,0,0,0,2.58-2.49,6.78,6.78,0,0,0,1.3-3.06V226.2a10.71,10.71,0,0,0-1.76-3.06,14.28,14.28,0,0,0-2.63-2.52,12.74,12.74,0,0,0-3.19-1.7,10,10,0,0,0-3.33-.61,9.66,9.66,0,0,0-4.61,1.1,11.38,11.38,0,0,0-3.55,2.88,12.88,12.88,0,0,0-2.28,4.09,14.66,14.66,0,0,0-.78,4.73,13,13,0,0,0,.91,4.85,12.81,12.81,0,0,0,2.48,4,11.84,11.84,0,0,0,3.73,2.76A10.57,10.57,0,0,0,1098.11,243.78Z"/><path class="cls-1" d="M1147.72,247.42a15.17,15.17,0,0,1-6.34-1.3,15.43,15.43,0,0,1-5-3.58,16.6,16.6,0,0,1-3.31-5.24,17.05,17.05,0,0,1-1.18-6.37,16.66,16.66,0,0,1,1.18-6.28,16.12,16.12,0,0,1,3.28-5.15,15.44,15.44,0,0,1,5-3.52,15.4,15.4,0,0,1,17.59,3.55,16.64,16.64,0,0,1,4.36,11.34v1a2.41,2.41,0,0,1-.06.66h-27a13.17,13.17,0,0,0,1.18,4.7,12.73,12.73,0,0,0,2.58,3.73,11.48,11.48,0,0,0,3.6,2.46,10.76,10.76,0,0,0,4.34.88,10.93,10.93,0,0,0,3-.43,11.94,11.94,0,0,0,2.79-1.15,10.23,10.23,0,0,0,2.31-1.79,7.6,7.6,0,0,0,1.57-2.33l3.58,1a10.41,10.41,0,0,1-2.06,3.18,14.54,14.54,0,0,1-3.09,2.49,15.46,15.46,0,0,1-3.88,1.64A17.08,17.08,0,0,1,1147.72,247.42Zm11.64-18.07a12.65,12.65,0,0,0-3.73-8.25,11.25,11.25,0,0,0-7.91-3.21,11.31,11.31,0,0,0-4.37.85,11.12,11.12,0,0,0-3.61,2.36,11.57,11.57,0,0,0-2.48,3.64,13.68,13.68,0,0,0-1.12,4.61Z"/><path class="cls-2" d="M48.07.06a48.19,48.19,0,0,0-5.25.29A48.08,48.08,0,0,1,89.18,22.28l-4.24-5A48,48,0,0,0,48.07.06Z"/><path class="cls-3" d="M96.72,180.57v18.9a48.12,48.12,0,0,1-96.23,0V55.08a48,48,0,0,0,10.76,24Z"/><path class="cls-4" d="M175.5,247.49a48,48,0,0,1-36.87-17.19L11.25,79.12A48.11,48.11,0,1,1,84.94,17.25L212.32,168.43a48.11,48.11,0,0,1-36.82,79.06Z"/><path class="cls-1" d="M322.51,247.49a48,48,0,0,1-36.87-17.19L158.26,79.12A48.11,48.11,0,1,1,232,17.25L359.33,168.43a48.11,48.11,0,0,1-36.82,79.06Z"/><path class="cls-5" d="M96.72,48.12V180.57L11.25,79.12a48,48,0,0,1-10.76-24v-7A48.18,48.18,0,0,1,42.45.4l.37-.05a48.09,48.09,0,0,1,42.12,16.9l4.24,5A47.78,47.78,0,0,1,96.72,48.12Z"/><circle class="cls-1" cx="672.11" cy="169.89" r="17.5"/><circle class="cls-6" cx="772.11" cy="56.89" r="17.5"/></g></g></svg>