<svg xmlns="http://www.w3.org/2000/svg" width="20.4" height="20.4" viewBox="0 0 20.4 20.4">
    <path
        d="M152.734,14.153a5.385,5.385,0,1,1,5.417-5.385A5.379,5.379,0,0,1,152.734,14.153Zm7.223,0h-.963l-.361-.359a7.857,7.857,0,0,0,1.806-6.342A7.77,7.77,0,0,0,153.7,1.109a7.859,7.859,0,0,0-8.788,8.735,7.9,7.9,0,0,0,6.38,6.7,7.969,7.969,0,0,0,6.38-1.795l.361.359v.957l5.056,5.026a1.315,1.315,0,0,0,1.806,0,1.3,1.3,0,0,0,0-1.795Z"
        transform="translate(-144.854 -1.052)" fill="#2b3651" /></svg>