<svg id="search-icon" data-name="Layer 1" xmlns="http://www.w3.org/2000/svg" viewBox="0 0 30 30">
    <defs>
        <style>
            .search-icon-1 {
                fill: #85c9ef;
            }

            .search-icon-2 {
                fill: none;
            }

            .search-icon-3 {
                fill: #2b3651;
            }

            .search-icon-4 {
                fill: #fff;
            }
        </style>
    </defs>
    <title>search-icon</title>
    <g id="Group_3443" data-name="Group 3443">
        <g id="Ellipse_345" data-name="Ellipse 345">
            <circle class="search-icon-1" cx="13.3" cy="13.63" r="9.5" />
        </g>
        <g id="Ellipse_344" data-name="Ellipse 344">
            <circle class="search-icon-2" cx="13.3" cy="13.63" r="9.5" />
            <path class="search-icon-3"
                d="M13.3,23.13a9.5,9.5,0,1,1,9.5-9.5A9.51,9.51,0,0,1,13.3,23.13Zm0-17a7.5,7.5,0,1,0,7.5,7.5A7.51,7.51,0,0,0,13.3,6.13Z" />
        </g>
        <g id="Path_2595" data-name="Path 2595">
            <path class="search-icon-3"
                d="M23.15,25.46a1,1,0,0,1-.71-.31l-3.65-3.73a1,1,0,0,1,0-1.41,1,1,0,0,1,1.42,0l3.65,3.74a1,1,0,0,1,0,1.41A1,1,0,0,1,23.15,25.46Z" />
        </g>
        <path class="search-icon-4"
            d="M19.45,14.13a.5.5,0,0,1-.5-.5A5.65,5.65,0,0,0,13.3,8a.5.5,0,0,1,0-1A6.65,6.65,0,0,1,20,13.63.5.5,0,0,1,19.45,14.13Z" />
    </g>
</svg>