<svg xmlns="http://www.w3.org/2000/svg" viewBox="0 0 83.22 99.92"><defs><style>.cls-1{fill:#a8c0e4;}.cls-1,.cls-2,.cls-3{stroke:#5b84c3;stroke-miterlimit:10;}.cls-1,.cls-2{stroke-width:1.5px;}.cls-2{fill:#e8ecf7;}.cls-3{fill:#dbe8b5;}</style></defs><title>aboutF-icon-9</title><g id="Layer_2" data-name="Layer 2"><g id="Layer_1-2" data-name="Layer 1"><g id="aboutF-icon-9"><path class="cls-1" d="M10.51,50.18A10.66,10.66,0,0,0,8,52.08a10.44,10.44,0,0,0-1.89,2.56,10.66,10.66,0,0,0-1.9-2.56,10.7,10.7,0,0,0-2.56-1.9,10.31,10.31,0,0,0,2.56-1.89,10.7,10.7,0,0,0,1.9-2.56,10.47,10.47,0,0,0,1.88,2.55A10.6,10.6,0,0,0,10.51,50.18Z"/><path class="cls-1" d="M33.82,29.75a10.69,10.69,0,0,0-4.45,4.45,11,11,0,0,0-1.89-2.56,10.71,10.71,0,0,0-2.56-1.89,11,11,0,0,0,2.56-1.89,10.71,10.71,0,0,0,1.89-2.56,10.75,10.75,0,0,0,1.89,2.55A10.58,10.58,0,0,0,33.82,29.75Z"/><path class="cls-1" d="M57.5,69.69a11.06,11.06,0,0,0-2.56,1.9,10.71,10.71,0,0,0-1.89,2.56,10.73,10.73,0,0,0-4.46-4.46,10.52,10.52,0,0,0,2.57-1.89,10.71,10.71,0,0,0,1.89-2.56,10.47,10.47,0,0,0,1.88,2.55A10.6,10.6,0,0,0,57.5,69.69Z"/><rect class="cls-1" x="1.6" y="69.21" width="13.12" height="29.96" rx="1.1" transform="translate(16.32 168.37) rotate(-180)"/><path class="cls-2" d="M32.78,81.25l18.07,4.64a4.68,4.68,0,0,0,5.69-3.35h0a4.67,4.67,0,0,0-3.24-5.68L34.88,71.61a11.83,11.83,0,0,0-3.29-.46h-5.2a12,12,0,0,0-6.31,1.79l-5.36,3.31V95.77l7.66,3a6.66,6.66,0,0,0,2.42.45H47a6.68,6.68,0,0,0,3.46-1L80,80.57a5,5,0,0,0,1.76-6.86h0A5,5,0,0,0,75,71.86L56.75,82"/><rect class="cls-1" x="69.35" y="0.75" width="13.12" height="29.96" rx="1.1"/><path class="cls-2" d="M51.29,18.67,33.22,14a4.68,4.68,0,0,0-5.69,3.35h0a4.67,4.67,0,0,0,3.24,5.68l18.42,5.25a11.83,11.83,0,0,0,3.29.46h5.2A12,12,0,0,0,64,27l5.36-3.31V4.15L61.69,1.2A6.66,6.66,0,0,0,59.27.75H37.06a6.8,6.8,0,0,0-3.46,1L4.05,19.35A5,5,0,0,0,2.29,26.2h0a5,5,0,0,0,6.78,1.86L27.32,17.92"/><path class="cls-1" d="M65.42,51.44s-4.79-4.78-8.76-9.27S50.9,38,50.9,38H26.41a7.76,7.76,0,0,0-7.35,5.31l-2.45,7.41a5,5,0,0,0-.24,1.53v7.43H72.69C72.69,51.08,65.42,51.44,65.42,51.44Z"/><path class="cls-2" d="M48.77,41.63h7.39l9.26,9.81H48.77a1,1,0,0,1-1-.95V42.58A.94.94,0,0,1,48.77,41.63Z"/><rect class="cls-3" x="67.12" y="52.61" width="5.21" height="2.91" rx="1.46"/><path class="cls-2" d="M72.39,59.65H15.65a1.71,1.71,0,0,0,0,3.42H72.39a1.71,1.71,0,0,0,0-3.42Z"/><circle class="cls-1" cx="65.42" cy="63.07" r="5.65"/><circle class="cls-3" cx="65.42" cy="63.07" r="2.24"/><circle class="cls-1" cx="23.72" cy="63.07" r="5.65"/><circle class="cls-3" cx="23.72" cy="63.07" r="2.24"/><path class="cls-2" d="M42.49,42.31v8.44a.68.68,0,0,1-.68.69H23.05A1.59,1.59,0,0,1,21.94,51h0a1.55,1.55,0,0,1-.38-1.57L23.7,42.5a1.25,1.25,0,0,1,1.19-.87H41.81A.67.67,0,0,1,42.49,42.31Z"/><path class="cls-3" d="M15.19,53.87h1.9a.45.45,0,0,1,.45.45v1.45a.45.45,0,0,1-.45.45h-1.9a0,0,0,0,1,0,0V53.87A0,0,0,0,1,15.19,53.87Z"/><rect class="cls-2" x="19.32" y="53.87" width="2.35" height="2.35" rx="0.37"/></g></g></g></svg>