<svg xmlns="http://www.w3.org/2000/svg" viewBox="0 0 46.16 48.79"><defs><style>.cls-1,.cls-4,.cls-6{fill:#a8c0e4;}.cls-1,.cls-2,.cls-3,.cls-4,.cls-7{stroke:#5b84c3;stroke-miterlimit:10;}.cls-1{stroke-width:0.75px;}.cls-2{fill:none;}.cls-2,.cls-7{stroke-linecap:round;}.cls-3,.cls-5{fill:#e8ecf7;}.cls-7{fill:#fbe7cb;}.cls-8{fill:#fff;}</style></defs><title>aboutA-icon-4</title><g id="Layer_2" data-name="Layer 2"><g id="Layer_1-2" data-name="Layer 1"><g id="aboutA-icon-4"><rect class="cls-1" x="1.35" y="0.5" width="43.81" height="34.76" rx="3.36"/><rect class="cls-2" x="1.35" y="0.5" width="43.81" height="34.76" rx="3.36"/><rect class="cls-3" x="3.53" y="2.58" width="39.47" height="30.6" rx="1.26"/><rect class="cls-4" x="21.09" y="35.26" width="4.35" height="4.71"/><path class="cls-4" d="M20.75,40h5a2.53,2.53,0,0,1,2.53,2.53v1a0,0,0,0,1,0,0H18.21a0,0,0,0,1,0,0v-1A2.53,2.53,0,0,1,20.75,40Z"/><rect class="cls-5" x="23.26" y="35.84" width="1.71" height="3.55"/><path class="cls-6" d="M37.38,3.05a2.44,2.44,0,0,1,1.81,2.33V30.7s.1,2-1.81,2h4.68a.46.46,0,0,0,.47-.45V3.49a.46.46,0,0,0-.47-.44Z"/><rect class="cls-4" x="36.36" y="38.24" width="2.14" height="13.82" rx="0.77" transform="translate(-7.72 82.58) rotate(-90)"/><path class="cls-4" d="M29.14,48.29a1.53,1.53,0,0,1,0-.3,1.76,1.76,0,0,1,1.76-1.77h13A1.77,1.77,0,0,1,45.66,48c0,.1,0,.2,0,.3Z"/><path class="cls-1" d="M40.75,21.82v6.3a.6.6,0,0,1-.64.72H36.93a.66.66,0,0,1-.57-.64v-6Z"/><path class="cls-1" d="M18.79,21.82v6.3a.6.6,0,0,0,.64.72h3.18a.66.66,0,0,0,.57-.64v-6Z"/><path class="cls-1" d="M39.33,15h0L38.14,7.16s-.09-.56-.91-.56h-15c-.82,0-.91.56-.91.56L20.11,15h0s-1.9.05-1.9,1.74v3.92s.57,1.47,1.49,1.47H39.75c.91,0,1.48-1.47,1.48-1.47V16.74C41.23,15.05,39.33,15,39.33,15Z"/><path class="cls-2" d="M20.17,14.83l1.12-7.56a.79.79,0,0,1,.78-.67h7.65"/><line class="cls-2" x1="23.59" y1="5.15" x2="23.59" y2="6.6"/><path class="cls-2" d="M19,10.1v2.16a.55.55,0,0,0,.54.55h1"/><line class="cls-2" x1="21.39" y1="12.81" x2="29.72" y2="12.81"/><line class="cls-2" x1="28.17" y1="14.28" x2="28.17" y2="18.05"/><line class="cls-2" x1="29.72" y1="14.28" x2="29.72" y2="18.05"/><path class="cls-4" d="M18.78,21.8v6.42a.64.64,0,0,0,.64.64h3.13a.64.64,0,0,0,.64-.64v-5.9"/><line class="cls-7" x1="24" y1="24.46" x2="29.76" y2="24.46"/><path class="cls-2" d="M39.33,14.93,38.19,7.27a.79.79,0,0,0-.78-.67H29.76"/><line class="cls-2" x1="35.89" y1="5.15" x2="35.89" y2="6.6"/><path class="cls-2" d="M40.51,10.1v2.16a.55.55,0,0,1-.55.55H39"/><line class="cls-2" x1="38.09" y1="12.81" x2="29.64" y2="12.81"/><line class="cls-2" x1="31.31" y1="14.28" x2="31.31" y2="18.05"/><path class="cls-4" d="M40.7,21.8v6.42a.64.64,0,0,1-.64.64H36.93a.64.64,0,0,1-.64-.64v-5.9"/><line class="cls-7" x1="35.48" y1="24.46" x2="29.72" y2="24.46"/><circle class="cls-3" cx="25.32" cy="16.23" r="1.36"/><circle class="cls-8" cx="34.16" cy="16.23" r="1.36"/><circle class="cls-3" cx="34.16" cy="16.23" r="1.4"/><path class="cls-2" d="M36.72,18.14l.54-1.59a1.82,1.82,0,0,1,.71-.93l.36-.25a1.86,1.86,0,0,1,1-.31h0a1.84,1.84,0,0,1,1.41.66h0a1.86,1.86,0,0,1,.42,1.17v3.59a1.85,1.85,0,0,1-.37,1.11h0a1.84,1.84,0,0,1-1.47.73H29.75"/><path class="cls-2" d="M22.76,18.14l-.54-1.59a1.82,1.82,0,0,0-.71-.93l-.36-.25a1.86,1.86,0,0,0-1-.31h0a1.84,1.84,0,0,0-1.41.66h0a1.86,1.86,0,0,0-.42,1.17v3.59a1.85,1.85,0,0,0,.37,1.11h0a1.84,1.84,0,0,0,1.46.73h9.65"/><rect class="cls-3" x="15.69" y="13.15" width="3.16" height="13.28" rx="0.95" transform="translate(15.5 46) rotate(-135)"/><rect class="cls-3" x="27.3" y="24.76" width="3.16" height="13.28" rx="0.95" transform="translate(27.1 74.02) rotate(-135)"/><rect class="cls-4" x="18.31" y="25.35" width="1.58" height="8.45" rx="0.48" transform="translate(53.52 36.97) rotate(135)"/><rect class="cls-4" x="16.57" y="20.52" width="13.23" height="9.93" transform="translate(21.56 59.9) rotate(-135)"/><path class="cls-4" d="M3.55,39.81H6.06A1.9,1.9,0,0,1,8,41.71v6.21a0,0,0,0,1,0,0H1.66a0,0,0,0,1,0,0V41.71A1.9,1.9,0,0,1,3.55,39.81Z" transform="translate(-22.81 78.28) rotate(-135)"/><polygon class="cls-4" points="5.46 38.75 9.92 43.21 11.04 41.8 6.87 37.63 5.46 38.75"/><polygon class="cls-4" points="7.19 37.93 10.74 41.48 19.73 31.39 17.27 28.94 7.19 37.93"/><path class="cls-4" d="M10.63,26.5a5.82,5.82,0,0,0-1.37,1,6.06,6.06,0,0,0-1,1.37,5.54,5.54,0,0,0-1-1.37,5.63,5.63,0,0,0-1.37-1,5.54,5.54,0,0,0,1.37-1,5.63,5.63,0,0,0,1-1.37,5.69,5.69,0,0,0,2.38,2.38Z"/><path class="cls-4" d="M14.46,15.5a5.69,5.69,0,0,0-2.38,2.38,5.54,5.54,0,0,0-1-1.37,5.75,5.75,0,0,0-1.36-1,5.72,5.72,0,0,0,1.36-1,5.49,5.49,0,0,0,1-1.36,6,6,0,0,0,1,1.36A5.54,5.54,0,0,0,14.46,15.5Z"/><path class="cls-4" d="M11.4,6.86a5.72,5.72,0,0,0-1.36,1A5.49,5.49,0,0,0,9,9.23,6,6,0,0,0,8,7.87a5.77,5.77,0,0,0-1.37-1A6.12,6.12,0,0,0,8,5.85,6.06,6.06,0,0,0,9,4.48a5.91,5.91,0,0,0,1,1.36A6.12,6.12,0,0,0,11.4,6.86Z"/></g></g></g></svg>