<svg xmlns="http://www.w3.org/2000/svg" viewBox="0 0 99.9 73.3"><defs><style>.cls-1{fill:#a8c0e4;}.cls-1,.cls-2,.cls-3{stroke:#5b84c3;stroke-miterlimit:10;stroke-width:1.5px;}.cls-2,.cls-4{fill:#e8ecf7;}.cls-3{fill:none;stroke-linecap:round;}</style></defs><title>aboutF-icon-8</title><g id="Layer_2" data-name="Layer 2"><g id="Layer_1-2" data-name="Layer 1"><g id="aboutF-icon-8"><path class="cls-1" d="M10.32,40.88a10.69,10.69,0,0,0-2.51,1.86A10.4,10.4,0,0,0,6,45.24a10.66,10.66,0,0,0-1.85-2.5A10.49,10.49,0,0,0,1.6,40.88,10.32,10.32,0,0,0,4.11,39,10.9,10.9,0,0,0,6,36.53a10.47,10.47,0,0,0,4.36,4.35Z"/><path class="cls-1" d="M21.46,49.58a10.57,10.57,0,0,0-4.36,4.36,10.11,10.11,0,0,0-1.85-2.5,10.61,10.61,0,0,0-2.5-1.86,10.11,10.11,0,0,0,2.5-1.85,10.34,10.34,0,0,0,1.85-2.5A10.64,10.64,0,0,0,19,47.72,10.41,10.41,0,0,0,21.46,49.58Z"/><path class="cls-1" d="M44.1,6a10.68,10.68,0,0,0-2.51,1.85,10.23,10.23,0,0,0-1.85,2.51,10.89,10.89,0,0,0-1.85-2.51A10.7,10.7,0,0,0,35.38,6a10.89,10.89,0,0,0,2.51-1.85A10.77,10.77,0,0,0,39.74,1.6a10.3,10.3,0,0,0,1.84,2.5A10.51,10.51,0,0,0,44.1,6Z"/><rect class="cls-1" x="2.04" y="13.24" width="7.85" height="19.98" rx="1.1"/><path class="cls-2" d="M19.82,32.73V26h21.7l-.26-4.81-4.06-4.3a10.84,10.84,0,0,0-3.84-2.63l-.52-.21a11,11,0,0,0-4.12-.81H19.26a8,8,0,0,0-3,.58l-1.89.76a8,8,0,0,1-3,.58H9.88V30.51h2.95a13.4,13.4,0,0,0,3.22,1.57,13.07,13.07,0,0,0,3.77.65"/><path class="cls-1" d="M19.82,26.28V44.12a1,1,0,0,0,1,1H58.62a1,1,0,0,0,1-1V22.44a1,1,0,0,0-1-1H30.88"/><path class="cls-2" d="M55.47,30.25a4.71,4.71,0,0,1-4.7-4.7v-.23a.18.18,0,0,0-.18-.19H29a.18.18,0,0,0-.18.19v.23a4.71,4.71,0,0,1-4.7,4.7h0a.19.19,0,0,0-.19.18v5.78a.19.19,0,0,0,.19.18h0a4.71,4.71,0,0,1,4.7,4.7v0a.18.18,0,0,0,.18.19h21.6a.18.18,0,0,0,.18-.19v0a4.71,4.71,0,0,1,4.7-4.7h0a.18.18,0,0,0,.19-.18V30.43a.18.18,0,0,0-.19-.18Z"/><path class="cls-2" d="M27.9,18.64l7,7a2.8,2.8,0,0,1,0,4h0a2.81,2.81,0,0,1-4,0l-5.26-5.25a6.06,6.06,0,0,1-4,1.84,6.21,6.21,0,0,1-4.54-1.84"/><circle class="cls-1" cx="39.79" cy="33.28" r="4.1"/><rect class="cls-1" x="50.31" y="50.55" width="9.35" height="21.35" rx="1.1"/><path class="cls-2" d="M37.44,59.13,24.56,62.44a3.32,3.32,0,0,1-4-2.39h0a3.34,3.34,0,0,1,2.31-4l13.12-3.74a8.88,8.88,0,0,1,2.35-.32H42a8.6,8.6,0,0,1,4.5,1.27l3.82,2.36V69.48l-5.46,2.1a4.87,4.87,0,0,1-1.73.32H27.3a4.79,4.79,0,0,1-2.47-.68l-21-12.57a3.58,3.58,0,0,1-1.25-4.89h0a3.58,3.58,0,0,1,4.83-1.32l13,7.23"/><path class="cls-2" d="M42.95,13.38h8.73a2.81,2.81,0,0,1,2.81,2.81V35.94a0,0,0,0,1,0,0h-14a.32.32,0,0,1-.32-.32V16.19a2.81,2.81,0,0,1,2.81-2.81Z"/><path class="cls-1" d="M93.37,64.38V20.56a8.22,8.22,0,0,0-7.76-7.18H47.31a7.33,7.33,0,0,1,7.18,7.18v45.1a7.35,7.35,0,0,0,1,3.8l.06.1a6.43,6.43,0,0,0,5.53,3H98.82a.15.15,0,0,0,.06-.28A9.67,9.67,0,0,1,94.8,69l0,0A8,8,0,0,1,93.37,64.38Z"/><line class="cls-3" x1="87.37" y1="25.18" x2="59.88" y2="25.18"/><line class="cls-3" x1="84.47" y1="30.06" x2="56.98" y2="30.06"/><line class="cls-3" x1="84.95" y1="34.53" x2="57.47" y2="34.53"/><line class="cls-3" x1="86.88" y1="39.31" x2="59.4" y2="39.31"/><line class="cls-3" x1="84.95" y1="44.49" x2="57.47" y2="44.49"/><line class="cls-3" x1="88.64" y1="49.58" x2="61.15" y2="49.58"/><line class="cls-3" x1="84.95" y1="54.68" x2="57.47" y2="54.68"/><line class="cls-3" x1="88.64" y1="58.84" x2="61.15" y2="58.84"/><path class="cls-2" d="M80,50.21S86.56,32.6,99,25.85A53.88,53.88,0,0,1,85.08,53.56Z"/><circle class="cls-1" cx="86.11" cy="67.27" r="3.35"/><circle class="cls-1" cx="61.15" cy="19.11" r="3.35"/><path class="cls-2" d="M85,53.7l-2.52-1.65L80.49,55,82.41,52l-2.52-1.65s-.69,1.52-3.11,1.45l-1.22,1.42s-.46,4.29-1.93,6.32l2.71,1.78h0L79,63.12c1.28-2.17,5-4.3,5-4.3l.82-1.69C83.84,54.94,85,53.7,85,53.7Z"/><polygon class="cls-2" points="77.81 62.34 73.26 65.8 74.56 60.22 77.81 62.34"/><path class="cls-4" d="M61.5,19.88a.37.37,0,0,0-.1-.28.89.89,0,0,0-.33-.2,3.41,3.41,0,0,1-.41-.17,1.14,1.14,0,0,1-.3-.21.83.83,0,0,1-.19-.26,1.06,1.06,0,0,1-.07-.37.78.78,0,0,1,.24-.6,1,1,0,0,1,.62-.28v-.46h.35v.47a.85.85,0,0,1,.6.32,1,1,0,0,1,.22.69H61.5a.57.57,0,0,0-.11-.39.33.33,0,0,0-.28-.13.36.36,0,0,0-.28.1.37.37,0,0,0-.1.28.36.36,0,0,0,.1.27,1.15,1.15,0,0,0,.35.2,3.63,3.63,0,0,1,.43.2,1,1,0,0,1,.28.21.68.68,0,0,1,.18.26,1,1,0,0,1,.06.35.85.85,0,0,1-.23.6,1,1,0,0,1-.64.27v.43h-.34v-.43a1,1,0,0,1-.69-.31,1,1,0,0,1-.25-.72h.63a.6.6,0,0,0,.12.4.47.47,0,0,0,.36.14.45.45,0,0,0,.3-.1A.38.38,0,0,0,61.5,19.88Z"/><path class="cls-4" d="M86.56,68a.41.41,0,0,0-.1-.28,1,1,0,0,0-.34-.2,4.14,4.14,0,0,1-.41-.18,1,1,0,0,1-.29-.2.66.66,0,0,1-.19-.27.8.8,0,0,1-.07-.36.85.85,0,0,1,.23-.61,1.07,1.07,0,0,1,.63-.27V65.2h.35v.48A.89.89,0,0,1,87,66a1.06,1.06,0,0,1,.22.69h-.63a.59.59,0,0,0-.11-.39.35.35,0,0,0-.29-.13.33.33,0,0,0-.27.1.37.37,0,0,0-.1.28.36.36,0,0,0,.09.26,1.13,1.13,0,0,0,.36.21,3.54,3.54,0,0,1,.43.2,1.55,1.55,0,0,1,.28.2.77.77,0,0,1,.17.27.75.75,0,0,1,.07.35.85.85,0,0,1-.23.6,1.07,1.07,0,0,1-.64.27v.43H86v-.43a1.07,1.07,0,0,1-.69-.32,1,1,0,0,1-.24-.71h.63a.62.62,0,0,0,.12.4.53.53,0,0,0,.66,0A.34.34,0,0,0,86.56,68Z"/></g></g></g></svg>