<svg xmlns="http://www.w3.org/2000/svg" viewBox="0 0 50.14 49.65"><defs><style>.cls-1,.cls-4{fill:#a8c0e4;}.cls-1,.cls-2,.cls-3,.cls-4,.cls-5,.cls-6{stroke:#5b84c3;stroke-miterlimit:10;}.cls-2{fill:#e8ecf7;}.cls-3{fill:#dbe8b5;}.cls-4{stroke-width:0.75px;}.cls-5{fill:#fbe7cb;}.cls-6{fill:none;stroke-linecap:round;}</style></defs><title>aboutT-icon-2</title><g id="Layer_2" data-name="Layer 2"><g id="Layer_1-2" data-name="Layer 1"><g id="aboutT-icon-2"><path class="cls-1" d="M16.12,4a5.44,5.44,0,0,0-1.25.93,5.17,5.17,0,0,0-.93,1.25A5.44,5.44,0,0,0,13,4.94,5.06,5.06,0,0,0,11.75,4,5.25,5.25,0,0,0,13,3.08a5.32,5.32,0,0,0,.93-1.26,5.45,5.45,0,0,0,.92,1.26A5.46,5.46,0,0,0,16.12,4Z"/><path class="cls-1" d="M29.24,5.28A5.25,5.25,0,0,0,28,6.21a5.44,5.44,0,0,0-.93,1.25,5.15,5.15,0,0,0-.93-1.25,5,5,0,0,0-1.25-.93,5.23,5.23,0,0,0,1.25-.93,5.06,5.06,0,0,0,.93-1.26,5.26,5.26,0,0,0,2.19,2.19Z"/><path class="cls-1" d="M6,12.84a5.23,5.23,0,0,0-1.25.93A5.06,5.06,0,0,0,3.86,15a5.25,5.25,0,0,0-.93-1.26,5.26,5.26,0,0,0-1.26-.93,5.25,5.25,0,0,0,1.26-.93,5.32,5.32,0,0,0,.93-1.26,5.45,5.45,0,0,0,.92,1.26A5.25,5.25,0,0,0,6,12.84Z"/><rect class="cls-1" x="0.5" y="30.94" width="7.97" height="18.21" rx="1.1" transform="translate(8.97 80.09) rotate(-180)"/><path class="cls-2" d="M19.45,38.26l11,2.82a2.84,2.84,0,0,0,3.46-2h0a2.84,2.84,0,0,0-2-3.45L20.72,32.4a7.1,7.1,0,0,0-2-.28H15.56a7.3,7.3,0,0,0-3.83,1.09l-3.26,2V47.08l4.65,1.79a4.14,4.14,0,0,0,1.48.28H28.1a4.1,4.1,0,0,0,2.1-.58l18-10.73a3,3,0,0,0,1.07-4.16h0a3.05,3.05,0,0,0-4.12-1.13L34,38.71"/><path class="cls-1" d="M40.49,19.06s-3.3-3.29-6-6.38-4-2.9-4-2.9H13.61a5.34,5.34,0,0,0-3.78,1.56,5.44,5.44,0,0,0-1.29,2.1L6.85,18.55a3.39,3.39,0,0,0-.17,1.05v5.12H45.49C45.49,18.81,40.49,19.06,40.49,19.06Z"/><path class="cls-2" d="M29,12.3h5.1l6.38,6.76H29a.65.65,0,0,1-.65-.65V13A.65.65,0,0,1,29,12.3Z"/><rect class="cls-3" x="41.66" y="19.87" width="3.59" height="2.01" rx="0.88"/><path class="cls-2" d="M45.29,24.72H6.19a1.18,1.18,0,0,0,0,2.36h39.1a1.18,1.18,0,0,0,0-2.36Z"/><circle class="cls-4" cx="40.49" cy="27.08" r="3.89"/><circle class="cls-5" cx="40.49" cy="27.08" r="1.54"/><circle class="cls-1" cx="11.75" cy="27.08" r="3.89"/><circle class="cls-5" cx="11.75" cy="27.08" r="1.54"/><path class="cls-2" d="M24.69,12.77v5.82a.47.47,0,0,1-.47.47H11.29a1.07,1.07,0,0,1-.76-.31h0a1.08,1.08,0,0,1-.27-1.09l1.48-4.75a.86.86,0,0,1,.82-.61H24.22A.47.47,0,0,1,24.69,12.77Z"/><path class="cls-3" d="M5.87,20.74H6.94a.55.55,0,0,1,.55.55v.53a.55.55,0,0,1-.55.55H5.87a0,0,0,0,1,0,0V20.74A0,0,0,0,1,5.87,20.74Z"/><rect class="cls-2" x="8.72" y="20.74" width="1.62" height="1.62" rx="0.37"/><path class="cls-2" d="M43.24,1h0a1.27,1.27,0,0,1,2.27.83h0a1.27,1.27,0,0,0,1.54,1.29h0a1.27,1.27,0,0,1,1.21,2.1h0a1.27,1.27,0,0,0,.35,2h0a1.28,1.28,0,0,1-.42,2.39h0a1.27,1.27,0,0,0-1,1.74h0a1.27,1.27,0,0,1-1.86,1.55h0a1.27,1.27,0,0,0-1.88.69h0a1.27,1.27,0,0,1-2.42,0h0a1.28,1.28,0,0,0-1.89-.69h0a1.27,1.27,0,0,1-1.85-1.55h0a1.28,1.28,0,0,0-1-1.74h0a1.28,1.28,0,0,1-.42-2.39h0a1.26,1.26,0,0,0,.35-2h0a1.27,1.27,0,0,1,1.21-2.1h0A1.27,1.27,0,0,0,39,1.82h0A1.27,1.27,0,0,1,41.23,1h0A1.27,1.27,0,0,0,43.24,1Z"/><polyline class="cls-6" points="39.27 7.11 41.52 9.36 45.93 4.95"/></g></g></g></svg>