<svg xmlns="http://www.w3.org/2000/svg" viewBox="0 0 49.42 48.44"><defs><style>.cls-1{fill:#a8c0e4;}.cls-1,.cls-2,.cls-3,.cls-6,.cls-7{stroke:#5b84c3;}.cls-1,.cls-2,.cls-3,.cls-4,.cls-6,.cls-7{stroke-miterlimit:10;}.cls-2,.cls-3{fill:#e8ecf7;}.cls-3,.cls-6{stroke-width:0.75px;}.cls-4,.cls-6,.cls-7{fill:none;}.cls-4{stroke:#a8c0e4;stroke-width:0.25px;}.cls-4,.cls-6{stroke-linecap:round;}.cls-5{fill:#5b84c3;}</style></defs><title>aboutA-icon-2</title><g id="Layer_2" data-name="Layer 2"><g id="Layer_1-2" data-name="Layer 1"><g id="aboutA-icon-2"><path class="cls-1" d="M42.92,16.05a5.63,5.63,0,0,0-1.24.92,5.15,5.15,0,0,0-.91,1.24A4.94,4.94,0,0,0,39.85,17a5,5,0,0,0-1.23-.92,5,5,0,0,0,1.23-.91,5.09,5.09,0,0,0,.92-1.24,5.54,5.54,0,0,0,.91,1.24A5,5,0,0,0,42.92,16.05Z"/><path class="cls-1" d="M7.69,25.43a5.24,5.24,0,0,0-1.24.91,5.37,5.37,0,0,0-.91,1.24,5.13,5.13,0,0,0-.92-1.24,5.27,5.27,0,0,0-1.23-.91,5.39,5.39,0,0,0,1.23-.92,4.9,4.9,0,0,0,.92-1.24,5,5,0,0,0,.91,1.24A5.41,5.41,0,0,0,7.69,25.43Z"/><path class="cls-1" d="M47.94,24.6a5,5,0,0,0-1.24.91,5.6,5.6,0,0,0-.91,1.24,5.33,5.33,0,0,0-.92-1.24,5.15,5.15,0,0,0-1.24-.91,4.94,4.94,0,0,0,1.24-.92,5,5,0,0,0,.92-1.23,5,5,0,0,0,.91,1.23A5.41,5.41,0,0,0,47.94,24.6Z"/><path class="cls-2" d="M31.84,30.55l5.09-5.2a2.5,2.5,0,0,1,3.69,3.38L35.24,35A10.43,10.43,0,0,1,31.8,37.6a10.56,10.56,0,0,1-4.49,1H18.58a2.87,2.87,0,0,0-2,.81l-1.13,1.09L8.14,33.4a9.66,9.66,0,0,1,5.07-4.68,9.89,9.89,0,0,1,7.66.34h9a2.27,2.27,0,0,1,0,4.54h-6.6"/><path class="cls-1" d="M15.8,40.88,7.35,32.59A1.64,1.64,0,0,0,5,32.6L.71,36.94,11.5,47.73l4.34-4.54A1.65,1.65,0,0,0,15.8,40.88Z"/><path class="cls-3" d="M37.63,1.64l-2,3.12,1.5.15a1.51,1.51,0,0,1,2.91.35h0a1.51,1.51,0,0,1-2.74,1l-1.73.2,3,2.85h0L49,8.11h0l-.46-3.86L48.11.39h0L37.64,1.64Z"/><path class="cls-4" d="M36.44,4.58,37.8,2.41a.47.47,0,0,1,.33-.21l9.26-1.11"/><path class="cls-5" d="M45.19,3.05A4.9,4.9,0,0,0,44.12,3l.17,1.4.12,0a2.11,2.11,0,0,1,1.23.6,1.16,1.16,0,0,1,.19.54,1.26,1.26,0,0,1,0,.52,1,1,0,0,1-.44.62A2,2,0,0,1,44.6,7l.07.56-.37,0-.07-.56a4.78,4.78,0,0,1-.83,0l-.54-.12.1-.54.39.1a4.12,4.12,0,0,0,.82,0L44,4.94l-.4-.05c-.75-.1-1.16-.46-1.24-1.07a1,1,0,0,1,.08-.53,1.28,1.28,0,0,1,.26-.36,1.79,1.79,0,0,1,1-.42L43.62,2l.37,0,.07.55a3.46,3.46,0,0,1,1,0c.12,0,.19,0,.18.06ZM43.9,4.32,43.75,3a1,1,0,0,0-.72.29.58.58,0,0,0-.1.42.49.49,0,0,0,.17.34,1.44,1.44,0,0,0,.53.21Zm.46.68.18,1.46a.93.93,0,0,0,.55-.27.64.64,0,0,0,.16-.53A.54.54,0,0,0,45,5.2,2.29,2.29,0,0,0,44.36,5Z"/><path class="cls-6" d="M27.27,6.6s5.45-4.45,10.38-1.25"/><path class="cls-1" d="M34.37,10.25h-.81a2.43,2.43,0,0,0-1.72,1.57h-.05s-1.41-5.92-3.95-6.47a37.35,37.35,0,0,0-6.14-.56,37.28,37.28,0,0,0-6.14.56c-2.55.55-4,6.47-4,6.47h-.06a2.42,2.42,0,0,0-1.72-1.57H9a.71.71,0,0,0-.71.68v1.24c0,.65.75.71.75.71h2.2c.17,0,.11.06.11.06a5.8,5.8,0,0,0-2.13,4.88c.07,5.46,1.26,6,1.55,6s.27.25.27.25v1.54a.85.85,0,0,0,.7.87h2a.87.87,0,0,0,.88-.87V24.42a61.37,61.37,0,0,0,7.06.21,61.41,61.41,0,0,0,7.06-.21v1.22a.86.86,0,0,0,.87.87h2a.85.85,0,0,0,.69-.87V24.1s0-.21.28-.25,1.48-.57,1.55-6A5.83,5.83,0,0,0,32,12.94s-.07-.06.1-.06h2.2s.75-.06.75-.71V10.93A.71.71,0,0,0,34.37,10.25Z"/><path class="cls-2" d="M28.47,7.7c-.76-1-3.15-1-6.63-1.16h-.29c-3.47.16-5.87.13-6.62,1.16a25.43,25.43,0,0,0-1.88,4.8c4.09-.42,8.65-.37,8.65-.37s4.55-.05,8.64.37A25.94,25.94,0,0,0,28.47,7.7Z"/><circle class="cls-2" cx="13.61" cy="17.55" r="1.9"/><circle class="cls-2" cx="30.23" cy="17.55" r="1.9"/><rect class="cls-7" x="19.09" y="20.09" width="5.21" height="1.67" rx="0.38"/></g></g></g></svg>