<svg xmlns="http://www.w3.org/2000/svg" viewBox="0 0 80.25 99.74"><defs><style>.cls-1{fill:#a8c0e4;}.cls-1,.cls-2,.cls-3,.cls-4{stroke:#5b84c3;stroke-miterlimit:10;stroke-width:1.5px;}.cls-2{fill:#e8ecf7;}.cls-3{fill:#b4e2ea;}.cls-3,.cls-4{stroke-linecap:round;}.cls-4{fill:none;}</style></defs><title>aboutT-icon-5</title><g id="Layer_2" data-name="Layer 2"><g id="Layer_1-2" data-name="Layer 1"><g id="aboutT-icon-5"><path class="cls-1" d="M23.88,23.15a8.76,8.76,0,0,0-3.65,3.65,9,9,0,0,0-1.56-2.1,8.82,8.82,0,0,0-2.1-1.55,9,9,0,0,0,3.66-3.66,8.86,8.86,0,0,0,1.54,2.1A9,9,0,0,0,23.88,23.15Z"/><path class="cls-1" d="M64.86,25.3A8.76,8.76,0,0,0,61.21,29a9,9,0,0,0-1.56-2.1,8.56,8.56,0,0,0-2.1-1.55,9,9,0,0,0,3.66-3.66,8.77,8.77,0,0,0,1.54,2.1A9,9,0,0,0,64.86,25.3Z"/><path class="cls-1" d="M49.93,5.26a8.43,8.43,0,0,0-2.11,1.55,8.82,8.82,0,0,0-1.55,2.1,8.86,8.86,0,0,0-1.55-2.1,8.56,8.56,0,0,0-2.1-1.55,9,9,0,0,0,2.1-1.56,8.82,8.82,0,0,0,1.55-2.1,9.15,9.15,0,0,0,1.55,2.1A8.77,8.77,0,0,0,49.93,5.26Z"/><path class="cls-1" d="M40.12,41.8H6.32C3.24,41.8.75,44,.75,46.68V87.76c0,2.69,2.49,4.88,5.57,4.88h26.3c4,0,7.48,2.85,7.5,6.35v0c0-3.5,3.51-6.35,7.5-6.35h26.3c3.08,0,5.57-2.19,5.57-4.88V46.68C79.5,44,77,41.8,73.93,41.8Z"/><path class="cls-2" d="M40.12,34.57H10.48A4.89,4.89,0,0,0,5.6,39.45V80.52a4.89,4.89,0,0,0,4.88,4.89H33.55a6.57,6.57,0,0,1,6.57,6.35v0a6.57,6.57,0,0,1,6.57-6.35H69.77a4.89,4.89,0,0,0,4.88-4.89V39.45a4.89,4.89,0,0,0-4.88-4.88Z"/><rect class="cls-1" x="10.31" y="42.59" width="7.2" height="7.2" rx="0.94"/><rect class="cls-1" x="10.31" y="56.52" width="7.2" height="7.2" rx="0.94"/><rect class="cls-1" x="10.31" y="70.45" width="7.2" height="7.2" rx="0.94"/><line class="cls-3" x1="20.23" y1="46.19" x2="32.85" y2="46.19"/><line class="cls-3" x1="48.25" y1="46.19" x2="72.14" y2="46.19"/><line class="cls-3" x1="48.25" y1="51.17" x2="72.14" y2="51.17"/><line class="cls-3" x1="20.23" y1="60.12" x2="32.85" y2="60.12"/><line class="cls-3" x1="20.23" y1="73.92" x2="27.43" y2="73.92"/><rect class="cls-1" x="25.64" y="46.76" width="28.98" height="8.83" transform="translate(91.29 11.04) rotate(90)"/><path class="cls-1" d="M50.05,31.52A10.1,10.1,0,0,0,43.54,20v8.59a.91.91,0,0,1-.91.91h-5a.91.91,0,0,1-.91-.91V20A10.11,10.11,0,1,0,50.05,31.52Z"/><path class="cls-1" d="M37.62,73.34h5a.91.91,0,0,1,.91.91v8.58a10.13,10.13,0,1,0-6.83,0V74.25A.91.91,0,0,1,37.62,73.34Z"/><circle class="cls-1" cx="61.97" cy="68.68" r="7.51"/><polyline class="cls-4" points="57.69 68.59 61.13 71.89 66.46 66.3"/></g></g></g></svg>