<svg xmlns="http://www.w3.org/2000/svg" viewBox="0 0 47.19 48.89"><defs><style>.cls-1{fill:#a8c0e4;}.cls-1,.cls-2,.cls-3,.cls-4{stroke:#5b84c3;stroke-miterlimit:10;}.cls-2{fill:#e8ecf7;}.cls-3,.cls-4{fill:none;stroke-linecap:round;}.cls-3{stroke-width:0.75px;}</style></defs><title>aboutW-icon-2</title><g id="Layer_2" data-name="Layer 2"><g id="Layer_1-2" data-name="Layer 1"><g id="aboutW-icon-2"><path class="cls-1" d="M5.19,19.44A5,5,0,0,0,4,20.32a5.06,5.06,0,0,0-.87,1.18,4.75,4.75,0,0,0-.88-1.18,4.79,4.79,0,0,0-1.18-.88,4.75,4.75,0,0,0,1.18-.88,4.79,4.79,0,0,0,.88-1.18A4.93,4.93,0,0,0,4,18.56,4.77,4.77,0,0,0,5.19,19.44Z"/><path class="cls-1" d="M6.68,7.25a5,5,0,0,0-1.19.88,5.06,5.06,0,0,0-.87,1.18,4.75,4.75,0,0,0-.88-1.18,4.79,4.79,0,0,0-1.18-.88,4.75,4.75,0,0,0,1.18-.88,4.79,4.79,0,0,0,.88-1.18A4.95,4.95,0,0,0,6.68,7.25Z"/><path class="cls-1" d="M38.85,3.13A5.13,5.13,0,0,0,37.67,4a5.08,5.08,0,0,0-.88,1.19A5.15,5.15,0,0,0,35.92,4a5.39,5.39,0,0,0-1.19-.87,5,5,0,0,0,1.19-.88,4.79,4.79,0,0,0,.87-1.18,4.93,4.93,0,0,0,.88,1.18A5.22,5.22,0,0,0,38.85,3.13Z"/><rect class="cls-2" x="3.89" y="25.29" width="38.19" height="23.1" rx="4.6"/><path class="cls-1" d="M36.71,8.57h-.87A2.64,2.64,0,0,0,34,10.27h-.07s-1.52-6.43-4.28-7A40.09,40.09,0,0,0,23,2.64a40.18,40.18,0,0,0-6.67.61c-2.76.59-4.28,7-4.28,7H12a2.66,2.66,0,0,0-1.87-1.7H9.22a.78.78,0,0,0-.77.74v1.35c0,.7.82.76.82.76h2.39c.18,0,.11.07.11.07a6.34,6.34,0,0,0-2.32,5.3c.08,5.92,1.37,6.5,1.69,6.54s.3.27.3.27v1.67a.92.92,0,0,0,.75.95h2.17a.94.94,0,0,0,.94-.95V23.94a64.69,64.69,0,0,0,7.67.24,64.53,64.53,0,0,0,7.66-.24v1.33a.94.94,0,0,0,.94.95h2.17a.92.92,0,0,0,.75-.95V23.6s0-.22.3-.27,1.61-.62,1.69-6.54a6.34,6.34,0,0,0-2.32-5.3s-.07-.07.11-.07h2.4s.81-.06.81-.76V9.31A.78.78,0,0,0,36.71,8.57Z"/><path class="cls-2" d="M30.31,5.82c-.82-1.12-3.42-1.08-7.19-1.26h-.31c-3.77.18-6.37.14-7.19,1.26a28,28,0,0,0-2,5.2C18,10.57,23,10.63,23,10.63s4.94-.06,9.38.39A28,28,0,0,0,30.31,5.82Z"/><circle class="cls-2" cx="14.19" cy="16.49" r="2.06"/><circle class="cls-2" cx="32.23" cy="16.49" r="2.06"/><rect class="cls-2" x="20.14" y="19.25" width="5.65" height="1.81" rx="0.38"/><rect class="cls-1" x="33.7" y="20.63" width="9.34" height="2.85" transform="translate(-4.36 33.59) rotate(-45)"/><path class="cls-1" d="M31.63,24.27a3.26,3.26,0,0,0-1.14,4.12l1.95-2a.29.29,0,0,1,.42,0L34,27.57A.31.31,0,0,1,34,28l-2,2a3.26,3.26,0,1,0-.41-5.67Z"/><path class="cls-1" d="M44,17.57l-1.14-1.14a.29.29,0,0,1,0-.42l2-2A3.25,3.25,0,0,0,40.7,15.2a3.27,3.27,0,1,0,5.67.41l-1.95,2A.29.29,0,0,1,44,17.57Z"/><path class="cls-1" d="M30.62,21.85A14.15,14.15,0,0,0,23,24.1a14.15,14.15,0,0,0-15.31,0V45.42a16.37,16.37,0,0,1,15.31,0,16.35,16.35,0,0,1,15.3,0V24.1A14.15,14.15,0,0,0,30.62,21.85Z"/><line class="cls-3" x1="22.97" y1="24.1" x2="22.97" y2="45.42"/><path class="cls-4" d="M8.91,42.62a12.12,12.12,0,0,1,12.29,0"/><path class="cls-4" d="M15.06,36.81a10.21,10.21,0,0,1,6.14,1.63"/><circle class="cls-2" cx="11.45" cy="36.57" r="2.22"/><path class="cls-4" d="M8.91,32.93a12.12,12.12,0,0,1,12.29,0"/><path class="cls-4" d="M15.06,27.13a10.12,10.12,0,0,1,6.14,1.63"/><circle class="cls-2" cx="11.45" cy="26.88" r="2.22"/><path class="cls-4" d="M24.42,42.62a12.1,12.1,0,0,1,12.28,0"/><path class="cls-4" d="M30.56,36.81a10.21,10.21,0,0,1,6.14,1.63"/><circle class="cls-2" cx="26.96" cy="36.57" r="2.22"/><path class="cls-4" d="M24.42,32.93a12.1,12.1,0,0,1,12.28,0"/><path class="cls-4" d="M30.56,27.13a10.12,10.12,0,0,1,6.14,1.63"/><circle class="cls-2" cx="26.96" cy="26.88" r="2.22"/></g></g></g></svg>