<svg xmlns="http://www.w3.org/2000/svg" viewBox="0 0 49.46 48.88"><defs><style>.cls-1,.cls-3,.cls-5{fill:#a8c0e4;}.cls-1,.cls-2,.cls-3,.cls-4,.cls-6{stroke:#5b84c3;stroke-miterlimit:10;}.cls-2,.cls-4{fill:#e8ecf7;}.cls-3,.cls-4{stroke-width:0.75px;}.cls-6{fill:none;stroke-linecap:round;}</style></defs><title>aboutT-icon-1</title><g id="Layer_2" data-name="Layer 2"><g id="Layer_1-2" data-name="Layer 1"><g id="aboutT-icon-1"><path class="cls-1" d="M41.17,18.17A5.21,5.21,0,0,0,39,20.35a5.25,5.25,0,0,0-.93-1.26,5.17,5.17,0,0,0-1.25-.92A5.31,5.31,0,0,0,39,16a5.45,5.45,0,0,0,.92,1.26A5.25,5.25,0,0,0,41.17,18.17Z"/><path class="cls-1" d="M13.19,18.17a5.07,5.07,0,0,0-1.25.92A5.32,5.32,0,0,0,11,20.35a5.17,5.17,0,0,0-.92-1.26,5.26,5.26,0,0,0-1.26-.92,5.25,5.25,0,0,0,1.26-.93A5.06,5.06,0,0,0,11,16a5.25,5.25,0,0,0,.93,1.26A5.44,5.44,0,0,0,13.19,18.17Z"/><path class="cls-2" d="M2.72,7V44.62A1.78,1.78,0,0,0,4.5,46.39h0a1.77,1.77,0,0,0,1.77-1.77v-34A1.78,1.78,0,0,1,8,8.86H41.42a1.78,1.78,0,0,1,1.77,1.78v34A1.77,1.77,0,0,0,45,46.39h0a1.77,1.77,0,0,0,1.77-1.77V7A1.77,1.77,0,0,0,45,5.22H4.5A1.78,1.78,0,0,0,2.72,7Z"/><rect class="cls-3" x="0.38" y="43.98" width="48.71" height="4.52" rx="0.57"/><rect class="cls-3" x="10.06" y="0.38" width="29.48" height="13.35" rx="2.31"/><rect class="cls-4" x="19.03" y="5.31" width="11.44" height="3.49"/><path class="cls-4" d="M17,3.13A4,4,0,0,0,12.44,5.7h3.39a.36.36,0,0,1,.36.36V8a.36.36,0,0,1-.36.36H12.44A4,4,0,1,0,17,3.13Z"/><path class="cls-4" d="M33.51,8v-2a.36.36,0,0,1,.36-.36h3.39a4,4,0,1,0,0,2.7H33.87A.36.36,0,0,1,33.51,8Z"/><path class="cls-1" d="M36.3,35.07v6.68a.66.66,0,0,1-.68.78H32.24a.7.7,0,0,1-.6-.68V35.5Z"/><path class="cls-1" d="M13,35.07v6.68a.66.66,0,0,0,.69.78h3.37a.7.7,0,0,0,.6-.68V35.5Z"/><path class="cls-5" d="M34.79,27.84h0l-1.26-8.31s-.09-.59-1-.59H16.64c-.87,0-1,.59-1,.59l-1.26,8.31h0s-2,.05-2,1.85v4.16S13,35.41,14,35.41H35.23c1,0,1.58-1.56,1.58-1.56V29.69C36.81,27.89,34.79,27.84,34.79,27.84Z"/><path class="cls-6" d="M17.22,31.17l-.57-1.68a2,2,0,0,0-.75-1l-.39-.26a1.93,1.93,0,0,0-1.09-.34h0a1.94,1.94,0,0,0-1.5.71h0a2,2,0,0,0-.45,1.24v3.81a1.93,1.93,0,0,0,.4,1.17h0a1.93,1.93,0,0,0,1.55.78H24.61"/><path class="cls-6" d="M14.47,27.67l1.19-8a.83.83,0,0,1,.82-.7H24.6"/><line class="cls-6" x1="18.1" y1="17.4" x2="18.1" y2="18.94"/><path class="cls-6" d="M13.19,22.65v2.28a.59.59,0,0,0,.59.59h1"/><line class="cls-6" x1="15.77" y1="25.52" x2="24.6" y2="25.52"/><line class="cls-6" x1="22.96" y1="27.08" x2="22.96" y2="31.08"/><line class="cls-6" x1="24.6" y1="27.08" x2="24.6" y2="31.08"/><line class="cls-6" x1="18.53" y1="37.87" x2="24.64" y2="37.87"/><path class="cls-6" d="M32,31.17l.56-1.68a2,2,0,0,1,.75-1l.39-.26a1.93,1.93,0,0,1,1.09-.34h0a1.94,1.94,0,0,1,1.5.71h0a2,2,0,0,1,.45,1.24v3.81a2,2,0,0,1-.39,1.17h0a1.93,1.93,0,0,1-1.55.78H24.63"/><path class="cls-6" d="M34.79,27.77l-1.21-8.13a.83.83,0,0,0-.82-.7H24.64"/><line class="cls-6" x1="31.14" y1="17.4" x2="31.14" y2="18.94"/><path class="cls-6" d="M36.05,22.65v2.28a.58.58,0,0,1-.58.59h-1"/><line class="cls-6" x1="33.47" y1="25.52" x2="24.52" y2="25.52"/><line class="cls-6" x1="26.28" y1="27.08" x2="26.28" y2="31.08"/><line class="cls-6" x1="30.71" y1="37.87" x2="24.6" y2="37.87"/><circle class="cls-2" cx="19.93" cy="29.15" r="1.44"/><circle class="cls-2" cx="29.31" cy="29.15" r="1.44"/><path class="cls-1" d="M41.72,27.17a5,5,0,0,0-1.25.93,5.17,5.17,0,0,0-.93,1.25,5.44,5.44,0,0,0-.93-1.25,5.17,5.17,0,0,0-1.25-.93,5.44,5.44,0,0,0,1.25-.93A5,5,0,0,0,39.54,25a5.43,5.43,0,0,0,.92,1.25A5.25,5.25,0,0,0,41.72,27.17Z"/></g></g></g></svg>