<svg xmlns="http://www.w3.org/2000/svg" viewBox="0 0 47.99 48.96"><defs><style>.cls-1,.cls-4,.cls-7{fill:#a8c0e4;}.cls-1,.cls-2,.cls-3,.cls-4,.cls-5,.cls-6,.cls-8{stroke:#5b84c3;stroke-miterlimit:10;}.cls-2,.cls-5{fill:#e8ecf7;}.cls-3,.cls-8{fill:none;}.cls-3,.cls-6{stroke-linecap:round;}.cls-4,.cls-5{stroke-width:0.75px;}.cls-6,.cls-9{fill:#fff;}.cls-6{stroke-width:0.5px;}.cls-10{fill:#5b84c3;}</style></defs><title>aboutF-icon-4</title><g id="Layer_2" data-name="Layer 2"><g id="Layer_1-2" data-name="Layer 1"><g id="aboutF-icon-4"><path class="cls-1" d="M5.4,15.92a5.15,5.15,0,0,0-1.25.92,5.59,5.59,0,0,0-.92,1.24,4.87,4.87,0,0,0-.92-1.24,4.9,4.9,0,0,0-1.24-.92A5.41,5.41,0,0,0,2.31,15a5.17,5.17,0,0,0,.92-1.25A5.16,5.16,0,0,0,5.4,15.92Z"/><path class="cls-1" d="M14.82,11.36a5.13,5.13,0,0,0-1.24.92,5.29,5.29,0,0,0-.92,1.24,5.41,5.41,0,0,0-.92-1.24,5.17,5.17,0,0,0-1.25-.92,5.16,5.16,0,0,0,2.17-2.17,4.86,4.86,0,0,0,.91,1.24A5.44,5.44,0,0,0,14.82,11.36Z"/><path class="cls-1" d="M8.59,3.23a5.41,5.41,0,0,0-1.24.92A5.17,5.17,0,0,0,6.43,5.4a5.43,5.43,0,0,0-.92-1.25,5.45,5.45,0,0,0-1.25-.92,4.89,4.89,0,0,0,1.25-.92,4.9,4.9,0,0,0,.92-1.24,5.13,5.13,0,0,0,.92,1.24A4.87,4.87,0,0,0,8.59,3.23Z"/><path class="cls-1" d="M40.16,1.84H18.37A1.34,1.34,0,0,0,17,3.17v44a1.33,1.33,0,0,0,1.33,1.32H46.16a1.32,1.32,0,0,0,1.33-1.32v-38Z"/><path class="cls-2" d="M40.16,2.08v7a.1.1,0,0,0,.1.09h7A.09.09,0,0,0,47.32,9l-7-7A.1.1,0,0,0,40.16,2.08Z"/><line class="cls-3" x1="19.9" y1="19.52" x2="32.21" y2="19.52"/><line class="cls-3" x1="19.9" y1="23.25" x2="42.2" y2="23.25"/><line class="cls-3" x1="19.9" y1="27.02" x2="38.2" y2="27.02"/><line class="cls-3" x1="19.9" y1="30.7" x2="41" y2="30.7"/><line class="cls-3" x1="19.9" y1="34.61" x2="38.94" y2="34.61"/><line class="cls-3" x1="19.9" y1="38.6" x2="44.99" y2="38.6"/><polygon class="cls-4" points="29.99 7.2 25.57 9.81 25.57 15.92 29.99 15.92 34.4 15.92 34.4 9.81 29.99 7.2"/><path class="cls-5" d="M29.5,5.54,24.58,8.72a.9.9,0,0,0-.34,1.13h0a.91.91,0,0,0,1.33.38l3.91-2.64a.89.89,0,0,1,1,0l3.91,2.64a.91.91,0,0,0,1.33-.38h0a.9.9,0,0,0-.33-1.13L30.48,5.54A.91.91,0,0,0,29.5,5.54Z"/><polygon class="cls-5" points="34.4 15.92 34.4 12.28 35.77 13.64 35.77 15.92 34.4 15.92"/><polygon class="cls-5" points="25.57 15.92 25.57 12.28 24.21 13.64 24.21 15.92 25.57 15.92"/><polygon class="cls-5" points="29.99 11.89 27.33 11.89 27.33 15.92 29.99 15.92 32.65 15.92 32.65 11.89 29.99 11.89"/><polygon class="cls-4" points="25.7 7.99 25.7 5.97 26.78 5.97 26.78 7.3 25.7 7.99"/><path class="cls-5" d="M28.19,3.9a1,1,0,0,1-1.48.83.48.48,0,0,1-.95-.09.46.46,0,0,1,0-.21h0A.76.76,0,0,1,26,2.92a.78.78,0,0,1,.58.27,1,1,0,0,1,.67-.27A1,1,0,0,1,28.19,3.9Z"/><line class="cls-6" x1="23.49" y1="15.92" x2="36.5" y2="15.92"/><path class="cls-7" d="M27,40.5v7.12a.7.7,0,0,1-.73.83H22.7a.75.75,0,0,1-.64-.73V41Z"/><path class="cls-7" d="M2.18,40.5v7.12a.7.7,0,0,0,.73.83h3.6a.75.75,0,0,0,.64-.73V41Z"/><path class="cls-7" d="M25.42,32.79h0l-1.34-8.87s-.1-.63-1-.63h-17c-.93,0-1,.63-1,.63L3.68,32.79h0s-2.15.05-2.15,2v4.43s.64,1.66,1.68,1.66H25.89c1,0,1.68-1.66,1.68-1.66V34.76C27.57,32.84,25.42,32.79,25.42,32.79Z"/><path class="cls-3" d="M6.67,36.34l-.6-1.8a2.1,2.1,0,0,0-.8-1l-.41-.28a2.15,2.15,0,0,0-1.17-.36h0a2.06,2.06,0,0,0-1.6.76h0a2.06,2.06,0,0,0-.48,1.32V39A2.09,2.09,0,0,0,2,40.24H2a2.08,2.08,0,0,0,1.66.83H14.56"/><path class="cls-3" d="M3.74,32.6,5,24a.87.87,0,0,1,.87-.75h8.66"/><line class="cls-3" x1="7.62" y1="21.64" x2="7.62" y2="23.29"/><path class="cls-3" d="M2.38,27.25v2.43A.62.62,0,0,0,3,30.3H4.08"/><line class="cls-3" x1="5.13" y1="30.3" x2="14.55" y2="30.3"/><line class="cls-3" x1="12.8" y1="31.98" x2="12.8" y2="36.24"/><line class="cls-3" x1="14.55" y1="31.98" x2="14.55" y2="36.24"/><path class="cls-8" d="M2.17,40.48v7.26a.73.73,0,0,0,.73.72H6.44a.72.72,0,0,0,.72-.72V41.07"/><line class="cls-3" x1="8.08" y1="43.49" x2="14.59" y2="43.49"/><path class="cls-3" d="M22.47,36.34l.6-1.8a2.06,2.06,0,0,1,.81-1l.4-.28a2.15,2.15,0,0,1,1.17-.36h0a2.06,2.06,0,0,1,1.6.76h0a2.06,2.06,0,0,1,.48,1.32V39a2.09,2.09,0,0,1-.42,1.25h0a2.08,2.08,0,0,1-1.66.83H14.58"/><path class="cls-3" d="M25.42,32.71,24.12,24a.87.87,0,0,0-.87-.75H14.59"/><line class="cls-3" x1="21.52" y1="21.64" x2="21.52" y2="23.29"/><path class="cls-3" d="M26.76,27.25v2.43a.62.62,0,0,1-.62.62H25.06"/><line class="cls-3" x1="24.01" y1="30.3" x2="14.46" y2="30.3"/><line class="cls-3" x1="16.34" y1="31.98" x2="16.34" y2="36.24"/><path class="cls-8" d="M27,40.48v7.26a.72.72,0,0,1-.72.72H22.71a.73.73,0,0,1-.73-.72V41.07"/><line class="cls-3" x1="21.06" y1="43.49" x2="14.55" y2="43.49"/><circle class="cls-9" cx="9.57" cy="34.18" r="1.54"/><circle class="cls-9" cx="19.57" cy="34.18" r="1.54"/><circle class="cls-2" cx="9.57" cy="34.18" r="1.58"/><circle class="cls-2" cx="19.57" cy="34.18" r="1.58"/><circle class="cls-2" cx="38.2" cy="39.65" r="7.05"/><path class="cls-10" d="M40,41.82a1.42,1.42,0,0,0-.41-1A4.08,4.08,0,0,0,38.15,40a4.28,4.28,0,0,1-1.83-1,2.28,2.28,0,0,1,0-3,2.32,2.32,0,0,1,1.57-.67V34.2h.59v1.17a2.17,2.17,0,0,1,1.57.76A2.7,2.7,0,0,1,40.66,38H40a2.09,2.09,0,0,0-.47-1.45A1.63,1.63,0,0,0,38.22,36a1.77,1.77,0,0,0-1.28.43,1.49,1.49,0,0,0-.46,1.15,1.4,1.4,0,0,0,.42,1.08,4.11,4.11,0,0,0,1.44.74,6.56,6.56,0,0,1,1.47.66,2.19,2.19,0,0,1,.69.74,2.25,2.25,0,0,1,.23,1,2,2,0,0,1-.6,1.52,2.51,2.51,0,0,1-1.62.67v1.09h-.59V44a2.61,2.61,0,0,1-1.79-.73,2.44,2.44,0,0,1-.64-1.79h.69a1.88,1.88,0,0,0,.53,1.41,2,2,0,0,0,1.47.51A2,2,0,0,0,39.51,43,1.4,1.4,0,0,0,40,41.82Z"/></g></g></g></svg>