<svg xmlns="http://www.w3.org/2000/svg" viewBox="0 0 651.45 171.07"><defs><style>.cls-1,.cls-10,.cls-3,.cls-5,.cls-9{fill:#a8c0e4;}.cls-1,.cls-10,.cls-11,.cls-12,.cls-14,.cls-15,.cls-16,.cls-2,.cls-3,.cls-4,.cls-6,.cls-7,.cls-8,.cls-9{stroke:#5b84c3;}.cls-1,.cls-10,.cls-11,.cls-12,.cls-13,.cls-14,.cls-15,.cls-16,.cls-2,.cls-3,.cls-4,.cls-6,.cls-7,.cls-8,.cls-9{stroke-miterlimit:10;}.cls-11,.cls-2,.cls-4{fill:#e8ecf7;}.cls-3,.cls-4{stroke-width:0.75px;}.cls-13,.cls-14,.cls-16,.cls-6{fill:none;}.cls-13,.cls-14,.cls-15,.cls-6,.cls-9{stroke-linecap:round;}.cls-12,.cls-7{fill:#dbe8b5;}.cls-8{fill:#fbe7cb;}.cls-10,.cls-11,.cls-12,.cls-13,.cls-14,.cls-15,.cls-16{stroke-width:1.5px;}.cls-13{stroke:#265387;}.cls-15{fill:#b4e2ea;}.cls-17{fill:#fff;}</style></defs><title>about-1</title><g id="Layer_2" data-name="Layer 2"><g id="Layer_1-2" data-name="Layer 1"><g id="about-1"><g id="aboutT-icon-1"><path class="cls-1" d="M41.46,18.63a5.45,5.45,0,0,0-1.26.92,5.54,5.54,0,0,0-.93,1.26,4.91,4.91,0,0,0-.92-1.26,5.33,5.33,0,0,0-1.26-.92,5.25,5.25,0,0,0,1.26-.93,5.17,5.17,0,0,0,.92-1.25,5.44,5.44,0,0,0,.93,1.25A5.25,5.25,0,0,0,41.46,18.63Z"/><path class="cls-1" d="M13.48,18.63a5.45,5.45,0,0,0-1.26.92,5.55,5.55,0,0,0-.92,1.26,5.25,5.25,0,0,0-.93-1.26,5.45,5.45,0,0,0-1.25-.92,5.36,5.36,0,0,0,2.18-2.18,5.65,5.65,0,0,0,.92,1.25A5.25,5.25,0,0,0,13.48,18.63Z"/><path class="cls-2" d="M3,7.45V45.08a1.77,1.77,0,0,0,1.77,1.77h0a1.77,1.77,0,0,0,1.77-1.77v-34A1.77,1.77,0,0,1,8.32,9.33H41.7a1.77,1.77,0,0,1,1.77,1.77v34a1.78,1.78,0,0,0,1.78,1.77h0A1.77,1.77,0,0,0,47,45.08V7.45a1.78,1.78,0,0,0-1.77-1.77H4.78A1.77,1.77,0,0,0,3,7.45Z"/><rect class="cls-3" x="0.66" y="44.45" width="48.71" height="4.52" rx="0.57"/><rect class="cls-3" x="10.34" y="0.84" width="29.48" height="13.35" rx="2.31"/><rect class="cls-4" x="19.32" y="5.77" width="11.44" height="3.49"/><path class="cls-4" d="M17.28,3.59a4,4,0,0,0-4.55,2.57h3.39a.37.37,0,0,1,.36.36v2a.36.36,0,0,1-.36.36H12.73a4,4,0,0,0,7.68-2.1A4,4,0,0,0,17.28,3.59Z"/><path class="cls-4" d="M33.79,8.5v-2a.36.36,0,0,1,.36-.36h3.39a4,4,0,1,0,0,2.7H34.15A.36.36,0,0,1,33.79,8.5Z"/><path class="cls-1" d="M36.59,35.54v6.68a.66.66,0,0,1-.69.77H32.53a.7.7,0,0,1-.6-.68V36Z"/><path class="cls-1" d="M13.29,35.54v6.68A.65.65,0,0,0,14,43h3.38a.7.7,0,0,0,.6-.68V36Z"/><path class="cls-5" d="M35.08,28.31h0L33.82,20s-.1-.59-1-.59H16.92c-.87,0-1,.59-1,.59l-1.27,8.32h0s-2,0-2,1.84v4.16s.6,1.56,1.58,1.56H35.52c1,0,1.57-1.56,1.57-1.56V30.15C37.09,28.35,35.08,28.31,35.08,28.31Z"/><path class="cls-6" d="M17.5,31.64,16.93,30a1.94,1.94,0,0,0-.75-1l-.38-.26a2,2,0,0,0-1.1-.33h0a2,2,0,0,0-1.5.7h0a1.94,1.94,0,0,0-.44,1.24v3.81a2,2,0,0,0,.39,1.17h0a2,2,0,0,0,1.56.77H24.9"/><path class="cls-6" d="M14.75,28.13l1.2-8a.83.83,0,0,1,.82-.71h8.12"/><line class="cls-6" x1="18.39" y1="17.86" x2="18.39" y2="19.4"/><path class="cls-6" d="M13.48,23.11V25.4a.58.58,0,0,0,.58.58h1"/><line class="cls-6" x1="16.05" y1="25.98" x2="24.89" y2="25.98"/><line class="cls-6" x1="23.24" y1="27.54" x2="23.24" y2="31.54"/><line class="cls-6" x1="24.89" y1="27.54" x2="24.89" y2="31.54"/><line class="cls-6" x1="18.82" y1="38.34" x2="24.92" y2="38.34"/><path class="cls-6" d="M32.31,31.64,32.88,30a1.94,1.94,0,0,1,.75-1L34,28.7a2,2,0,0,1,1.1-.33h0a2,2,0,0,1,1.5.7h0a1.94,1.94,0,0,1,.44,1.24v3.81a1.89,1.89,0,0,1-.39,1.17h0a2,2,0,0,1-1.55.77H24.91"/><path class="cls-6" d="M35.07,28.23l-1.21-8.12A.83.83,0,0,0,33,19.4H24.92"/><line class="cls-6" x1="31.42" y1="17.86" x2="31.42" y2="19.4"/><path class="cls-6" d="M36.33,23.11V25.4a.58.58,0,0,1-.58.58h-1"/><line class="cls-6" x1="33.76" y1="25.98" x2="24.8" y2="25.98"/><line class="cls-6" x1="26.57" y1="27.54" x2="26.57" y2="31.54"/><line class="cls-6" x1="30.99" y1="38.34" x2="24.89" y2="38.34"/><circle class="cls-2" cx="20.21" cy="29.61" r="1.44"/><circle class="cls-2" cx="29.6" cy="29.61" r="1.44"/><path class="cls-1" d="M42,27.63a5.36,5.36,0,0,0-2.18,2.18,5.65,5.65,0,0,0-.92-1.25,5.54,5.54,0,0,0-1.26-.93,5.45,5.45,0,0,0,1.26-.92,5.26,5.26,0,0,0,.92-1.26,5,5,0,0,0,.93,1.25A5.44,5.44,0,0,0,42,27.63Z"/></g><g id="aboutT-icon-2"><path class="cls-1" d="M146.62,4a5.44,5.44,0,0,0-1.25.93,5.17,5.17,0,0,0-.93,1.25,5.44,5.44,0,0,0-.93-1.25A5.06,5.06,0,0,0,142.25,4a5.25,5.25,0,0,0,1.26-.93,5.32,5.32,0,0,0,.93-1.26,5.45,5.45,0,0,0,.92,1.26A5.46,5.46,0,0,0,146.62,4Z"/><path class="cls-1" d="M159.74,5.28a5.25,5.25,0,0,0-1.26.93,5.44,5.44,0,0,0-.93,1.25,5.44,5.44,0,0,0-.93-1.25,5.17,5.17,0,0,0-1.25-.93,5.23,5.23,0,0,0,1.25-.93,5.06,5.06,0,0,0,.93-1.26,5.26,5.26,0,0,0,2.19,2.19Z"/><path class="cls-1" d="M136.54,12.84a5.23,5.23,0,0,0-1.25.93,5.06,5.06,0,0,0-.93,1.26,5.26,5.26,0,0,0-2.19-2.19,5.25,5.25,0,0,0,1.26-.93,5.32,5.32,0,0,0,.93-1.26,4.91,4.91,0,0,0,.92,1.26A5.25,5.25,0,0,0,136.54,12.84Z"/><rect class="cls-1" x="131" y="30.94" width="7.97" height="18.21" rx="1.1" transform="translate(269.97 80.09) rotate(-180)"/><path class="cls-2" d="M150,38.26l11,2.82a2.85,2.85,0,0,0,3.46-2h0a2.84,2.84,0,0,0-2-3.45L151.22,32.4a7.1,7.1,0,0,0-2-.28h-3.16a7.3,7.3,0,0,0-3.83,1.09l-3.26,2V47.08l4.65,1.79a4.14,4.14,0,0,0,1.48.28h13.5a4.13,4.13,0,0,0,2.1-.58l18-10.73a3,3,0,0,0,1.07-4.16h0a3.06,3.06,0,0,0-4.12-1.13l-11.09,6.16"/><path class="cls-1" d="M171,19.06s-3.31-3.29-6-6.38-4-2.9-4-2.9H144.11a5.34,5.34,0,0,0-3.78,1.56,5.44,5.44,0,0,0-1.29,2.1l-1.69,5.11a3.39,3.39,0,0,0-.17,1.05v5.12H176C176,18.81,171,19.06,171,19.06Z"/><path class="cls-2" d="M159.51,12.3h5.1L171,19.06H159.51a.65.65,0,0,1-.65-.65V13A.65.65,0,0,1,159.51,12.3Z"/><rect class="cls-7" x="172.16" y="19.87" width="3.59" height="2.01" rx="0.88"/><path class="cls-2" d="M175.79,24.72h-39.1a1.18,1.18,0,0,0,0,2.36h39.1a1.18,1.18,0,1,0,0-2.36Z"/><circle class="cls-3" cx="170.99" cy="27.08" r="3.89"/><circle class="cls-8" cx="170.99" cy="27.08" r="1.54"/><circle class="cls-1" cx="142.25" cy="27.08" r="3.89"/><circle class="cls-8" cx="142.25" cy="27.08" r="1.54"/><path class="cls-2" d="M155.19,12.77v5.82a.48.48,0,0,1-.48.47H141.79a1.07,1.07,0,0,1-.76-.31h0a1.08,1.08,0,0,1-.27-1.09l1.48-4.75a.86.86,0,0,1,.82-.61h11.65A.48.48,0,0,1,155.19,12.77Z"/><path class="cls-7" d="M136.37,20.74h1.07a.55.55,0,0,1,.55.55v.53a.55.55,0,0,1-.55.55h-1.07a0,0,0,0,1,0,0V20.74A0,0,0,0,1,136.37,20.74Z"/><rect class="cls-2" x="139.21" y="20.74" width="1.62" height="1.62" rx="0.37"/><path class="cls-2" d="M173.74,1h0a1.27,1.27,0,0,1,2.27.83h0a1.27,1.27,0,0,0,1.54,1.29h0a1.27,1.27,0,0,1,1.21,2.1h0a1.27,1.27,0,0,0,.35,2h0a1.28,1.28,0,0,1-.42,2.39h0a1.27,1.27,0,0,0-1,1.74h0a1.27,1.27,0,0,1-1.86,1.55h0a1.27,1.27,0,0,0-1.88.69h0a1.27,1.27,0,0,1-2.42,0h0a1.28,1.28,0,0,0-1.89-.69h0a1.27,1.27,0,0,1-1.85-1.55h0a1.28,1.28,0,0,0-1-1.74h0a1.28,1.28,0,0,1-.42-2.39h0a1.26,1.26,0,0,0,.35-2h0a1.27,1.27,0,0,1,1.21-2.1h0a1.27,1.27,0,0,0,1.54-1.29h0A1.27,1.27,0,0,1,171.73,1h0A1.27,1.27,0,0,0,173.74,1Z"/><polyline class="cls-6" points="169.77 7.11 172.02 9.36 176.43 4.95"/></g><g id="aboutT-icon-3"><path class="cls-1" d="M267.22,32.14a5.47,5.47,0,0,0-1.33,1,5.62,5.62,0,0,0-1,1.32,5.45,5.45,0,0,0-1-1.32,5.35,5.35,0,0,0-1.32-1,5.74,5.74,0,0,0,1.32-1,5.25,5.25,0,0,0,1-1.33,5.76,5.76,0,0,0,1,1.33A5.55,5.55,0,0,0,267.22,32.14Z"/><path class="cls-1" d="M268.76,4.55a5.74,5.74,0,0,0-1.32,1,5.44,5.44,0,0,0-1,1.33,5.51,5.51,0,0,0-2.31-2.31,5.22,5.22,0,0,0,1.33-1,5.62,5.62,0,0,0,1-1.32,5.65,5.65,0,0,0,1,1.32A5.4,5.4,0,0,0,268.76,4.55Z"/><path class="cls-1" d="M309.89,5.31a5.47,5.47,0,0,0-1.33,1,5.62,5.62,0,0,0-1,1.32,5.45,5.45,0,0,0-1-1.32,5.35,5.35,0,0,0-1.32-1,5.74,5.74,0,0,0,1.32-1,5.25,5.25,0,0,0,1-1.33,5.76,5.76,0,0,0,1,1.33A5.55,5.55,0,0,0,309.89,5.31Z"/><circle class="cls-1" cx="285.79" cy="20.11" r="19.34"/><line class="cls-9" x1="285.79" y1="2.41" x2="285.79" y2="4.39"/><line class="cls-9" x1="294.26" y1="4.78" x2="293.26" y2="6.5"/><line class="cls-9" x1="300.74" y1="11.26" x2="299.02" y2="12.25"/><line class="cls-1" x1="292.7" y1="20.11" x2="290.72" y2="20.11"/><line class="cls-9" x1="300.74" y1="28.97" x2="299.02" y2="27.97"/><line class="cls-9" x1="294.26" y1="35.45" x2="293.26" y2="33.73"/><line class="cls-9" x1="285.79" y1="37.82" x2="285.79" y2="35.83"/><line class="cls-9" x1="276.94" y1="35.45" x2="277.93" y2="33.73"/><line class="cls-9" x1="270.46" y1="28.97" x2="272.18" y2="27.97"/><line class="cls-9" x1="268.09" y1="20.11" x2="270.08" y2="20.11"/><line class="cls-9" x1="300.74" y1="20.11" x2="302.72" y2="20.11"/><line class="cls-9" x1="270.46" y1="11.26" x2="272.18" y2="12.25"/><line class="cls-9" x1="276.94" y1="4.78" x2="277.93" y2="6.5"/><polyline class="cls-9" points="285.79 7.62 285.79 20.11 295.85 20.11"/><path class="cls-1" d="M303.13,27.08H302a3.3,3.3,0,0,0-2.35,2.14h-.07s-1.93-8.11-5.41-8.85a45.57,45.57,0,0,0-16.79,0c-3.48.74-5.41,8.85-5.41,8.85h-.08a3.28,3.28,0,0,0-2.35-2.14h-1.1a1,1,0,0,0-1,.92v1.71c0,.88,1,1,1,1h3c.23,0,.14.09.14.09a8,8,0,0,0-2.92,6.68c.1,7.46,1.73,8.19,2.12,8.24s.38.34.38.34v2.11a1.16,1.16,0,0,0,.95,1.19h2.73a1.19,1.19,0,0,0,1.2-1.19V46.45a81.88,81.88,0,0,0,9.65.3,82.08,82.08,0,0,0,9.66-.3v1.68a1.19,1.19,0,0,0,1.2,1.19h2.73a1.16,1.16,0,0,0,.95-1.19V46s0-.28.38-.34,2-.78,2.12-8.24a8,8,0,0,0-2.92-6.68s-.09-.09.14-.09h3s1-.08,1-1V28A1,1,0,0,0,303.13,27.08Z"/><path class="cls-2" d="M295.05,23.27c-1-1.41-4.3-1.36-9.06-1.58a2.54,2.54,0,0,0-.39,0c-4.76.22-8,.17-9.07,1.58S274,29.83,274,29.83c5.6-.57,11.83-.49,11.83-.49s6.24-.08,11.83.49C297.62,29.83,296.1,24.7,295.05,23.27Z"/><circle class="cls-2" cx="274.73" cy="37.06" r="2.6"/><circle class="cls-2" cx="297.47" cy="37.06" r="2.6"/><rect class="cls-2" x="282.23" y="40.53" width="7.13" height="2.28" rx="0.38"/></g><g id="aboutT-icon-4"><path class="cls-10" d="M71.9,84.46a9.66,9.66,0,0,0-2.3,1.7,10,10,0,0,0-1.7,2.3,9.58,9.58,0,0,0-1.7-2.3,9.75,9.75,0,0,0-2.3-1.7,9.57,9.57,0,0,0,2.3-1.69,9.42,9.42,0,0,0,1.7-2.3,10,10,0,0,0,1.69,2.29A9.6,9.6,0,0,0,71.9,84.46Z"/><path class="cls-10" d="M97.88,116.32a9.66,9.66,0,0,0-2.3,1.7,9.42,9.42,0,0,0-1.7,2.3,9.86,9.86,0,0,0-1.7-2.3,9.75,9.75,0,0,0-2.3-1.7,9.31,9.31,0,0,0,2.3-1.69,10,10,0,0,0,1.7-2.3,9.75,9.75,0,0,0,1.69,2.29A9.41,9.41,0,0,0,97.88,116.32Z"/><path class="cls-10" d="M92.22,141.21a9.64,9.64,0,0,0-4,4,9.39,9.39,0,0,0-1.7-2.3,9.87,9.87,0,0,0-2.29-1.7,9.56,9.56,0,0,0,2.29-1.7,9.34,9.34,0,0,0,1.7-2.29,10,10,0,0,0,1.69,2.29A9.6,9.6,0,0,0,92.22,141.21Z"/><path class="cls-10" d="M55.55,148.65V96.3H49.12s-3.71-.6-12,8.76-18.28,19.32-18.28,19.32-15.15-.75-15.15,17.14H55.55"/><path class="cls-11" d="M.75,141.52H54A1.52,1.52,0,0,1,55.55,143v4.09A1.52,1.52,0,0,1,54,148.65H.75a0,0,0,0,1,0,0v-7.13a0,0,0,0,1,0,0Z" transform="translate(56.3 290.17) rotate(-180)"/><polygon class="cls-11" points="55.55 103.93 38.15 103.93 18.84 124.38 55.55 124.38 55.55 103.93"/><rect class="cls-12" x="4.43" y="126.82" width="10.87" height="6.07" rx="3.03" transform="translate(19.73 259.71) rotate(180)"/><circle class="cls-10" cx="18.84" cy="148.65" r="11.78"/><circle class="cls-12" cx="18.84" cy="148.65" r="4.67"/><line class="cls-13" x1="59.43" y1="98.38" x2="59.43" y2="101.1"/><line class="cls-13" x1="59.43" y1="146.81" x2="59.43" y2="144.09"/><path class="cls-11" d="M57.78,96.15V149a26.45,26.45,0,1,0,0-52.89Z"/><line class="cls-14" x1="69.35" y1="101.63" x2="68" y2="103.98"/><line class="cls-14" x1="78.22" y1="110.49" x2="75.86" y2="111.85"/><line class="cls-13" x1="67.23" y1="122.6" x2="64.51" y2="122.6"/><line class="cls-14" x1="78.22" y1="134.7" x2="75.86" y2="133.34"/><line class="cls-14" x1="69.35" y1="143.56" x2="68" y2="141.21"/><line class="cls-14" x1="78.22" y1="122.6" x2="80.93" y2="122.6"/><polyline class="cls-14" points="57.78 105.5 57.78 122.6 71.53 122.6"/><path class="cls-10" d="M78.51,90.85h10a3.74,3.74,0,0,1,3.74,3.74v7.28a0,0,0,0,1,0,0H74.77a0,0,0,0,1,0,0V94.59A3.74,3.74,0,0,1,78.51,90.85Z" transform="translate(92.6 -30.84) rotate(45)"/><rect class="cls-10" x="76.74" y="99.56" width="2.44" height="4.72" transform="translate(94.91 -25.28) rotate(45)"/><polyline class="cls-14" points="68.42 146.81 74.47 152.85 69.35 152.85"/><line class="cls-14" x1="74.47" y1="152.85" x2="78.22" y2="152.85"/></g><g id="aboutT-icon-5"><path class="cls-10" d="M141,107.92a10.47,10.47,0,0,0-2.44,1.81,10.13,10.13,0,0,0-1.81,2.45,10.49,10.49,0,0,0-1.81-2.45,10.68,10.68,0,0,0-2.45-1.81,9.94,9.94,0,0,0,2.45-1.81,10.59,10.59,0,0,0,1.81-2.44,10.1,10.1,0,0,0,1.8,2.44A10.7,10.7,0,0,0,141,107.92Z"/><path class="cls-10" d="M214,145.38a9.93,9.93,0,0,0-2.45,1.8,10.33,10.33,0,0,0-1.81,2.45,10.7,10.7,0,0,0-1.81-2.45,10.4,10.4,0,0,0-2.45-1.8,10.29,10.29,0,0,0,2.45-1.81,10.4,10.4,0,0,0,1.81-2.45,10.25,10.25,0,0,0,4.26,4.26Z"/><path class="cls-10" d="M188.32,86.07a10.25,10.25,0,0,0-4.26,4.26,10.25,10.25,0,0,0-4.26-4.26,10.29,10.29,0,0,0,2.45-1.81,9.93,9.93,0,0,0,1.81-2.45,10.18,10.18,0,0,0,1.8,2.44A10.31,10.31,0,0,0,188.32,86.07Z"/><path class="cls-10" d="M200.54,111.2s-5.07-5-9.27-9.79S185.2,97,185.2,97H159.33a8.16,8.16,0,0,0-7.76,5.61L149,110.41a5,5,0,0,0-.27,1.62v7.85h59.5C208.21,110.82,200.54,111.2,200.54,111.2Z"/><path class="cls-11" d="M182.94,100.84h7.81l9.79,10.36h-17.6a1,1,0,0,1-1-1v-8.36A1,1,0,0,1,182.94,100.84Z"/><rect class="cls-12" x="202.33" y="112.44" width="5.51" height="3.07" rx="1.54"/><path class="cls-11" d="M207.89,119.88H148a1.81,1.81,0,1,0,0,3.62h59.93a1.81,1.81,0,0,0,0-3.62Z"/><circle class="cls-10" cx="200.54" cy="123.5" r="5.96"/><circle class="cls-12" cx="200.54" cy="123.5" r="2.37"/><circle class="cls-10" cx="156.49" cy="123.5" r="5.96"/><circle class="cls-12" cx="156.49" cy="123.5" r="2.37"/><path class="cls-11" d="M176.31,101.56v8.92a.72.72,0,0,1-.72.72H155.78a1.65,1.65,0,0,1-1.17-.48h0a1.65,1.65,0,0,1-.41-1.66l2.27-7.29a1.32,1.32,0,0,1,1.25-.93h17.87A.72.72,0,0,1,176.31,101.56Z"/><path class="cls-12" d="M147.47,113.77h2a.5.5,0,0,1,.5.5v1.49a.5.5,0,0,1-.5.5h-2a0,0,0,0,1,0,0v-2.49a0,0,0,0,1,0,0Z"/><rect class="cls-11" x="151.83" y="113.77" width="2.49" height="2.49" rx="0.37"/><rect class="cls-10" x="208.11" y="91.83" width="15.32" height="4.67" transform="translate(129.79 -124.99) rotate(45)"/><path class="cls-10" d="M212.14,83.11a5.33,5.33,0,0,0-6.74-1.87l3.2,3.21a.48.48,0,0,1,0,.68L206.73,87a.48.48,0,0,1-.68,0l-3.21-3.21a5.35,5.35,0,1,0,9.3-.68Z"/><path class="cls-10" d="M223.13,103.39l1.87-1.87a.48.48,0,0,1,.68,0l3.21,3.21a5.35,5.35,0,1,0-2.55,2.55l-3.21-3.21A.48.48,0,0,1,223.13,103.39Z"/><rect class="cls-11" x="138.38" y="130.11" width="79.09" height="6.63" rx="1.33"/><rect class="cls-10" x="165.22" y="136.74" width="25.41" height="25.41" rx="2.54"/><line class="cls-14" x1="223.92" y1="162.15" x2="131.92" y2="162.15"/><line class="cls-14" x1="200.54" y1="111.2" x2="206.5" y2="98.45"/><rect class="cls-2" x="195.24" y="158.48" width="9.38" height="3.68" rx="0.2"/><polyline class="cls-2" points="196.08 158.47 197.92 160.32 196.09 162.16"/><polyline class="cls-2" points="198.94 158.47 200.79 160.32 198.95 162.16"/><polyline class="cls-2" points="201.59 158.47 203.44 160.32 201.6 162.16"/><rect class="cls-2" x="195.24" y="151.1" width="9.38" height="3.68" rx="0.19"/><polyline class="cls-2" points="196.08 151.1 197.92 152.95 196.09 154.79"/><polyline class="cls-2" points="198.94 151.1 200.79 152.95 198.95 154.79"/><polyline class="cls-2" points="201.59 151.1 203.44 152.95 201.6 154.79"/><rect class="cls-2" x="195.24" y="154.79" width="9.38" height="3.68" rx="0.21" transform="translate(399.86 313.26) rotate(180)"/><polyline class="cls-2" points="203.78 154.79 201.93 156.64 203.77 158.47"/><polyline class="cls-2" points="200.92 154.79 199.07 156.64 200.91 158.47"/><polyline class="cls-2" points="198.26 154.79 196.42 156.64 198.25 158.47"/><rect class="cls-2" x="152.71" y="158.48" width="9.38" height="3.68" rx="0.19"/><polyline class="cls-2" points="153.55 158.47 155.4 160.32 153.56 162.16"/><polyline class="cls-2" points="156.41 158.47 158.26 160.32 156.42 162.16"/><polyline class="cls-2" points="159.07 158.47 160.92 160.32 159.08 162.16"/><rect class="cls-2" x="152.71" y="151.1" width="9.38" height="3.68" rx="0.21"/><polyline class="cls-2" points="153.55 151.1 155.4 152.95 153.56 154.79"/><polyline class="cls-2" points="156.41 151.1 158.26 152.95 156.42 154.79"/><polyline class="cls-2" points="159.07 151.1 160.92 152.95 159.08 154.79"/><rect class="cls-2" x="152.71" y="154.79" width="9.38" height="3.68" rx="0.2" transform="translate(314.81 313.26) rotate(180)"/><polyline class="cls-2" points="161.26 154.79 159.41 156.64 161.25 158.47"/><polyline class="cls-2" points="158.39 154.79 156.55 156.64 158.38 158.47"/><polyline class="cls-2" points="155.74 154.79 153.89 156.64 155.73 158.47"/><rect class="cls-2" x="136.77" y="158.48" width="9.38" height="3.68" rx="0.21"/><polyline class="cls-2" points="137.61 158.47 139.45 160.32 137.62 162.16"/><polyline class="cls-2" points="140.47 158.47 142.32 160.32 140.48 162.16"/><polyline class="cls-2" points="143.12 158.47 144.97 160.32 143.13 162.16"/><rect class="cls-2" x="136.77" y="151.1" width="9.38" height="3.68" rx="0.21"/><polyline class="cls-2" points="137.61 151.1 139.45 152.95 137.62 154.79"/><polyline class="cls-2" points="140.47 151.1 142.32 152.95 140.48 154.79"/><polyline class="cls-2" points="143.12 151.1 144.97 152.95 143.13 154.79"/><rect class="cls-2" x="136.77" y="147.42" width="9.38" height="3.68" rx="0.25"/><polyline class="cls-2" points="137.61 147.42 139.45 149.26 137.62 151.1"/><polyline class="cls-2" points="140.47 147.42 142.32 149.26 140.48 151.1"/><polyline class="cls-2" points="143.12 147.42 144.97 149.26 143.13 151.1"/><rect class="cls-2" x="136.77" y="154.79" width="9.38" height="3.68" rx="0.19" transform="translate(282.92 313.26) rotate(180)"/><polyline class="cls-2" points="145.31 154.79 143.46 156.64 145.3 158.47"/><polyline class="cls-2" points="142.45 154.79 140.6 156.64 142.44 158.47"/><polyline class="cls-2" points="139.79 154.79 137.95 156.64 139.78 158.47"/></g><g id="aboutT-icon-5-2" data-name="aboutT-icon-5"><path class="cls-10" d="M303.13,94.48a8.76,8.76,0,0,0-3.65,3.65,9,9,0,0,0-1.56-2.1,8.56,8.56,0,0,0-2.1-1.55,9,9,0,0,0,3.66-3.66,8.77,8.77,0,0,0,1.54,2.1A9,9,0,0,0,303.13,94.48Z"/><path class="cls-10" d="M344.11,96.62a9,9,0,0,0-3.66,3.66,8.4,8.4,0,0,0-1.55-2.1,8.82,8.82,0,0,0-2.1-1.56A8.76,8.76,0,0,0,340.45,93a9.15,9.15,0,0,0,1.55,2.1A8.43,8.43,0,0,0,344.11,96.62Z"/><path class="cls-10" d="M329.17,76.58a9,9,0,0,0-2.1,1.56,8.82,8.82,0,0,0-1.55,2.1,8.67,8.67,0,0,0-1.55-2.1,8.82,8.82,0,0,0-2.1-1.56A8.59,8.59,0,0,0,324,75a8.82,8.82,0,0,0,1.55-2.1,8.76,8.76,0,0,0,3.65,3.65Z"/><path class="cls-10" d="M319.37,113.13h-33.8c-3.08,0-5.57,2.19-5.57,4.88v41.07c0,2.7,2.49,4.88,5.57,4.88h26.3c4,0,7.47,2.86,7.5,6.36v0c0-3.5,3.52-6.36,7.51-6.36h26.3c3.08,0,5.57-2.18,5.57-4.88V118c0-2.69-2.49-4.88-5.57-4.88Z"/><path class="cls-11" d="M319.37,105.9H289.73a4.89,4.89,0,0,0-4.88,4.88v41.07a4.88,4.88,0,0,0,4.88,4.88h23.06a6.58,6.58,0,0,1,6.58,6.36v0a6.6,6.6,0,0,1,6.58-6.36H349a4.87,4.87,0,0,0,4.88-4.88V110.78A4.88,4.88,0,0,0,349,105.9Z"/><rect class="cls-10" x="289.56" y="113.92" width="7.2" height="7.2" rx="0.94"/><rect class="cls-10" x="289.56" y="127.85" width="7.2" height="7.2" rx="0.94"/><rect class="cls-10" x="289.56" y="141.78" width="7.2" height="7.2" rx="0.94"/><line class="cls-15" x1="299.48" y1="117.52" x2="312.1" y2="117.52"/><line class="cls-15" x1="327.49" y1="117.52" x2="351.39" y2="117.52"/><line class="cls-15" x1="327.49" y1="122.5" x2="351.39" y2="122.5"/><line class="cls-15" x1="299.48" y1="131.45" x2="312.1" y2="131.45"/><line class="cls-15" x1="299.48" y1="145.25" x2="306.68" y2="145.25"/><rect class="cls-10" x="304.89" y="118.08" width="28.98" height="8.83" transform="translate(441.87 -196.88) rotate(90)"/><path class="cls-10" d="M329.3,102.85a10.11,10.11,0,0,0-6.51-11.53V99.9a.92.92,0,0,1-.91.92h-5a.92.92,0,0,1-.91-.92V91.32a10.11,10.11,0,1,0,13.34,11.53Z"/><path class="cls-10" d="M316.87,144.67h5a.91.91,0,0,1,.91.91v8.58a10.13,10.13,0,1,0-6.83,0v-8.58A.91.91,0,0,1,316.87,144.67Z"/><circle class="cls-10" cx="341.22" cy="140" r="7.51"/><polyline class="cls-14" points="336.94 139.92 340.38 143.22 345.7 137.62"/></g><g id="aboutT-icon-6"><path class="cls-10" d="M422.53,130.18a10.31,10.31,0,0,0-2.41,1.79,10,10,0,0,0-1.79,2.41,10.14,10.14,0,0,0-1.78-2.41,10.35,10.35,0,0,0-2.42-1.79,10.16,10.16,0,0,0,2.42-1.78,10.36,10.36,0,0,0,1.78-2.42,10,10,0,0,0,1.78,2.41A9.79,9.79,0,0,0,422.53,130.18Z"/><path class="cls-10" d="M509.29,91.19A10.33,10.33,0,0,0,506.87,93a10,10,0,0,0-1.78,2.41A10.52,10.52,0,0,0,503.3,93a10.26,10.26,0,0,0-2.41-1.79,10.12,10.12,0,0,0,4.2-4.2,10,10,0,0,0,1.78,2.41A9.79,9.79,0,0,0,509.29,91.19Z"/><path class="cls-10" d="M458.44,90.06A10.16,10.16,0,0,0,456,91.84a10.36,10.36,0,0,0-1.78,2.42,10.12,10.12,0,0,0-4.2-4.2,10.28,10.28,0,0,0,4.2-4.2A10.14,10.14,0,0,0,456,88.27,10.33,10.33,0,0,0,458.44,90.06Z"/><rect class="cls-10" x="426.01" y="98.57" width="73.72" height="53.93" rx="3.14"/><rect class="cls-11" x="428.66" y="101.04" width="68.42" height="51.46" rx="1.78"/><path class="cls-10" d="M415.09,147.1h95.57a0,0,0,0,1,0,0v4.5a3,3,0,0,1-3,3H418.07a3,3,0,0,1-3-3v-4.5A0,0,0,0,1,415.09,147.1Z"/><rect class="cls-10" x="457.93" y="147.1" width="9.88" height="2.38"/><rect class="cls-10" x="433.76" y="105.5" width="10.02" height="10.02" rx="1.78"/><rect class="cls-10" x="433.76" y="119.09" width="10.02" height="10.02" rx="1.78"/><rect class="cls-10" x="433.76" y="132.69" width="10.02" height="10.02" rx="1.78"/><polyline class="cls-16" points="435.52 110.51 437.87 112.85 442.02 108.7"/><polyline class="cls-16" points="435.52 123.83 437.87 126.18 442.02 122.03"/><polyline class="cls-16" points="435.52 137.43 437.87 139.78 442.02 135.63"/><line class="cls-14" x1="448.55" y1="110.78" x2="492.09" y2="110.78"/><line class="cls-14" x1="448.55" y1="124.1" x2="492.09" y2="124.1"/><line class="cls-14" x1="448.55" y1="137.7" x2="465.53" y2="137.7"/><circle class="cls-10" cx="481.34" cy="135.54" r="7.34"/><polyline class="cls-14" points="477.16 135.46 480.53 138.68 485.73 133.21"/></g><g id="aboutT-icon-7"><path class="cls-10" d="M649.85,111.87a10.33,10.33,0,0,0-4.31,4.31,10.33,10.33,0,0,0-4.31-4.31,10.33,10.33,0,0,0,4.31-4.31,10.33,10.33,0,0,0,4.31,4.31Z"/><path class="cls-10" d="M596.78,86.09a10.39,10.39,0,0,0-4.31,4.3,10.15,10.15,0,0,0-1.83-2.47,10.44,10.44,0,0,0-2.48-1.83,10.52,10.52,0,0,0,2.48-1.83,10.66,10.66,0,0,0,1.83-2.48,10.49,10.49,0,0,0,4.31,4.31Z"/><path class="cls-10" d="M563.34,101.78a11,11,0,0,0-2.48,1.83,10.66,10.66,0,0,0-1.83,2.48,10.33,10.33,0,0,0-4.31-4.31A10,10,0,0,0,557.2,100,10.35,10.35,0,0,0,559,97.48a10.63,10.63,0,0,0,1.83,2.47A10.25,10.25,0,0,0,563.34,101.78Z"/><path class="cls-10" d="M600.86,93.4s-12.7.06-21.69,2-14,22.86-14,22.86l-.2,0a8.54,8.54,0,0,0-6.07-5.54h-2.85a2.5,2.5,0,0,0-2.49,2.39v4.4c0,2.28,2.65,2.49,2.65,2.49H564c.59,0,.36.23.36.23-8.86,7.64-7.53,17.25-7.53,17.25.25,19.27,4.46,21.15,5.47,21.3s1,.88,1,.88v5.43a3,3,0,0,0,2.44,3.09h7.06a3.07,3.07,0,0,0,3.09-3.09v-4.32c7.4,1.16,24.94.77,24.94.77Z"/><circle class="cls-11" cx="572.28" cy="138.52" r="6.72"/><path class="cls-11" d="M600.86,98.81c-.17,0-.34,0-.51,0-12.28.57-20.74.45-23.41,4.08s-6.63,17-6.63,17c14.45-1.48,30.55-1.29,30.55-1.29Z"/><path class="cls-11" d="M600.86,147.48h-8.39a.81.81,0,0,0-.81.81v4.29a.81.81,0,0,0,.81.81h8.39Z"/><path class="cls-10" d="M618.21,75.1a1.65,1.65,0,0,0-2.57,0L600.86,93.4V168H633V93.4Zm-1.28,16a4.59,4.59,0,1,1,4.59-4.59A4.59,4.59,0,0,1,616.93,91.12Z"/><path class="cls-14" d="M616.93,86.53s-38-19.62-31.34,6.24"/><path class="cls-17" d="M624.68,143.59a5.36,5.36,0,0,0-1.66-4,14.74,14.74,0,0,0-5.59-2.93q-5.46-1.67-8-4.35a9.59,9.59,0,0,1-2.5-6.82,9.9,9.9,0,0,1,2.45-6.91,10.5,10.5,0,0,1,6.74-3.21v-5.62H620v5.65a9.88,9.88,0,0,1,6.71,3.62c1.6,2,2.4,4.79,2.4,8.29h-4.72a9,9,0,0,0-1.72-5.76,5.65,5.65,0,0,0-4.65-2.14,6.36,6.36,0,0,0-4.67,1.58,5.87,5.87,0,0,0-1.62,4.41,5.38,5.38,0,0,0,1.71,4.18,15.62,15.62,0,0,0,5.62,2.83,23.6,23.6,0,0,1,6.11,2.8,9.9,9.9,0,0,1,3.24,3.56,10.3,10.3,0,0,1,1,4.75,9.5,9.5,0,0,1-2.61,7,11.55,11.55,0,0,1-7.31,3.13v4.91h-3.8v-4.91a11.06,11.06,0,0,1-7.48-3.4,11.47,11.47,0,0,1-2.71-8.05h4.75a7.58,7.58,0,0,0,1.88,5.5,7.07,7.07,0,0,0,5.31,1.92,8,8,0,0,0,5.29-1.62A5.46,5.46,0,0,0,624.68,143.59Z"/></g></g></g></g></svg>