<svg xmlns="http://www.w3.org/2000/svg" viewBox="0 0 76.18 99.85"><defs><style>.cls-1{fill:#a8c0e4;}.cls-1,.cls-2,.cls-3,.cls-4{stroke:#5b84c3;stroke-miterlimit:10;stroke-width:1.5px;}.cls-2{fill:none;stroke-linecap:round;}.cls-3{fill:#e8ecf7;}.cls-4{fill:#fff;}</style></defs><title>aboutF-icon-7</title><g id="Layer_2" data-name="Layer 2"><g id="Layer_1-2" data-name="Layer 1"><g id="aboutF-icon-7"><path class="cls-1" d="M42.82,12.92a9.77,9.77,0,0,0-2.37,1.76,10.13,10.13,0,0,0-1.76,2.37,10.37,10.37,0,0,0-1.75-2.37,10,10,0,0,0-2.38-1.76,9.63,9.63,0,0,0,2.38-1.75A9.86,9.86,0,0,0,38.69,8.8a10.14,10.14,0,0,0,1.75,2.36A9.72,9.72,0,0,0,42.82,12.92Z"/><path class="cls-1" d="M67,5.73a10.37,10.37,0,0,0-2.37,1.75,9.75,9.75,0,0,0-1.75,2.38,10,10,0,0,0-1.76-2.38,9.86,9.86,0,0,0-2.37-1.75A10,10,0,0,0,61.15,4,10.22,10.22,0,0,0,62.91,1.6,9.79,9.79,0,0,0,64.65,4,10.19,10.19,0,0,0,67,5.73Z"/><path class="cls-1" d="M9.86,8.8a9.63,9.63,0,0,0-2.38,1.75,9.86,9.86,0,0,0-1.75,2.37A10.37,10.37,0,0,0,4,10.55,10,10,0,0,0,1.6,8.8,10,10,0,0,0,4,7,10.14,10.14,0,0,0,5.73,4.67,10.08,10.08,0,0,0,7.48,7,10,10,0,0,0,9.86,8.8Z"/><path class="cls-1" d="M57.06,18.11a34.07,34.07,0,0,0-18.37,5.42A33.82,33.82,0,0,0,2,23.53V74.69a39.19,39.19,0,0,1,36.73,0,39.21,39.21,0,0,1,36.74,0V23.53A34.09,34.09,0,0,0,57.06,18.11Z"/><line class="cls-2" x1="38.69" y1="23.53" x2="38.69" y2="74.69"/><path class="cls-2" d="M34.45,38A29.11,29.11,0,0,0,5,38"/><path class="cls-2" d="M5,52.42a29.11,29.11,0,0,1,29.48,0"/><path class="cls-2" d="M5,66.81a29.05,29.05,0,0,1,29.48,0"/><path class="cls-2" d="M19.71,29s8.12-.76,14.74,3.91"/><path class="cls-2" d="M19.71,41.29s8.12-.75,14.74,3.92"/><path class="cls-2" d="M19.71,55.68s8.12-.76,14.74,3.91"/><circle class="cls-3" cx="8.79" cy="29.8" r="3.06"/><circle class="cls-3" cx="8.79" cy="43.23" r="3.06"/><circle class="cls-3" cx="8.79" cy="57.61" r="3.06"/><path class="cls-2" d="M71.64,38a29.1,29.1,0,0,0-29.47,0"/><path class="cls-2" d="M42.17,52.42a29.1,29.1,0,0,1,29.47,0"/><path class="cls-2" d="M42.17,66.81a29,29,0,0,1,29.47,0"/><path class="cls-2" d="M56.9,29S65,28.2,71.64,32.87"/><path class="cls-2" d="M56.9,41.29s8.12-.75,14.74,3.92"/><path class="cls-2" d="M56.9,55.68s8.12-.76,14.74,3.91"/><circle class="cls-3" cx="45.98" cy="29.8" r="3.06"/><circle class="cls-3" cx="45.98" cy="43.23" r="3.06"/><circle class="cls-3" cx="45.98" cy="57.61" r="3.06"/><circle class="cls-4" cx="38.69" cy="74.88" r="19.04"/><path class="cls-1" d="M38.69,50.67A24.22,24.22,0,1,0,62.91,74.88,24.21,24.21,0,0,0,38.69,50.67Zm0,43.25a19,19,0,1,1,19-19A19,19,0,0,1,38.69,93.92Z"/><path class="cls-1" d="M57.47,71.73c-8.39-4.61-18.78-4.15-18.78-4.15s-10.39-.46-18.78,4.15a20.92,20.92,0,0,0-.07,5.83s17.55-2.83,16.39,16.2l2.46.16,2.46-.16c-1.15-19,16.39-16.2,16.39-16.2A20.92,20.92,0,0,0,57.47,71.73Z"/><circle class="cls-3" cx="38.69" cy="74.88" r="4.15"/></g></g></g></svg>