<svg xmlns="http://www.w3.org/2000/svg" viewBox="0 0 99.48 82.31"><defs><style>.cls-1{fill:#a8c0e4;}.cls-1,.cls-2,.cls-3,.cls-5{stroke:#5b84c3;}.cls-1,.cls-2,.cls-3,.cls-4,.cls-5{stroke-miterlimit:10;stroke-width:1.5px;}.cls-2{fill:#e8ecf7;}.cls-3{fill:#dbe8b5;}.cls-4,.cls-5{fill:none;stroke-linecap:round;}.cls-4{stroke:#265387;}</style></defs><title>aboutT-icon-4</title><g id="Layer_2" data-name="Layer 2"><g id="Layer_1-2" data-name="Layer 1"><g id="aboutT-icon-4"><path class="cls-1" d="M71.9,5.6a9.64,9.64,0,0,0-4,4,9.39,9.39,0,0,0-1.7-2.3,9.23,9.23,0,0,0-2.3-1.7,9.66,9.66,0,0,0,2.3-1.7,9.23,9.23,0,0,0,1.7-2.3,9.63,9.63,0,0,0,1.69,2.29A9.69,9.69,0,0,0,71.9,5.6Z"/><path class="cls-1" d="M97.88,37.46a9.66,9.66,0,0,0-2.3,1.7,9.23,9.23,0,0,0-1.7,2.3,9.66,9.66,0,0,0-1.7-2.3,9.23,9.23,0,0,0-2.3-1.7,9.64,9.64,0,0,0,4-4,9.36,9.36,0,0,0,1.69,2.29A9.49,9.49,0,0,0,97.88,37.46Z"/><path class="cls-1" d="M92.22,62.35a9.39,9.39,0,0,0-2.3,1.7,9.87,9.87,0,0,0-1.7,2.29,9.56,9.56,0,0,0-1.7-2.29,9.34,9.34,0,0,0-2.29-1.7,9.84,9.84,0,0,0,2.29-1.7,9.23,9.23,0,0,0,1.7-2.3,9.64,9.64,0,0,0,4,4Z"/><path class="cls-1" d="M55.55,69.78V17.44H49.12s-3.71-.61-12,8.75S18.84,45.52,18.84,45.52,3.69,44.76,3.69,62.65H55.55"/><path class="cls-2" d="M.75,62.65H54a1.52,1.52,0,0,1,1.52,1.52v4.09A1.52,1.52,0,0,1,54,69.78H.75a0,0,0,0,1,0,0V62.65A0,0,0,0,1,.75,62.65Z" transform="translate(56.3 132.44) rotate(-180)"/><polygon class="cls-2" points="55.55 25.06 38.15 25.06 18.84 45.52 55.55 45.52 55.55 25.06"/><rect class="cls-3" x="4.43" y="47.96" width="10.87" height="6.07" rx="3.03" transform="translate(19.73 101.98) rotate(180)"/><circle class="cls-1" cx="18.84" cy="69.78" r="11.78"/><circle class="cls-3" cx="18.84" cy="69.78" r="4.67"/><line class="cls-4" x1="59.43" y1="19.52" x2="59.43" y2="22.23"/><line class="cls-4" x1="59.43" y1="67.94" x2="59.43" y2="65.23"/><path class="cls-2" d="M57.78,17.28v52.9a26.45,26.45,0,0,0,0-52.9Z"/><line class="cls-5" x1="69.35" y1="22.76" x2="68" y2="25.11"/><line class="cls-5" x1="78.22" y1="31.62" x2="75.86" y2="32.98"/><line class="cls-4" x1="67.23" y1="43.73" x2="64.51" y2="43.73"/><line class="cls-5" x1="78.22" y1="55.84" x2="75.86" y2="54.48"/><line class="cls-5" x1="69.35" y1="64.7" x2="68" y2="62.35"/><line class="cls-5" x1="78.22" y1="43.73" x2="80.93" y2="43.73"/><polyline class="cls-5" points="57.78 26.64 57.78 43.73 71.53 43.73"/><path class="cls-1" d="M78.51,12h10a3.74,3.74,0,0,1,3.74,3.74V23a0,0,0,0,1,0,0H74.77a0,0,0,0,1,0,0V15.72A3.74,3.74,0,0,1,78.51,12Z" transform="translate(36.83 -53.94) rotate(45)"/><rect class="cls-1" x="76.74" y="20.7" width="2.44" height="4.72" transform="translate(39.14 -48.38) rotate(45)"/><polyline class="cls-5" points="68.42 67.94 74.47 73.98 69.35 73.98"/><line class="cls-5" x1="74.47" y1="73.99" x2="78.22" y2="73.99"/></g></g></g></svg>