<svg xmlns="http://www.w3.org/2000/svg" viewBox="0 0 76.4 100.41"><defs><style>.cls-1{fill:#a8c0e4;}.cls-1,.cls-2,.cls-3,.cls-4{stroke:#5b84c3;stroke-miterlimit:10;stroke-width:1.5px;}.cls-2{fill:#e8ecf7;}.cls-3,.cls-4{fill:none;}.cls-3{stroke-linecap:round;}.cls-5{fill:#5b84c3;}</style></defs><title>aboutF-icon-10</title><g id="Layer_2" data-name="Layer 2"><g id="Layer_1-2" data-name="Layer 1"><g id="aboutF-icon-10"><path class="cls-1" d="M12.25,25.59a10.31,10.31,0,0,0-2.46,1.82A10.19,10.19,0,0,0,8,29.86a10.29,10.29,0,0,0-1.81-2.45,10.48,10.48,0,0,0-2.46-1.82,10.23,10.23,0,0,0,2.46-1.81A10.49,10.49,0,0,0,8,21.32a10,10,0,0,0,1.81,2.45A10.12,10.12,0,0,0,12.25,25.59Z"/><path class="cls-1" d="M45.64,5.87a10.51,10.51,0,0,0-2.46,1.81,10.21,10.21,0,0,0-1.81,2.46,10.31,10.31,0,0,0-1.82-2.46A10.19,10.19,0,0,0,37.1,5.87a10.29,10.29,0,0,0,2.45-1.81A10.48,10.48,0,0,0,41.37,1.6a10.2,10.2,0,0,0,1.8,2.45A10.33,10.33,0,0,0,45.64,5.87Z"/><path class="cls-1" d="M74.79,13.45a10.5,10.5,0,0,0-2.45,1.82,9.93,9.93,0,0,0-1.81,2.45,10.45,10.45,0,0,0-4.27-4.27,10.29,10.29,0,0,0,2.45-1.81,10.48,10.48,0,0,0,1.82-2.46,9.93,9.93,0,0,0,1.8,2.45A10.31,10.31,0,0,0,74.79,13.45Z"/><path class="cls-1" d="M59.32,14.72H19.62a2.41,2.41,0,0,0-2.42,2.41V97.24a2.42,2.42,0,0,0,2.42,2.42H70.26a2.43,2.43,0,0,0,2.42-2.42V28.07Z"/><circle class="cls-2" cx="37.42" cy="41.03" r="14.44"/><rect class="cls-1" x="23.47" y="50.92" width="4.05" height="6.53" transform="translate(45.78 -2.16) rotate(45)"/><path class="cls-1" d="M8.32,52.38h10a0,0,0,0,1,0,0V78.3a2,2,0,0,1-2,2h-6a2,2,0,0,1-2-2V52.38A0,0,0,0,1,8.32,52.38Z" transform="translate(50.82 10) rotate(45)"/><line class="cls-3" x1="29.49" y1="33.18" x2="33.64" y2="33.18"/><line class="cls-3" x1="41.37" y1="33.18" x2="45.52" y2="33.18"/><line class="cls-3" x1="27.57" y1="36.82" x2="33.64" y2="36.82"/><line class="cls-3" x1="25.23" y1="41.48" x2="49.78" y2="41.48"/><line class="cls-3" x1="25.23" y1="66.24" x2="65.12" y2="66.24"/><line class="cls-3" x1="25.23" y1="74.49" x2="45.52" y2="74.49"/><line class="cls-3" x1="44.4" y1="59.35" x2="64.69" y2="59.35"/><line class="cls-3" x1="51.19" y1="50.81" x2="65.56" y2="50.81"/><line class="cls-3" x1="55.05" y1="44.3" x2="69.43" y2="44.3"/><line class="cls-3" x1="55.05" y1="37.79" x2="69.43" y2="37.79"/><line class="cls-3" x1="54.61" y1="31.28" x2="68.98" y2="31.28"/><line class="cls-3" x1="25.23" y1="81.78" x2="39.56" y2="81.78"/><line class="cls-3" x1="25.23" y1="88.89" x2="41.37" y2="88.89"/><line class="cls-3" x1="27.57" y1="45.41" x2="47.43" y2="45.41"/><line class="cls-3" x1="31.21" y1="49.06" x2="43.8" y2="49.06"/><line class="cls-3" x1="41.37" y1="36.82" x2="47.43" y2="36.82"/><circle class="cls-2" cx="55.05" cy="83.7" r="10.07"/><polyline class="cls-4" points="50.22 83.89 53.83 87.5 60.76 80.57"/><path class="cls-5" d="M38.35,36.72a1,1,0,0,0-.13-.71,1.84,1.84,0,0,0-.8-.56,6.29,6.29,0,0,1-1-.54,2.26,2.26,0,0,1-1.11-2.12,2.33,2.33,0,0,1,.75-1.65,3.05,3.05,0,0,1,1.81-.76l.24-1.26H39l-.24,1.29a2.12,2.12,0,0,1,1.36.89,3.11,3.11,0,0,1,.43,1.83H38.93c0-.92-.22-1.39-.81-1.4a1.07,1.07,0,0,0-.78.28,1.26,1.26,0,0,0-.38.78.93.93,0,0,0,.13.66,1.7,1.7,0,0,0,.71.54,9.65,9.65,0,0,1,.88.47,2.42,2.42,0,0,1,.56,3.91,3.11,3.11,0,0,1-1.83.74l-.23,1.17h-.91l.23-1.17a2.31,2.31,0,0,1-1.58-.89,2.91,2.91,0,0,1-.5-1.89h1.65a1.72,1.72,0,0,0,.23,1.07.92.92,0,0,0,.78.37,1.3,1.3,0,0,0,.85-.28A1.14,1.14,0,0,0,38.35,36.72Z"/></g></g></g></svg>