<svg xmlns="http://www.w3.org/2000/svg" viewBox="0 0 45.28 49.54"><defs><style>.cls-1,.cls-8{fill:#e8ecf7;}.cls-1,.cls-3,.cls-4,.cls-5,.cls-8{stroke:#5b84c3;}.cls-1,.cls-2,.cls-3,.cls-4,.cls-5,.cls-8{stroke-miterlimit:10;}.cls-2{fill:#b4e2ea;stroke:#265387;stroke-width:0.5px;}.cls-3,.cls-5,.cls-7{fill:#a8c0e4;}.cls-4{fill:#fbe7cb;}.cls-4,.cls-5{stroke-linecap:round;}.cls-6{opacity:0.59;}.cls-8{stroke-width:0.75px;}</style></defs><title>aboutA-icon-3</title><g id="Layer_2" data-name="Layer 2"><g id="Layer_1-2" data-name="Layer 1"><g id="aboutA-icon-3"><rect class="cls-1" x="0.5" y="7.33" width="34.77" height="41.7" rx="4.18"/><line class="cls-2" x1="0.5" y1="14.05" x2="35.27" y2="14.05"/><path class="cls-3" d="M35.31,14.05V11.14A3.82,3.82,0,0,0,31.5,7.33H4.35A3.82,3.82,0,0,0,.54,11.14v2.91Z"/><path class="cls-1" d="M25.71,7.7a2.53,2.53,0,0,1-2.49,2.57H12.63A2.53,2.53,0,0,1,10.14,7.7a2.53,2.53,0,0,1,2.49-2.58,2.43,2.43,0,0,1,1.54.56,3.82,3.82,0,0,1,7.54,0,2.33,2.33,0,0,1,1.51-.54A2.54,2.54,0,0,1,25.71,7.7Z"/><line class="cls-4" x1="18.53" y1="21.37" x2="33.01" y2="21.37"/><line class="cls-4" x1="18.53" y1="39.32" x2="33.01" y2="39.32"/><rect class="cls-3" x="3.22" y="32.75" width="12.84" height="12.84" rx="1.78"/><polyline class="cls-5" points="5.48 38.82 8.49 41.83 13.8 36.51"/><rect class="cls-3" x="3.22" y="16.98" width="12.84" height="12.84" rx="1.78"/><polyline class="cls-5" points="5.48 23.05 8.49 26.06 13.8 20.75"/><path class="cls-3" d="M7.05,3.19a5.08,5.08,0,0,0-1.22.91,4.92,4.92,0,0,0-.91,1.22A4.74,4.74,0,0,0,4,4.1,4.92,4.92,0,0,0,2.8,3.19,4.74,4.74,0,0,0,4,2.29a4.92,4.92,0,0,0,.9-1.22,5.73,5.73,0,0,0,.9,1.22A5.21,5.21,0,0,0,7.05,3.19Z"/><path class="cls-3" d="M31,3.19a5.5,5.5,0,0,0-1.22.91,4.92,4.92,0,0,0-.9,1.22A5.27,5.27,0,0,0,28,4.1a5.21,5.21,0,0,0-1.23-.91A4.94,4.94,0,0,0,28,2.29a5.19,5.19,0,0,0,.9-1.22,5.11,5.11,0,0,0,.9,1.22A5,5,0,0,0,31,3.19Z"/><path class="cls-3" d="M41.68,12.11a5.28,5.28,0,0,0-1.22.91,4.92,4.92,0,0,0-.9,1.22A5.08,5.08,0,0,0,38.65,13a4.92,4.92,0,0,0-1.22-.91,4.74,4.74,0,0,0,1.22-.9A4.92,4.92,0,0,0,39.56,10a4.92,4.92,0,0,0,.9,1.22A4.74,4.74,0,0,0,41.68,12.11Z"/><g class="cls-6"><path class="cls-7" d="M40.05,35.46h-.42a9.35,9.35,0,0,0-1.24-3l.31-.3a.91.91,0,0,0,0-1.28l-1.63-1.63a.91.91,0,0,0-1.28,0l-.31.32a9.23,9.23,0,0,0-2.95-1.21v-.46a.9.9,0,0,0-.9-.9h-2.3a.9.9,0,0,0-.9.9v.46a9.56,9.56,0,0,0-2.95,1.21l-.31-.32a.91.91,0,0,0-1.28,0l-1.63,1.63a.91.91,0,0,0,0,1.28l.31.3a9.35,9.35,0,0,0-1.24,3h-.42a.9.9,0,0,0-.9.9v2.3a.9.9,0,0,0,.9.9h.4a9.3,9.3,0,0,0,1.22,3l-.26.26a.89.89,0,0,0,0,1.28l1.62,1.63a.91.91,0,0,0,1.28,0l.25-.26a9.32,9.32,0,0,0,3,1.25v.36a.9.9,0,0,0,.9.9h2.3a.9.9,0,0,0,.9-.9v-.36a9.32,9.32,0,0,0,3-1.25l.25.26a.91.91,0,0,0,1.28,0L38.7,44.1a.91.91,0,0,0,0-1.28l-.27-.26a9.3,9.3,0,0,0,1.22-3h.4a.9.9,0,0,0,.9-.9v-2.3A.9.9,0,0,0,40.05,35.46ZM30.48,42.2a4.69,4.69,0,1,1,4.69-4.69A4.69,4.69,0,0,1,30.48,42.2Z"/></g><circle class="cls-8" cx="34.31" cy="38.32" r="4.69"/><path class="cls-3" d="M43.88,36.26h-.42a9.29,9.29,0,0,0-1.24-2.95l.31-.31a.9.9,0,0,0,0-1.27L40.9,30.1a.91.91,0,0,0-1.28,0l-.31.32a9.49,9.49,0,0,0-3-1.22v-.45a.9.9,0,0,0-.9-.9h-2.3a.9.9,0,0,0-.9.9v.45a9.43,9.43,0,0,0-2.94,1.22L29,30.1a.91.91,0,0,0-1.28,0L26.1,31.73a.88.88,0,0,0,0,1.27l.3.31a9.29,9.29,0,0,0-1.24,2.95h-.41a.91.91,0,0,0-.91.91v2.29a.91.91,0,0,0,.91.91h.39a9.15,9.15,0,0,0,1.22,3l-.26.27a.89.89,0,0,0,0,1.28l1.62,1.62a.91.91,0,0,0,1.28,0l.25-.26a9.43,9.43,0,0,0,3,1.26v.35a.9.9,0,0,0,.9.9h2.3a.9.9,0,0,0,.9-.9v-.35a9.33,9.33,0,0,0,3-1.26l.25.26a.91.91,0,0,0,1.28,0l1.63-1.62a.91.91,0,0,0,0-1.28l-.27-.27a9.15,9.15,0,0,0,1.22-3h.4a.9.9,0,0,0,.9-.91V37.17A.9.9,0,0,0,43.88,36.26ZM34.31,43A4.7,4.7,0,1,1,39,38.32,4.69,4.69,0,0,1,34.31,43Z"/></g></g></g></svg>