<svg xmlns="http://www.w3.org/2000/svg" viewBox="0 0 47.54 48.58"><defs><style>.cls-1,.cls-7{fill:#a8c0e4;}.cls-1,.cls-2,.cls-6,.cls-7,.cls-8,.cls-9{stroke:#5b84c3;}.cls-1,.cls-2,.cls-3,.cls-6,.cls-7,.cls-8,.cls-9{stroke-miterlimit:10;}.cls-1,.cls-3,.cls-4{stroke-width:0.75px;}.cls-2,.cls-8{fill:none;}.cls-3,.cls-4{fill:#80cbec;stroke:#265387;}.cls-4{stroke-linejoin:round;}.cls-5{fill:#b4e2ea;}.cls-6{fill:#e8ecf7;}.cls-8{stroke-linecap:round;}.cls-9{fill:#dbe8b5;}</style></defs><title>aboutW-icon-1</title><g id="Layer_2" data-name="Layer 2"><g id="Layer_1-2" data-name="Layer 1"><g id="aboutW-icon-1"><rect class="cls-1" x="0.5" y="0.5" width="46.54" height="36.92" rx="3.36" transform="translate(47.54 37.92) rotate(-180)"/><rect class="cls-2" x="0.5" y="0.5" width="46.54" height="36.92" rx="3.36" transform="translate(47.54 37.92) rotate(-180)"/><rect class="cls-3" x="21.46" y="37.42" width="4.62" height="5" transform="translate(47.54 79.85) rotate(-180)"/><path class="cls-4" d="M18.41,42.45H29.13a0,0,0,0,1,0,0v1.48a2.28,2.28,0,0,1-2.28,2.28H20.69a2.28,2.28,0,0,1-2.28-2.28V42.45a0,0,0,0,1,0,0Z" transform="translate(47.54 88.66) rotate(-180)"/><rect class="cls-5" x="21.96" y="37.91" width="1.81" height="4.02" transform="translate(45.73 79.85) rotate(-180)"/><path class="cls-5" d="M8.77,3.2A2.59,2.59,0,0,0,6.85,5.68v26.9s-.1,2.15,1.92,2.15h-5a.48.48,0,0,1-.5-.47V3.68a.49.49,0,0,1,.5-.48Z"/><rect class="cls-6" x="2.81" y="2.71" width="41.92" height="32.5" rx="1.26" transform="translate(47.54 37.92) rotate(-180)"/><path class="cls-7" d="M42.08,28.07V5H39.25S37.61,4.72,34,8.85s-8.06,8.52-8.06,8.52-6.68-.33-6.68,7.56H42.08"/><path class="cls-6" d="M17.91,24.93H41.16a.92.92,0,0,1,.92.92v1.31a.92.92,0,0,1-.92.92H17.91a0,0,0,0,1,0,0V24.93A0,0,0,0,1,17.91,24.93Z" transform="translate(59.99 53) rotate(-180)"/><polygon class="cls-6" points="42.08 8.35 34.41 8.35 25.89 17.37 42.08 17.37 42.08 8.35"/><line class="cls-8" x1="25.89" y1="17.37" x2="20.31" y2="7.65"/><rect class="cls-9" x="19.54" y="18.45" width="4.79" height="2.68" rx="1.34" transform="translate(43.87 39.57) rotate(180)"/><circle class="cls-7" cx="25.89" cy="28.07" r="5.19"/><circle class="cls-6" cx="25.89" cy="28.07" r="2.06"/><path class="cls-7" d="M43.28,42.5a5.58,5.58,0,0,1-5.58,5.58H11.54a5.58,5.58,0,1,1,0-11.15,8,8,0,1,1,14.92-4.6,5.43,5.43,0,0,1,3.74-1.45,5.56,5.56,0,0,1,5.55,5.58,4.08,4.08,0,0,1-.08.85,5.72,5.72,0,0,1,2-.38A5.59,5.59,0,0,1,43.28,42.5Z"/><path class="cls-6" d="M23.25,33.29l-2.77,3.46a.17.17,0,0,0,.13.28h.91a.16.16,0,0,1,.17.16v7.68a.17.17,0,0,0,.17.16h3a.17.17,0,0,0,.17-.16V37.19a.16.16,0,0,1,.17-.16h.91a.17.17,0,0,0,.13-.28l-2.77-3.46A.17.17,0,0,0,23.25,33.29Z"/><path class="cls-1" d="M28.38,8.35a5.11,5.11,0,0,0-2.06,2.06,4.93,4.93,0,0,0-.87-1.18,5.08,5.08,0,0,0-1.19-.88,5.15,5.15,0,0,0,1.19-.87,5.39,5.39,0,0,0,.87-1.19,4.95,4.95,0,0,0,2.06,2.06Z"/><path class="cls-1" d="M10.83,23.18a5,5,0,0,0-1.18.88,4.68,4.68,0,0,0-.88,1.19,4.77,4.77,0,0,0-.88-1.19,5.05,5.05,0,0,0-1.18-.88,4.67,4.67,0,0,0,1.18-.87,5.08,5.08,0,0,0,.88-1.19,4.93,4.93,0,0,0,.87,1.18A4.69,4.69,0,0,0,10.83,23.18Z"/><path class="cls-1" d="M13.38,10.41a5.11,5.11,0,0,0-2.06,2.06,4.93,4.93,0,0,0-.88-1.18,4.79,4.79,0,0,0-1.18-.88,4.93,4.93,0,0,0,1.18-.87,5.08,5.08,0,0,0,.88-1.19,4.95,4.95,0,0,0,2.06,2.06Z"/></g></g></g></svg>