<svg xmlns="http://www.w3.org/2000/svg" viewBox="0 0 49.64 48.77"><defs><style>.cls-1,.cls-4,.cls-8{fill:#a8c0e4;}.cls-1,.cls-2,.cls-3,.cls-4,.cls-5,.cls-6{stroke:#5b84c3;stroke-miterlimit:10;}.cls-1{stroke-width:0.75px;}.cls-2,.cls-5{fill:none;}.cls-3,.cls-7{fill:#e8ecf7;}.cls-5{stroke-linecap:round;}.cls-6{fill:#dbe8b5;}</style></defs><title>aboutA-icon-1</title><g id="Layer_2" data-name="Layer 2"><g id="Layer_1-2" data-name="Layer 1"><g id="aboutA-icon-1"><rect class="cls-1" x="0.5" y="0.5" width="48.64" height="38.59" rx="3.36"/><rect class="cls-2" x="0.5" y="0.5" width="48.64" height="38.59" rx="3.36"/><rect class="cls-3" x="2.91" y="2.81" width="43.81" height="33.96" rx="1.26"/><rect class="cls-4" x="22.41" y="39.09" width="4.82" height="5.23"/><path class="cls-4" d="M21.75,44.34h6.14a2.53,2.53,0,0,1,2.53,2.53v1.39a0,0,0,0,1,0,0H19.22a0,0,0,0,1,0,0V46.87A2.53,2.53,0,0,1,21.75,44.34Z"/><path class="cls-4" d="M5.57,29.78V4.29H8.7s1.81-.3,5.84,4.26S23.45,18,23.45,18s7.37-.37,7.37,8.35H5.57"/><path class="cls-3" d="M5.57,26.31H31a1.24,1.24,0,0,1,1.24,1.24v1A1.24,1.24,0,0,1,31,29.78H5.57a0,0,0,0,1,0,0V26.31A0,0,0,0,1,5.57,26.31Z"/><polygon class="cls-3" points="5.57 8 14.04 8 23.45 17.96 5.57 17.96 5.57 8"/><line class="cls-5" x1="23.45" y1="17.96" x2="29.61" y2="7.23"/><rect class="cls-6" x="25.17" y="19.15" width="5.29" height="2.96" rx="1.48"/><circle class="cls-4" cx="23.45" cy="29.78" r="5.73"/><circle class="cls-3" cx="23.45" cy="29.78" r="2.27"/><rect class="cls-7" x="24.82" y="39.59" width="1.91" height="4.23"/><path class="cls-8" d="M40.5,3.33a2.71,2.71,0,0,1,2,2.59V34s.1,2.25-2,2.25h5.19a.5.5,0,0,0,.52-.49v-32a.5.5,0,0,0-.52-.49Z"/><rect class="cls-3" x="36.68" y="27.51" width="7.62" height="7.62" rx="1.58"/><rect class="cls-4" x="36.68" y="21.51" width="7.62" height="3.22" rx="1.26"/><rect class="cls-4" x="36.68" y="15.23" width="7.62" height="3.22" rx="1.26"/><path class="cls-4" d="M23.26,7.46A5.44,5.44,0,0,0,22,8.39a5,5,0,0,0-.92,1.25,5,5,0,0,0-.93-1.25,5,5,0,0,0-1.25-.93,5.23,5.23,0,0,0,1.25-.92,5.06,5.06,0,0,0,.93-1.26A5,5,0,0,0,22,6.53,5.44,5.44,0,0,0,23.26,7.46Z"/><path class="cls-4" d="M39.71,7.46a5,5,0,0,0-1.25.93,5,5,0,0,0-.93,1.25,5.23,5.23,0,0,0-.92-1.25,5.17,5.17,0,0,0-1.25-.93,5.65,5.65,0,0,0,1.25-.92,5.06,5.06,0,0,0,.92-1.26,5.21,5.21,0,0,0,2.18,2.18Z"/><path class="cls-4" d="M34,13.7a5.23,5.23,0,0,0-1.25.93,5.44,5.44,0,0,0-.93,1.25,4.73,4.73,0,0,0-.92-1.25,5.44,5.44,0,0,0-1.25-.93,5.07,5.07,0,0,0,1.25-.92,5.17,5.17,0,0,0,.92-1.25,5.44,5.44,0,0,0,.93,1.25A5,5,0,0,0,34,13.7Z"/></g></g></g></svg>