<svg xmlns="http://www.w3.org/2000/svg" viewBox="0 0 99.25 82.93"><defs><style>.cls-1{fill:#a8c0e4;}.cls-1,.cls-2,.cls-3,.cls-4,.cls-5{stroke:#5b84c3;stroke-miterlimit:10;}.cls-1,.cls-2,.cls-3,.cls-4{stroke-width:1.5px;}.cls-2,.cls-5{fill:#e8ecf7;}.cls-3{fill:#dbe8b5;}.cls-4{fill:none;stroke-linecap:round;}</style></defs><title>aboutT-icon-5 (2)</title><g id="Layer_2" data-name="Layer 2"><g id="Layer_1-2" data-name="Layer 1"><g id="aboutT-icon-5"><path class="cls-1" d="M10.12,28a10.29,10.29,0,0,0-2.45,1.81,9.93,9.93,0,0,0-1.81,2.45,10.29,10.29,0,0,0-1.81-2.45A10.13,10.13,0,0,0,1.6,28a10,10,0,0,0,2.45-1.81,10.19,10.19,0,0,0,1.81-2.45,10.18,10.18,0,0,0,1.8,2.44A10.31,10.31,0,0,0,10.12,28Z"/><path class="cls-1" d="M83.05,65.4a10.29,10.29,0,0,0-2.45,1.81,10.4,10.4,0,0,0-1.81,2.45A10.21,10.21,0,0,0,77,67.21a10.46,10.46,0,0,0-2.45-1.81A9.76,9.76,0,0,0,77,63.59a10,10,0,0,0,1.81-2.44,10.38,10.38,0,0,0,1.8,2.44A10.23,10.23,0,0,0,83.05,65.4Z"/><path class="cls-1" d="M57.41,6.1A10.13,10.13,0,0,0,55,7.91a10.59,10.59,0,0,0-1.81,2.44,10.1,10.1,0,0,0-1.8-2.44A10.33,10.33,0,0,0,48.9,6.1a10.7,10.7,0,0,0,2.45-1.81,10.4,10.4,0,0,0,1.8-2.45A10.47,10.47,0,0,0,55,4.28,10.1,10.1,0,0,0,57.41,6.1Z"/><path class="cls-1" d="M69.63,31.23s-5.07-5.05-9.26-9.79S54.29,17,54.29,17H28.42a8.17,8.17,0,0,0-7.76,5.6l-2.59,7.83a5.23,5.23,0,0,0-.26,1.62v7.85H77.3C77.3,30.85,69.63,31.23,69.63,31.23Z"/><path class="cls-2" d="M52,20.87h7.82l9.78,10.36H52a1,1,0,0,1-1-1V21.87A1,1,0,0,1,52,20.87Z"/><rect class="cls-3" x="71.42" y="32.46" width="5.51" height="3.07" rx="1.54"/><path class="cls-2" d="M77,39.91H17.05a1.81,1.81,0,1,0,0,3.61H77a1.81,1.81,0,1,0,0-3.61Z"/><circle class="cls-1" cx="69.63" cy="43.52" r="5.96"/><circle class="cls-3" cx="69.63" cy="43.52" r="2.37"/><circle class="cls-1" cx="25.58" cy="43.52" r="5.96"/><circle class="cls-3" cx="25.58" cy="43.52" r="2.37"/><path class="cls-2" d="M45.4,21.59v8.92a.72.72,0,0,1-.72.72H24.87a1.65,1.65,0,0,1-1.17-.48h0a1.67,1.67,0,0,1-.41-1.66l2.27-7.3a1.31,1.31,0,0,1,1.26-.92H44.68A.72.72,0,0,1,45.4,21.59Z"/><path class="cls-3" d="M16.56,33.8h2a.5.5,0,0,1,.5.5v1.49a.5.5,0,0,1-.5.5h-2a0,0,0,0,1,0,0V33.8a0,0,0,0,1,0,0Z"/><rect class="cls-2" x="20.92" y="33.8" width="2.49" height="2.49" rx="0.37"/><rect class="cls-1" x="77.21" y="11.86" width="15.32" height="4.67" transform="translate(34.9 -55.85) rotate(45)"/><path class="cls-1" d="M81.23,3.14a5.34,5.34,0,0,0-6.74-1.88L77.7,4.47a.5.5,0,0,1,0,.68L75.83,7a.51.51,0,0,1-.69,0l-3.2-3.21a5.34,5.34,0,1,0,9.29-.68Z"/><path class="cls-1" d="M92.22,23.42l1.87-1.87a.48.48,0,0,1,.68,0L98,24.76a5.35,5.35,0,1,0-2.55,2.55L92.22,24.1A.48.48,0,0,1,92.22,23.42Z"/><rect class="cls-2" x="7.47" y="50.13" width="79.09" height="6.63" rx="1.33"/><rect class="cls-1" x="34.31" y="56.77" width="25.41" height="25.41" rx="2.54"/><line class="cls-4" x1="93.02" y1="82.18" x2="1.02" y2="82.18"/><line class="cls-4" x1="69.63" y1="31.23" x2="75.59" y2="18.48"/><rect class="cls-5" x="64.33" y="78.5" width="9.38" height="3.68" rx="0.2"/><polyline class="cls-5" points="65.17 78.5 67.02 80.35 65.18 82.19"/><polyline class="cls-5" points="68.03 78.5 69.88 80.35 68.04 82.19"/><polyline class="cls-5" points="70.69 78.5 72.53 80.35 70.69 82.19"/><rect class="cls-5" x="64.33" y="71.13" width="9.38" height="3.68" rx="0.19"/><polyline class="cls-5" points="65.17 71.13 67.02 72.98 65.18 74.82"/><polyline class="cls-5" points="68.03 71.13 69.88 72.98 68.04 74.82"/><polyline class="cls-5" points="70.69 71.13 72.53 72.98 70.69 74.82"/><rect class="cls-5" x="64.33" y="74.82" width="9.38" height="3.68" rx="0.21" transform="translate(138.04 153.31) rotate(180)"/><polyline class="cls-5" points="72.87 74.82 71.03 76.66 72.86 78.5"/><polyline class="cls-5" points="70.01 74.82 68.16 76.66 70 78.5"/><polyline class="cls-5" points="67.36 74.82 65.51 76.66 67.35 78.5"/><rect class="cls-5" x="21.8" y="78.5" width="9.38" height="3.68" rx="0.19"/><polyline class="cls-5" points="22.64 78.5 24.49 80.35 22.65 82.19"/><polyline class="cls-5" points="25.51 78.5 27.35 80.35 25.52 82.19"/><polyline class="cls-5" points="28.16 78.5 30.01 80.35 28.17 82.19"/><rect class="cls-5" x="21.8" y="71.13" width="9.38" height="3.68" rx="0.21"/><polyline class="cls-5" points="22.64 71.13 24.49 72.98 22.65 74.82"/><polyline class="cls-5" points="25.51 71.13 27.35 72.98 25.52 74.82"/><polyline class="cls-5" points="28.16 71.13 30.01 72.98 28.17 74.82"/><rect class="cls-5" x="21.8" y="74.82" width="9.38" height="3.68" rx="0.2" transform="translate(52.99 153.31) rotate(180)"/><polyline class="cls-5" points="30.35 74.82 28.5 76.66 30.34 78.5"/><polyline class="cls-5" points="27.49 74.82 25.64 76.66 27.48 78.5"/><polyline class="cls-5" points="24.83 74.82 22.98 76.66 24.82 78.5"/><rect class="cls-5" x="5.86" y="78.5" width="9.38" height="3.68" rx="0.21"/><polyline class="cls-5" points="6.7 78.5 8.55 80.35 6.71 82.19"/><polyline class="cls-5" points="9.56 78.5 11.41 80.35 9.57 82.19"/><polyline class="cls-5" points="12.21 78.5 14.06 80.35 12.22 82.19"/><rect class="cls-5" x="5.86" y="71.13" width="9.38" height="3.68" rx="0.21"/><polyline class="cls-5" points="6.7 71.13 8.55 72.98 6.71 74.82"/><polyline class="cls-5" points="9.56 71.13 11.41 72.98 9.57 74.82"/><polyline class="cls-5" points="12.21 71.13 14.06 72.98 12.22 74.82"/><rect class="cls-5" x="5.86" y="67.44" width="9.38" height="3.68" rx="0.25"/><polyline class="cls-5" points="6.7 67.44 8.55 69.29 6.71 71.13"/><polyline class="cls-5" points="9.56 67.44 11.41 69.29 9.57 71.13"/><polyline class="cls-5" points="12.21 67.44 14.06 69.29 12.22 71.13"/><rect class="cls-5" x="5.86" y="74.82" width="9.38" height="3.68" rx="0.19" transform="translate(21.1 153.31) rotate(180)"/><polyline class="cls-5" points="14.4 74.82 12.55 76.66 14.39 78.5"/><polyline class="cls-5" points="11.54 74.82 9.69 76.66 11.53 78.5"/><polyline class="cls-5" points="8.89 74.82 7.04 76.66 8.88 78.5"/></g></g></g></svg>