<svg xmlns="http://www.w3.org/2000/svg" viewBox="0 0 98.87 71.07"><defs><style>.cls-1{fill:#a8c0e4;}.cls-1,.cls-2,.cls-3,.cls-4{stroke:#5b84c3;stroke-miterlimit:10;stroke-width:1.5px;}.cls-2{fill:#e8ecf7;}.cls-3,.cls-4{fill:none;}.cls-4{stroke-linecap:round;}</style></defs><title>aboutT-icon-6</title><g id="Layer_2" data-name="Layer 2"><g id="Layer_1-2" data-name="Layer 1"><g id="aboutT-icon-6"><path class="cls-1" d="M10,45.93a10.12,10.12,0,0,0-4.2,4.2A10,10,0,0,0,4,47.71,10.08,10.08,0,0,0,1.6,45.93,10.33,10.33,0,0,0,4,44.14,10,10,0,0,0,5.8,41.73a10.41,10.41,0,0,0,1.78,2.4A10.14,10.14,0,0,0,10,45.93Z"/><path class="cls-1" d="M96.76,6.94a10.16,10.16,0,0,0-2.42,1.78,10.36,10.36,0,0,0-1.78,2.42,10.12,10.12,0,0,0-4.2-4.2,10.31,10.31,0,0,0,2.41-1.79,10,10,0,0,0,1.79-2.41,10.14,10.14,0,0,0,1.78,2.41A10.33,10.33,0,0,0,96.76,6.94Z"/><path class="cls-1" d="M45.91,5.8A10.31,10.31,0,0,0,43.5,7.59,10,10,0,0,0,41.71,10a10.14,10.14,0,0,0-1.78-2.41A10.35,10.35,0,0,0,37.51,5.8,10.16,10.16,0,0,0,39.93,4,10.36,10.36,0,0,0,41.71,1.6,10,10,0,0,0,43.49,4,9.79,9.79,0,0,0,45.91,5.8Z"/><rect class="cls-1" x="13.48" y="14.31" width="73.72" height="53.93" rx="3.14"/><rect class="cls-2" x="16.13" y="16.78" width="68.42" height="51.46" rx="1.78"/><path class="cls-1" d="M2.56,62.84H98.12a0,0,0,0,1,0,0v4.5a3,3,0,0,1-3,3H5.54a3,3,0,0,1-3-3v-4.5a0,0,0,0,1,0,0Z"/><rect class="cls-1" x="45.4" y="62.84" width="9.88" height="2.38"/><rect class="cls-1" x="21.23" y="21.24" width="10.02" height="10.02" rx="1.78"/><rect class="cls-1" x="21.23" y="34.84" width="10.02" height="10.02" rx="1.78"/><rect class="cls-1" x="21.23" y="48.43" width="10.02" height="10.02" rx="1.78"/><polyline class="cls-3" points="23 26.25 25.34 28.6 29.49 24.45"/><polyline class="cls-3" points="23 39.58 25.34 41.92 29.49 37.77"/><polyline class="cls-3" points="23 53.17 25.34 55.52 29.49 51.37"/><line class="cls-4" x1="36.02" y1="26.52" x2="79.56" y2="26.52"/><line class="cls-4" x1="36.02" y1="39.85" x2="79.56" y2="39.85"/><line class="cls-4" x1="36.02" y1="53.44" x2="53" y2="53.44"/><circle class="cls-1" cx="68.82" cy="51.28" r="7.34"/><polyline class="cls-4" points="64.64 51.2 68 54.43 73.2 48.96"/></g></g></g></svg>