<svg xmlns="http://www.w3.org/2000/svg" viewBox="0 0 49.41 48.9"><defs><style>.cls-1,.cls-5{fill:#a8c0e4;}.cls-1,.cls-2,.cls-3,.cls-4,.cls-5{stroke:#5b84c3;stroke-miterlimit:10;}.cls-2,.cls-4{fill:none;}.cls-2{stroke-linecap:round;}.cls-3{fill:#e8ecf7;}.cls-5{stroke-width:0.75px;}</style></defs><title>aboutF-icon-3</title><g id="Layer_2" data-name="Layer 2"><g id="Layer_1-2" data-name="Layer 1"><g id="aboutF-icon-3"><path class="cls-1" d="M6.76,4a5.15,5.15,0,0,0-1.25.92,5.29,5.29,0,0,0-.92,1.24,5.13,5.13,0,0,0-.92-1.24A5.29,5.29,0,0,0,2.43,4a5.41,5.41,0,0,0,1.24-.92A5.17,5.17,0,0,0,4.59,1.8a5.43,5.43,0,0,0,.92,1.25A5.23,5.23,0,0,0,6.76,4Z"/><path class="cls-1" d="M26,3.23a5.43,5.43,0,0,0-1.25.92,5.17,5.17,0,0,0-.92,1.25,5.15,5.15,0,0,0-.92-1.25,5.59,5.59,0,0,0-1.24-.92,4.87,4.87,0,0,0,1.24-.92,4.9,4.9,0,0,0,.92-1.24,5.13,5.13,0,0,0,.92,1.24A4.73,4.73,0,0,0,26,3.23Z"/><path class="cls-1" d="M46,42.08a5.32,5.32,0,0,0-2.17,2.17A4.73,4.73,0,0,0,43,43a4.9,4.9,0,0,0-1.24-.92A5.41,5.41,0,0,0,43,41.16a5.17,5.17,0,0,0,.92-1.25,5.43,5.43,0,0,0,.92,1.25A5.65,5.65,0,0,0,46,42.08Z"/><path class="cls-1" d="M42.33.93H30.39a.72.72,0,0,0-.72.73V25.74a.73.73,0,0,0,.72.73H45.62a.73.73,0,0,0,.72-.73V4.94Z"/><line class="cls-2" x1="31.73" y1="6.35" x2="39.65" y2="6.35"/><line class="cls-2" x1="31.73" y1="13.94" x2="44.64" y2="13.94"/><line class="cls-2" x1="31.73" y1="18.19" x2="44.64" y2="18.19"/><line class="cls-2" x1="31.73" y1="10.42" x2="44.64" y2="10.42"/><line class="cls-2" x1="31.73" y1="22.12" x2="44.64" y2="22.12"/><path class="cls-3" d="M42.33,1.06V4.9a.06.06,0,0,0,.05.06h3.83a.06.06,0,0,0,0-.1L42.42,1A.05.05,0,0,0,42.33,1.06Z"/><path class="cls-1" d="M27.12,47.37H.5V33.82A3.82,3.82,0,0,1,4.31,30H8.58a2.31,2.31,0,0,0,2.31-2.31V25.21l5.84.18V27.7A2.3,2.3,0,0,0,19,30h4.27a3.82,3.82,0,0,1,3.81,3.81V47.37l10-13.74h-6l-4,5.36"/><path class="cls-1" d="M14,4.94A9.91,9.91,0,0,0,4,14.85v8.47a3.75,3.75,0,0,0,3.75,3.76H20.11a3.75,3.75,0,0,0,3.75-3.76V14.85A9.91,9.91,0,0,0,14,4.94Z"/><path class="cls-3" d="M7.41,17.45v2A6.58,6.58,0,0,0,14,26h0a6.59,6.59,0,0,0,6.58-6.58V12.19a1,1,0,0,0-1.38-.88L8,16.52A1,1,0,0,0,7.41,17.45Z"/><polyline class="cls-4" points="7.41 30.01 13.95 39.42 21.18 30.01"/><path class="cls-4" d="M5.29,36.79,4.38,39a6.34,6.34,0,0,0,.4,5.7l.51.86v1.85"/><path class="cls-4" d="M22.63,36.79l.9,2.17a6.31,6.31,0,0,1-.39,5.7l-.51.86v1.85"/><path class="cls-5" d="M31.09,33.63h0a4.42,4.42,0,0,1,4.42-4.43H42a4.44,4.44,0,0,1-4.43,4.43Z"/><circle class="cls-3" cx="40.51" cy="24.41" r="8.4"/><line class="cls-2" x1="40.51" y1="16.72" x2="40.51" y2="17.58"/><line class="cls-2" x1="48.2" y1="24.41" x2="47.34" y2="24.41"/><line class="cls-2" x1="40.51" y1="32.11" x2="40.51" y2="31.24"/><line class="cls-2" x1="32.81" y1="24.41" x2="33.68" y2="24.41"/><polyline class="cls-2" points="40.51 20.2 40.51 24.41 42.56 26.47"/></g></g></g></svg>