<svg xmlns="http://www.w3.org/2000/svg" viewBox="0 0 49.01 48.34"><defs><style>.cls-1{fill:#a8c0e4;}.cls-1,.cls-2,.cls-4{stroke:#5b84c3;}.cls-1,.cls-2,.cls-3,.cls-4{stroke-miterlimit:10;}.cls-2,.cls-3{fill:none;stroke-linecap:round;}.cls-3{stroke:#265387;stroke-width:0.5px;}.cls-4{fill:#e8ecf7;}.cls-5{fill:#5b84c3;}</style></defs><title>aboutF-icon-2</title><g id="Layer_2" data-name="Layer 2"><g id="Layer_1-2" data-name="Layer 1"><g id="aboutF-icon-2"><path class="cls-1" d="M5.31,18.44a5,5,0,0,0-1.22.9,4.92,4.92,0,0,0-.9,1.22,5.49,5.49,0,0,0-.9-1.22,5.66,5.66,0,0,0-1.22-.9,5.11,5.11,0,0,0,1.22-.9,5.19,5.19,0,0,0,.9-1.22,5.1,5.1,0,0,0,.89,1.22A5.21,5.21,0,0,0,5.31,18.44Z"/><path class="cls-1" d="M12,3.19a4.92,4.92,0,0,0-1.22.9,5.19,5.19,0,0,0-.9,1.22A4.74,4.74,0,0,0,9,4.09a4.92,4.92,0,0,0-1.22-.9A5.27,5.27,0,0,0,9,2.29a5.34,5.34,0,0,0,.9-1.22,5.47,5.47,0,0,0,.9,1.21A5.28,5.28,0,0,0,12,3.19Z"/><path class="cls-1" d="M46.31,3.19a4.74,4.74,0,0,0-1.22.9,4.92,4.92,0,0,0-.9,1.22,5,5,0,0,0-.9-1.22,4.92,4.92,0,0,0-1.22-.9,5.49,5.49,0,0,0,1.22-.9,5.66,5.66,0,0,0,.9-1.22,4.9,4.9,0,0,0,.9,1.21A5.08,5.08,0,0,0,46.31,3.19Z"/><circle class="cls-1" cx="27.87" cy="23.18" r="20.64"/><line class="cls-2" x1="27.87" y1="4.28" x2="27.87" y2="6.4"/><line class="cls-2" x1="36.9" y1="6.82" x2="35.84" y2="8.65"/><line class="cls-2" x1="43.82" y1="13.73" x2="41.98" y2="14.79"/><line class="cls-3" x1="35.24" y1="23.18" x2="33.12" y2="23.18"/><line class="cls-2" x1="43.82" y1="32.63" x2="41.98" y2="31.57"/><line class="cls-2" x1="36.9" y1="39.55" x2="35.84" y2="37.71"/><line class="cls-2" x1="27.87" y1="42.08" x2="27.87" y2="39.96"/><line class="cls-3" x1="18.42" y1="39.55" x2="19.48" y2="37.71"/><line class="cls-3" x1="11.5" y1="32.63" x2="13.34" y2="31.57"/><line class="cls-2" x1="8.97" y1="23.18" x2="11.09" y2="23.18"/><line class="cls-2" x1="43.82" y1="23.18" x2="45.94" y2="23.18"/><line class="cls-2" x1="11.5" y1="13.73" x2="13.34" y2="14.79"/><line class="cls-2" x1="18.42" y1="6.82" x2="19.48" y2="8.65"/><polyline class="cls-2" points="27.87 9.84 27.87 23.18 38.6 23.18"/><circle class="cls-4" cx="14.27" cy="36.78" r="11.06"/><path class="cls-5" d="M12,29.42a2.43,2.43,0,0,1,1.89.87,2.83,2.83,0,0,1,.62,2.09l-.06.76a3.35,3.35,0,0,1-1,2.15,2.85,2.85,0,0,1-2.12.79,2.42,2.42,0,0,1-1.9-.86,2.83,2.83,0,0,1-.64-2.08l.06-.63a3.42,3.42,0,0,1,1-2.26A2.9,2.9,0,0,1,12,29.42Zm-1.62,13.4-1-.71,8.64-11.06,1,.69Zm-.29-9.67a1.87,1.87,0,0,0,.29,1.27,1.14,1.14,0,0,0,1,.48,1.5,1.5,0,0,0,1.17-.47,2.22,2.22,0,0,0,.6-1.3l.09-.76A1.93,1.93,0,0,0,13,31.12a1.1,1.1,0,0,0-1-.52,1.51,1.51,0,0,0-1.18.48,2.17,2.17,0,0,0-.6,1.3Zm7.26,4.31a2.46,2.46,0,0,1,1.91.88,2.83,2.83,0,0,1,.62,2.08l-.06.65a3.44,3.44,0,0,1-1,2.25,2.89,2.89,0,0,1-2.15.82,2.47,2.47,0,0,1-1.9-.86,2.81,2.81,0,0,1-.64-2.1l.06-.67a3.42,3.42,0,0,1,1-2.21A2.92,2.92,0,0,1,17.39,37.46ZM15.48,41.2a2,2,0,0,0,.28,1.26,1.15,1.15,0,0,0,1,.5,1.52,1.52,0,0,0,1.17-.48,2.28,2.28,0,0,0,.6-1.3l.09-.78a1.92,1.92,0,0,0-.26-1.24,1.13,1.13,0,0,0-1-.52,1.56,1.56,0,0,0-1.19.48,2.28,2.28,0,0,0-.6,1.29Z"/></g></g></g></svg>