<svg xmlns="http://www.w3.org/2000/svg" viewBox="0 0 99.49 95.3"><defs><style>.cls-1,.cls-4{fill:#a8c0e4;}.cls-1,.cls-2,.cls-5,.cls-6{stroke:#5b84c3;stroke-miterlimit:10;}.cls-1,.cls-2,.cls-6{stroke-width:1.5px;}.cls-2{fill:#e8ecf7;}.cls-3{fill:#b4e2ea;}.cls-5,.cls-6{fill:none;stroke-linecap:round;}</style></defs><title>aboutF-icon-5</title><g id="Layer_2" data-name="Layer 2"><g id="Layer_1-2" data-name="Layer 1"><g id="aboutF-icon-5"><path class="cls-1" d="M82.72,14.68a10.52,10.52,0,0,0-4.36,4.37,10.21,10.21,0,0,0-1.85-2.51A10.49,10.49,0,0,0,74,14.68a10.42,10.42,0,0,0,4.36-4.36,10.66,10.66,0,0,0,1.85,2.5A10.41,10.41,0,0,0,82.72,14.68Z"/><path class="cls-1" d="M27.62,18.44a10.67,10.67,0,0,0-4.36,4.37,10,10,0,0,0-1.85-2.51,10.49,10.49,0,0,0-2.51-1.86,10.42,10.42,0,0,0,4.36-4.36,10.66,10.66,0,0,0,1.85,2.5A10.41,10.41,0,0,0,27.62,18.44Z"/><path class="cls-1" d="M14.17,6a10.69,10.69,0,0,0-2.51,1.86,10.4,10.4,0,0,0-1.85,2.5A10.57,10.57,0,0,0,5.45,6,10.32,10.32,0,0,0,8,4.11,10.77,10.77,0,0,0,9.81,1.6a10.3,10.3,0,0,0,1.84,2.5A10.43,10.43,0,0,0,14.17,6Z"/><rect class="cls-1" x="0.75" y="58.24" width="15.9" height="36.31" rx="1.1" transform="translate(17.4 152.79) rotate(-180)"/><path class="cls-2" d="M38.53,72.84l21.9,5.62a5.68,5.68,0,0,0,6.9-4.07h0a5.67,5.67,0,0,0-3.94-6.88L41.07,61.15a14.49,14.49,0,0,0-4-.56h-6.3a14.56,14.56,0,0,0-7.65,2.17l-6.49,4V90.43L25.92,94a8.24,8.24,0,0,0,2.94.55H55.78A8.17,8.17,0,0,0,60,93.39L95.77,72a6.11,6.11,0,0,0,2.14-8.31h0a6.1,6.1,0,0,0-8.22-2.24L67.58,73.74"/><path class="cls-1" d="M66.3,47.22v10.1a1,1,0,0,1-1,1.17H60.16a1.05,1.05,0,0,1-.91-1v-9.6Z"/><path class="cls-3" d="M31.05,47.22v10.1a1,1,0,0,0,1,1.17h5.1a1.05,1.05,0,0,0,.91-1v-9.6Z"/><path class="cls-4" d="M64,36.28h0L62.11,23.71s-.14-.9-1.46-.9H36.55c-1.32,0-1.46.9-1.46.9L33.18,36.28h0s-3.05.07-3.05,2.8v6.28s.92,2.36,2.39,2.36H64.68c1.47,0,2.39-2.36,2.39-2.36V39.08C67.07,36.35,64,36.28,64,36.28Z"/><path class="cls-5" d="M33.27,36l1.81-12.13a1.25,1.25,0,0,1,1.24-1.07H48.6"/><line class="cls-5" x1="38.77" y1="20.48" x2="38.77" y2="22.81"/><path class="cls-5" d="M31.34,28.42v3.46a.88.88,0,0,0,.88.88h1.53"/><line class="cls-6" x1="35.24" y1="32.76" x2="48.6" y2="32.76"/><line class="cls-6" x1="46.12" y1="35.13" x2="46.12" y2="41.18"/><line class="cls-6" x1="48.6" y1="35.13" x2="48.6" y2="41.18"/><path class="cls-1" d="M31.05,47.2V57.49a1,1,0,0,0,1,1h5a1,1,0,0,0,1-1V48"/><line class="cls-5" x1="39.42" y1="51.46" x2="48.66" y2="51.46"/><path class="cls-5" d="M64,36.17,62.18,23.88a1.25,1.25,0,0,0-1.24-1.07H48.66"/><line class="cls-5" x1="58.49" y1="20.48" x2="58.49" y2="22.81"/><path class="cls-5" d="M65.91,28.42v3.46a.87.87,0,0,1-.88.88H63.5"/><line class="cls-6" x1="62.02" y1="32.76" x2="48.47" y2="32.76"/><line class="cls-6" x1="51.14" y1="35.13" x2="51.14" y2="41.18"/><line class="cls-5" x1="57.84" y1="51.46" x2="48.6" y2="51.46"/><circle class="cls-2" cx="41.53" cy="38.26" r="2.18"/><circle class="cls-2" cx="55.72" cy="38.26" r="2.18"/><path class="cls-5" d="M37.43,41.32l-.86-2.55a3,3,0,0,0-1.14-1.49l-.58-.4a3,3,0,0,0-1.66-.51h0a3,3,0,0,0-2.28,1.07h0a3,3,0,0,0-.67,1.88v5.76a2.91,2.91,0,0,0,.6,1.77h0A2.93,2.93,0,0,0,33.14,48H48.62"/><path class="cls-5" d="M59.83,41.32l.86-2.55a2.86,2.86,0,0,1,1.14-1.49l.58-.4a2.92,2.92,0,0,1,1.65-.51h.06a3,3,0,0,1,2.27,1.07h0a2.93,2.93,0,0,1,.68,1.88v5.76a2.91,2.91,0,0,1-.6,1.77h0A3,3,0,0,1,64.12,48H48.64"/><circle class="cls-2" cx="49.81" cy="14.68" r="13.63"/><polyline class="cls-6" points="42.29 14.88 47.63 20.22 57.82 10.03"/></g></g></g></svg>