<svg xmlns="http://www.w3.org/2000/svg" viewBox="0 0 49.42 49.55"><defs><style>.cls-1,.cls-2{fill:#a8c0e4;}.cls-1,.cls-2,.cls-3{stroke:#5b84c3;stroke-miterlimit:10;}.cls-2{stroke-linecap:round;}.cls-3{fill:#e8ecf7;}</style></defs><title>aboutT-icon-3</title><g id="Layer_2" data-name="Layer 2"><g id="Layer_1-2" data-name="Layer 1"><g id="aboutT-icon-3"><path class="cls-1" d="M5.68,31.86a5.51,5.51,0,0,0-2.31,2.31,5.47,5.47,0,0,0-1-1.33,5.62,5.62,0,0,0-1.32-1,5.45,5.45,0,0,0,1.32-1,5.35,5.35,0,0,0,1-1.32,5.74,5.74,0,0,0,1,1.32A5.29,5.29,0,0,0,5.68,31.86Z"/><path class="cls-1" d="M7.22,4.28a5.45,5.45,0,0,0-1.32,1,5.35,5.35,0,0,0-1,1.32,5.74,5.74,0,0,0-1-1.32,5.44,5.44,0,0,0-1.33-1,5.76,5.76,0,0,0,1.33-1A5.71,5.71,0,0,0,4.92,2a5.45,5.45,0,0,0,1,1.32A5.76,5.76,0,0,0,7.22,4.28Z"/><path class="cls-1" d="M48.35,5A5.51,5.51,0,0,0,46,7.34a5.22,5.22,0,0,0-1-1.33,5.62,5.62,0,0,0-1.32-1,5.45,5.45,0,0,0,1.32-1,5.35,5.35,0,0,0,1-1.32,5.74,5.74,0,0,0,1,1.32A5.29,5.29,0,0,0,48.35,5Z"/><circle class="cls-1" cx="24.26" cy="19.84" r="19.34"/><line class="cls-2" x1="24.26" y1="2.13" x2="24.26" y2="4.12"/><line class="cls-2" x1="32.72" y1="4.5" x2="31.73" y2="6.22"/><line class="cls-2" x1="39.2" y1="10.99" x2="37.48" y2="11.98"/><line class="cls-1" x1="31.16" y1="19.84" x2="29.18" y2="19.84"/><line class="cls-2" x1="39.2" y1="28.69" x2="37.48" y2="27.7"/><line class="cls-2" x1="32.72" y1="35.17" x2="31.73" y2="33.45"/><line class="cls-2" x1="24.26" y1="37.54" x2="24.26" y2="35.56"/><line class="cls-2" x1="15.4" y1="35.17" x2="16.4" y2="33.45"/><line class="cls-2" x1="8.92" y1="28.69" x2="10.64" y2="27.7"/><line class="cls-2" x1="6.55" y1="19.84" x2="8.54" y2="19.84"/><line class="cls-2" x1="39.2" y1="19.84" x2="41.18" y2="19.84"/><line class="cls-2" x1="8.92" y1="10.99" x2="10.64" y2="11.98"/><line class="cls-2" x1="15.4" y1="4.5" x2="16.4" y2="6.22"/><polyline class="cls-2" points="24.26 7.34 24.26 19.84 34.31 19.84"/><path class="cls-1" d="M41.59,26.8h-1.1A3.28,3.28,0,0,0,38.14,29h-.08s-1.93-8.1-5.41-8.85a49.82,49.82,0,0,0-8.39-.77,49.9,49.9,0,0,0-8.4.77c-3.48.75-5.41,8.85-5.41,8.85h-.07A3.3,3.3,0,0,0,8,26.8H6.92a1,1,0,0,0-1,.93v1.7c0,.88,1,1,1,1h3c.23,0,.14.09.14.09a8,8,0,0,0-2.92,6.68c.1,7.46,1.73,8.19,2.12,8.25s.38.34.38.34v2.1a1.17,1.17,0,0,0,.95,1.2H13.4a1.19,1.19,0,0,0,1.2-1.2V46.18a82.08,82.08,0,0,0,9.66.3,81.88,81.88,0,0,0,9.65-.3v1.67a1.19,1.19,0,0,0,1.2,1.2h2.73a1.17,1.17,0,0,0,.95-1.2v-2.1s0-.29.38-.34,2-.79,2.12-8.25a8,8,0,0,0-2.92-6.68s-.09-.09.14-.09h3s1-.08,1-1v-1.7A1,1,0,0,0,41.59,26.8Z"/><path class="cls-3" d="M33.52,23c-1-1.4-4.31-1.36-9.07-1.58h-.39c-4.76.22-8,.18-9.06,1.58s-2.57,6.57-2.57,6.57c5.59-.57,11.83-.5,11.83-.5s6.23-.07,11.82.5C36.08,29.56,34.56,24.42,33.52,23Z"/><circle class="cls-3" cx="13.19" cy="36.78" r="2.6"/><circle class="cls-3" cx="35.93" cy="36.78" r="2.6"/><rect class="cls-3" x="20.69" y="40.26" width="7.13" height="2.28" rx="0.38"/></g></g></g></svg>