<svg xmlns="http://www.w3.org/2000/svg" viewBox="0 0 99.65 90.75"><defs><style>.cls-1{fill:#a8c0e4;}.cls-1,.cls-2,.cls-3{stroke:#5b84c3;stroke-width:1.5px;}.cls-1,.cls-2,.cls-3,.cls-4{stroke-miterlimit:10;}.cls-2,.cls-4{fill:none;stroke-linecap:round;}.cls-3,.cls-6{fill:#e8ecf7;}.cls-4{stroke:#fff;}.cls-5{fill:#fff;}</style></defs><title>aboutF-icon-6</title><g id="Layer_2" data-name="Layer 2"><g id="Layer_1-2" data-name="Layer 1"><g id="aboutF-icon-6"><path class="cls-1" d="M18.09,19.88a10.57,10.57,0,0,0-4.36,4.36,10.11,10.11,0,0,0-1.85-2.5,10.4,10.4,0,0,0-2.5-1.86A10.11,10.11,0,0,0,11.88,18a10.14,10.14,0,0,0,1.85-2.5A10.87,10.87,0,0,0,15.58,18,10.14,10.14,0,0,0,18.09,19.88Z"/><path class="cls-1" d="M95.19,15.53a10.6,10.6,0,0,0-2.51,1.85,10.9,10.9,0,0,0-1.85,2.5A10.11,10.11,0,0,0,89,17.38a10.34,10.34,0,0,0-2.5-1.85A10.66,10.66,0,0,0,89,13.68a10.23,10.23,0,0,0,1.85-2.51,10.66,10.66,0,0,0,1.85,2.5A10.29,10.29,0,0,0,95.19,15.53Z"/><path class="cls-1" d="M57.67,6a10.11,10.11,0,0,0-2.5,1.85,10.34,10.34,0,0,0-1.85,2.5,10.66,10.66,0,0,0-1.85-2.5A10.43,10.43,0,0,0,49,6a10.89,10.89,0,0,0,2.51-1.85A11,11,0,0,0,53.32,1.6a10.3,10.3,0,0,0,1.84,2.5A10.69,10.69,0,0,0,57.67,6Z"/><rect class="cls-1" x="0.75" y="30.63" width="98.15" height="59.37" rx="4.6"/><path class="cls-1" d="M37.71,18.45H66.76a1.77,1.77,0,0,1,1.77,1.77v58.6a1.77,1.77,0,0,1-1.77,1.77h-37A1.77,1.77,0,0,1,28,78.82V28.22Z"/><line class="cls-2" x1="63.51" y1="31.65" x2="44.25" y2="31.65"/><line class="cls-2" x1="63.51" y1="43.51" x2="32.1" y2="43.51"/><line class="cls-2" x1="63.51" y1="49.52" x2="32.1" y2="49.52"/><line class="cls-2" x1="63.51" y1="37.58" x2="32.1" y2="37.58"/><line class="cls-2" x1="63.51" y1="55.69" x2="32.1" y2="55.69"/><path class="cls-3" d="M78.52,64.44,80,56H76.64l1.45,8.45A.22.22,0,0,0,78.52,64.44Z"/><path class="cls-3" d="M81.14,28.52V18a.65.65,0,0,0-.65-.65H76.12a.65.65,0,0,0-.65.65v10.5Z"/><path class="cls-3" d="M75.47,30.36v25a.65.65,0,0,0,.65.65h4.37a.65.65,0,0,0,.65-.65v-25Z"/><path class="cls-3" d="M37.71,18.76v9.36a.13.13,0,0,1-.13.13H28.26a.14.14,0,0,1-.09-.23l9.32-9.35A.13.13,0,0,1,37.71,18.76Z"/><rect class="cls-1" x="66.73" y="43.51" width="23.15" height="37.08" rx="1.12"/><path class="cls-1" d="M66.73,69H78.31a0,0,0,0,1,0,0V79.48a1.12,1.12,0,0,1-1.12,1.12H67.84a1.12,1.12,0,0,1-1.12-1.12V69A0,0,0,0,1,66.73,69Z"/><path class="cls-1" d="M78.31,69H89.88a0,0,0,0,1,0,0V79.48a1.12,1.12,0,0,1-1.12,1.12H79.42a1.12,1.12,0,0,1-1.12-1.12V69A0,0,0,0,1,78.31,69Z"/><rect class="cls-1" x="66.73" y="57.44" width="11.58" height="11.58"/><rect class="cls-1" x="78.31" y="57.44" width="11.58" height="11.58"/><line class="cls-4" x1="72.52" y1="66.89" x2="72.52" y2="59.56"/><line class="cls-4" x1="68.85" y1="63.23" x2="76.18" y2="63.23"/><line class="cls-4" x1="75.11" y1="77.39" x2="69.93" y2="72.21"/><line class="cls-4" x1="69.92" y1="77.39" x2="75.11" y2="72.21"/><line class="cls-4" x1="80.43" y1="63.23" x2="87.76" y2="63.23"/><line class="cls-4" x1="80.43" y1="74.8" x2="87.76" y2="74.8"/><circle class="cls-5" cx="84.09" cy="72.29" r="1.09"/><circle class="cls-5" cx="84.09" cy="77.51" r="1.09"/><rect class="cls-3" x="69.12" y="47.03" width="18.38" height="7.21"/><circle class="cls-1" cx="46.38" cy="64.56" r="6.94"/><path class="cls-3" d="M29.27,76.46l-1.92-7-2.63,1.23,4.16,6A.22.22,0,0,0,29.27,76.46Z"/><path class="cls-3" d="M18.17,47.34l-3.86-8.28a.56.56,0,0,0-.75-.27l-3.44,1.6a.56.56,0,0,0-.28.75l3.86,8.28Z"/><path class="cls-3" d="M14.38,50.87l9.18,19.69a.56.56,0,0,0,.75.28l3.45-1.61a.57.57,0,0,0,.27-.75l-9.18-19.7Z"/><rect class="cls-3" x="35.05" y="76.52" width="10.85" height="3.06" rx="0.14"/><rect class="cls-3" x="36" y="73.27" width="10.85" height="3.06" rx="0.14"/><rect class="cls-3" x="33.76" y="70.21" width="10.85" height="3.06" rx="0.14"/><path class="cls-6" d="M47.58,66.63a1.05,1.05,0,0,0-.27-.76,2.36,2.36,0,0,0-.9-.53,10,10,0,0,1-1.1-.48,3.4,3.4,0,0,1-.8-.54A2.25,2.25,0,0,1,44,63.6a2.33,2.33,0,0,1-.19-1A2.18,2.18,0,0,1,44.45,61a2.67,2.67,0,0,1,1.68-.74V59h.93v1.27a2.45,2.45,0,0,1,1.63.87A2.82,2.82,0,0,1,49.27,63H47.58a1.67,1.67,0,0,0-.29-1.06,1,1,0,0,0-.78-.34,1,1,0,0,0-.74.27,1.19,1.19,0,0,0,0,1.47,3,3,0,0,0,1,.55,8.55,8.55,0,0,1,1.15.53,3,3,0,0,1,.76.56,2.23,2.23,0,0,1,.48.71,2.47,2.47,0,0,1,.16.94,2.19,2.19,0,0,1-.62,1.62,2.75,2.75,0,0,1-1.71.73v1.16H46V69a2.8,2.8,0,0,1-1.86-.85,2.73,2.73,0,0,1-.66-1.92h1.69a1.57,1.57,0,0,0,.33,1.07,1.26,1.26,0,0,0,1,.37,1.17,1.17,0,0,0,.81-.27A1,1,0,0,0,47.58,66.63Z"/></g></g></g></svg>