<svg xmlns="http://www.w3.org/2000/svg" viewBox="0 0 49.03 49.9"><defs><style>.cls-1{fill:#a8c0e4;}.cls-1,.cls-2{stroke:#5b84c3;stroke-miterlimit:10;}.cls-2{fill:#e8ecf7;}</style></defs><title>aboutF-icon-1</title><g id="Layer_2" data-name="Layer 2"><g id="Layer_1-2" data-name="Layer 1"><g id="aboutF-icon-1"><path class="cls-1" d="M9.23,21.7A5.17,5.17,0,0,0,8,22.62,5.54,5.54,0,0,0,7,23.88a5.25,5.25,0,0,0-.93-1.26,5.17,5.17,0,0,0-1.25-.92,5.44,5.44,0,0,0,1.25-.93A5.26,5.26,0,0,0,7,19.51,5,5,0,0,0,8,20.76,5.34,5.34,0,0,0,9.23,21.7Z"/><path class="cls-1" d="M19.7,32.1a5.17,5.17,0,0,0-1.26.92,5.54,5.54,0,0,0-.93,1.26A5.17,5.17,0,0,0,16.59,33a5.26,5.26,0,0,0-1.26-.92,5.16,5.16,0,0,0,2.18-2.19,5,5,0,0,0,.93,1.25A5.34,5.34,0,0,0,19.7,32.1Z"/><path class="cls-1" d="M11.41,30.57a5.44,5.44,0,0,0-1.25.93,5.17,5.17,0,0,0-.93,1.25A5.44,5.44,0,0,0,8.3,31.5,5.06,5.06,0,0,0,7,30.57a5.25,5.25,0,0,0,1.26-.93,5.32,5.32,0,0,0,.93-1.26,5.16,5.16,0,0,0,2.18,2.19Z"/><rect class="cls-1" x="0.5" y="0.5" width="6.54" height="16.65" rx="1.1"/><path class="cls-2" d="M15.33,16.75V11.13H33.41l-.21-4L29.82,3.54a9.09,9.09,0,0,0-3.21-2.19l-.43-.18A9.19,9.19,0,0,0,22.75.5H14.86A6.64,6.64,0,0,0,12.37,1l-1.57.63a6.61,6.61,0,0,1-2.49.48H7v12.8H9.5a10.76,10.76,0,0,0,2.68,1.31,11.06,11.06,0,0,0,3.15.55"/><path class="cls-1" d="M15.33,11.37V26.24a.85.85,0,0,0,.86.86H47.67a.86.86,0,0,0,.86-.86V8.16a.87.87,0,0,0-.86-.86H24.54"/><path class="cls-2" d="M45.05,14.67a3.91,3.91,0,0,1-3.92-3.91v-.2a.16.16,0,0,0-.16-.15H23a.15.15,0,0,0-.15.15v.2a3.92,3.92,0,0,1-3.92,3.91h0a.15.15,0,0,0-.15.16v4.81a.15.15,0,0,0,.15.16h0a3.92,3.92,0,0,1,3.92,3.92h0a.16.16,0,0,0,.15.16H41a.16.16,0,0,0,.16-.16h0a3.91,3.91,0,0,1,3.92-3.92h0a.16.16,0,0,0,.15-.16V14.83a.16.16,0,0,0-.15-.16Z"/><path class="cls-2" d="M22.06,5l5.85,5.85a2.33,2.33,0,0,1,0,3.31h0a2.34,2.34,0,0,1-3.32,0L20.21,9.78a5,5,0,0,1-3.37,1.53,5.12,5.12,0,0,1-3.78-1.53"/><circle class="cls-1" cx="31.97" cy="17.2" r="3.41"/><rect class="cls-1" x="40.74" y="31.6" width="7.79" height="17.8" rx="1.1"/><path class="cls-2" d="M30,38.76,19.28,41.51a2.78,2.78,0,0,1-3.38-2h0a2.79,2.79,0,0,1,1.93-3.38L28.77,33a7.13,7.13,0,0,1,1.95-.28h3.09a7.07,7.07,0,0,1,3.74,1.07l3.19,2V47.38l-4.55,1.75a4,4,0,0,1-1.44.27H21.56a4,4,0,0,1-2.06-.57L2,38.35a3,3,0,0,1-1-4.07h0a3,3,0,0,1,4-1.1l10.85,6"/></g></g></g></svg>