<svg xmlns="http://www.w3.org/2000/svg" viewBox="0 0 98.6 97.21"><defs><style>.cls-1{fill:#a8c0e4;}.cls-1,.cls-2,.cls-3{stroke:#5b84c3;stroke-miterlimit:10;stroke-width:1.5px;}.cls-2{fill:#e8ecf7;}.cls-3{fill:none;stroke-linecap:round;}.cls-4{fill:#fff;}</style></defs><title>aboutT-icon-7</title><g id="Layer_2" data-name="Layer 2"><g id="Layer_1-2" data-name="Layer 1"><g id="aboutT-icon-7"><path class="cls-1" d="M97,38.14A10.17,10.17,0,0,0,94.52,40a10.44,10.44,0,0,0-1.83,2.48A10.25,10.25,0,0,0,90.86,40a10.44,10.44,0,0,0-2.48-1.83,10.33,10.33,0,0,0,4.31-4.31A10.33,10.33,0,0,0,97,38.14Z"/><path class="cls-1" d="M43.93,12.35a10.74,10.74,0,0,0-2.48,1.84,10.35,10.35,0,0,0-1.83,2.47,10.49,10.49,0,0,0-4.31-4.31,10,10,0,0,0,2.48-1.83,10.35,10.35,0,0,0,1.83-2.47,10.42,10.42,0,0,0,1.83,2.47A10.17,10.17,0,0,0,43.93,12.35Z"/><path class="cls-1" d="M10.49,28.05A10.65,10.65,0,0,0,8,29.88a10.44,10.44,0,0,0-1.83,2.48,10.36,10.36,0,0,0-1.83-2.48,10.44,10.44,0,0,0-2.48-1.83,10,10,0,0,0,2.48-1.83,10.44,10.44,0,0,0,1.83-2.48,10.49,10.49,0,0,0,4.31,4.31Z"/><path class="cls-1" d="M48,19.67s-12.7.06-21.69,2-14,22.86-14,22.86h-.2A8.55,8.55,0,0,0,6.09,39H3.24A2.51,2.51,0,0,0,.75,41.39v4.4c0,2.27,2.65,2.48,2.65,2.48h7.79c.59,0,.36.23.36.23C2.69,56.15,4,65.76,4,65.76,4.27,85,8.48,86.91,9.49,87.05s1,.89,1,.89v5.43a3,3,0,0,0,2.44,3.09H20a3.06,3.06,0,0,0,3.08-3.09V89.05c7.4,1.15,24.94.77,24.94.77Z"/><circle class="cls-2" cx="19.43" cy="64.78" r="6.72"/><path class="cls-2" d="M48,25.08H47.5c-12.28.57-20.74.45-23.4,4.08s-6.64,17-6.64,17C31.91,44.64,48,44.83,48,44.83Z"/><path class="cls-2" d="M48,73.75H39.62a.81.81,0,0,0-.81.81v4.28a.81.81,0,0,0,.81.81H48Z"/><path class="cls-1" d="M65.36,1.37a1.64,1.64,0,0,0-2.57,0L48,19.67V94.31H80.14V19.67Zm-1.28,16a4.59,4.59,0,1,1,4.59-4.59A4.58,4.58,0,0,1,64.08,17.38Z"/><path class="cls-3" d="M64.08,12.79S26.12-6.82,32.74,19"/><path class="cls-4" d="M71.83,69.86a5.36,5.36,0,0,0-1.66-4A14.76,14.76,0,0,0,64.59,63q-5.48-1.66-8-4.35a9.59,9.59,0,0,1-2.5-6.82,9.9,9.9,0,0,1,2.45-6.91,10.5,10.5,0,0,1,6.74-3.21V36h3.83v5.65a9.88,9.88,0,0,1,6.71,3.62q2.4,3,2.4,8.29H71.52a9,9,0,0,0-1.72-5.77,5.68,5.68,0,0,0-4.65-2.14,6.38,6.38,0,0,0-4.67,1.59,5.87,5.87,0,0,0-1.62,4.41,5.38,5.38,0,0,0,1.71,4.18,15.62,15.62,0,0,0,5.62,2.83,23.6,23.6,0,0,1,6.11,2.8,9.9,9.9,0,0,1,3.24,3.56,10.3,10.3,0,0,1,1,4.75,9.5,9.5,0,0,1-2.61,7,11.54,11.54,0,0,1-7.3,3.13v4.91H62.86V79.92a11.06,11.06,0,0,1-7.48-3.4,11.47,11.47,0,0,1-2.71-8h4.75A7.58,7.58,0,0,0,59.3,74a7.08,7.08,0,0,0,5.31,1.92,8,8,0,0,0,5.29-1.62A5.47,5.47,0,0,0,71.83,69.86Z"/></g></g></g></svg>