<svg xmlns="http://www.w3.org/2000/svg" viewBox="0 0 47.4 48.28"><defs><style>.cls-1,.cls-2,.cls-6{fill:#a8c0e4;}.cls-1,.cls-2,.cls-3{stroke:#5b84c3;stroke-miterlimit:10;}.cls-1{stroke-width:0.75px;}.cls-3,.cls-4{fill:#e8ecf7;}.cls-5{fill:#5b84c3;}</style></defs><title>aboutW-icon-3</title><g id="Layer_2" data-name="Layer 2"><g id="Layer_1-2" data-name="Layer 1"><g id="aboutW-icon-3"><rect class="cls-1" x="21.8" y="16.53" width="4.45" height="13.91"/><rect class="cls-1" x="5.37" y="0.38" width="37.3" height="16.74" rx="1.19"/><path class="cls-2" d="M7,26.79l9-7.45a.68.68,0,0,1,1,.09L20,23.14,9.91,31.55l-3-3.81A.69.69,0,0,1,7,26.79Z"/><path class="cls-3" d="M20,23.14a3.83,3.83,0,0,1,3.09,1.39L33.28,36.76a1.78,1.78,0,0,1-.23,2.5l-.06.05a1.78,1.78,0,0,1-2.5-.23l-2.68-3.22L30.46,39a1.79,1.79,0,0,1-.23,2.5l-.11.09a1.79,1.79,0,0,1-2.5-.23l-2.76-3.33,2.77,3.34a1.76,1.76,0,0,1-.22,2.49h0a1.79,1.79,0,0,1-2.51-.22L21.8,40l3.1,3.72a1.77,1.77,0,0,1-.25,2.51l-.17.14A1.77,1.77,0,0,1,22,46.07L9.91,31.55Z"/><rect class="cls-2" x="13.19" y="34.46" width="3.18" height="6.61" rx="1.59" transform="translate(34.36 2.26) rotate(50.24)"/><rect class="cls-2" x="15.22" y="36.91" width="3.18" height="6.61" rx="1.59" transform="translate(36.97 1.58) rotate(50.24)"/><rect class="cls-2" x="17.25" y="39.35" width="3.18" height="6.61" rx="1.59" transform="translate(39.58 0.89) rotate(50.24)"/><rect class="cls-2" x="19.28" y="41.79" width="3.18" height="6.61" rx="1.59" transform="translate(42.19 0.21) rotate(50.24)"/><path class="cls-3" d="M30.34,21.64l-1.15.84a3.78,3.78,0,0,1-1.92.71l-1.51.12a3.73,3.73,0,0,0-2.1.85l-3.48,2.89a2.09,2.09,0,1,0,2.68,3.21l2.93-2.44,6.63,7.91L38.12,31Z"/><path class="cls-2" d="M30.34,21.64l3.75-3.13a.64.64,0,0,1,.9.09L42,27a.64.64,0,0,1-.08.9L38.12,31Z"/><path class="cls-2" d="M5.19,36.22A5.24,5.24,0,0,0,4,37.1a5.06,5.06,0,0,0-.87,1.18,4.93,4.93,0,0,0-.88-1.18,4.79,4.79,0,0,0-1.18-.88,4.93,4.93,0,0,0,1.18-.87,5.08,5.08,0,0,0,.88-1.19A4.93,4.93,0,0,0,4,35.34,4.77,4.77,0,0,0,5.19,36.22Z"/><path class="cls-2" d="M46.33,20.47a5.15,5.15,0,0,0-1.19.87,5.39,5.39,0,0,0-.87,1.19,5,5,0,0,0-.88-1.19,5.06,5.06,0,0,0-1.18-.87,5.11,5.11,0,0,0,2.06-2.06,4.93,4.93,0,0,0,.87,1.18A5.24,5.24,0,0,0,46.33,20.47Z"/><path class="cls-2" d="M42.08,40.37A5.11,5.11,0,0,0,40,42.43,5.11,5.11,0,0,0,38,40.37a4.93,4.93,0,0,0,1.18-.87A5.08,5.08,0,0,0,40,38.31a4.95,4.95,0,0,0,2.06,2.06Z"/><path class="cls-4" d="M30.9,4.61l-2.31,2.8L30,7.73a1.48,1.48,0,0,1,2.8.69h0a1.48,1.48,0,0,1-2.8.68H28.33l2.57,3.13H41.27V4.61H30.9Z"/><path class="cls-5" d="M30.78,12.7a.45.45,0,0,1-.19-.11L28,9.42a.48.48,0,0,1-.06-.49.47.47,0,0,1,.42-.26H30a.46.46,0,0,1,.41.24,1,1,0,0,0,.9.56,1,1,0,0,0,0-2.08,1,1,0,0,0-.9.56.46.46,0,0,1-.51.23l-1.45-.32a.44.44,0,0,1-.33-.3.42.42,0,0,1,.08-.44l2.31-2.81a.41.41,0,0,1,.13-.1.35.35,0,0,1,.14-.06H41.27a.47.47,0,0,1,.46.38v7.72a.45.45,0,0,1-.12.32.47.47,0,0,1-.35.15H30.78ZM29.3,9.58l1.83,2.22h9.69V5.07h-9.7l-1.7,2.07.41.09a1.91,1.91,0,0,1,1.52-.75,2,2,0,1,1-1.57,3.11Z"/><path class="cls-6" d="M29.36,7.48l-.06,0a.15.15,0,0,1,0-.22l1.58-1.95a.58.58,0,0,1,.46-.22h9.17a.15.15,0,0,1,.15.16.15.15,0,0,1-.15.15H31.32a.28.28,0,0,0-.22.11l-1.58,2A.17.17,0,0,1,29.36,7.48Z"/><path class="cls-5" d="M38.12,6.87a4.88,4.88,0,0,0-1-.2v1.4l.11,0a2,2,0,0,1,1.13.74,1.19,1.19,0,0,1,.12.54,1.3,1.3,0,0,1-.08.51,1,1,0,0,1-.5.56,2.2,2.2,0,0,1-.79.22v.56h-.36v-.55a3.56,3.56,0,0,1-.81-.13l-.52-.18.17-.52.37.15a3.94,3.94,0,0,0,.79.13V8.57l-.38-.09c-.72-.19-1.09-.59-1.09-1.2a.82.82,0,0,1,.15-.5,1.35,1.35,0,0,1,.28-.33,1.84,1.84,0,0,1,1-.29V5.63h.37v.55a3.17,3.17,0,0,1,1,.15c.13,0,.19.07.18.08ZM36.71,8V6.67a.93.93,0,0,0-.73.21.56.56,0,0,0-.16.39.52.52,0,0,0,.13.35,1.2,1.2,0,0,0,.5.27Zm.36.71v1.44a.85.85,0,0,0,.58-.19.66.66,0,0,0,.21-.5.57.57,0,0,0-.23-.49A2.75,2.75,0,0,0,37.07,8.67Z"/><path class="cls-5" d="M20.09,8.66a.47.47,0,0,1-.27-.19A.48.48,0,0,1,20,7.83c.07,0,6.18-3.84,10.82,0a.46.46,0,1,1-.59.71c-4.13-3.45-9.68,0-9.73,0A.45.45,0,0,1,20.09,8.66Z"/><path class="cls-4" d="M24.66,5.24h-.54a1.61,1.61,0,0,0-1.14,1h0S22,2.33,20.3,2a24.79,24.79,0,0,0-4.1-.37A24.79,24.79,0,0,0,12.1,2c-1.7.37-2.64,4.32-2.64,4.32h0a1.62,1.62,0,0,0-1.15-1H7.74a.47.47,0,0,0-.47.45v.83c0,.43.5.47.5.47H9.24c.11,0,.07,0,.07,0A3.89,3.89,0,0,0,7.89,10.3c.05,3.64.84,4,1,4s.19.17.19.17v1a.56.56,0,0,0,.46.58H10.9a.58.58,0,0,0,.59-.58V14.7a40.14,40.14,0,0,0,4.71.15,40.3,40.3,0,0,0,4.72-.15v.82a.57.57,0,0,0,.58.58h1.33a.57.57,0,0,0,.47-.58v-1s0-.14.18-.17,1-.38,1-4A3.88,3.88,0,0,0,23.09,7s0,0,.07,0h1.47s.5,0,.5-.47V5.69A.46.46,0,0,0,24.66,5.24Z"/><path class="cls-5" d="M21.5,16.43a.9.9,0,0,1-.92-.91v-.44c-1.54.16-4.26.1-4.38.1s-2.84.06-4.38-.1v.44a.89.89,0,0,1-.92.91H9.57a.89.89,0,0,1-.8-.91v-.89c-.55-.16-1.17-1.08-1.22-4.33a4.12,4.12,0,0,1,1-3H7.77a.84.84,0,0,1-.83-.81V5.69a.79.79,0,0,1,.8-.78h.54a1.75,1.75,0,0,1,1.05.59C9.7,4.28,10.59,2,12,1.64a24.59,24.59,0,0,1,4.17-.39,24.51,24.51,0,0,1,4.17.39c1.44.31,2.33,2.64,2.7,3.86a1.87,1.87,0,0,1,1-.59h.59a.79.79,0,0,1,.81.76v.85a.84.84,0,0,1-.81.81h-.81a4.1,4.1,0,0,1,1,3c0,3.35-.74,4.14-1.22,4.29v.89a.89.89,0,0,1-.74.91ZM9.24,6.66a.38.38,0,0,1,.39.23l.08.2-.16.18a3.54,3.54,0,0,0-1.33,3C8.27,13.68,9,14,9,14a.51.51,0,0,1,.46.51v1a.22.22,0,0,0,.19.25H10.9a.23.23,0,0,0,.25-.26v-1.2l.39.06a40.61,40.61,0,0,0,4.66.14,40.81,40.81,0,0,0,4.67-.14l.38-.06v1.21a.23.23,0,0,0,.25.25h1.33a.26.26,0,0,0,.13-.25v-1a.51.51,0,0,1,.47-.5s.71-.31.75-3.7a3.52,3.52,0,0,0-1.3-3l-.19-.16.09-.24a.36.36,0,0,1,.38-.23h1.47s.17,0,.17-.14V5.69a.12.12,0,0,0-.14-.12h-.54a1.35,1.35,0,0,0-.83.84l-.09.22-.49,0-.1-.25c-.24-1-1.16-3.81-2.38-4.07a24.75,24.75,0,0,0-4-.37,24.83,24.83,0,0,0-4,.37C11,2.55,10,5.32,9.79,6.36l-.06.24-.49,0-.12-.22a1.27,1.27,0,0,0-.89-.84H7.74c-.09,0-.13,0-.14.14v.81c0,.11.17.14.2.14Zm-.47,7.83v0Zm14.86,0v0Z"/><path class="cls-1" d="M20.72,3.54c-.5-.69-2.1-.67-4.42-.78h-.19c-2.33.11-3.93.09-4.43.78a17,17,0,0,0-1.25,3.2c2.73-.28,5.77-.24,5.77-.24s3.05,0,5.78.24A17.24,17.24,0,0,0,20.72,3.54Z"/><path class="cls-5" d="M22,7.07h0c-2.68-.27-5.7-.24-5.73-.24s-3.07,0-5.75.24a.33.33,0,0,1-.35-.42,16.37,16.37,0,0,1,1.3-3.31c.54-.74,1.88-.79,3.9-.88l.78,0h.22l.79,0c2,.09,3.35.14,3.89.88A16.5,16.5,0,0,1,22.3,6.65a.33.33,0,0,1-.07.3A.3.3,0,0,1,22,7.07Zm-5.44-.91c.8,0,2.93,0,5,.2a13.34,13.34,0,0,0-1.06-2.63h0c-.35-.47-1.68-.53-3.38-.6l-.79,0h-.16l-.79,0c-1.69.07-3,.13-3.38.6a13.34,13.34,0,0,0-1.06,2.63c2.58-.23,5.29-.2,5.32-.2Z"/><circle class="cls-4" cx="10.8" cy="10.11" r="1.27"/><path class="cls-5" d="M10.8,11.72a1.61,1.61,0,1,1,1.6-1.61A1.61,1.61,0,0,1,10.8,11.72Zm0-2.54a.94.94,0,1,0,.94.93A.94.94,0,0,0,10.8,9.18Z"/><circle class="cls-4" cx="21.9" cy="10.11" r="1.27"/><path class="cls-5" d="M21.9,11.72a1.61,1.61,0,1,1,1.61-1.61A1.61,1.61,0,0,1,21.9,11.72Zm0-2.54a.94.94,0,1,0,.94.93A.93.93,0,0,0,21.9,9.18Z"/><path class="cls-5" d="M17.68,13.26h-3a.59.59,0,0,1-.59-.59v-.6a.59.59,0,0,1,.59-.6h3a.6.6,0,0,1,.6.6v.6A.6.6,0,0,1,17.68,13.26Zm-2.88-.67h2.81v-.45H14.8Z"/></g></g></g></svg>