<svg xmlns="http://www.w3.org/2000/svg" viewBox="0 0 429.06 49.84"><defs><style>.cls-1,.cls-15,.cls-4,.cls-8{fill:#a8c0e4;}.cls-1,.cls-12,.cls-14,.cls-15,.cls-2,.cls-3,.cls-4,.cls-5,.cls-6,.cls-9{stroke:#5b84c3;}.cls-1,.cls-10,.cls-12,.cls-13,.cls-14,.cls-15,.cls-2,.cls-3,.cls-4,.cls-5,.cls-6,.cls-9{stroke-miterlimit:10;}.cls-1,.cls-12,.cls-9{stroke-width:0.75px;}.cls-10,.cls-12,.cls-2,.cls-5{fill:none;}.cls-3,.cls-7,.cls-9{fill:#e8ecf7;}.cls-10,.cls-12,.cls-14,.cls-15,.cls-5{stroke-linecap:round;}.cls-6{fill:#dbe8b5;}.cls-10{stroke:#a8c0e4;stroke-width:0.25px;}.cls-11{fill:#5b84c3;}.cls-13{fill:#b4e2ea;stroke:#265387;stroke-width:0.5px;}.cls-14{fill:#fbe7cb;}.cls-16{opacity:0.59;}.cls-17{fill:#fff;}</style></defs><title>Auction-page</title><g id="Layer_2" data-name="Layer 2"><g id="Layer_1-2" data-name="Layer 1"><g id="Auction-page"><g id="aboutA-icon-1"><rect class="cls-1" x="0.5" y="0.73" width="48.64" height="38.59" rx="3.36"/><rect class="cls-2" x="0.5" y="0.73" width="48.64" height="38.59" rx="3.36"/><rect class="cls-3" x="2.91" y="3.04" width="43.81" height="33.96" rx="1.26"/><rect class="cls-4" x="22.41" y="39.31" width="4.82" height="5.23"/><path class="cls-4" d="M21.75,44.56h6.14a2.53,2.53,0,0,1,2.53,2.53v1.39a0,0,0,0,1,0,0H19.22a0,0,0,0,1,0,0V47.1A2.53,2.53,0,0,1,21.75,44.56Z"/><path class="cls-4" d="M5.57,30V4.51H8.7s1.81-.29,5.84,4.27,8.91,9.41,8.91,9.41,7.37-.37,7.37,8.34H5.57"/><path class="cls-3" d="M5.57,26.53H31a1.24,1.24,0,0,1,1.24,1.24v1A1.24,1.24,0,0,1,31,30H5.57a0,0,0,0,1,0,0V26.53A0,0,0,0,1,5.57,26.53Z"/><polygon class="cls-3" points="5.57 8.22 14.04 8.22 23.45 18.19 5.57 18.19 5.57 8.22"/><line class="cls-5" x1="23.45" y1="18.19" x2="29.61" y2="7.45"/><rect class="cls-6" x="25.17" y="19.37" width="5.29" height="2.96" rx="1.48"/><circle class="cls-4" cx="23.45" cy="30.01" r="5.73"/><circle class="cls-3" cx="23.45" cy="30.01" r="2.27"/><rect class="cls-7" x="24.82" y="39.81" width="1.91" height="4.23"/><path class="cls-8" d="M40.5,3.55a2.71,2.71,0,0,1,2,2.59V34.25s.1,2.25-2,2.25h5.19a.51.51,0,0,0,.52-.5V4.05a.51.51,0,0,0-.52-.5Z"/><rect class="cls-3" x="36.68" y="27.73" width="7.62" height="7.62" rx="1.58"/><rect class="cls-4" x="36.68" y="21.74" width="7.62" height="3.22" rx="1.26"/><rect class="cls-4" x="36.68" y="15.46" width="7.62" height="3.22" rx="1.26"/><path class="cls-4" d="M23.26,7.69A5.07,5.07,0,0,0,22,8.61a5.17,5.17,0,0,0-.92,1.25,5.44,5.44,0,0,0-.93-1.25,5,5,0,0,0-1.25-.92,5,5,0,0,0,1.25-.93,5.17,5.17,0,0,0,.93-1.25A5.15,5.15,0,0,0,22,6.76,5.44,5.44,0,0,0,23.26,7.69Z"/><path class="cls-4" d="M39.71,7.69a4.73,4.73,0,0,0-1.25.92,5.17,5.17,0,0,0-.93,1.25,5.65,5.65,0,0,0-.92-1.25,5.17,5.17,0,0,0-1.25-.92,5.44,5.44,0,0,0,1.25-.93,5.17,5.17,0,0,0,.92-1.25,5.43,5.43,0,0,0,.92,1.25A5.25,5.25,0,0,0,39.71,7.69Z"/><path class="cls-4" d="M34,13.93a5.26,5.26,0,0,0-2.18,2.17,5.07,5.07,0,0,0-.92-1.25,5.45,5.45,0,0,0-1.25-.92A5.44,5.44,0,0,0,30.86,13a5,5,0,0,0,.92-1.25A5.36,5.36,0,0,0,34,13.93Z"/></g><g id="aboutA-icon-2"><path class="cls-4" d="M173.25,17.45a5.39,5.39,0,0,0-1.23.92,4.9,4.9,0,0,0-.92,1.24,5,5,0,0,0-.91-1.24,5.29,5.29,0,0,0-1.24-.92,5.24,5.24,0,0,0,1.24-.91,5.37,5.37,0,0,0,.91-1.24,5.54,5.54,0,0,0,.91,1.24A5.24,5.24,0,0,0,173.25,17.45Z"/><path class="cls-4" d="M138,26.83a5.24,5.24,0,0,0-1.24.91,5.37,5.37,0,0,0-.91,1.24,5.32,5.32,0,0,0-.91-1.24,5.6,5.6,0,0,0-1.24-.91,5.63,5.63,0,0,0,1.24-.92,5.15,5.15,0,0,0,.91-1.24,5.32,5.32,0,0,0,.91,1.24A5.41,5.41,0,0,0,138,26.83Z"/><path class="cls-4" d="M178.27,26a5.24,5.24,0,0,0-1.24.91,5.6,5.6,0,0,0-.91,1.24A5.22,5.22,0,0,0,174,26a5.11,5.11,0,0,0,1.23-.92,5,5,0,0,0,.92-1.23,5,5,0,0,0,.91,1.23A5.41,5.41,0,0,0,178.27,26Z"/><path class="cls-3" d="M162.17,32l5.1-5.2A2.5,2.5,0,0,1,171,30.13l-5.38,6.24A10.39,10.39,0,0,1,157.64,40h-8.73a2.87,2.87,0,0,0-2,.81l-1.13,1.09-7.31-7.11a9.61,9.61,0,0,1,5.08-4.67,9.83,9.83,0,0,1,7.65.33h9a2.27,2.27,0,1,1,0,4.54h-6.6"/><path class="cls-4" d="M146.13,42.28,137.69,34a1.65,1.65,0,0,0-2.32,0L131,38.34l10.79,10.79,4.34-4.54A1.65,1.65,0,0,0,146.13,42.28Z"/><path class="cls-9" d="M168,3.05l-2,3.11,1.5.15a1.51,1.51,0,0,1,2.91.35h0a1.51,1.51,0,0,1-2.74,1l-1.73.2,3,2.85h0l10.47-1.26h0l-.46-3.85-.47-3.86h0L168,3Z"/><path class="cls-10" d="M166.77,6l1.36-2.17a.47.47,0,0,1,.33-.2l9.26-1.12"/><path class="cls-11" d="M175.52,4.45a4.9,4.9,0,0,0-1.07-.07l.17,1.41.12,0a2.05,2.05,0,0,1,1.23.61,1.08,1.08,0,0,1,.19.53,1.26,1.26,0,0,1,0,.52,1,1,0,0,1-.44.62,2,2,0,0,1-.76.33L175,9l-.37,0-.07-.56a3.94,3.94,0,0,1-.83,0l-.54-.12.11-.54.38.1a4.16,4.16,0,0,0,.82,0l-.19-1.58-.39,0c-.76-.1-1.17-.45-1.25-1.07a1,1,0,0,1,.08-.53,1.52,1.52,0,0,1,.26-.36,1.8,1.8,0,0,1,1-.42L174,3.37l.37,0,.07.55a3.46,3.46,0,0,1,1,0c.13,0,.19,0,.19.06Zm-1.29,1.27-.15-1.29a1,1,0,0,0-.72.29.63.63,0,0,0-.1.42.53.53,0,0,0,.17.34,1.43,1.43,0,0,0,.54.21Zm.46.68.18,1.46a.87.87,0,0,0,.55-.27.64.64,0,0,0,.16-.53.54.54,0,0,0-.3-.46A2.29,2.29,0,0,0,174.69,6.4Z"/><path class="cls-12" d="M157.6,8S163.05,3.55,168,6.75"/><path class="cls-4" d="M164.7,11.65h-.81a2.43,2.43,0,0,0-1.72,1.57h0s-1.41-5.92-4-6.47a33.94,33.94,0,0,0-12.28,0c-2.55.55-3.95,6.47-3.95,6.47h-.06a2.42,2.42,0,0,0-1.72-1.57h-.8a.71.71,0,0,0-.71.68v1.24c0,.65.75.71.75.71h2.21c.16,0,.1.06.1.06a5.8,5.8,0,0,0-2.13,4.88c.07,5.46,1.26,6,1.55,6s.28.25.28.25V27a.85.85,0,0,0,.69.87h2A.86.86,0,0,0,145,27V25.82A61.37,61.37,0,0,0,152,26a61.41,61.41,0,0,0,7.06-.21V27a.86.86,0,0,0,.87.87h2a.85.85,0,0,0,.69-.87V25.5s0-.21.28-.25,1.48-.57,1.55-6a5.8,5.8,0,0,0-2.13-4.88s-.07-.06.1-.06h2.2s.75-.06.75-.71V12.33A.71.71,0,0,0,164.7,11.65Z"/><path class="cls-3" d="M158.8,9.1c-.76-1-3.15-1-6.63-1.16h-.29c-3.47.16-5.87.13-6.62,1.16a26.16,26.16,0,0,0-1.88,4.8c4.09-.42,8.65-.37,8.65-.37s4.56,0,8.65.37A26.16,26.16,0,0,0,158.8,9.1Z"/><circle class="cls-3" cx="143.94" cy="18.95" r="1.9"/><circle class="cls-3" cx="160.56" cy="18.95" r="1.9"/><rect class="cls-2" x="149.42" y="21.49" width="5.21" height="1.67" rx="0.38"/></g><g id="aboutA-icon-3"><rect class="cls-3" x="265.47" y="7.33" width="34.77" height="41.7" rx="4.18"/><line class="cls-13" x1="265.47" y1="14.05" x2="300.24" y2="14.05"/><path class="cls-4" d="M300.28,14.05V11.14a3.82,3.82,0,0,0-3.8-3.81H269.32a3.83,3.83,0,0,0-3.81,3.81v2.91Z"/><path class="cls-3" d="M290.68,7.7a2.53,2.53,0,0,1-2.48,2.57H277.6a2.53,2.53,0,0,1-2.49-2.57,2.53,2.53,0,0,1,2.49-2.58,2.43,2.43,0,0,1,1.54.56,3.82,3.82,0,0,1,7.54,0,2.33,2.33,0,0,1,1.52-.54A2.53,2.53,0,0,1,290.68,7.7Z"/><line class="cls-14" x1="283.5" y1="21.37" x2="297.98" y2="21.37"/><line class="cls-14" x1="283.5" y1="39.32" x2="297.98" y2="39.32"/><rect class="cls-4" x="268.2" y="32.75" width="12.84" height="12.84" rx="1.78"/><polyline class="cls-15" points="270.46 38.82 273.46 41.83 278.77 36.51"/><rect class="cls-4" x="268.2" y="16.98" width="12.84" height="12.84" rx="1.78"/><polyline class="cls-15" points="270.46 23.05 273.46 26.06 278.77 20.75"/><path class="cls-4" d="M272,3.19a5.08,5.08,0,0,0-1.22.91,4.92,4.92,0,0,0-.9,1.22A5.08,5.08,0,0,0,269,4.1a4.92,4.92,0,0,0-1.22-.91,4.74,4.74,0,0,0,1.22-.9,4.92,4.92,0,0,0,.91-1.22,5.11,5.11,0,0,0,.9,1.22A5,5,0,0,0,272,3.19Z"/><path class="cls-4" d="M296,3.19a5.5,5.5,0,0,0-1.22.91,5.19,5.19,0,0,0-.9,1.22,5,5,0,0,0-.9-1.22,5.34,5.34,0,0,0-1.22-.91,5.11,5.11,0,0,0,1.22-.9,5.19,5.19,0,0,0,.9-1.22,5.4,5.4,0,0,0,.9,1.22A5.4,5.4,0,0,0,296,3.19Z"/><path class="cls-4" d="M306.65,12.11a5.5,5.5,0,0,0-1.22.91,4.92,4.92,0,0,0-.9,1.22,5.27,5.27,0,0,0-.9-1.22,5.21,5.21,0,0,0-1.23-.91,4.94,4.94,0,0,0,1.23-.9,5.19,5.19,0,0,0,.9-1.22,4.92,4.92,0,0,0,.9,1.22A4.74,4.74,0,0,0,306.65,12.11Z"/><g class="cls-16"><path class="cls-8" d="M305,35.46h-.42a9.35,9.35,0,0,0-1.24-3l.31-.3a.91.91,0,0,0,0-1.28L302,29.29a.9.9,0,0,0-1.27,0l-.32.32a9.23,9.23,0,0,0-2.95-1.21v-.46a.9.9,0,0,0-.9-.9h-2.3a.9.9,0,0,0-.9.9v.46a9.41,9.41,0,0,0-2.94,1.21l-.32-.32a.91.91,0,0,0-1.28,0l-1.62,1.63a.89.89,0,0,0,0,1.28l.3.3a9.58,9.58,0,0,0-1.24,3h-.41a.9.9,0,0,0-.91.9v2.3a.9.9,0,0,0,.91.9h.39a9.3,9.3,0,0,0,1.22,3l-.26.26a.89.89,0,0,0,0,1.28l1.62,1.63a.91.91,0,0,0,1.28,0l.26-.26a9.26,9.26,0,0,0,3,1.25v.36a.9.9,0,0,0,.9.9h2.3a.9.9,0,0,0,.9-.9v-.36a9.32,9.32,0,0,0,3-1.25l.26.26a.9.9,0,0,0,1.27,0l1.63-1.63a.91.91,0,0,0,0-1.28l-.27-.26a9.3,9.3,0,0,0,1.22-3h.4a.9.9,0,0,0,.9-.9v-2.3A.9.9,0,0,0,305,35.46Zm-9.57,6.74a4.69,4.69,0,1,1,4.7-4.69A4.69,4.69,0,0,1,295.45,42.2Z"/></g><circle class="cls-9" cx="299.28" cy="38.32" r="4.69"/><path class="cls-4" d="M308.85,36.26h-.42a9.29,9.29,0,0,0-1.24-2.95l.31-.31a.9.9,0,0,0,0-1.27l-1.63-1.63a.9.9,0,0,0-1.27,0l-.32.32a9.43,9.43,0,0,0-2.94-1.22v-.45a.9.9,0,0,0-.91-.9h-2.3a.9.9,0,0,0-.9.9v.45a9.43,9.43,0,0,0-2.94,1.22L294,30.1a.91.91,0,0,0-1.28,0l-1.62,1.63a.88.88,0,0,0,0,1.27l.3.31a9.53,9.53,0,0,0-1.24,2.95h-.41a.91.91,0,0,0-.91.91v2.29a.91.91,0,0,0,.91.91h.39a9.39,9.39,0,0,0,1.23,3l-.27.27a.91.91,0,0,0,0,1.28l1.62,1.62a.91.91,0,0,0,1.28,0l.26-.26a9.28,9.28,0,0,0,3,1.26v.35a.9.9,0,0,0,.9.9h2.3a.9.9,0,0,0,.91-.9v-.35a9.38,9.38,0,0,0,3-1.26l.26.26a.9.9,0,0,0,1.27,0l1.63-1.62a.91.91,0,0,0,0-1.28l-.27-.27a9.39,9.39,0,0,0,1.23-3h.39a.9.9,0,0,0,.9-.91V37.17A.9.9,0,0,0,308.85,36.26ZM299.28,43a4.7,4.7,0,1,1,4.7-4.69A4.69,4.69,0,0,1,299.28,43Z"/></g><g id="aboutA-icon-4"><rect class="cls-1" x="384.26" y="0.78" width="43.81" height="34.76" rx="3.36"/><rect class="cls-5" x="384.26" y="0.78" width="43.81" height="34.76" rx="3.36"/><rect class="cls-3" x="386.43" y="2.86" width="39.47" height="30.6" rx="1.26"/><rect class="cls-4" x="403.99" y="35.54" width="4.35" height="4.71"/><path class="cls-4" d="M403.65,40.27h5a2.53,2.53,0,0,1,2.53,2.53v1a0,0,0,0,1,0,0H401.12a0,0,0,0,1,0,0v-1A2.53,2.53,0,0,1,403.65,40.27Z"/><rect class="cls-7" x="406.17" y="36.12" width="1.71" height="3.55"/><path class="cls-8" d="M420.29,3.33a2.44,2.44,0,0,1,1.81,2.33V31s.09,2-1.81,2H425a.46.46,0,0,0,.47-.45V3.77a.46.46,0,0,0-.47-.44Z"/><rect class="cls-4" x="419.27" y="38.52" width="2.14" height="13.82" rx="0.77" transform="translate(374.9 465.77) rotate(-90)"/><path class="cls-4" d="M412,48.57a1.53,1.53,0,0,1,0-.3,1.77,1.77,0,0,1,1.77-1.77h13a1.76,1.76,0,0,1,1.76,1.77,1.53,1.53,0,0,1,0,.3Z"/><path class="cls-1" d="M423.66,22.1v6.3a.61.61,0,0,1-.64.72h-3.19a.65.65,0,0,1-.56-.64v-6Z"/><path class="cls-1" d="M401.69,22.1v6.3a.61.61,0,0,0,.64.72h3.19a.65.65,0,0,0,.56-.64v-6Z"/><path class="cls-1" d="M422.24,15.28h0l-1.19-7.84s-.09-.56-.91-.56h-15c-.82,0-.91.56-.91.56L403,15.28h0s-1.9.05-1.9,1.74v3.92s.57,1.47,1.49,1.47h20c.92,0,1.49-1.47,1.49-1.47V17C424.14,15.33,422.24,15.28,422.24,15.28Z"/><path class="cls-5" d="M403.07,15.11l1.13-7.56a.78.78,0,0,1,.77-.67h7.66"/><line class="cls-5" x1="406.5" y1="5.43" x2="406.5" y2="6.88"/><path class="cls-5" d="M401.87,10.38v2.16a.55.55,0,0,0,.55.55h.95"/><line class="cls-5" x1="404.3" y1="13.09" x2="412.63" y2="13.09"/><line class="cls-5" x1="411.08" y1="14.56" x2="411.08" y2="18.33"/><line class="cls-5" x1="412.63" y1="14.56" x2="412.63" y2="18.33"/><path class="cls-4" d="M401.69,22.08V28.5a.64.64,0,0,0,.63.64h3.13a.64.64,0,0,0,.64-.64V22.6"/><line class="cls-14" x1="406.91" y1="24.74" x2="412.66" y2="24.74"/><path class="cls-5" d="M422.23,15.21l-1.14-7.66a.78.78,0,0,0-.77-.67h-7.66"/><line class="cls-5" x1="418.79" y1="5.43" x2="418.79" y2="6.88"/><path class="cls-5" d="M423.42,10.38v2.16a.55.55,0,0,1-.55.55h-.95"/><line class="cls-5" x1="420.99" y1="13.09" x2="412.55" y2="13.09"/><line class="cls-5" x1="414.21" y1="14.56" x2="414.21" y2="18.33"/><path class="cls-4" d="M423.6,22.08V28.5a.64.64,0,0,1-.63.64h-3.13a.64.64,0,0,1-.64-.64V22.6"/><line class="cls-14" x1="418.39" y1="24.74" x2="412.63" y2="24.74"/><circle class="cls-3" cx="408.22" cy="16.51" r="1.36"/><circle class="cls-17" cx="417.07" cy="16.51" r="1.36"/><circle class="cls-3" cx="417.07" cy="16.51" r="1.4"/><path class="cls-5" d="M419.63,18.42l.53-1.59a1.87,1.87,0,0,1,.71-.93l.36-.25a1.91,1.91,0,0,1,1-.31h0a1.84,1.84,0,0,1,1.42.66h0a1.86,1.86,0,0,1,.42,1.17v3.59a1.85,1.85,0,0,1-.37,1.11h0a1.84,1.84,0,0,1-1.47.73h-9.65"/><path class="cls-5" d="M405.66,18.42l-.53-1.59a1.87,1.87,0,0,0-.71-.93l-.36-.25a1.91,1.91,0,0,0-1-.31h0a1.84,1.84,0,0,0-1.42.66h0a1.86,1.86,0,0,0-.42,1.17v3.59a1.85,1.85,0,0,0,.37,1.11h0a1.84,1.84,0,0,0,1.47.73h9.65"/><rect class="cls-3" x="398.6" y="13.43" width="3.16" height="13.28" rx="0.95" transform="translate(668.96 317.23) rotate(-135)"/><rect class="cls-3" x="410.21" y="25.03" width="3.16" height="13.28" rx="0.95" transform="translate(680.57 345.25) rotate(-135)"/><rect class="cls-4" x="401.22" y="25.63" width="1.58" height="8.45" rx="0.48" transform="translate(707.37 -233.31) rotate(135)"/><rect class="cls-4" x="399.48" y="20.8" width="13.23" height="9.93" transform="translate(675.02 331.13) rotate(-135)"/><path class="cls-4" d="M386.46,40.09H389a1.9,1.9,0,0,1,1.9,1.9v6.21a0,0,0,0,1,0,0h-6.3a0,0,0,0,1,0,0V42A1.9,1.9,0,0,1,386.46,40.09Z" transform="translate(630.65 349.51) rotate(-135)"/><polygon class="cls-4" points="388.37 39.03 392.82 43.49 393.95 42.08 389.77 37.91 388.37 39.03"/><polygon class="cls-4" points="390.09 38.21 393.64 41.76 402.63 31.67 400.18 29.22 390.09 38.21"/><path class="cls-4" d="M393.53,26.78a6,6,0,0,0-1.36,1,5.77,5.77,0,0,0-1,1.37,5.69,5.69,0,0,0-2.38-2.38,5.73,5.73,0,0,0,1.37-1,5.63,5.63,0,0,0,1-1.37,5.59,5.59,0,0,0,2.37,2.38Z"/><path class="cls-4" d="M397.37,15.78a5.82,5.82,0,0,0-1.37,1,6.06,6.06,0,0,0-1,1.37,5.54,5.54,0,0,0-1-1.37,5.63,5.63,0,0,0-1.37-1,5.54,5.54,0,0,0,1.37-1,5.75,5.75,0,0,0,1-1.36,5.72,5.72,0,0,0,1,1.36A5.54,5.54,0,0,0,397.37,15.78Z"/><path class="cls-4" d="M394.31,7.14a5.54,5.54,0,0,0-1.37,1,5.75,5.75,0,0,0-1,1.36,5.52,5.52,0,0,0-1-1.36,5.38,5.38,0,0,0-1.37-1,5.91,5.91,0,0,0,1.37-1,5.75,5.75,0,0,0,1-1.36,6,6,0,0,0,1,1.36A5.91,5.91,0,0,0,394.31,7.14Z"/></g></g></g></g></svg>