<svg xmlns="http://www.w3.org/2000/svg" viewBox="0 0 42.5 47.64"><defs><style>.cls-1{fill:#a8c0e4;}.cls-1,.cls-2{stroke:#5b84c3;stroke-miterlimit:10;}.cls-2{fill:#e8ecf7;}</style></defs><title>best_premium-icon</title><g id="Layer_2" data-name="Layer 2"><g id="Layer_1-2" data-name="Layer 1"><g id="best_premium-icon"><path class="cls-1" d="M41.43,20.58a5.22,5.22,0,0,0-1.18.88,5.08,5.08,0,0,0-.88,1.19,5,5,0,0,0-.87-1.19,5.38,5.38,0,0,0-1.19-.88,4.87,4.87,0,0,0,1.19-.87,5.08,5.08,0,0,0,.87-1.19,4.75,4.75,0,0,0,.88,1.18A4.67,4.67,0,0,0,41.43,20.58Z"/><path class="cls-1" d="M11.26,3.13A4.75,4.75,0,0,0,10.08,4,4.79,4.79,0,0,0,9.2,5.19,4.75,4.75,0,0,0,8.32,4a4.79,4.79,0,0,0-1.18-.88,4.93,4.93,0,0,0,1.18-.88A4.79,4.79,0,0,0,9.2,1.07a4.93,4.93,0,0,0,.87,1.18A5,5,0,0,0,11.26,3.13Z"/><path class="cls-1" d="M30,5.85a5,5,0,0,0-1.19.88A5.38,5.38,0,0,0,28,7.92a5,5,0,0,0-.87-1.19,5.38,5.38,0,0,0-1.19-.88A4.87,4.87,0,0,0,27.08,5,5.08,5.08,0,0,0,28,3.79,5,5,0,0,0,28.83,5,4.53,4.53,0,0,0,30,5.85Z"/><path class="cls-2" d="M34.78,47.14H21.21A1.84,1.84,0,0,1,20,46.68L8.09,36.13A2.21,2.21,0,0,1,8,32.92H8a2.22,2.22,0,0,1,3.07-.06l9.5,8.82.25-.25-3.5-5.91a2.14,2.14,0,0,1,.88-3h0a2.13,2.13,0,0,1,2.81.84l3.23,5.56a.6.6,0,0,0,.8.24l1.29-.68a.61.61,0,0,0,.32-.53V32.09h3.68l2.46,5.36a.68.68,0,0,0,.61.4h1.39Z"/><rect class="cls-1" x="34.78" y="35.69" width="4.83" height="11.45" rx="0.74"/><rect class="cls-1" x="4.22" y="29.49" width="29.37" height="2.86" rx="0.92"/><rect class="cls-2" x="7.14" y="26.7" width="23.94" height="2.79" rx="0.9"/><path class="cls-1" d="M6.18,12.17,11,16.11a1,1,0,0,0,1.54-.28l5.51-9.46a1,1,0,0,1,.89-.52h.63a1,1,0,0,1,.9.52l5.38,9.3a1,1,0,0,0,1.54.29L32,12.28A1,1,0,0,1,33,12.14l.06,0a1,1,0,0,1,.58,1.15L31.46,24a1,1,0,0,1-1,.83H8a1,1,0,0,1-1-.81L4.52,13.2A1,1,0,0,1,5,12.12H5A1,1,0,0,1,6.18,12.17Z"/><circle class="cls-2" cx="19.2" cy="3.62" r="3.01"/><circle class="cls-2" cx="34.3" cy="10.3" r="3.01"/><circle class="cls-2" cx="3.51" cy="10.3" r="3.01"/></g></g></g></svg>