<svg xmlns="http://www.w3.org/2000/svg" viewBox="0 0 782.24 184.48"><defs><style>.cls-1,.cls-10,.cls-12,.cls-7{fill:#a8c0e4;}.cls-1,.cls-12,.cls-13,.cls-15,.cls-18,.cls-19,.cls-2,.cls-20,.cls-3,.cls-6,.cls-7,.cls-8,.cls-9{stroke:#5b84c3;}.cls-1,.cls-12,.cls-13,.cls-15,.cls-16,.cls-18,.cls-19,.cls-2,.cls-20,.cls-3,.cls-4,.cls-6,.cls-7,.cls-8,.cls-9{stroke-miterlimit:10;}.cls-13,.cls-17,.cls-2,.cls-8{fill:#e8ecf7;}.cls-15,.cls-16,.cls-20,.cls-3,.cls-4,.cls-6{fill:none;}.cls-15,.cls-16,.cls-3,.cls-4,.cls-9{stroke-linecap:round;}.cls-4{stroke:#265387;}.cls-4,.cls-9{stroke-width:0.5px;}.cls-5{fill:#5b84c3;}.cls-7,.cls-8{stroke-width:0.75px;}.cls-11,.cls-18,.cls-9{fill:#fff;}.cls-12,.cls-13,.cls-15,.cls-18,.cls-20{stroke-width:1.5px;}.cls-14{fill:#b4e2ea;}.cls-16{stroke:#fff;}.cls-19{fill:#dbe8b5;}</style></defs><title>finance-page</title><g id="Layer_2" data-name="Layer 2"><g id="Layer_1-2" data-name="Layer 1"><g id="finance-page"><g id="aboutF-icon-1"><path class="cls-1" d="M9.53,21.7a5.17,5.17,0,0,0-1.26.92,5.26,5.26,0,0,0-.93,1.26,5.25,5.25,0,0,0-.93-1.26,5.06,5.06,0,0,0-1.26-.92,5.26,5.26,0,0,0,2.19-2.19,5,5,0,0,0,.93,1.25A5.34,5.34,0,0,0,9.53,21.7Z"/><path class="cls-1" d="M20,32.1a5.17,5.17,0,0,0-1.26.92,5.54,5.54,0,0,0-.93,1.26A5.25,5.25,0,0,0,16.88,33a5.17,5.17,0,0,0-1.25-.92,5.44,5.44,0,0,0,1.25-.93,5.26,5.26,0,0,0,.93-1.26,5,5,0,0,0,.93,1.25A5.34,5.34,0,0,0,20,32.1Z"/><path class="cls-1" d="M11.71,30.57a5.25,5.25,0,0,0-1.26.93,5.45,5.45,0,0,0-.92,1.25A5.44,5.44,0,0,0,8.6,31.5a5.26,5.26,0,0,0-1.26-.93,5.25,5.25,0,0,0,1.26-.93,5.32,5.32,0,0,0,.93-1.26,4.91,4.91,0,0,0,.92,1.26A5.25,5.25,0,0,0,11.71,30.57Z"/><rect class="cls-1" x="0.8" y="0.5" width="6.54" height="16.65" rx="1.1"/><path class="cls-2" d="M15.63,16.75V11.13H33.71l-.22-4L30.11,3.54a9,9,0,0,0-3.2-2.19l-.43-.18A9.2,9.2,0,0,0,23,.5H15.16A6.64,6.64,0,0,0,12.67,1l-1.57.63a6.64,6.64,0,0,1-2.49.48H7.34v12.8H9.79a11.08,11.08,0,0,0,5.84,1.86"/><path class="cls-1" d="M15.63,11.37V26.24a.85.85,0,0,0,.86.86H48a.86.86,0,0,0,.87-.86V8.16A.87.87,0,0,0,48,7.3H24.84"/><path class="cls-2" d="M45.34,14.67a3.91,3.91,0,0,1-3.91-3.91v-.2a.16.16,0,0,0-.16-.15h-18a.16.16,0,0,0-.16.15v.2a3.91,3.91,0,0,1-3.91,3.91h0a.16.16,0,0,0-.16.16v4.81a.16.16,0,0,0,.16.16h0a3.91,3.91,0,0,1,3.91,3.92h0a.16.16,0,0,0,.16.16h18a.16.16,0,0,0,.16-.16h0a3.91,3.91,0,0,1,3.91-3.92h0a.16.16,0,0,0,.16-.16V14.83a.16.16,0,0,0-.16-.16Z"/><path class="cls-2" d="M22.36,5l5.85,5.85a2.35,2.35,0,0,1,0,3.31h0a2.34,2.34,0,0,1-3.32,0L20.51,9.78a5,5,0,0,1-3.37,1.53,5.1,5.1,0,0,1-3.78-1.53"/><circle class="cls-1" cx="32.27" cy="17.2" r="3.41"/><rect class="cls-1" x="41.04" y="31.6" width="7.79" height="17.8" rx="1.1"/><path class="cls-2" d="M30.31,38.76,19.58,41.51a2.77,2.77,0,0,1-3.38-2h0a2.78,2.78,0,0,1,1.92-3.38L29.06,33a7.25,7.25,0,0,1,2-.28H34.1a7.07,7.07,0,0,1,3.75,1.07l3.19,2V47.38l-4.55,1.75a4,4,0,0,1-1.44.27H21.86a4,4,0,0,1-2.06-.57L2.25,38.35a3,3,0,0,1-1-4.07h0a3,3,0,0,1,4-1.1l10.84,6"/></g><g id="aboutF-icon-2"><path class="cls-1" d="M136.73,19.54a5,5,0,0,0-1.22.9,4.92,4.92,0,0,0-.9,1.22,5.08,5.08,0,0,0-2.12-2.12,4.92,4.92,0,0,0,1.22-.9,5.19,5.19,0,0,0,.9-1.22,4.92,4.92,0,0,0,.9,1.22A5,5,0,0,0,136.73,19.54Z"/><path class="cls-1" d="M143.44,4.29a4.9,4.9,0,0,0-1.21.9,5,5,0,0,0-.91,1.21,4.9,4.9,0,0,0-.9-1.21,4.79,4.79,0,0,0-1.21-.9,5.26,5.26,0,0,0,1.21-.91,4.79,4.79,0,0,0,.9-1.21,5.47,5.47,0,0,0,.9,1.21A5.5,5.5,0,0,0,143.44,4.29Z"/><path class="cls-1" d="M177.73,4.29a4.92,4.92,0,0,0-1.22.9,5.32,5.32,0,0,0-.9,1.21,4.9,4.9,0,0,0-.9-1.21,4.69,4.69,0,0,0-1.22-.9,5.08,5.08,0,0,0,1.22-.91,5,5,0,0,0,.9-1.21,5.17,5.17,0,0,0,.9,1.21A5.08,5.08,0,0,0,177.73,4.29Z"/><circle class="cls-1" cx="159.29" cy="24.28" r="20.64"/><line class="cls-3" x1="159.29" y1="5.38" x2="159.29" y2="7.5"/><line class="cls-3" x1="168.32" y1="7.91" x2="167.26" y2="9.75"/><line class="cls-3" x1="175.24" y1="14.83" x2="173.41" y2="15.89"/><line class="cls-4" x1="166.66" y1="24.28" x2="164.54" y2="24.28"/><line class="cls-3" x1="175.24" y1="33.73" x2="173.41" y2="32.67"/><line class="cls-3" x1="168.32" y1="40.64" x2="167.26" y2="38.81"/><line class="cls-3" x1="159.29" y1="43.18" x2="159.29" y2="41.06"/><line class="cls-4" x1="149.84" y1="40.64" x2="150.9" y2="38.81"/><line class="cls-4" x1="142.93" y1="33.73" x2="144.76" y2="32.67"/><line class="cls-3" x1="140.39" y1="24.28" x2="142.51" y2="24.28"/><line class="cls-3" x1="175.24" y1="24.28" x2="177.36" y2="24.28"/><line class="cls-3" x1="142.93" y1="14.83" x2="144.76" y2="15.89"/><line class="cls-3" x1="149.84" y1="7.91" x2="150.9" y2="9.75"/><polyline class="cls-3" points="159.29 10.94 159.29 24.28 170.02 24.28"/><circle class="cls-2" cx="145.69" cy="37.88" r="11.06"/><path class="cls-5" d="M143.46,30.52a2.45,2.45,0,0,1,1.89.86,2.87,2.87,0,0,1,.63,2.1l-.06.75a3.36,3.36,0,0,1-1,2.15,2.85,2.85,0,0,1-2.11.8,2.44,2.44,0,0,1-1.91-.86,2.83,2.83,0,0,1-.63-2.09l.05-.62a3.42,3.42,0,0,1,1-2.26A2.91,2.91,0,0,1,143.46,30.52Zm-1.62,13.4-1-.71,8.65-11.06,1,.69Zm-.29-9.67a1.88,1.88,0,0,0,.29,1.26,1.15,1.15,0,0,0,1,.49,1.51,1.51,0,0,0,1.16-.48,2.16,2.16,0,0,0,.6-1.29l.09-.77a1.91,1.91,0,0,0-.25-1.24,1.16,1.16,0,0,0-1-.53,1.52,1.52,0,0,0-1.17.49,2.12,2.12,0,0,0-.61,1.29Zm7.26,4.31a2.46,2.46,0,0,1,1.91.88,2.83,2.83,0,0,1,.62,2.08l-.06.65a3.39,3.39,0,0,1-1,2.24,2.8,2.8,0,0,1-2.15.82,2.41,2.41,0,0,1-1.89-.85,2.8,2.8,0,0,1-.65-2.1l.06-.67a3.45,3.45,0,0,1,1-2.21A2.93,2.93,0,0,1,148.81,38.56Zm-1.9,3.74a1.91,1.91,0,0,0,.28,1.26,1.16,1.16,0,0,0,1,.5,1.55,1.55,0,0,0,1.18-.48,2.27,2.27,0,0,0,.59-1.3l.09-.78a1.91,1.91,0,0,0-.26-1.24,1.12,1.12,0,0,0-1-.52,1.58,1.58,0,0,0-1.19.48,2.27,2.27,0,0,0-.59,1.29Z"/></g><g id="aboutF-icon-3"><path class="cls-1" d="M268.07,5.37a5.13,5.13,0,0,0-1.24.92,5.29,5.29,0,0,0-.92,1.24A5.41,5.41,0,0,0,265,6.29a5.17,5.17,0,0,0-1.25-.92A5.43,5.43,0,0,0,265,4.45a5.17,5.17,0,0,0,.92-1.25,5.15,5.15,0,0,0,.92,1.25A5.41,5.41,0,0,0,268.07,5.37Z"/><path class="cls-1" d="M287.34,4.63a5.41,5.41,0,0,0-1.24.92,5.17,5.17,0,0,0-.92,1.25A5.16,5.16,0,0,0,283,4.63a4.89,4.89,0,0,0,1.25-.92,4.9,4.9,0,0,0,.92-1.24,5,5,0,0,0,.91,1.24A5.07,5.07,0,0,0,287.34,4.63Z"/><path class="cls-1" d="M307.36,43.48a5.43,5.43,0,0,0-1.25.92,5.59,5.59,0,0,0-.92,1.24A5.27,5.27,0,0,0,303,43.48a5.41,5.41,0,0,0,1.24-.92,5.17,5.17,0,0,0,.92-1.25,5.43,5.43,0,0,0,.92,1.25A5.23,5.23,0,0,0,307.36,43.48Z"/><path class="cls-1" d="M303.65,2.33H291.71a.73.73,0,0,0-.73.73V27.14a.73.73,0,0,0,.73.73h15.22a.73.73,0,0,0,.73-.73V6.34Z"/><line class="cls-3" x1="293.05" y1="7.75" x2="300.96" y2="7.75"/><line class="cls-3" x1="293.05" y1="15.34" x2="305.95" y2="15.34"/><line class="cls-3" x1="293.05" y1="19.59" x2="305.95" y2="19.59"/><line class="cls-3" x1="293.05" y1="11.81" x2="305.95" y2="11.81"/><line class="cls-3" x1="293.05" y1="23.52" x2="305.95" y2="23.52"/><path class="cls-2" d="M303.65,2.46V6.3a.06.06,0,0,0,.05.06h3.83a.06.06,0,0,0,0-.1l-3.83-3.84A.05.05,0,0,0,303.65,2.46Z"/><path class="cls-1" d="M288.43,48.77H261.82V35.22a3.81,3.81,0,0,1,3.81-3.81h4.27a2.31,2.31,0,0,0,2.31-2.31V26.61l5.84.18V29.1a2.3,2.3,0,0,0,2.31,2.31h4.27a3.81,3.81,0,0,1,3.8,3.81V48.77l10-13.74h-6l-4,5.36"/><path class="cls-1" d="M275.27,6.34a9.92,9.92,0,0,0-9.92,9.91v8.47a3.76,3.76,0,0,0,3.76,3.76h12.32a3.75,3.75,0,0,0,3.75-3.76V16.25A9.91,9.91,0,0,0,275.27,6.34Z"/><path class="cls-2" d="M268.73,18.85v2a6.58,6.58,0,0,0,6.58,6.58h0a6.59,6.59,0,0,0,6.58-6.58V13.59a1,1,0,0,0-1.38-.88l-11.19,5.21A1,1,0,0,0,268.73,18.85Z"/><polyline class="cls-6" points="268.73 31.41 275.27 40.82 282.5 31.41"/><path class="cls-6" d="M266.61,38.19l-.91,2.17a6.34,6.34,0,0,0,.4,5.7l.51.86v1.85"/><path class="cls-6" d="M283.94,38.19l.91,2.17a6.34,6.34,0,0,1-.4,5.7l-.51.86v1.85"/><path class="cls-7" d="M292.4,35h0a4.43,4.43,0,0,1,4.43-4.43h6.45A4.43,4.43,0,0,1,298.86,35Z"/><circle class="cls-2" cx="301.83" cy="25.81" r="8.4"/><line class="cls-3" x1="301.83" y1="18.12" x2="301.83" y2="18.98"/><line class="cls-3" x1="309.52" y1="25.81" x2="308.66" y2="25.81"/><line class="cls-3" x1="301.83" y1="33.51" x2="301.83" y2="32.64"/><line class="cls-3" x1="294.13" y1="25.81" x2="294.99" y2="25.81"/><polyline class="cls-3" points="301.83 21.6 301.83 25.81 303.88 27.87"/></g><g id="aboutF-icon-4"><path class="cls-1" d="M387,16.71a5.41,5.41,0,0,0-1.24.92,5.17,5.17,0,0,0-.92,1.25,5.23,5.23,0,0,0-.92-1.25,5.17,5.17,0,0,0-1.25-.92,5.43,5.43,0,0,0,1.25-.92,5.17,5.17,0,0,0,.92-1.25,5.15,5.15,0,0,0,.92,1.25A5.41,5.41,0,0,0,387,16.71Z"/><path class="cls-1" d="M396.45,12.15a5.43,5.43,0,0,0-1.25.92,5.59,5.59,0,0,0-.92,1.24,5.27,5.27,0,0,0-2.16-2.16,5.41,5.41,0,0,0,1.24-.92,5.17,5.17,0,0,0,.92-1.25,5.43,5.43,0,0,0,.92,1.25A5.23,5.23,0,0,0,396.45,12.15Z"/><path class="cls-1" d="M390.22,4a5.65,5.65,0,0,0-1.25.92,5.76,5.76,0,0,0-.92,1.25,5.07,5.07,0,0,0-.92-1.25A5.42,5.42,0,0,0,385.89,4a4.87,4.87,0,0,0,1.24-.92,4.9,4.9,0,0,0,.92-1.24A5.41,5.41,0,0,0,389,3.1,4.89,4.89,0,0,0,390.22,4Z"/><path class="cls-1" d="M421.79,2.63H400A1.33,1.33,0,0,0,398.67,4v44A1.32,1.32,0,0,0,400,49.25h27.79a1.33,1.33,0,0,0,1.33-1.32V10Z"/><path class="cls-2" d="M421.79,2.87v7a.09.09,0,0,0,.1.09h7a.09.09,0,0,0,.07-.16l-7-7A.1.1,0,0,0,421.79,2.87Z"/><line class="cls-3" x1="401.53" y1="20.31" x2="413.84" y2="20.31"/><line class="cls-3" x1="401.53" y1="24.04" x2="423.83" y2="24.04"/><line class="cls-3" x1="401.53" y1="27.81" x2="419.83" y2="27.81"/><line class="cls-3" x1="401.53" y1="31.49" x2="422.63" y2="31.49"/><line class="cls-3" x1="401.53" y1="35.4" x2="420.57" y2="35.4"/><line class="cls-3" x1="401.53" y1="39.39" x2="426.61" y2="39.39"/><polygon class="cls-7" points="411.61 8 407.2 10.6 407.2 16.71 411.61 16.71 416.03 16.71 416.03 10.6 411.61 8"/><path class="cls-8" d="M411.12,6.33,406.2,9.51a.9.9,0,0,0-.33,1.13h0a.91.91,0,0,0,1.33.38l3.91-2.64a.89.89,0,0,1,1,0L416,11a.91.91,0,0,0,1.33-.38h0A.9.9,0,0,0,417,9.51L412.1,6.33A.91.91,0,0,0,411.12,6.33Z"/><polygon class="cls-8" points="416.03 16.71 416.03 13.07 417.39 14.43 417.39 16.71 416.03 16.71"/><polygon class="cls-8" points="407.2 16.71 407.2 13.07 405.83 14.43 405.83 16.71 407.2 16.71"/><polygon class="cls-8" points="411.61 12.68 408.95 12.68 408.95 16.71 411.61 16.71 414.27 16.71 414.27 12.68 411.61 12.68"/><polygon class="cls-7" points="407.32 8.78 407.32 6.76 408.4 6.76 408.4 8.09 407.32 8.78"/><path class="cls-8" d="M409.81,4.69a1,1,0,0,1-1.47.83.48.48,0,0,1-1-.09.54.54,0,0,1,.05-.21h0a.75.75,0,0,1-.6-.74.77.77,0,0,1,.76-.77.78.78,0,0,1,.58.27,1,1,0,0,1,.67-.27A1,1,0,0,1,409.81,4.69Z"/><line class="cls-9" x1="405.12" y1="16.71" x2="418.12" y2="16.71"/><path class="cls-10" d="M408.66,41.29v7.12a.7.7,0,0,1-.73.83h-3.6a.75.75,0,0,1-.64-.73V41.75Z"/><path class="cls-10" d="M383.8,41.29v7.12a.7.7,0,0,0,.73.83h3.6a.75.75,0,0,0,.64-.73V41.75Z"/><path class="cls-10" d="M407.05,33.58h0l-1.35-8.87s-.1-.63-1-.63h-17c-.93,0-1,.63-1,.63l-1.34,8.87h0s-2.15.05-2.15,2V40s.64,1.67,1.68,1.67h22.67c1,0,1.69-1.67,1.69-1.67V35.55C409.2,33.63,407.05,33.58,407.05,33.58Z"/><path class="cls-3" d="M388.3,37.13l-.61-1.8a2,2,0,0,0-.8-1l-.41-.28a2.1,2.1,0,0,0-1.17-.36h0a2.08,2.08,0,0,0-1.6.76h0a2.05,2.05,0,0,0-.47,1.32v4.06a2,2,0,0,0,.42,1.25h0a2.06,2.06,0,0,0,1.65.83h10.92"/><path class="cls-3" d="M385.37,33.39l1.27-8.56a.89.89,0,0,1,.88-.75h8.66"/><line class="cls-3" x1="389.24" y1="22.43" x2="389.24" y2="24.08"/><path class="cls-3" d="M384,28v2.44a.62.62,0,0,0,.62.62h1.08"/><line class="cls-3" x1="386.75" y1="31.1" x2="396.18" y2="31.1"/><line class="cls-3" x1="394.42" y1="32.77" x2="394.42" y2="37.03"/><line class="cls-3" x1="396.18" y1="32.77" x2="396.18" y2="37.03"/><path class="cls-6" d="M383.8,41.27v7.26a.72.72,0,0,0,.72.72h3.54a.72.72,0,0,0,.72-.72V41.86"/><line class="cls-3" x1="389.7" y1="44.28" x2="396.22" y2="44.28"/><path class="cls-3" d="M404.09,37.13l.61-1.8a2,2,0,0,1,.8-1l.41-.28a2.1,2.1,0,0,1,1.17-.36h0a2.06,2.06,0,0,1,1.6.76h0a2.06,2.06,0,0,1,.48,1.32v4.06a2.09,2.09,0,0,1-.42,1.25h0a2.1,2.1,0,0,1-1.66.83H396.21"/><path class="cls-3" d="M407,33.5l-1.29-8.67a.88.88,0,0,0-.88-.75h-8.65"/><line class="cls-3" x1="403.15" y1="22.43" x2="403.15" y2="24.08"/><path class="cls-3" d="M408.38,28v2.44a.62.62,0,0,1-.62.62h-1.08"/><line class="cls-3" x1="405.64" y1="31.1" x2="396.09" y2="31.1"/><line class="cls-3" x1="397.97" y1="32.77" x2="397.97" y2="37.03"/><path class="cls-6" d="M408.59,41.27v7.26a.72.72,0,0,1-.72.72h-3.54a.72.72,0,0,1-.72-.72V41.86"/><line class="cls-3" x1="402.69" y1="44.28" x2="396.18" y2="44.28"/><circle class="cls-11" cx="391.19" cy="34.97" r="1.54"/><circle class="cls-11" cx="401.2" cy="34.97" r="1.54"/><circle class="cls-2" cx="391.19" cy="34.97" r="1.58"/><circle class="cls-2" cx="401.2" cy="34.97" r="1.58"/><circle class="cls-2" cx="419.83" cy="40.44" r="7.05"/><path class="cls-5" d="M421.66,42.61a1.39,1.39,0,0,0-.42-1,4.08,4.08,0,0,0-1.47-.77,4.17,4.17,0,0,1-1.83-1,2,2,0,0,1-.52-1.45,2.1,2.1,0,0,1,.57-1.53,2.4,2.4,0,0,1,1.58-.67V35h.58v1.17a2.2,2.2,0,0,1,1.58.76,2.75,2.75,0,0,1,.56,1.82h-.69a2.1,2.1,0,0,0-.47-1.44,1.63,1.63,0,0,0-1.29-.54,1.8,1.8,0,0,0-1.28.43,1.53,1.53,0,0,0-.46,1.15,1.39,1.39,0,0,0,.43,1.09,4.15,4.15,0,0,0,1.43.73,6.47,6.47,0,0,1,1.48.66,2.1,2.1,0,0,1,.68.75,2.18,2.18,0,0,1,.23,1,2.07,2.07,0,0,1-.59,1.53,2.61,2.61,0,0,1-1.63.66v1.1h-.58v-1.1a2.61,2.61,0,0,1-1.8-.73,2.46,2.46,0,0,1-.63-1.79h.69a1.87,1.87,0,0,0,.52,1.41,2,2,0,0,0,1.47.51,2,2,0,0,0,1.34-.44A1.4,1.4,0,0,0,421.66,42.61Z"/></g><g id="aboutF-icon-5"><path class="cls-12" d="M82.72,103.55a10.52,10.52,0,0,0-4.36,4.37,10.21,10.21,0,0,0-1.85-2.51A10.49,10.49,0,0,0,74,103.55a10.42,10.42,0,0,0,4.36-4.36,10.66,10.66,0,0,0,1.85,2.5A10.41,10.41,0,0,0,82.72,103.55Z"/><path class="cls-12" d="M27.62,107.31a10.67,10.67,0,0,0-4.36,4.37,10,10,0,0,0-1.85-2.51,10.49,10.49,0,0,0-2.51-1.86A10.42,10.42,0,0,0,23.26,103a10.66,10.66,0,0,0,1.85,2.5A10.41,10.41,0,0,0,27.62,107.31Z"/><path class="cls-12" d="M14.17,94.83a10.69,10.69,0,0,0-2.51,1.86,10.4,10.4,0,0,0-1.85,2.5,10.57,10.57,0,0,0-4.36-4.36A10.32,10.32,0,0,0,8,93a10.77,10.77,0,0,0,1.85-2.51A10.3,10.3,0,0,0,11.65,93,10.43,10.43,0,0,0,14.17,94.83Z"/><rect class="cls-12" x="0.75" y="147.11" width="15.9" height="36.31" rx="1.1" transform="translate(17.4 330.53) rotate(-180)"/><path class="cls-13" d="M38.53,161.71l21.9,5.62a5.68,5.68,0,0,0,6.9-4.07h0a5.67,5.67,0,0,0-3.94-6.88L41.07,150a14.49,14.49,0,0,0-4-.56h-6.3a14.56,14.56,0,0,0-7.65,2.17l-6.49,4V179.3l9.27,3.57a8.24,8.24,0,0,0,2.94.55H55.78A8.17,8.17,0,0,0,60,182.26l35.8-21.38a6.11,6.11,0,0,0,2.14-8.31h0a6.1,6.1,0,0,0-8.22-2.24L67.58,162.61"/><path class="cls-12" d="M66.3,136.09v10.1a1,1,0,0,1-1,1.17H60.16a1.05,1.05,0,0,1-.91-1v-9.6Z"/><path class="cls-14" d="M31.05,136.09v10.1a1,1,0,0,0,1,1.17h5.1a1.05,1.05,0,0,0,.91-1v-9.6Z"/><path class="cls-10" d="M64,125.15h0l-1.91-12.57s-.14-.9-1.46-.9H36.55c-1.32,0-1.46.9-1.46.9l-1.91,12.57h0s-3.05.07-3.05,2.8v6.28s.92,2.36,2.39,2.36H64.68c1.47,0,2.39-2.36,2.39-2.36V128C67.07,125.22,64,125.15,64,125.15Z"/><path class="cls-3" d="M33.27,124.88l1.81-12.13a1.25,1.25,0,0,1,1.24-1.07H48.6"/><line class="cls-3" x1="38.77" y1="109.35" x2="38.77" y2="111.68"/><path class="cls-3" d="M31.34,117.29v3.46a.88.88,0,0,0,.88.88h1.53"/><line class="cls-15" x1="35.24" y1="121.63" x2="48.6" y2="121.63"/><line class="cls-15" x1="46.12" y1="124" x2="46.12" y2="130.05"/><line class="cls-15" x1="48.6" y1="124" x2="48.6" y2="130.05"/><path class="cls-12" d="M31.05,136.07v10.29a1,1,0,0,0,1,1h5a1,1,0,0,0,1-1V136.9"/><line class="cls-3" x1="39.42" y1="140.33" x2="48.66" y2="140.33"/><path class="cls-3" d="M64,125l-1.83-12.29a1.25,1.25,0,0,0-1.24-1.07H48.66"/><line class="cls-3" x1="58.49" y1="109.35" x2="58.49" y2="111.68"/><path class="cls-3" d="M65.91,117.29v3.46a.87.87,0,0,1-.88.88H63.5"/><line class="cls-15" x1="62.02" y1="121.63" x2="48.47" y2="121.63"/><line class="cls-15" x1="51.14" y1="124" x2="51.14" y2="130.05"/><line class="cls-3" x1="57.84" y1="140.33" x2="48.6" y2="140.33"/><circle class="cls-13" cx="41.53" cy="127.13" r="2.18"/><circle class="cls-13" cx="55.72" cy="127.13" r="2.18"/><path class="cls-3" d="M37.43,130.19l-.86-2.55a3,3,0,0,0-1.14-1.49l-.58-.4a3,3,0,0,0-1.66-.51h0a3,3,0,0,0-2.28,1.07h0a3,3,0,0,0-.67,1.88V134a2.91,2.91,0,0,0,.6,1.77h0a3,3,0,0,0,2.35,1.17H48.62"/><path class="cls-3" d="M59.83,130.19l.86-2.55a2.86,2.86,0,0,1,1.14-1.49l.58-.4a2.92,2.92,0,0,1,1.65-.51h.06a3,3,0,0,1,2.27,1.07h0a2.93,2.93,0,0,1,.68,1.88V134a2.91,2.91,0,0,1-.6,1.77h0a3,3,0,0,1-2.35,1.17H48.64"/><circle class="cls-13" cx="49.81" cy="103.55" r="13.63"/><polyline class="cls-15" points="42.29 103.75 47.63 109.09 57.82 98.9"/></g><g id="aboutF-icon-6"><path class="cls-12" d="M289.56,112.58a10.11,10.11,0,0,0-2.5,1.85,10.61,10.61,0,0,0-1.86,2.5,10.52,10.52,0,0,0-4.35-4.35,10.66,10.66,0,0,0,2.5-1.85,10.23,10.23,0,0,0,1.85-2.51,10.57,10.57,0,0,0,4.36,4.36Z"/><path class="cls-12" d="M366.66,108.22a10.42,10.42,0,0,0-4.36,4.36,10.32,10.32,0,0,0-1.85-2.51,10.9,10.9,0,0,0-2.5-1.85,10.52,10.52,0,0,0,4.35-4.35,10.87,10.87,0,0,0,1.85,2.5A10.21,10.21,0,0,0,366.66,108.22Z"/><path class="cls-12" d="M329.14,98.65a10.66,10.66,0,0,0-2.5,1.85,10.23,10.23,0,0,0-1.85,2.51,10.89,10.89,0,0,0-1.85-2.51,10.49,10.49,0,0,0-2.51-1.85,10.6,10.6,0,0,0,2.51-1.85,10.9,10.9,0,0,0,1.85-2.5,10.27,10.27,0,0,0,1.84,2.49A10.69,10.69,0,0,0,329.14,98.65Z"/><rect class="cls-12" x="272.22" y="123.32" width="98.15" height="59.37" rx="4.6"/><path class="cls-12" d="M309.19,111.14h29a1.77,1.77,0,0,1,1.77,1.77v58.61a1.77,1.77,0,0,1-1.77,1.77h-37a1.77,1.77,0,0,1-1.77-1.77V120.91Z"/><line class="cls-15" x1="334.98" y1="124.34" x2="315.72" y2="124.34"/><line class="cls-15" x1="334.98" y1="136.2" x2="303.57" y2="136.2"/><line class="cls-15" x1="334.98" y1="142.21" x2="303.57" y2="142.21"/><line class="cls-15" x1="334.98" y1="130.27" x2="303.57" y2="130.27"/><line class="cls-15" x1="334.98" y1="148.39" x2="303.57" y2="148.39"/><path class="cls-13" d="M350,157.14l1.46-8.45h-3.34l1.46,8.45A.21.21,0,0,0,350,157.14Z"/><path class="cls-13" d="M352.61,121.21V110.72a.65.65,0,0,0-.65-.65h-4.37a.65.65,0,0,0-.65.65v10.49Z"/><path class="cls-13" d="M346.94,123.05v25a.66.66,0,0,0,.65.65H352a.66.66,0,0,0,.65-.65v-25Z"/><path class="cls-13" d="M309.19,111.46v9.35a.13.13,0,0,1-.14.13h-9.32a.13.13,0,0,1-.09-.22l9.32-9.35A.13.13,0,0,1,309.19,111.46Z"/><rect class="cls-12" x="338.2" y="136.2" width="23.15" height="37.08" rx="1.12"/><path class="cls-12" d="M338.2,161.71h11.58a0,0,0,0,1,0,0v10.46a1.12,1.12,0,0,1-1.12,1.12h-9.35a1.12,1.12,0,0,1-1.12-1.12V161.71A0,0,0,0,1,338.2,161.71Z"/><path class="cls-12" d="M349.78,161.71h11.58a0,0,0,0,1,0,0v10.46a1.12,1.12,0,0,1-1.12,1.12h-9.35a1.12,1.12,0,0,1-1.12-1.12V161.71A0,0,0,0,1,349.78,161.71Z"/><rect class="cls-12" x="338.2" y="150.13" width="11.58" height="11.58"/><rect class="cls-12" x="349.78" y="150.13" width="11.58" height="11.58"/><line class="cls-16" x1="343.99" y1="159.58" x2="343.99" y2="152.26"/><line class="cls-16" x1="340.32" y1="155.92" x2="347.65" y2="155.92"/><line class="cls-16" x1="346.58" y1="170.09" x2="341.4" y2="164.9"/><line class="cls-16" x1="341.4" y1="170.09" x2="346.58" y2="164.91"/><line class="cls-16" x1="351.9" y1="155.92" x2="359.23" y2="155.92"/><line class="cls-16" x1="351.9" y1="167.5" x2="359.23" y2="167.5"/><circle class="cls-11" cx="355.56" cy="164.99" r="1.09"/><circle class="cls-11" cx="355.56" cy="170.2" r="1.09"/><rect class="cls-13" x="340.59" y="139.72" width="18.38" height="7.21"/><circle class="cls-12" cx="317.85" cy="157.26" r="6.94"/><path class="cls-13" d="M300.74,169.16l-1.92-7-2.63,1.23,4.16,6A.22.22,0,0,0,300.74,169.16Z"/><path class="cls-13" d="M289.64,140l-3.86-8.28a.57.57,0,0,0-.75-.27l-3.44,1.6a.58.58,0,0,0-.28.76l3.86,8.27Z"/><path class="cls-13" d="M285.85,143.56l9.18,19.7a.57.57,0,0,0,.75.27l3.45-1.61a.56.56,0,0,0,.27-.75l-9.18-19.69Z"/><rect class="cls-13" x="306.52" y="169.21" width="10.85" height="3.06" rx="0.14"/><rect class="cls-13" x="307.48" y="165.97" width="10.85" height="3.06" rx="0.14"/><rect class="cls-13" x="305.23" y="162.91" width="10.85" height="3.06" rx="0.14"/><path class="cls-17" d="M319.05,159.32a1.05,1.05,0,0,0-.27-.76,2.36,2.36,0,0,0-.9-.52,10,10,0,0,1-1.1-.48,3.42,3.42,0,0,1-.8-.55,2.05,2.05,0,0,1-.51-.72,2.33,2.33,0,0,1-.19-1,2.16,2.16,0,0,1,.64-1.62,2.62,2.62,0,0,1,1.68-.74v-1.26h.94V153a2.4,2.4,0,0,1,1.62.86,2.85,2.85,0,0,1,.58,1.86h-1.69a1.62,1.62,0,0,0-.29-1.05,1,1,0,0,0-.78-.35,1,1,0,0,0-.74.27,1,1,0,0,0-.26.76,1,1,0,0,0,.25.71,3.06,3.06,0,0,0,1,.55,12.06,12.06,0,0,1,1.15.53,3.55,3.55,0,0,1,.77.56,2.3,2.3,0,0,1,.47.72,2.45,2.45,0,0,1,.16.93,2.16,2.16,0,0,1-.62,1.62,2.7,2.7,0,0,1-1.71.73v1.17h-.93v-1.16a2.85,2.85,0,0,1-1.86-.85,2.77,2.77,0,0,1-.66-1.93h1.69A1.51,1.51,0,0,0,317,160a1.19,1.19,0,0,0,.95.37,1.17,1.17,0,0,0,.81-.27A1,1,0,0,0,319.05,159.32Z"/></g><g id="aboutF-icon-7"><path class="cls-12" d="M465.77,97.24A10.17,10.17,0,0,0,463.4,99a9.86,9.86,0,0,0-1.75,2.37A9.77,9.77,0,0,0,459.89,99a10.13,10.13,0,0,0-2.37-1.76,9.8,9.8,0,0,0,2.37-1.75,10,10,0,0,0,1.76-2.38,9.61,9.61,0,0,0,1.74,2.37A10.19,10.19,0,0,0,465.77,97.24Z"/><path class="cls-12" d="M490,90.05a9.43,9.43,0,0,0-2.37,1.75,10.13,10.13,0,0,0-1.76,2.37,10.37,10.37,0,0,0-1.75-2.37,9.75,9.75,0,0,0-2.38-1.75,10,10,0,0,0,2.38-1.76,9.86,9.86,0,0,0,1.75-2.37,10.37,10.37,0,0,0,1.75,2.37A10,10,0,0,0,490,90.05Z"/><path class="cls-12" d="M432.81,93.11a9.77,9.77,0,0,0-2.37,1.76,10.13,10.13,0,0,0-1.76,2.37,9.8,9.8,0,0,0-1.75-2.37,10.13,10.13,0,0,0-2.37-1.76A9.9,9.9,0,0,0,428.68,89a10.14,10.14,0,0,0,1.75,2.36A9.72,9.72,0,0,0,432.81,93.11Z"/><path class="cls-12" d="M480,102.43a34.06,34.06,0,0,0-18.36,5.42,33.84,33.84,0,0,0-36.74,0V159a39.21,39.21,0,0,1,36.74,0,39.19,39.19,0,0,1,36.73,0V107.85A34.07,34.07,0,0,0,480,102.43Z"/><line class="cls-15" x1="461.65" y1="107.85" x2="461.65" y2="159.01"/><path class="cls-15" d="M457.4,122.36a29.1,29.1,0,0,0-29.47,0"/><path class="cls-15" d="M427.93,136.74a29.1,29.1,0,0,1,29.47,0"/><path class="cls-15" d="M427.93,151.13a29,29,0,0,1,29.47,0"/><path class="cls-15" d="M442.67,113.27s8.11-.75,14.73,3.91"/><path class="cls-15" d="M442.67,125.61s8.11-.75,14.73,3.91"/><path class="cls-15" d="M442.67,140s8.11-.75,14.73,3.92"/><circle class="cls-13" cx="431.75" cy="114.12" r="3.06"/><circle class="cls-13" cx="431.75" cy="127.54" r="3.06"/><circle class="cls-13" cx="431.75" cy="141.93" r="3.06"/><path class="cls-15" d="M494.6,122.36a29.11,29.11,0,0,0-29.48,0"/><path class="cls-15" d="M465.12,136.74a29.11,29.11,0,0,1,29.48,0"/><path class="cls-15" d="M465.12,151.13a29.05,29.05,0,0,1,29.48,0"/><path class="cls-15" d="M479.86,113.27s8.12-.75,14.74,3.91"/><path class="cls-15" d="M479.86,125.61s8.12-.75,14.74,3.91"/><path class="cls-15" d="M479.86,140s8.12-.75,14.74,3.92"/><circle class="cls-13" cx="468.94" cy="114.12" r="3.06"/><circle class="cls-13" cx="468.94" cy="127.54" r="3.06"/><circle class="cls-13" cx="468.94" cy="141.93" r="3.06"/><circle class="cls-18" cx="461.65" cy="159.2" r="19.04"/><path class="cls-12" d="M461.65,135a24.22,24.22,0,1,0,24.21,24.21A24.21,24.21,0,0,0,461.65,135Zm0,43.25a19,19,0,1,1,19-19A19,19,0,0,1,461.65,178.24Z"/><path class="cls-12" d="M480.42,156.05c-8.38-4.62-18.77-4.15-18.77-4.15s-10.39-.47-18.78,4.15a21.12,21.12,0,0,0-.08,5.82s17.55-2.82,16.39,16.21l2.47.16,2.46-.16c-1.16-19,16.39-16.21,16.39-16.21A21.12,21.12,0,0,0,480.42,156.05Z"/><circle class="cls-13" cx="461.65" cy="159.2" r="4.15"/></g><g id="aboutF-icon-8"><path class="cls-12" d="M562.29,130.85a10.68,10.68,0,0,0-2.51,1.85,10.23,10.23,0,0,0-1.85,2.51,10.89,10.89,0,0,0-1.85-2.51,10.7,10.7,0,0,0-2.51-1.85,10.89,10.89,0,0,0,2.51-1.85,10.77,10.77,0,0,0,1.85-2.51,10.3,10.3,0,0,0,1.84,2.5A10.51,10.51,0,0,0,562.29,130.85Z"/><path class="cls-12" d="M573.43,139.55a10.89,10.89,0,0,0-2.51,1.85,10.77,10.77,0,0,0-1.85,2.51,10.32,10.32,0,0,0-1.85-2.51,10.49,10.49,0,0,0-2.51-1.85,10.48,10.48,0,0,0,2.51-1.85,10.23,10.23,0,0,0,1.85-2.51,10.66,10.66,0,0,0,1.85,2.5A10.49,10.49,0,0,0,573.43,139.55Z"/><path class="cls-12" d="M596.07,95.93a10,10,0,0,0-2.51,1.85,10.34,10.34,0,0,0-1.85,2.5,10.66,10.66,0,0,0-1.85-2.5,10.43,10.43,0,0,0-2.51-1.85,10.57,10.57,0,0,0,4.36-4.36,10.42,10.42,0,0,0,4.36,4.36Z"/><rect class="cls-12" x="554" y="103.21" width="7.85" height="19.98" rx="1.1"/><path class="cls-13" d="M571.79,122.7V116h21.69l-.25-4.81-4.06-4.31a10.81,10.81,0,0,0-3.84-2.62l-.52-.22a11,11,0,0,0-4.12-.8h-9.46a7.83,7.83,0,0,0-3,.58l-1.89.75a7.83,7.83,0,0,1-3,.58h-1.53v15.35h2.95A12.69,12.69,0,0,0,568,122a13.14,13.14,0,0,0,3.77.66"/><path class="cls-12" d="M571.79,116.24v17.85a1,1,0,0,0,1,1h37.76a1,1,0,0,0,1-1V112.4a1,1,0,0,0-1-1H582.85"/><path class="cls-13" d="M607.44,120.21a4.7,4.7,0,0,1-4.7-4.7v-.23a.18.18,0,0,0-.18-.18H581a.18.18,0,0,0-.18.18v.23a4.7,4.7,0,0,1-4.7,4.7h0a.19.19,0,0,0-.19.19v5.77a.19.19,0,0,0,.19.19h0a4.7,4.7,0,0,1,4.7,4.7v0a.19.19,0,0,0,.18.19h21.6a.19.19,0,0,0,.18-.19v0a4.7,4.7,0,0,1,4.7-4.7h0a.18.18,0,0,0,.19-.19V120.4a.18.18,0,0,0-.19-.19Z"/><path class="cls-13" d="M579.87,108.6l7,7a2.81,2.81,0,0,1,0,4h0a2.81,2.81,0,0,1-4,0l-5.26-5.26a6,6,0,0,1-4,1.84,6.13,6.13,0,0,1-4.54-1.84"/><circle class="cls-12" cx="591.76" cy="123.25" r="4.1"/><rect class="cls-12" x="602.27" y="140.52" width="9.35" height="21.35" rx="1.1"/><path class="cls-13" d="M589.41,149.1l-12.88,3.31a3.33,3.33,0,0,1-4-2.39h0a3.33,3.33,0,0,1,2.31-4.05l13.12-3.74a8.44,8.44,0,0,1,2.35-.33H594a8.52,8.52,0,0,1,4.5,1.28l3.81,2.36v13.9l-5.45,2.11a4.87,4.87,0,0,1-1.73.32H579.27a4.88,4.88,0,0,1-2.47-.68l-21-12.58a3.58,3.58,0,0,1-1.26-4.88h0a3.58,3.58,0,0,1,4.83-1.32l13,7.23"/><path class="cls-13" d="M594.92,103.35h8.73a2.81,2.81,0,0,1,2.81,2.81V125.9a0,0,0,0,1,0,0h-14a.32.32,0,0,1-.32-.32V106.16a2.81,2.81,0,0,1,2.81-2.81Z"/><path class="cls-12" d="M645.34,154.35V110.53a8.19,8.19,0,0,0-7.76-7.18h-38.3a7.31,7.31,0,0,1,7.18,7.18v45.1a7.25,7.25,0,0,0,1,3.8l.06.1a6.45,6.45,0,0,0,5.53,3h37.75a.15.15,0,0,0,.06-.28,9.61,9.61,0,0,1-4.08-3.32l0,0A8,8,0,0,1,645.34,154.35Z"/><line class="cls-15" x1="639.34" y1="115.15" x2="611.85" y2="115.15"/><line class="cls-15" x1="636.44" y1="120.03" x2="608.95" y2="120.03"/><line class="cls-15" x1="636.92" y1="124.49" x2="609.44" y2="124.49"/><line class="cls-15" x1="638.85" y1="129.28" x2="611.37" y2="129.28"/><line class="cls-15" x1="636.92" y1="134.45" x2="609.44" y2="134.45"/><line class="cls-15" x1="640.61" y1="139.55" x2="613.12" y2="139.55"/><line class="cls-15" x1="636.92" y1="144.65" x2="609.44" y2="144.65"/><line class="cls-15" x1="640.61" y1="148.8" x2="613.12" y2="148.8"/><path class="cls-13" d="M631.92,140.18s6.61-17.61,19-24.36a53.92,53.92,0,0,1-13.89,27.71Z"/><circle class="cls-12" cx="638.08" cy="157.24" r="3.35"/><circle class="cls-12" cx="613.12" cy="109.08" r="3.35"/><path class="cls-13" d="M636.92,143.66,634.4,142,632.46,145l1.92-2.94-2.52-1.66s-.69,1.52-3.11,1.45l-1.22,1.43s-.46,4.28-1.93,6.32l2.71,1.78h0l2.69,1.75c1.28-2.16,5-4.3,5-4.3l.82-1.69C635.81,144.9,636.92,143.66,636.92,143.66Z"/><polygon class="cls-13" points="629.78 152.3 625.23 155.77 626.53 150.18 629.78 152.3"/><path class="cls-17" d="M613.47,109.85a.37.37,0,0,0-.1-.28.89.89,0,0,0-.33-.2,3.31,3.31,0,0,1-.41-.18,1.12,1.12,0,0,1-.3-.2.77.77,0,0,1-.19-.27,1,1,0,0,1-.07-.36.82.82,0,0,1,.24-.61,1,1,0,0,1,.62-.27V107h.35v.48a.85.85,0,0,1,.6.32,1,1,0,0,1,.22.69h-.63a.59.59,0,0,0-.11-.39.34.34,0,0,0-.29-.13.35.35,0,0,0-.27.1.37.37,0,0,0-.1.28.33.33,0,0,0,.1.26,1,1,0,0,0,.35.21,3.81,3.81,0,0,1,.43.19,1.7,1.7,0,0,1,.28.21.8.8,0,0,1,.18.27.9.9,0,0,1,.06.34.85.85,0,0,1-.23.61,1,1,0,0,1-.64.27v.43h-.34v-.43a1,1,0,0,1-.69-.32,1,1,0,0,1-.25-.71h.63a.62.62,0,0,0,.12.4.47.47,0,0,0,.36.13.4.4,0,0,0,.3-.1A.37.37,0,0,0,613.47,109.85Z"/><path class="cls-17" d="M638.53,158a.44.44,0,0,0-.1-.29,1,1,0,0,0-.34-.19,4.14,4.14,0,0,1-.41-.18,1.24,1.24,0,0,1-.29-.2.83.83,0,0,1-.19-.27.94.94,0,0,1,.16-1,1,1,0,0,1,.63-.27v-.47h.34v.47a1,1,0,0,1,.61.32,1.09,1.09,0,0,1,.21.69h-.62a.62.62,0,0,0-.11-.39.4.4,0,0,0-.57,0,.45.45,0,0,0,0,.54.9.9,0,0,0,.36.2l.43.2a1.21,1.21,0,0,1,.28.21,1,1,0,0,1,.17.27.9.9,0,0,1,.06.34.78.78,0,0,1-.23.6.92.92,0,0,1-.63.27v.44h-.35v-.43a1.12,1.12,0,0,1-.69-.32,1,1,0,0,1-.24-.71h.63a.57.57,0,0,0,.12.39.45.45,0,0,0,.35.14.45.45,0,0,0,.31-.1A.37.37,0,0,0,638.53,158Z"/></g><g id="aboutF-icon-9"><path class="cls-12" d="M709.53,134.62a10.57,10.57,0,0,0-2.56,1.89,10.7,10.7,0,0,0-1.9,2.56,10.69,10.69,0,0,0-4.45-4.45,10.57,10.57,0,0,0,2.56-1.89,10.92,10.92,0,0,0,1.89-2.56,11,11,0,0,0,1.89,2.55A10.88,10.88,0,0,0,709.53,134.62Z"/><path class="cls-12" d="M732.84,114.19a10.69,10.69,0,0,0-4.45,4.45,10.57,10.57,0,0,0-1.89-2.56,10.44,10.44,0,0,0-2.56-1.89,11.06,11.06,0,0,0,2.56-1.9,10.71,10.71,0,0,0,1.89-2.56,10.5,10.5,0,0,0,1.89,2.56A10.86,10.86,0,0,0,732.84,114.19Z"/><path class="cls-12" d="M756.52,154.13a10.69,10.69,0,0,0-4.45,4.45,11.27,11.27,0,0,0-1.89-2.56,10.79,10.79,0,0,0-2.57-1.89,10.79,10.79,0,0,0,2.57-1.89,11.2,11.2,0,0,0,1.89-2.56,10.66,10.66,0,0,0,1.88,2.55A10.88,10.88,0,0,0,756.52,154.13Z"/><rect class="cls-12" x="700.62" y="153.64" width="13.12" height="29.96" rx="1.1" transform="translate(1414.36 337.24) rotate(-180)"/><path class="cls-13" d="M731.8,165.69l18.07,4.64a4.68,4.68,0,0,0,5.69-3.36h0a4.67,4.67,0,0,0-3.24-5.68L733.9,156a12.21,12.21,0,0,0-3.29-.46h-5.2a12,12,0,0,0-6.31,1.79l-5.36,3.32V180.2l7.66,3a6.66,6.66,0,0,0,2.42.45H746a6.8,6.8,0,0,0,3.46-.95L779,165a5,5,0,0,0,1.76-6.85h0a5,5,0,0,0-6.78-1.86l-18.25,10.15"/><rect class="cls-12" x="768.37" y="85.19" width="13.12" height="29.96" rx="1.1"/><path class="cls-13" d="M750.31,103.1l-18.07-4.64a4.69,4.69,0,0,0-5.7,3.36h0a4.69,4.69,0,0,0,3.25,5.68l18.42,5.25a12.21,12.21,0,0,0,3.29.46h5.2a11.94,11.94,0,0,0,6.31-1.8l5.36-3.31V88.59l-7.66-3a6.66,6.66,0,0,0-2.42-.45H736.08a6.77,6.77,0,0,0-3.46,1l-29.55,17.65a5,5,0,0,0-1.76,6.85h0a5,5,0,0,0,6.78,1.86l18.25-10.15"/><path class="cls-12" d="M764.44,135.87s-4.79-4.78-8.77-9.26-5.75-4.2-5.75-4.2H725.43a7.73,7.73,0,0,0-7.35,5.31l-2.45,7.41a5,5,0,0,0-.25,1.53v7.43h56.33C771.71,135.51,764.44,135.87,764.44,135.87Z"/><path class="cls-13" d="M747.78,126.06h7.4l9.26,9.81H747.78a.94.94,0,0,1-.94-.94V127A1,1,0,0,1,747.78,126.06Z"/><rect class="cls-19" x="766.14" y="137.04" width="5.21" height="2.91" rx="1.46"/><path class="cls-13" d="M771.41,144.09H714.67a1.71,1.71,0,1,0,0,3.42h56.74a1.71,1.71,0,1,0,0-3.42Z"/><circle class="cls-12" cx="764.44" cy="147.51" r="5.65"/><circle class="cls-19" cx="764.44" cy="147.51" r="2.24"/><circle class="cls-12" cx="722.74" cy="147.51" r="5.65"/><circle class="cls-19" cx="722.74" cy="147.51" r="2.24"/><path class="cls-13" d="M741.51,126.75v8.44a.68.68,0,0,1-.68.68H722.07a1.55,1.55,0,0,1-1.11-.46h0a1.57,1.57,0,0,1-.39-1.57l2.15-6.9a1.25,1.25,0,0,1,1.19-.88h16.92A.69.69,0,0,1,741.51,126.75Z"/><path class="cls-19" d="M714.21,138.31h1.9a.45.45,0,0,1,.45.45v1.45a.45.45,0,0,1-.45.45h-1.9a0,0,0,0,1,0,0v-2.35A0,0,0,0,1,714.21,138.31Z"/><rect class="cls-13" x="718.33" y="138.31" width="2.35" height="2.35" rx="0.37"/></g><g id="aboutF-icon-10"><path class="cls-12" d="M149.7,109.67a10,10,0,0,0-2.46,1.81,10.13,10.13,0,0,0-1.81,2.45,10.5,10.5,0,0,0-1.82-2.45,9.93,9.93,0,0,0-2.45-1.81,10.45,10.45,0,0,0,4.27-4.27,10.38,10.38,0,0,0,1.8,2.44A10.15,10.15,0,0,0,149.7,109.67Z"/><path class="cls-12" d="M183.08,89.94a10.5,10.5,0,0,0-2.45,1.82,9.93,9.93,0,0,0-1.81,2.45,10.45,10.45,0,0,0-4.27-4.27A10,10,0,0,0,177,88.13a10.48,10.48,0,0,0,1.82-2.46,9.93,9.93,0,0,0,1.8,2.45A10.31,10.31,0,0,0,183.08,89.94Z"/><path class="cls-12" d="M212.24,97.52a10.29,10.29,0,0,0-2.45,1.82,9.93,9.93,0,0,0-1.81,2.45,10.45,10.45,0,0,0-4.27-4.27,9.94,9.94,0,0,0,2.45-1.81A10.39,10.39,0,0,0,208,93.26a10.25,10.25,0,0,0,4.26,4.26Z"/><path class="cls-12" d="M196.77,98.79h-39.7a2.42,2.42,0,0,0-2.42,2.42v80.1a2.42,2.42,0,0,0,2.42,2.42h50.64a2.41,2.41,0,0,0,2.41-2.42V112.14Z"/><circle class="cls-13" cx="174.87" cy="125.1" r="14.44"/><rect class="cls-12" x="160.92" y="134.99" width="4.05" height="6.53" transform="translate(145.48 -74.72) rotate(45)"/><path class="cls-12" d="M145.77,136.46h10a0,0,0,0,1,0,0v25.91a2,2,0,0,1-2,2h-6a2,2,0,0,1-2-2V136.46A0,0,0,0,1,145.77,136.46Z" transform="translate(150.52 -62.56) rotate(45)"/><line class="cls-15" x1="166.94" y1="117.26" x2="171.09" y2="117.26"/><line class="cls-15" x1="178.82" y1="117.26" x2="182.97" y2="117.26"/><line class="cls-15" x1="165.02" y1="120.89" x2="171.09" y2="120.89"/><line class="cls-15" x1="162.68" y1="125.55" x2="187.23" y2="125.55"/><line class="cls-15" x1="162.68" y1="150.31" x2="202.57" y2="150.31"/><line class="cls-15" x1="162.68" y1="158.56" x2="182.97" y2="158.56"/><line class="cls-15" x1="181.85" y1="143.43" x2="202.14" y2="143.43"/><line class="cls-15" x1="188.64" y1="134.89" x2="203.01" y2="134.89"/><line class="cls-15" x1="192.5" y1="128.38" x2="206.88" y2="128.38"/><line class="cls-15" x1="192.5" y1="121.87" x2="206.88" y2="121.87"/><line class="cls-15" x1="192.06" y1="115.36" x2="206.43" y2="115.36"/><line class="cls-15" x1="162.68" y1="165.85" x2="177.01" y2="165.85"/><line class="cls-15" x1="162.68" y1="172.96" x2="178.82" y2="172.96"/><line class="cls-15" x1="165.02" y1="129.48" x2="184.88" y2="129.48"/><line class="cls-15" x1="168.65" y1="133.14" x2="181.25" y2="133.14"/><line class="cls-15" x1="178.82" y1="120.89" x2="184.88" y2="120.89"/><circle class="cls-13" cx="192.5" cy="167.78" r="10.07"/><polyline class="cls-20" points="187.67 167.97 191.28 171.58 198.21 164.65"/><path class="cls-5" d="M175.8,120.8a1,1,0,0,0-.13-.71,1.85,1.85,0,0,0-.8-.57,7.3,7.3,0,0,1-1-.53,2.26,2.26,0,0,1-1.11-2.13,2.36,2.36,0,0,1,.75-1.65,3.05,3.05,0,0,1,1.81-.76l.24-1.25h.92l-.24,1.29a2,2,0,0,1,1.35.89,3.06,3.06,0,0,1,.44,1.82h-1.66c.05-.92-.22-1.39-.81-1.4a1,1,0,0,0-.78.29,1.21,1.21,0,0,0-.38.77.93.93,0,0,0,.13.66,1.56,1.56,0,0,0,.71.54c.35.17.64.33.88.47a2.42,2.42,0,0,1,.55,3.91,3,3,0,0,1-1.82.74l-.23,1.17h-.91l.22-1.17a2.27,2.27,0,0,1-1.57-.89,3,3,0,0,1-.51-1.88h1.66a1.64,1.64,0,0,0,.23,1.07.92.92,0,0,0,.78.37,1.25,1.25,0,0,0,.85-.28A1.16,1.16,0,0,0,175.8,120.8Z"/></g></g></g></g></svg>