<svg xmlns="http://www.w3.org/2000/svg" viewBox="0 0 48.52 25.28"><defs><style>.cls-1{fill:#a8c0e4;stroke:#5b84c3;stroke-miterlimit:10;}.cls-2{fill:#5b84c3;}</style></defs><title>free-icon</title><g id="Layer_2" data-name="Layer 2"><g id="Layer_1-2" data-name="Layer 1"><g id="free-icon"><path class="cls-1" d="M8.33,6.64a5.59,5.59,0,0,0-1.28.94,5.72,5.72,0,0,0-.94,1.28,5.59,5.59,0,0,0-.94-1.28,5.72,5.72,0,0,0-1.28-.94A5.59,5.59,0,0,0,5.17,5.7a5.72,5.72,0,0,0,.94-1.28,5.09,5.09,0,0,0,.94,1.27A5.2,5.2,0,0,0,8.33,6.64Z"/><path class="cls-1" d="M34.5,3.29a5.25,5.25,0,0,0-2.22,2.22,5.38,5.38,0,0,0-.94-1.28,5.72,5.72,0,0,0-1.28-.94,5.39,5.39,0,0,0,1.28-1,5.4,5.4,0,0,0,.94-1.27,5.09,5.09,0,0,0,.94,1.27A5.2,5.2,0,0,0,34.5,3.29Z"/><path class="cls-1" d="M47.46,7.2a5.2,5.2,0,0,0-1.28,1,5.4,5.4,0,0,0-.94,1.27A5.56,5.56,0,0,0,43,7.2a5.09,5.09,0,0,0,1.27-.94,5,5,0,0,0,1-1.28,5.12,5.12,0,0,0,.94,1.28A4.94,4.94,0,0,0,47.46,7.2Z"/><rect class="cls-1" x="0.5" y="12.12" width="46.96" height="12.66" rx="1.71"/><path class="cls-2" d="M19.11,18.81H16.05l-.57,3.32H14.15l1.35-7.84h4.85l-.2,1.1H16.64l-.4,2.33H19.3Z"/><path class="cls-2" d="M23.62,17.5a2.92,2.92,0,0,0-.5-.05,1.5,1.5,0,0,0-1.34.69l-.7,4H19.81l1-5.82H22L21.9,17a1.66,1.66,0,0,1,1.37-.77,2.31,2.31,0,0,1,.49.08Z"/><path class="cls-2" d="M26.15,22.24a2.46,2.46,0,0,1-1.31-.38,2.23,2.23,0,0,1-.83-1,3.08,3.08,0,0,1-.2-1.41l0-.22a3.87,3.87,0,0,1,.52-1.6,2.92,2.92,0,0,1,1-1.07,2.59,2.59,0,0,1,1.37-.35A1.88,1.88,0,0,1,28.4,17a3,3,0,0,1,.42,2.07l-.08.56H25.08a1.52,1.52,0,0,0,.28,1.11,1.09,1.09,0,0,0,.9.44,2,2,0,0,0,1.52-.72l.64.68a2.37,2.37,0,0,1-1,.81A3,3,0,0,1,26.15,22.24Zm.55-5c-.68,0-1.18.46-1.52,1.44h2.41l0-.11a2,2,0,0,0,0-.49,1,1,0,0,0-.3-.6A.93.93,0,0,0,26.7,17.24Z"/><path class="cls-2" d="M31.94,22.24a2.46,2.46,0,0,1-1.31-.38,2.17,2.17,0,0,1-.83-1,3,3,0,0,1-.2-1.41l0-.22a3.73,3.73,0,0,1,.52-1.6,2.92,2.92,0,0,1,1.05-1.07,2.58,2.58,0,0,1,1.36-.35,1.89,1.89,0,0,1,1.64.81,3,3,0,0,1,.41,2.07l-.07.56H30.86a1.57,1.57,0,0,0,.29,1.11,1.07,1.07,0,0,0,.9.44,2,2,0,0,0,1.52-.72l.64.68a2.37,2.37,0,0,1-1,.81A3,3,0,0,1,31.94,22.24Zm.55-5c-.68,0-1.19.46-1.52,1.44h2.41l0-.11a1.62,1.62,0,0,0,0-.49,1,1,0,0,0-.3-.6A.93.93,0,0,0,32.49,17.24Z"/></g></g></g></svg>