<svg xmlns="http://www.w3.org/2000/svg" viewBox="0 0 306 50.02"><defs><style>.cls-1{fill:#a8c0e4;}.cls-1,.cls-2{stroke:#5b84c3;stroke-miterlimit:10;}.cls-2{fill:#e8ecf7;}.cls-3{fill:#5b84c3;}</style></defs><title>page-payment</title><g id="Layer_2" data-name="Layer 2"><g id="Layer_1-2" data-name="Layer 1"><g id="page-payment"><g id="best_premium-icon"><path class="cls-1" d="M41.43,22.72a5.22,5.22,0,0,0-1.18.88,4.68,4.68,0,0,0-.88,1.19,5,5,0,0,0-.87-1.19,5.08,5.08,0,0,0-1.19-.88,5.15,5.15,0,0,0,1.19-.87,5.08,5.08,0,0,0,.87-1.19,4.75,4.75,0,0,0,.88,1.18A4.93,4.93,0,0,0,41.43,22.72Z"/><path class="cls-1" d="M11.26,5.27a4.93,4.93,0,0,0-1.18.87A5.08,5.08,0,0,0,9.2,7.33a5,5,0,0,0-.88-1.19,5.06,5.06,0,0,0-1.18-.87,4.93,4.93,0,0,0,1.18-.88A4.79,4.79,0,0,0,9.2,3.21a5.13,5.13,0,0,0,.87,1.18A5.24,5.24,0,0,0,11.26,5.27Z"/><path class="cls-1" d="M30,8a5,5,0,0,0-1.19.88A4.93,4.93,0,0,0,28,10.06a5,5,0,0,0-.87-1.19A5.08,5.08,0,0,0,25.89,8a5.15,5.15,0,0,0,1.19-.87A5.08,5.08,0,0,0,28,5.93a5,5,0,0,0,.88,1.18A4.77,4.77,0,0,0,30,8Z"/><path class="cls-2" d="M34.78,49.28H21.21A1.84,1.84,0,0,1,20,48.82L8.09,38.27A2.21,2.21,0,0,1,8,35.06H8A2.21,2.21,0,0,1,11.06,35l9.5,8.82.25-.25-3.5-5.92a2.14,2.14,0,0,1,.88-3h0a2.13,2.13,0,0,1,2.81.85l3.23,5.56a.6.6,0,0,0,.8.24l1.29-.68a.61.61,0,0,0,.32-.53V34.22h3.68l2.46,5.37a.68.68,0,0,0,.61.4h1.39Z"/><rect class="cls-1" x="34.78" y="37.83" width="4.83" height="11.45" rx="0.74"/><rect class="cls-1" x="4.22" y="31.63" width="29.37" height="2.86" rx="0.92"/><rect class="cls-2" x="7.14" y="28.84" width="23.94" height="2.79" rx="0.9"/><path class="cls-1" d="M6.18,14.31,11,18.25A1,1,0,0,0,12.54,18l5.51-9.46A1,1,0,0,1,18.94,8h.63a1,1,0,0,1,.9.52l5.38,9.3a1,1,0,0,0,1.54.28L32,14.42A1,1,0,0,1,33,14.28l.06,0a1,1,0,0,1,.58,1.15L31.46,26.13a1,1,0,0,1-1,.83H8a1,1,0,0,1-1-.81L4.52,15.33A1,1,0,0,1,5,14.25H5A1,1,0,0,1,6.18,14.31Z"/><circle class="cls-2" cx="19.2" cy="5.76" r="3.01"/><circle class="cls-2" cx="34.3" cy="12.44" r="3.01"/><circle class="cls-2" cx="3.51" cy="12.44" r="3.01"/></g><g id="premium-icon"><path class="cls-1" d="M133.26,13a5.44,5.44,0,0,0-1.25.93,5.24,5.24,0,0,0-.92,1.25,5.23,5.23,0,0,0-.92-1.25,5.17,5.17,0,0,0-1.25-.93,5.35,5.35,0,0,0,1.25-.92,5.17,5.17,0,0,0,.92-1.25,5.65,5.65,0,0,0,.92,1.25A5.65,5.65,0,0,0,133.26,13Z"/><path class="cls-1" d="M137.61,4.58a5.16,5.16,0,0,0-2.17,2.17,5.44,5.44,0,0,0-.93-1.25,5.17,5.17,0,0,0-1.25-.92,5,5,0,0,0,1.25-.93,5.14,5.14,0,0,0,.93-1.24,4.87,4.87,0,0,0,.92,1.24A5,5,0,0,0,137.61,4.58Z"/><path class="cls-1" d="M171.82,5.44a5.65,5.65,0,0,0-1.25.92,5.45,5.45,0,0,0-.92,1.25,5.65,5.65,0,0,0-.92-1.25,5.17,5.17,0,0,0-1.25-.92,5.65,5.65,0,0,0,1.25-.92,5.17,5.17,0,0,0,.92-1.25,5.41,5.41,0,0,0,.92,1.24A5.44,5.44,0,0,0,171.82,5.44Z"/><polygon class="cls-2" points="142.62 48.56 139.83 40.16 132 44.29 141.54 20.6 152.16 24.88 142.62 48.56"/><polygon class="cls-2" points="161.7 48.56 164.49 40.16 172.32 44.29 162.78 20.6 152.16 24.88 161.7 48.56"/><path class="cls-1" d="M153.72,1.53h0a1.7,1.7,0,0,1,3.26.69h0a1.7,1.7,0,0,0,2.85,1.27h0a1.7,1.7,0,0,1,2.7,2h0a1.71,1.71,0,0,0,2.09,2.32h0a1.7,1.7,0,0,1,1.67,2.89h0a1.7,1.7,0,0,0,1,3h0A1.7,1.7,0,0,1,167.6,17h0a1.7,1.7,0,0,0-.32,3.1h0a1.7,1.7,0,0,1-1,3.17h0a1.71,1.71,0,0,0-1.56,2.71h0a1.71,1.71,0,0,1-2.24,2.48h0a1.7,1.7,0,0,0-2.52,1.83h0a1.7,1.7,0,0,1-3.05,1.36h0a1.7,1.7,0,0,0-3,.65h0a1.7,1.7,0,0,1-3.34,0h0a1.7,1.7,0,0,0-3.05-.65h0a1.7,1.7,0,0,1-3.05-1.36h0a1.7,1.7,0,0,0-2.53-1.83h0a1.7,1.7,0,0,1-2.23-2.48h0a1.71,1.71,0,0,0-1.56-2.71h0a1.7,1.7,0,0,1-1-3.17h0a1.7,1.7,0,0,0-.33-3.1h0a1.7,1.7,0,0,1,.35-3.32h0a1.7,1.7,0,0,0,1-3h0a1.7,1.7,0,0,1,1.66-2.89h0a1.7,1.7,0,0,0,2.09-2.32h0a1.7,1.7,0,0,1,2.7-2h0a1.7,1.7,0,0,0,2.85-1.27h0a1.71,1.71,0,0,1,3.27-.69h0A1.7,1.7,0,0,0,153.72,1.53Z"/><path class="cls-2" d="M151.87,22.57l-4,2.12a.63.63,0,0,1-.91-.66l.77-4.48a.6.6,0,0,0-.18-.55l-3.25-3.17a.62.62,0,0,1,.34-1.06l4.5-.66a.61.61,0,0,0,.47-.34l2-4.07a.63.63,0,0,1,1.12,0l2,4.07a.6.6,0,0,0,.47.34l4.49.66a.62.62,0,0,1,.35,1.06L156.78,19a.62.62,0,0,0-.17.55l.76,4.48a.62.62,0,0,1-.9.66l-4-2.12A.66.66,0,0,0,151.87,22.57Z"/></g><g id="free-icon"><path class="cls-1" d="M265.8,19a5.09,5.09,0,0,0-1.27.94,4.81,4.81,0,0,0-.94,1.28,5.47,5.47,0,0,0-.95-1.28,5.4,5.4,0,0,0-1.27-.94,5.56,5.56,0,0,0,2.22-2.22,5.28,5.28,0,0,0,.93,1.27A5.68,5.68,0,0,0,265.8,19Z"/><path class="cls-1" d="M292,15.6a5.45,5.45,0,0,0-1.27,1,5.14,5.14,0,0,0-.95,1.27,5.45,5.45,0,0,0-2.21-2.22,5.09,5.09,0,0,0,1.27-.94,4.9,4.9,0,0,0,.94-1.27,5.89,5.89,0,0,0,.94,1.27A5.3,5.3,0,0,0,292,15.6Z"/><path class="cls-1" d="M304.93,19.52a5.36,5.36,0,0,0-1.27.94,5.42,5.42,0,0,0-1,1.28,5.25,5.25,0,0,0-2.22-2.22,5.25,5.25,0,0,0,2.22-2.22,5.4,5.4,0,0,0,2.22,2.22Z"/><rect class="cls-1" x="257.98" y="24.43" width="46.96" height="12.66" rx="1.71"/><path class="cls-3" d="M276.58,31.13h-3.05L273,34.45h-1.33L273,26.61h4.84l-.19,1.1h-3.51l-.4,2.33h3.06Z"/><path class="cls-3" d="M281.09,29.82a2.07,2.07,0,0,0-.5-.05,1.46,1.46,0,0,0-1.33.69l-.7,4h-1.28l1-5.83h1.21l-.13.66a1.66,1.66,0,0,1,1.38-.77,1.81,1.81,0,0,1,.49.08Z"/><path class="cls-3" d="M283.63,34.55a2.38,2.38,0,0,1-1.32-.38,2.13,2.13,0,0,1-.82-1,2.84,2.84,0,0,1-.2-1.41v-.22a4,4,0,0,1,.52-1.6,2.94,2.94,0,0,1,1.06-1.07,2.47,2.47,0,0,1,1.36-.35,1.89,1.89,0,0,1,1.64.81,3,3,0,0,1,.41,2.07l-.07.56h-3.67a1.57,1.57,0,0,0,.28,1.11,1.13,1.13,0,0,0,.91.44,2,2,0,0,0,1.51-.72l.65.68a2.51,2.51,0,0,1-1,.81A2.88,2.88,0,0,1,283.63,34.55Zm.54-5c-.67,0-1.18.46-1.52,1.43h2.42l0-.12a1.55,1.55,0,0,0,0-.48,1,1,0,0,0-.3-.6A1,1,0,0,0,284.17,29.56Z"/><path class="cls-3" d="M289.42,34.55a2.38,2.38,0,0,1-1.32-.38,2.13,2.13,0,0,1-.82-1,2.84,2.84,0,0,1-.2-1.41v-.22a4,4,0,0,1,.52-1.6,2.92,2.92,0,0,1,1.05-1.07,2.53,2.53,0,0,1,1.37-.35,1.89,1.89,0,0,1,1.64.81,3,3,0,0,1,.41,2.07L292,32h-3.67a1.57,1.57,0,0,0,.28,1.11,1.13,1.13,0,0,0,.9.44,2,2,0,0,0,1.52-.72l.65.68a2.51,2.51,0,0,1-1,.81A2.88,2.88,0,0,1,289.42,34.55Zm.54-5c-.67,0-1.18.46-1.52,1.43h2.42l0-.12a1.55,1.55,0,0,0,0-.48,1,1,0,0,0-.3-.6A1,1,0,0,0,290,29.56Z"/></g></g></g></g></svg>