<svg xmlns="http://www.w3.org/2000/svg" viewBox="0 0 45.44 50.02"><defs><style>.cls-1{fill:#a8c0e4;}.cls-1,.cls-2{stroke:#5b84c3;stroke-miterlimit:10;}.cls-2{fill:#e8ecf7;}</style></defs><title>premium-icon</title><g id="Layer_2" data-name="Layer 2"><g id="Layer_1-2" data-name="Layer 1"><g id="premium-icon"><path class="cls-1" d="M5.41,13a5.44,5.44,0,0,0-1.25.93,5.24,5.24,0,0,0-.92,1.25,5.23,5.23,0,0,0-.92-1.25A5.17,5.17,0,0,0,1.07,13a5.35,5.35,0,0,0,1.25-.92,5.17,5.17,0,0,0,.92-1.25,5.65,5.65,0,0,0,.92,1.25A5.65,5.65,0,0,0,5.41,13Z"/><path class="cls-1" d="M9.76,4.58A5.16,5.16,0,0,0,7.59,6.75,5.44,5.44,0,0,0,6.66,5.5a5.17,5.17,0,0,0-1.25-.92,5,5,0,0,0,1.25-.93,5.14,5.14,0,0,0,.93-1.24,4.87,4.87,0,0,0,.92,1.24A5,5,0,0,0,9.76,4.58Z"/><path class="cls-1" d="M44,5.44a5.65,5.65,0,0,0-1.25.92,5.45,5.45,0,0,0-.92,1.25,5.65,5.65,0,0,0-.92-1.25,5.17,5.17,0,0,0-1.25-.92,5.65,5.65,0,0,0,1.25-.92,5.17,5.17,0,0,0,.92-1.25,5.41,5.41,0,0,0,.92,1.24A5.44,5.44,0,0,0,44,5.44Z"/><polygon class="cls-2" points="14.77 48.56 11.98 40.16 4.15 44.29 13.69 20.6 24.31 24.88 14.77 48.56"/><polygon class="cls-2" points="33.85 48.56 36.64 40.16 44.47 44.29 34.93 20.6 24.31 24.88 33.85 48.56"/><path class="cls-1" d="M25.87,1.53h0a1.7,1.7,0,0,1,3.26.69h0A1.7,1.7,0,0,0,32,3.49h0a1.7,1.7,0,0,1,2.7,2h0a1.71,1.71,0,0,0,2.09,2.32h0a1.7,1.7,0,0,1,1.67,2.89h0a1.7,1.7,0,0,0,1,3h0A1.7,1.7,0,0,1,39.75,17h0a1.7,1.7,0,0,0-.32,3.1h0a1.7,1.7,0,0,1-1,3.17h0a1.71,1.71,0,0,0-1.56,2.71h0a1.71,1.71,0,0,1-2.24,2.48h0a1.7,1.7,0,0,0-2.52,1.83h0a1.7,1.7,0,0,1-3,1.36h0a1.7,1.7,0,0,0-3.05.65h0a1.7,1.7,0,0,1-3.34,0h0a1.7,1.7,0,0,0-3.05-.65h0a1.7,1.7,0,0,1-3.05-1.36h0A1.7,1.7,0,0,0,14,28.41h0a1.7,1.7,0,0,1-2.23-2.48h0a1.71,1.71,0,0,0-1.56-2.71h0a1.7,1.7,0,0,1-1-3.17h0A1.7,1.7,0,0,0,8.86,17h0a1.7,1.7,0,0,1,.35-3.32h0a1.7,1.7,0,0,0,1-3h0a1.7,1.7,0,0,1,1.66-2.89h0a1.7,1.7,0,0,0,2.09-2.32h0a1.7,1.7,0,0,1,2.7-2h0a1.7,1.7,0,0,0,2.85-1.27h0a1.71,1.71,0,0,1,3.27-.69h0A1.7,1.7,0,0,0,25.87,1.53Z"/><path class="cls-2" d="M24,22.57l-4,2.12a.63.63,0,0,1-.91-.66l.77-4.48a.6.6,0,0,0-.18-.55l-3.25-3.17a.62.62,0,0,1,.34-1.06l4.5-.66a.61.61,0,0,0,.47-.34l2-4.07a.63.63,0,0,1,1.12,0l2,4.07a.6.6,0,0,0,.47.34l4.49.66a.62.62,0,0,1,.35,1.06L28.93,19a.62.62,0,0,0-.17.55L29.52,24a.62.62,0,0,1-.9.66l-4-2.12A.66.66,0,0,0,24,22.57Z"/></g></g></g></svg>