<svg xmlns="http://www.w3.org/2000/svg" viewBox="0 0 308.38 48.91"><defs><style>.cls-1,.cls-13,.cls-7{fill:#a8c0e4;}.cls-1,.cls-10,.cls-2,.cls-6,.cls-7,.cls-8,.cls-9{stroke:#5b84c3;}.cls-1,.cls-10,.cls-2,.cls-3,.cls-6,.cls-7,.cls-8,.cls-9{stroke-miterlimit:10;}.cls-1,.cls-10,.cls-3,.cls-4{stroke-width:0.75px;}.cls-10,.cls-2,.cls-8{fill:none;}.cls-3,.cls-4{fill:#80cbec;stroke:#265387;}.cls-4{stroke-linejoin:round;}.cls-5{fill:#b4e2ea;}.cls-11,.cls-6{fill:#e8ecf7;}.cls-10,.cls-8{stroke-linecap:round;}.cls-9{fill:#dbe8b5;}.cls-12{fill:#5b84c3;}</style></defs><title>wish-page</title><g id="Layer_2" data-name="Layer 2"><g id="Layer_1-2" data-name="Layer 1"><g id="wish-page"><g id="aboutW-icon-1"><rect class="cls-1" x="0.5" y="0.5" width="46.54" height="36.92" rx="3.36" transform="translate(47.54 37.92) rotate(-180)"/><rect class="cls-2" x="0.5" y="0.5" width="46.54" height="36.92" rx="3.36" transform="translate(47.54 37.92) rotate(-180)"/><rect class="cls-3" x="21.46" y="37.42" width="4.62" height="5" transform="translate(47.54 79.85) rotate(-180)"/><path class="cls-4" d="M18.41,42.45H29.13a0,0,0,0,1,0,0v1.48a2.28,2.28,0,0,1-2.28,2.28H20.69a2.28,2.28,0,0,1-2.28-2.28V42.45A0,0,0,0,1,18.41,42.45Z" transform="translate(47.54 88.66) rotate(-180)"/><rect class="cls-5" x="21.96" y="37.91" width="1.81" height="4.02" transform="translate(45.73 79.85) rotate(-180)"/><path class="cls-5" d="M8.77,3.2A2.59,2.59,0,0,0,6.85,5.68v26.9s-.1,2.15,1.92,2.15h-5a.48.48,0,0,1-.5-.47V3.68a.49.49,0,0,1,.5-.48Z"/><rect class="cls-6" x="2.81" y="2.71" width="41.92" height="32.5" rx="1.26" transform="translate(47.54 37.92) rotate(-180)"/><path class="cls-7" d="M42.08,28.07V5H39.25S37.61,4.72,34,8.85s-8.06,8.52-8.06,8.52-6.68-.33-6.68,7.56H42.08"/><path class="cls-6" d="M17.91,24.93H41.16a.92.92,0,0,1,.92.92v1.31a.92.92,0,0,1-.92.92H17.91a0,0,0,0,1,0,0V24.93a0,0,0,0,1,0,0Z" transform="translate(59.99 53) rotate(-180)"/><polygon class="cls-6" points="42.08 8.35 34.41 8.35 25.89 17.37 42.08 17.37 42.08 8.35"/><line class="cls-8" x1="25.89" y1="17.37" x2="20.31" y2="7.65"/><rect class="cls-9" x="19.54" y="18.45" width="4.79" height="2.68" rx="1.34" transform="translate(43.87 39.57) rotate(180)"/><circle class="cls-7" cx="25.89" cy="28.07" r="5.19"/><circle class="cls-6" cx="25.89" cy="28.07" r="2.06"/><path class="cls-7" d="M43.28,42.5a5.58,5.58,0,0,1-5.58,5.58H11.54a5.58,5.58,0,1,1,0-11.15,8,8,0,1,1,14.92-4.6,5.43,5.43,0,0,1,3.74-1.45,5.56,5.56,0,0,1,5.55,5.58,4.08,4.08,0,0,1-.08.85,5.72,5.72,0,0,1,2-.38A5.59,5.59,0,0,1,43.28,42.5Z"/><path class="cls-6" d="M23.25,33.29l-2.77,3.46a.17.17,0,0,0,.13.28h.91a.16.16,0,0,1,.17.16v7.68a.17.17,0,0,0,.17.16h3a.17.17,0,0,0,.17-.16V37.19a.16.16,0,0,1,.17-.16h.91a.17.17,0,0,0,.13-.28l-2.77-3.46A.17.17,0,0,0,23.25,33.29Z"/><path class="cls-1" d="M28.38,8.35a5.11,5.11,0,0,0-2.06,2.06,4.93,4.93,0,0,0-.87-1.18,5.08,5.08,0,0,0-1.19-.88,5.15,5.15,0,0,0,1.19-.87,5.39,5.39,0,0,0,.87-1.19,4.95,4.95,0,0,0,2.06,2.06Z"/><path class="cls-1" d="M10.83,23.18a5,5,0,0,0-1.18.88,4.68,4.68,0,0,0-.88,1.19,4.77,4.77,0,0,0-.88-1.19,5.05,5.05,0,0,0-1.18-.88,4.67,4.67,0,0,0,1.18-.87,5.08,5.08,0,0,0,.88-1.19,4.93,4.93,0,0,0,.87,1.18A4.69,4.69,0,0,0,10.83,23.18Z"/><path class="cls-1" d="M13.38,10.41a5.11,5.11,0,0,0-2.06,2.06,4.93,4.93,0,0,0-.88-1.18,4.79,4.79,0,0,0-1.18-.88,4.93,4.93,0,0,0,1.18-.87,5.08,5.08,0,0,0,.88-1.19,4.95,4.95,0,0,0,2.06,2.06Z"/></g><g id="aboutW-icon-2"><path class="cls-7" d="M137,19.46a5,5,0,0,0-1.19.88,4.79,4.79,0,0,0-.87,1.18,5.22,5.22,0,0,0-.88-1.18,4.79,4.79,0,0,0-1.18-.88,5.13,5.13,0,0,0,1.18-.87A5.38,5.38,0,0,0,135,17.4a4.67,4.67,0,0,0,.87,1.18A4.77,4.77,0,0,0,137,19.46Z"/><path class="cls-7" d="M138.51,7.27a5,5,0,0,0-1.19.88,4.79,4.79,0,0,0-.87,1.18,5.22,5.22,0,0,0-.88-1.18,4.79,4.79,0,0,0-1.18-.88,5.13,5.13,0,0,0,1.18-.87,5.38,5.38,0,0,0,.88-1.19,4.67,4.67,0,0,0,.87,1.18A4.77,4.77,0,0,0,138.51,7.27Z"/><path class="cls-7" d="M170.68,3.15A4.75,4.75,0,0,0,169.5,4a4.79,4.79,0,0,0-.88,1.18,5.11,5.11,0,0,0-2.06-2.06,4.93,4.93,0,0,0,1.18-.87,5.08,5.08,0,0,0,.88-1.19,4.93,4.93,0,0,0,.87,1.18A5,5,0,0,0,170.68,3.15Z"/><rect class="cls-6" x="135.72" y="25.31" width="38.19" height="23.1" rx="4.6"/><path class="cls-7" d="M168.54,8.6h-.87a2.61,2.61,0,0,0-1.87,1.7h-.06s-1.52-6.43-4.29-7a36.66,36.66,0,0,0-13.32,0c-2.76.59-4.28,7-4.28,7h-.07a2.61,2.61,0,0,0-1.86-1.7H141a.76.76,0,0,0-.76.73v1.35c0,.7.81.77.81.77h2.39c.19,0,.12.07.12.07a6.28,6.28,0,0,0-2.32,5.29c.08,5.92,1.37,6.5,1.68,6.54s.31.27.31.27v1.67a.92.92,0,0,0,.75.95h2.17a.94.94,0,0,0,.94-.95V24a66.13,66.13,0,0,0,7.66.23,66.09,66.09,0,0,0,7.66-.23v1.32a1,1,0,0,0,1,.95h2.17a.92.92,0,0,0,.75-.95V23.62s0-.22.3-.27,1.61-.62,1.68-6.54A6.29,6.29,0,0,0,166,11.52s-.07-.07.11-.07h2.39s.82-.07.82-.77V9.33A.77.77,0,0,0,168.54,8.6Z"/><path class="cls-6" d="M162.14,5.84c-.82-1.11-3.42-1.08-7.19-1.25h-.31c-3.78.17-6.38.14-7.19,1.25a28,28,0,0,0-2,5.21c4.44-.46,9.38-.4,9.38-.4s5-.06,9.39.4A28,28,0,0,0,162.14,5.84Z"/><circle class="cls-6" cx="146.01" cy="16.52" r="2.06"/><circle class="cls-6" cx="164.05" cy="16.52" r="2.06"/><rect class="cls-6" x="151.97" y="19.27" width="5.65" height="1.81" rx="0.38"/><rect class="cls-7" x="165.53" y="20.66" width="9.34" height="2.85" transform="translate(34.24 126.82) rotate(-45)"/><path class="cls-7" d="M163.46,24.29a3.27,3.27,0,0,0-1.15,4.12l2-2a.31.31,0,0,1,.42,0l1.14,1.14a.31.31,0,0,1,0,.42l-2,2a3.26,3.26,0,1,0-.41-5.68Z"/><path class="cls-7" d="M175.83,17.59l-1.14-1.14a.28.28,0,0,1,0-.41l1.95-2a3.25,3.25,0,0,0-4.11,1.14,3.27,3.27,0,0,0,5,4.11,3.25,3.25,0,0,0,.63-3.69l-2,1.95A.28.28,0,0,1,175.83,17.59Z"/><path class="cls-7" d="M162.45,21.87a14.15,14.15,0,0,0-7.66,2.26,14.09,14.09,0,0,0-15.31,0V45.45a16.3,16.3,0,0,1,15.31,0,16.3,16.3,0,0,1,15.31,0V24.13A14.12,14.12,0,0,0,162.45,21.87Z"/><line class="cls-10" x1="154.79" y1="24.13" x2="154.79" y2="45.45"/><path class="cls-8" d="M140.74,42.64a12.12,12.12,0,0,1,12.29,0"/><path class="cls-8" d="M146.88,36.84A10.15,10.15,0,0,1,153,38.47"/><circle class="cls-6" cx="143.28" cy="36.59" r="2.22"/><path class="cls-8" d="M140.74,33a12.36,12.36,0,0,1,6.41-1.66A12.22,12.22,0,0,1,153,33"/><path class="cls-8" d="M146.88,27.15A10.23,10.23,0,0,1,153,28.78"/><circle class="cls-6" cx="143.28" cy="26.9" r="2.22"/><path class="cls-8" d="M156.25,42.64a12.1,12.1,0,0,1,12.28,0"/><path class="cls-8" d="M162.39,36.84a10.12,10.12,0,0,1,6.14,1.63"/><circle class="cls-6" cx="158.78" cy="36.59" r="2.22"/><path class="cls-8" d="M156.25,33a12.29,12.29,0,0,1,6.41-1.66A12.13,12.13,0,0,1,168.53,33"/><path class="cls-8" d="M162.39,27.15a10.21,10.21,0,0,1,6.14,1.63"/><circle class="cls-6" cx="158.78" cy="26.9" r="2.22"/></g><g id="aboutW-icon-3"><rect class="cls-1" x="282.78" y="17.12" width="4.45" height="13.91"/><rect class="cls-1" x="266.35" y="0.97" width="37.3" height="16.74" rx="1.19"/><path class="cls-7" d="M268,27.39l9-7.45a.68.68,0,0,1,1,.09L281,23.74l-10.1,8.4-3-3.8A.69.69,0,0,1,268,27.39Z"/><path class="cls-6" d="M281,23.74a3.73,3.73,0,0,1,1.75.34,3.82,3.82,0,0,1,1.34,1.05l10.18,12.23a1.76,1.76,0,0,1-.23,2.49l-.06.06a1.78,1.78,0,0,1-2.5-.23l-2.68-3.22,2.64,3.17a1.77,1.77,0,0,1-.23,2.5l-.1.09a1.78,1.78,0,0,1-2.5-.23l-2.76-3.32L288.61,42a1.77,1.77,0,0,1-.22,2.49h0a1.77,1.77,0,0,1-2.51-.22l-3.1-3.73,3.09,3.72a1.77,1.77,0,0,1-.24,2.52l-.17.13a1.78,1.78,0,0,1-2.48-.24L270.89,32.14Z"/><rect class="cls-7" x="274.16" y="35.06" width="3.18" height="6.61" rx="1.59" transform="translate(128.89 -198.16) rotate(50.24)"/><rect class="cls-7" x="276.19" y="37.5" width="3.18" height="6.61" rx="1.59" transform="translate(131.5 -198.84) rotate(50.24)"/><rect class="cls-7" x="278.23" y="39.94" width="3.18" height="6.61" rx="1.59" transform="translate(134.11 -199.52) rotate(50.24)"/><rect class="cls-7" x="280.26" y="42.38" width="3.18" height="6.61" rx="1.59" transform="translate(136.72 -200.2) rotate(50.24)"/><path class="cls-6" d="M291.32,22.23l-1.15.84a3.69,3.69,0,0,1-1.92.71l-1.52.12a3.73,3.73,0,0,0-2.1.86l-3.47,2.88a2.09,2.09,0,0,0,2.67,3.22l2.94-2.45,6.63,7.91,5.7-4.73Z"/><path class="cls-7" d="M291.32,22.23l3.75-3.12a.64.64,0,0,1,.9.08l7,8.39a.64.64,0,0,1-.08.9l-3.77,3.11Z"/><path class="cls-7" d="M266.17,36.82a5,5,0,0,0-1.19.87,5.08,5.08,0,0,0-.87,1.19,5.24,5.24,0,0,0-.88-1.19,4.79,4.79,0,0,0-1.18-.87,5.22,5.22,0,0,0,1.18-.88,5.05,5.05,0,0,0,.88-1.18,4.85,4.85,0,0,0,.87,1.18A5,5,0,0,0,266.17,36.82Z"/><path class="cls-7" d="M307.31,21.06a5.24,5.24,0,0,0-1.19.88,4.69,4.69,0,0,0-.87,1.19,5.05,5.05,0,0,0-2.06-2.07,4.85,4.85,0,0,0,1.18-.87,5.08,5.08,0,0,0,.88-1.19,5.15,5.15,0,0,0,.87,1.19A4.69,4.69,0,0,0,307.31,21.06Z"/><path class="cls-7" d="M303.06,41a5.15,5.15,0,0,0-1.19.87A5.08,5.08,0,0,0,301,43a5.24,5.24,0,0,0-.88-1.19,4.79,4.79,0,0,0-1.18-.87,5.22,5.22,0,0,0,1.18-.88,4.79,4.79,0,0,0,.88-1.18,5.13,5.13,0,0,0,.87,1.18A5,5,0,0,0,303.06,41Z"/><path class="cls-11" d="M291.88,5.2,289.57,8l1.45.32a1.46,1.46,0,0,1,1.31-.8A1.48,1.48,0,0,1,293.81,9V9h0a1.48,1.48,0,0,1-1.48,1.48,1.45,1.45,0,0,1-1.31-.8H289.3l2.58,3.13h10.37V5.21H291.88Z"/><path class="cls-12" d="M291.76,13.29a.44.44,0,0,1-.19-.1L289,10a.46.46,0,0,1,.35-.75H291a.47.47,0,0,1,.4.25,1,1,0,0,0,.91.55,1,1,0,0,0,1-1,1.05,1.05,0,0,0-1-1.06,1,1,0,0,0-.91.56.46.46,0,0,1-.5.24l-1.45-.32a.49.49,0,0,1-.34-.3.46.46,0,0,1,.08-.44l2.32-2.81a.47.47,0,0,1,.13-.11l.14,0h10.45a.47.47,0,0,1,.46.37v7.73a.45.45,0,0,1-.48.46H291.88Zm-1.48-3.11,1.82,2.22h9.69V5.66h-9.7l-1.7,2.06.41.09a1.9,1.9,0,0,1,1.52-.74,2,2,0,1,1-1.57,3.11Z"/><path class="cls-13" d="M290.33,8.07l-.05,0a.14.14,0,0,1,0-.21l1.58-2a.58.58,0,0,1,.46-.22h9.17a.14.14,0,0,1,.15.15.15.15,0,0,1-.15.15H292.3a.27.27,0,0,0-.22.11L290.49,8A.14.14,0,0,1,290.33,8.07Z"/><path class="cls-12" d="M299.09,7.47a4.63,4.63,0,0,0-1-.2V8.66l.12,0a2.09,2.09,0,0,1,1.13.73,1.19,1.19,0,0,1,.12.54,1.43,1.43,0,0,1-.08.51,1,1,0,0,1-.5.56,1.9,1.9,0,0,1-.79.22v.57h-.37v-.56a3.77,3.77,0,0,1-.81-.13l-.51-.17.17-.52.36.14a4,4,0,0,0,.79.14V9.17l-.37-.1c-.73-.18-1.09-.58-1.09-1.19a.93.93,0,0,1,.14-.51,1.54,1.54,0,0,1,.29-.32,1.74,1.74,0,0,1,1-.29V6.23h.36v.54a3.22,3.22,0,0,1,1,.16c.13,0,.19.06.18.08Zm-1.41,1.09V7.27a1,1,0,0,0-.74.2.62.62,0,0,0-.15.4.52.52,0,0,0,.13.35,1.38,1.38,0,0,0,.5.27Zm.37.71v1.44a.85.85,0,0,0,.58-.2.62.62,0,0,0,.21-.49.58.58,0,0,0-.23-.49A2.5,2.5,0,0,0,298.05,9.27Z"/><path class="cls-12" d="M281.06,9.26a.46.46,0,0,1-.26-.2.45.45,0,0,1,.14-.63c.06,0,6.18-3.84,10.82,0a.46.46,0,1,1-.59.7c-4.13-3.45-9.68,0-9.74,0A.45.45,0,0,1,281.06,9.26Z"/><path class="cls-11" d="M285.64,5.84h-.54a1.58,1.58,0,0,0-1.14,1h0s-.94-4-2.64-4.32a22.31,22.31,0,0,0-8.2,0c-1.7.36-2.64,4.32-2.64,4.32h0a1.58,1.58,0,0,0-1.14-1h-.54a.46.46,0,0,0-.47.45v.83c0,.43.5.47.5.47h1.47c.11,0,.07,0,.07,0a3.88,3.88,0,0,0-1.43,3.26c.05,3.64.85,4,1,4s.19.16.19.16v1a.56.56,0,0,0,.46.58h1.33a.58.58,0,0,0,.59-.58v-.82a40.14,40.14,0,0,0,4.71.15,40.14,40.14,0,0,0,4.71-.15v.82a.58.58,0,0,0,.59.58h1.33a.56.56,0,0,0,.46-.58v-1s0-.13.19-.16,1-.39,1-4a3.88,3.88,0,0,0-1.43-3.26s0,0,.07,0h1.47s.5,0,.5-.47V6.29A.46.46,0,0,0,285.64,5.84Z"/><path class="cls-12" d="M282.48,17a.9.9,0,0,1-.92-.91v-.45c-1.54.16-4.26.11-4.39.1a43.63,43.63,0,0,1-4.37-.1v.44a.9.9,0,0,1-.92.92h-1.33a.91.91,0,0,1-.8-.92v-.88c-.55-.17-1.18-1.09-1.22-4.33a4.07,4.07,0,0,1,1-3h-.78a.84.84,0,0,1-.84-.8V6.29a.81.81,0,0,1,.81-.79h.54a1.88,1.88,0,0,1,1.05.6c.37-1.23,1.26-3.56,2.7-3.87a23.07,23.07,0,0,1,8.34,0c1.44.31,2.33,2.64,2.7,3.87a1.8,1.8,0,0,1,1-.59h.59a.8.8,0,0,1,.81.77v.85a.83.83,0,0,1-.81.8h-.81a4.13,4.13,0,0,1,1,3c-.05,3.34-.75,4.14-1.22,4.29v.88a.89.89,0,0,1-.75.91ZM270.22,7.26a.37.37,0,0,1,.38.22l.09.21-.17.18a3.54,3.54,0,0,0-1.32,3c0,3.43.75,3.74.75,3.74a.5.5,0,0,1,.47.51v1a.23.23,0,0,0,.19.26h1.27c.16,0,.24-.09.25-.26V14.91l.39.06a40.49,40.49,0,0,0,4.65.14,40.73,40.73,0,0,0,4.67-.14l.39-.06v1.2a.23.23,0,0,0,.25.25h1.33s.13-.07.13-.25v-1a.5.5,0,0,1,.47-.49s.71-.32.75-3.7a3.56,3.56,0,0,0-1.31-3l-.18-.15.08-.25a.4.4,0,0,1,.39-.22h1.47s.17,0,.17-.14V6.29a.12.12,0,0,0-.14-.12h-.54a1.35,1.35,0,0,0-.83.84l-.09.22-.49,0-.1-.24c-.25-1-1.16-3.81-2.38-4.07a22.13,22.13,0,0,0-8.06,0c-1.22.26-2.13,3-2.38,4.07l-.06.24-.49,0L270.09,7a1.26,1.26,0,0,0-.89-.84h-.48c-.09,0-.13,0-.14.14v.81c0,.11.17.13.2.14Zm-.47,7.82v0Zm14.86,0v0Z"/><path class="cls-1" d="M281.7,4.13c-.5-.68-2.1-.66-4.42-.77h-.2c-2.32.11-3.92.09-4.42.77a17.33,17.33,0,0,0-1.25,3.21c2.73-.28,5.77-.25,5.77-.25s3,0,5.77.25A17.33,17.33,0,0,0,281.7,4.13Z"/><path class="cls-12" d="M283,7.67h0a68.76,68.76,0,0,0-11.48,0,.34.34,0,0,1-.36-.43,17,17,0,0,1,1.31-3.31c.54-.73,1.87-.79,3.89-.87l.79,0h.22l.79,0c2,.08,3.35.14,3.89.87a16.23,16.23,0,0,1,1.3,3.31.32.32,0,0,1-.06.31A.32.32,0,0,1,283,7.67Zm-5.43-.91c.8,0,2.92,0,5,.2a13.09,13.09,0,0,0-1.06-2.63h0c-.35-.48-1.69-.53-3.38-.6l-.79,0h-.16l-.79,0c-1.69.07-3,.12-3.38.6A13.09,13.09,0,0,0,271.87,7c2.58-.23,5.28-.2,5.31-.2Z"/><circle class="cls-11" cx="271.78" cy="10.71" r="1.27"/><path class="cls-12" d="M271.78,12.31a1.61,1.61,0,1,1,1.6-1.6A1.61,1.61,0,0,1,271.78,12.31Zm0-2.54a.94.94,0,1,0,.93.94A.94.94,0,0,0,271.78,9.77Z"/><circle class="cls-11" cx="282.88" cy="10.71" r="1.27"/><path class="cls-12" d="M282.88,12.31a1.61,1.61,0,1,1,1.6-1.6A1.61,1.61,0,0,1,282.88,12.31Zm0-2.54a.94.94,0,1,0,.94.94A.94.94,0,0,0,282.88,9.77Z"/><path class="cls-12" d="M278.66,13.85h-3a.58.58,0,0,1-.59-.59v-.6a.59.59,0,0,1,.59-.59h3a.59.59,0,0,1,.59.59v.6A.58.58,0,0,1,278.66,13.85Zm-2.89-.66h2.82v-.45h-2.82Z"/></g></g></g></g></svg>